<svg width="100" height="100" viewBox="0 0 100 100" fill="none" xmlns="http://www.w3.org/2000/svg">
<g clip-path="url(#clip0)">
<path d="M49.1926 96.4501C39.9344 96.4501 30.8842 93.7047 23.1863 88.5612C15.4885 83.4176 9.48873 76.1069 5.94579 67.5535C2.40285 59.0001 1.47586 49.5882 3.28203 40.5079C5.0882 31.4277 9.54643 23.0869 16.0929 16.5404C22.6394 9.99393 30.9802 5.53571 40.0604 3.72954C49.1407 1.92337 58.5526 2.85036 67.106 6.3933C75.6594 9.93624 82.9701 15.936 88.1137 23.6339C93.2572 31.3317 96.0026 40.382 96.0026 49.6401C96.003 55.7874 94.7925 61.8746 92.4403 67.554C90.088 73.2335 86.64 78.3939 82.2932 82.7407C77.9464 87.0875 72.7859 90.5355 67.1065 92.8878C61.4271 95.24 55.3399 96.4505 49.1926 96.4501V96.4501Z" fill="url(#paint0_linear)"/>
<path fill-rule="evenodd" clip-rule="evenodd" d="M95.5402 49.7103C95.5402 58.7885 92.8483 67.6628 87.8047 75.211C82.7611 82.7592 75.5925 88.6423 67.2054 92.1164C58.8183 95.5904 49.5893 96.4994 40.6856 94.7284C31.7819 92.9573 23.6033 88.5857 17.184 82.1665C10.7648 75.7473 6.39326 67.5687 4.6222 58.665C2.85114 49.7612 3.76011 40.5323 7.23417 32.1451C10.7082 23.758 16.5914 16.5894 24.1396 11.5459C31.6878 6.5023 40.5621 3.81031 49.6402 3.81031C55.6679 3.81029 61.6366 4.99751 67.2054 7.3042C72.7743 9.61088 77.8343 12.9918 82.0965 17.2541C86.3587 21.5163 89.7397 26.5763 92.0464 32.1451C94.353 37.714 95.5403 43.6826 95.5402 49.7103V49.7103ZM49.6402 0.0703125C59.4581 0.0703125 69.0555 2.98165 77.2188 8.43616C85.382 13.8907 91.7445 21.6434 95.5016 30.7139C99.2588 39.7844 100.242 49.7654 98.3264 59.3946C96.4111 69.0238 91.6833 77.8688 84.741 84.8111C77.7987 91.7534 68.9537 96.4811 59.3245 98.3965C49.6953 100.312 39.7144 99.3288 30.6438 95.5717C21.5733 91.8146 13.8206 85.4521 8.36609 77.2888C2.91158 69.1256 0.000244502 59.5282 0.000244502 49.7103C-0.000542285 43.1913 1.2829 36.7359 3.77726 30.713C6.27163 24.69 9.92805 19.2174 14.5377 14.6078C19.1474 9.99812 24.62 6.3417 30.6429 3.84734C36.6659 1.35297 43.1212 0.0695344 49.6402 0.0703225V0.0703125Z" fill="#F2F1F0"/>
<path fill-rule="evenodd" clip-rule="evenodd" d="M92.2821 49.6386C92.2821 58.161 89.7549 66.492 85.0201 73.5781C80.2853 80.6643 73.5556 86.1872 65.6819 89.4486C57.8082 92.71 49.1443 93.5633 40.7856 91.9007C32.427 90.238 24.7491 86.1341 18.7228 80.1079C12.6966 74.0816 8.59266 66.4037 6.93002 58.0451C5.26739 49.6864 6.12071 41.0225 9.38209 33.1488C12.6435 25.2751 18.1664 18.5454 25.2525 13.8106C32.3387 9.07581 40.6697 6.54862 49.1921 6.54862C54.8508 6.54828 60.4542 7.6626 65.6823 9.82795C70.9104 11.9933 75.6607 15.1673 79.6621 19.1686C83.6634 23.17 86.8374 27.9203 89.0027 33.1484C91.1681 38.3765 92.2824 43.9799 92.2821 49.6386V49.6386ZM49.1921 2.80862C58.4542 2.80862 67.5083 5.55515 75.2094 10.7009C82.9106 15.8466 88.9129 23.1605 92.4573 31.7176C96.0018 40.2746 96.9292 49.6906 95.1222 58.7747C93.3153 67.8588 88.8552 76.2031 82.3059 82.7524C75.7566 89.3017 67.4123 93.7619 58.3281 95.5688C49.244 97.3757 39.8281 96.4484 31.271 92.9039C22.7139 89.3594 15.4001 83.3571 10.2543 75.656C5.10859 67.9548 2.36206 58.9007 2.36206 49.6386C2.36325 37.2189 7.29749 25.3082 16.0796 16.5261C24.8616 7.74404 36.7723 2.80979 49.1921 2.80859V2.80862Z" fill="#0078D4"/>
<path d="M46.8495 78.7555L25.3379 57.2439H31.7595C32.8438 57.244 33.9057 56.9361 34.8219 56.3561C35.738 55.7762 36.4705 54.948 36.9344 53.9679L38.1935 51.3066L43.5051 61.521C43.9498 62.3759 44.603 63.1047 45.4043 63.64C46.2056 64.1753 47.129 64.4996 48.089 64.583C49.049 64.6665 50.0145 64.5062 50.8961 64.1172C51.7777 63.7281 52.5468 63.1229 53.1323 62.3575L59.5148 54.0108L60.633 55.2889C61.1703 55.903 61.8327 56.3952 62.5758 56.7324C63.3189 57.0695 64.1254 57.244 64.9414 57.2439H71.8438L50.3195 78.7555C49.8593 79.2156 49.2352 79.4741 48.5845 79.4741C47.9337 79.4741 47.3097 79.2156 46.8495 78.7555V78.7555Z" fill="#212121"/>
<path d="M51.2662 28.0619L48.5813 30.7526L45.888 28.0594C42.5897 24.765 38.1181 22.9151 33.4564 22.9165C28.7946 22.9179 24.3242 24.7704 21.0278 28.0667C17.7315 31.3631 15.879 35.8336 15.8777 40.4953C15.8764 45.1571 17.7263 49.6286 21.0208 52.9269L46.8498 78.7557C47.3099 79.2159 47.934 79.4744 48.5848 79.4744C49.2355 79.4744 49.8596 79.2159 50.3198 78.7557L76.1685 52.922C79.4617 49.619 81.3085 45.1435 81.303 40.4793C81.2976 35.8152 79.4403 31.344 76.1394 28.0488C72.8385 24.7535 68.3642 22.9038 63.7001 22.9063C59.0359 22.9087 54.5636 24.7631 51.2662 28.0619V28.0619Z" fill="url(#paint1_linear)"/>
<path opacity="0.2" d="M76.5189 52.5329H66.0542L61.0623 46.8278C60.8193 46.5501 60.5168 46.3308 60.1773 46.1862C59.8378 46.0416 59.47 45.9754 59.1014 45.9927C58.7328 46.0099 58.3728 46.1101 58.0483 46.2857C57.7237 46.4614 57.443 46.708 57.227 47.0071L48.9666 58.4443L40.1463 40.8036C39.9405 40.392 39.6231 40.0466 39.2303 39.8068C38.8376 39.5669 38.3853 39.4424 37.9252 39.4474C37.465 39.4524 37.0155 39.5867 36.6281 39.8349C36.2406 40.0832 35.9308 40.4354 35.734 40.8514L30.206 52.5329H20.6646C20.7865 52.6625 20.8942 52.8005 21.021 52.9272L25.5338 57.4401H31.7594C32.224 57.4401 32.6792 57.3081 33.0718 57.0595C33.4644 56.8109 33.7784 56.456 33.9772 56.036L38.0125 47.5086L46.3893 64.2622C46.5779 64.6397 46.8608 64.9621 47.2104 65.1984C47.5601 65.4346 47.9648 65.5766 48.3854 65.6107C48.806 65.6448 49.2283 65.5699 49.6115 65.3931C49.9947 65.2163 50.3257 64.9436 50.5728 64.6015L59.3998 52.3798L63.0946 56.6022C63.3248 56.8654 63.6086 57.0764 63.9271 57.2209C64.2455 57.3654 64.5912 57.4401 64.9409 57.4401H71.6484L76.1687 52.9223C76.2932 52.7971 76.3989 52.6608 76.5189 52.5329Z" fill="#003067"/>
<path d="M40.1462 37.3368C39.9404 36.9252 39.623 36.5798 39.2302 36.3399C38.8375 36.1001 38.3852 35.9756 37.9251 35.9806C37.4649 35.9856 37.0155 36.1199 36.628 36.3681C36.2405 36.6164 35.9307 36.9686 35.7339 37.3845L30.206 49.0661H18.3231C17.6733 49.0674 17.0505 49.3265 16.5914 49.7865C16.1323 50.2465 15.8745 50.8698 15.8745 51.5197C15.8745 52.1695 16.1323 52.7929 16.5914 53.2528C17.0505 53.7128 17.6733 53.9719 18.3231 53.9732H31.7593C32.224 53.9732 32.6792 53.8413 33.0718 53.5927C33.4644 53.3441 33.7784 52.9892 33.9771 52.5691L38.0124 44.0419L46.3893 60.7954C46.578 61.1729 46.8608 61.4953 47.2105 61.7316C47.5602 61.9678 47.9649 62.1098 48.3855 62.1439C48.8061 62.178 49.2284 62.1031 49.6115 61.9263C49.9947 61.7495 50.3258 61.4768 50.5728 61.1347L59.3998 48.913L63.0946 53.1354C63.3248 53.3986 63.6087 53.6096 63.9271 53.7541C64.2456 53.8986 64.5912 53.9733 64.9409 53.9732H78.8444C79.4943 53.9719 80.1171 53.7128 80.5761 53.2528C81.0352 52.7929 81.293 52.1695 81.293 51.5197C81.293 50.8698 81.0352 50.2465 80.5761 49.7865C80.1171 49.3265 79.4943 49.0674 78.8444 49.0661H66.0541L61.0623 43.3611C60.8193 43.0834 60.5168 42.864 60.1772 42.7194C59.8377 42.5748 59.47 42.5087 59.1013 42.5259C58.7327 42.5431 58.3727 42.6433 58.0482 42.8189C57.7236 42.9946 57.4429 43.2412 57.2269 43.5404L48.9665 54.9776L40.1462 37.3368Z" fill="#50E6FF"/>
<path opacity="0.2" d="M75.4552 53.5095C74.8681 53.5095 74.2932 53.4885 73.7392 53.4461C73.2719 53.4104 72.8074 53.3442 72.3488 53.248C71.9655 53.1668 71.59 53.0526 71.2265 52.9064C70.8974 52.7719 70.5824 52.605 70.2863 52.4082C69.3427 51.7634 68.3114 51.2574 67.224 50.9058C66.2514 50.598 65.249 50.3936 64.2335 50.2961C64.0746 50.2806 63.919 50.2734 63.7623 50.2734H62.0927C61.936 50.2734 61.7804 50.2806 61.6192 50.2966C60.6037 50.3941 59.6013 50.5986 58.6287 50.9069C57.5643 51.2495 56.5534 51.7404 55.626 52.3652C55.3059 52.5802 54.966 52.764 54.6108 52.9142C54.2575 53.0575 53.8918 53.1682 53.5183 53.2447C53.0529 53.3417 52.5819 53.409 52.108 53.446C51.5496 53.4885 50.9791 53.5095 50.3997 53.5095C49.1235 53.5111 47.9 54.0188 46.9976 54.9213C46.0952 55.8238 45.5876 57.0474 45.5862 58.3236L45.5884 65.1577C45.5994 65.4838 45.616 65.811 45.6347 66.1222C45.6568 66.5057 45.6921 66.8891 45.7407 67.2759C45.7969 67.7207 46.0596 69.1144 46.1677 69.5382C46.6459 71.4095 47.3962 73.2004 48.3946 74.8538C49.1248 76.0387 49.9509 77.1617 50.8647 78.2114L75.5696 53.5211C75.5307 53.5201 75.4942 53.5095 75.4552 53.5095Z" fill="#00244D"/>
<path d="M75.4558 55.7698C74.8087 55.7698 74.1766 55.7461 73.5645 55.6993C72.9996 55.6557 72.4383 55.5755 71.8838 55.4593C71.3706 55.3513 70.8679 55.1984 70.3815 55.0023C69.9036 54.8075 69.4466 54.5648 69.0175 54.278C68.253 53.7551 67.4175 53.3445 66.5364 53.0587C65.7161 52.7996 64.8707 52.6276 64.0143 52.5456C63.9296 52.5375 63.846 52.5332 63.7624 52.5332H62.0931C62.0095 52.5332 61.9261 52.5375 61.8412 52.5456C60.9843 52.6277 60.1385 52.7999 59.3177 53.0593C58.4504 53.3394 57.627 53.7405 56.8717 54.2506C56.4282 54.5478 55.9568 54.8011 55.464 55.0067C54.9838 55.2019 54.4868 55.3528 53.9791 55.4574C53.4184 55.574 52.8509 55.6548 52.28 55.6993C51.6653 55.746 51.0386 55.7695 50.3998 55.7698C49.7227 55.7698 49.0732 56.0388 48.5944 56.5176C48.1155 56.9965 47.8465 57.6459 47.8464 58.3231L47.8477 65.0842C47.8576 65.3896 47.8725 65.6951 47.8902 65.9881C47.91 66.3229 47.9412 66.6576 47.9835 66.9924C48.0273 67.3414 48.2715 68.6399 48.3575 68.9784C48.7807 70.6353 49.4448 72.2211 50.3287 73.685C51.1796 75.0921 52.1776 76.4048 53.306 77.601C54.4214 78.7818 55.6374 79.8635 56.9402 80.8338C58.1806 81.7591 59.4722 82.6137 60.8089 83.3934C61.1987 83.6206 61.6419 83.7402 62.0931 83.74H63.7624C64.2136 83.7403 64.6568 83.6206 65.0467 83.3934C66.3835 82.6137 67.6751 81.7589 68.9153 80.8332C70.2181 79.8634 71.434 78.7821 72.5495 77.6017C73.6777 76.4052 74.6758 75.0923 75.5268 73.685C76.4108 72.2211 77.075 70.6354 77.498 68.9785C77.5852 68.6399 77.8109 67.3907 77.8608 67.0703C77.9168 66.7131 77.9559 66.3563 77.9781 66C77.9992 65.6684 78.0095 65.3365 78.0092 65.0045V58.3231C78.0092 57.6459 77.7402 56.9965 77.2613 56.5176C76.7824 56.0388 76.133 55.7698 75.4558 55.7698Z" fill="#0078D4"/>
<path d="M75.4559 55.7697C74.8089 55.7697 74.1768 55.7461 73.5646 55.6993C72.9998 55.6557 72.4384 55.5755 71.884 55.4593C71.3708 55.3514 70.8681 55.1985 70.3817 55.0024C69.9037 54.8076 69.4468 54.5649 69.0177 54.278C68.2532 53.7551 67.4177 53.3445 66.5367 53.0587C65.7163 52.7996 64.8709 52.6277 64.0145 52.5457C63.9298 52.5376 63.8462 52.5332 63.7627 52.5332H62.0933C62.0098 52.5332 61.9262 52.5376 61.8415 52.5457C60.9846 52.6277 60.1388 52.7999 59.318 53.0593C58.4507 53.3395 57.6272 53.7405 56.8719 54.2506C56.4285 54.5479 55.957 54.8011 55.4643 55.0068C54.9841 55.2019 54.4871 55.3528 53.9794 55.4575C53.4187 55.574 52.8511 55.6548 52.2801 55.6993C51.6655 55.7461 51.0388 55.7696 50.4 55.7698C49.7228 55.7698 49.0734 56.0388 48.5946 56.5177C48.1157 56.9965 47.8467 57.6459 47.8467 58.3231L47.8479 65.0842C47.8579 65.3897 47.8729 65.6951 47.8903 65.9881C47.9103 66.3229 47.9414 66.6576 47.9838 66.9924C48.0275 67.3415 48.2718 68.64 48.3578 68.9785C48.7809 70.6353 49.445 72.2211 50.3289 73.685C51.1798 75.0921 52.1778 76.4048 53.3062 77.601C54.4216 78.7818 55.6376 79.8635 56.9404 80.8338C58.1808 81.7591 59.4724 82.6136 60.8091 83.3934C61.1989 83.6206 61.6421 83.7402 62.0933 83.74H63.7627C64.2139 83.7402 64.657 83.6206 65.0468 83.3934C66.3836 82.6136 67.6753 81.7589 68.9155 80.8332C70.2183 79.8633 71.4343 78.7821 72.5498 77.6016C73.678 76.4051 74.676 75.0922 75.527 73.685C76.4109 72.2211 77.075 70.6354 77.4981 68.9785C77.5854 68.64 77.8111 67.3907 77.8609 67.0703C77.917 66.7131 77.9561 66.3564 77.9781 66C77.9993 65.6684 78.0097 65.3365 78.0093 65.0045V58.3231C78.0093 57.6459 77.7402 56.9965 77.2614 56.5176C76.7826 56.0388 76.1331 55.7698 75.4559 55.7697V55.7697Z" fill="white"/>
<path d="M63.7631 55.0859C64.4411 55.1501 65.1103 55.2857 65.7598 55.4905C66.4087 55.7016 67.024 56.0049 67.5868 56.3909C68.1649 56.7794 68.7815 57.1073 69.4268 57.3696C70.0521 57.6216 70.6984 57.8181 71.3581 57.9569C72.021 58.0963 72.6924 58.1922 73.3678 58.244C74.0464 58.2962 74.7424 58.3223 75.4558 58.3223V65.0038C75.4558 65.2822 75.4471 65.5606 75.4297 65.839C75.4123 66.1174 75.3819 66.3957 75.3384 66.6741H63.7631V55.0859ZM50.4001 58.3223C51.1048 58.3223 51.7964 58.2962 52.4751 58.244C53.1547 58.1916 53.8304 58.0957 54.4978 57.9569C55.1582 57.8206 55.8047 57.624 56.4291 57.3696C57.0779 57.1008 57.6986 56.7686 58.2822 56.3779C58.8418 55.9977 59.4526 55.699 60.0961 55.4905C60.7456 55.2857 61.4148 55.1501 62.0928 55.0859V66.6741H50.5176C50.4828 66.3957 50.4567 66.1174 50.4393 65.839C50.4219 65.5606 50.4088 65.2822 50.4001 65.0038V58.3223ZM62.0927 81.1855C60.8391 80.4543 59.6279 79.6526 58.4649 78.7843C57.2808 77.9039 56.176 76.9214 55.1633 75.8482C54.1588 74.7843 53.2707 73.6162 52.5141 72.3639C51.7585 71.1141 51.1913 69.7598 50.8307 68.3445H62.0927L62.0927 81.1855ZM63.7631 68.3445H75.0251C74.6646 69.7597 74.0973 71.1141 73.3417 72.3638C72.5851 73.6162 71.6971 74.7843 70.6926 75.8481C69.6799 76.9214 68.5751 77.9039 67.391 78.7843C66.228 79.6526 65.0168 80.4543 63.7631 81.1855L63.7631 68.3445Z" fill="#0078D4"/>
</g>
<defs>
<linearGradient id="paint0_linear" x1="47.4222" y1="-15.153" x2="51.405" y2="130.615" gradientUnits="userSpaceOnUse">
<stop stop-color="#00ABDE"/>
<stop offset="1" stop-color="#007ED8"/>
</linearGradient>
<linearGradient id="paint1_linear" x1="48.5908" y1="22.9023" x2="48.5908" y2="79.4744" gradientUnits="userSpaceOnUse">
<stop stop-color="#008BF1"/>
<stop offset="0.22" stop-color="#0086EC"/>
<stop offset="0.49" stop-color="#0078DD"/>
<stop offset="0.79" stop-color="#0061C4"/>
<stop offset="1" stop-color="#004DAE"/>
</linearGradient>
<clipPath id="clip0">
<rect width="99.2799" height="99.28" fill="white"/>
</clipPath>
</defs>
</svg>
