<svg width="100" height="100" viewBox="0 0 100 100" fill="none" xmlns="http://www.w3.org/2000/svg">
<g clip-path="url(#clip0)">
<path d="M49.1926 96.4482C39.9344 96.4482 30.8842 93.7028 23.1863 88.5592C15.4885 83.4157 9.48873 76.105 5.94579 67.5516C2.40285 58.9981 1.47586 49.5862 3.28203 40.506C5.0882 31.4257 9.54643 23.085 16.0929 16.5385C22.6394 9.99198 30.9802 5.53376 40.0604 3.72759C49.1407 1.92141 58.5526 2.84841 67.106 6.39135C75.6594 9.93428 82.9701 15.934 88.1137 23.6319C93.2572 31.3298 96.0026 40.38 96.0026 49.6381C96.003 55.7854 94.7925 61.8726 92.4403 67.5521C90.088 73.2315 86.64 78.392 82.2932 82.7388C77.9464 87.0856 72.7859 90.5335 67.1065 92.8858C61.4271 95.2381 55.3399 96.4486 49.1926 96.4482V96.4482Z" fill="url(#paint0_linear)"/>
<path fill-rule="evenodd" clip-rule="evenodd" d="M95.5402 49.7103C95.5402 58.7885 92.8483 67.6628 87.8047 75.211C82.7611 82.7592 75.5925 88.6423 67.2054 92.1164C58.8183 95.5904 49.5893 96.4994 40.6856 94.7284C31.7819 92.9573 23.6033 88.5857 17.184 82.1665C10.7648 75.7473 6.39326 67.5687 4.6222 58.665C2.85114 49.7612 3.76011 40.5323 7.23417 32.1451C10.7082 23.758 16.5914 16.5894 24.1396 11.5459C31.6878 6.5023 40.5621 3.81031 49.6402 3.81031C55.6679 3.81029 61.6366 4.99751 67.2054 7.3042C72.7743 9.61088 77.8343 12.9918 82.0965 17.2541C86.3587 21.5163 89.7397 26.5763 92.0464 32.1451C94.353 37.714 95.5403 43.6826 95.5402 49.7103V49.7103ZM49.6402 0.0703129C59.4581 0.0703129 69.0555 2.98165 77.2188 8.43616C85.382 13.8907 91.7445 21.6434 95.5016 30.7139C99.2588 39.7844 100.242 49.7654 98.3264 59.3946C96.4111 69.0238 91.6833 77.8688 84.741 84.8111C77.7987 91.7534 68.9537 96.4811 59.3245 98.3965C49.6953 100.312 39.7144 99.3288 30.6438 95.5717C21.5733 91.8146 13.8206 85.4521 8.36609 77.2888C2.91158 69.1256 0.000244503 59.5282 0.000244503 49.7103C-0.000543598 43.1913 1.2829 36.7359 3.77726 30.713C6.27162 24.69 9.92805 19.2174 14.5377 14.6078C19.1474 9.99812 24.62 6.34169 30.6429 3.84733C36.6659 1.35296 43.1212 0.0695248 49.6402 0.0703129V0.0703129Z" fill="#F2F1F0"/>
<path opacity="0.2" d="M21.739 70.6342H77.5415C77.8347 70.6334 78.1156 70.5165 78.3229 70.3092C78.5302 70.1019 78.6471 69.821 78.6479 69.5278V25.9609H20.6326V69.5278C20.6334 69.821 20.7503 70.1019 20.9576 70.3092C21.1649 70.5165 21.4458 70.6334 21.739 70.6342V70.6342Z" fill="#003067"/>
<path d="M21.739 68.3569H77.5415C77.8347 68.356 78.1156 68.2392 78.3229 68.0319C78.5302 67.8246 78.6471 67.5436 78.6479 67.2504V23.6836H20.6326V67.2504C20.6334 67.5436 20.7503 67.8245 20.9576 68.0319C21.1649 68.2392 21.4458 68.356 21.739 68.3569V68.3569Z" fill="#F2F2F2"/>
<path d="M20.6326 28.5057H78.6479V23.3053C78.6482 23.1938 78.6265 23.0834 78.584 22.9804C78.5414 22.8773 78.479 22.7837 78.4001 22.7048C78.3213 22.626 78.2277 22.5635 78.1246 22.521C78.0216 22.4785 77.9111 22.4567 77.7997 22.457H21.4809C21.3694 22.4567 21.2589 22.4785 21.1559 22.521C21.0528 22.5635 20.9592 22.626 20.8804 22.7048C20.8015 22.7837 20.7391 22.8773 20.6965 22.9804C20.654 23.0834 20.6323 23.1938 20.6326 23.3053V28.5057Z" fill="#092E4C"/>
<path d="M25.0957 27.0741C25.3866 27.0732 25.6706 26.9861 25.912 26.8237C26.1533 26.6614 26.3411 26.4311 26.4516 26.162C26.562 25.8929 26.5902 25.5972 26.5326 25.312C26.4749 25.0269 26.334 24.7653 26.1277 24.5603C25.9214 24.3553 25.6589 24.216 25.3735 24.1602C25.088 24.1043 24.7924 24.1344 24.524 24.2465C24.2556 24.3587 24.0265 24.5479 23.8657 24.7903C23.7049 25.0326 23.6195 25.3172 23.6204 25.6081C23.6188 25.8018 23.656 25.9939 23.7297 26.1731C23.8034 26.3523 23.9121 26.515 24.0496 26.6515C24.187 26.7881 24.3503 26.8959 24.53 26.9684C24.7096 27.041 24.902 27.0769 25.0957 27.0741V27.0741Z" fill="#50E6FF"/>
<path d="M73.5056 32.2461H25.7642C25.1352 32.2461 24.6252 32.756 24.6252 33.3851V63.0632C24.6252 63.6922 25.1352 64.2021 25.7642 64.2021H73.5056C74.1346 64.2021 74.6445 63.6922 74.6445 63.0632V33.3851C74.6445 32.756 74.1346 32.2461 73.5056 32.2461Z" fill="#E8E8E8"/>
<path opacity="0.2" d="M50.4343 36.0195C51.0684 36.0795 51.6944 36.2064 52.3018 36.3979C52.9088 36.5954 53.4843 36.8791 54.0107 37.2401C54.5514 37.6035 55.1281 37.9102 55.7317 38.1556C56.3166 38.3913 56.9211 38.5751 57.5382 38.7048C58.1582 38.8353 58.7861 38.925 59.4179 38.9734C60.0526 39.0222 60.7036 39.0466 61.3709 39.0466V45.2961C61.3709 45.5565 61.3627 45.8169 61.3465 46.0773C61.3302 46.3377 61.3017 46.5981 61.261 46.8585H50.4343V36.0195ZM37.9353 39.0466C38.5944 39.0466 39.2414 39.0222 39.8761 38.9734C40.5118 38.9244 41.1437 38.8347 41.768 38.7049C42.3857 38.5774 42.9904 38.3935 43.5745 38.1556C44.1813 37.9041 44.7619 37.5934 45.3078 37.2279C45.8312 36.8724 46.4024 36.5929 47.0044 36.3979C47.6118 36.2064 48.2378 36.0795 48.8719 36.0195V46.8585H38.0452C38.0126 46.5981 37.9882 46.3377 37.9719 46.0774C37.9557 45.817 37.9434 45.5566 37.9353 45.2962V39.0466ZM48.8719 60.4316C47.6993 59.7477 46.5664 58.9978 45.4786 58.1857C44.3711 57.3622 43.3378 56.4432 42.3905 55.4394C41.451 54.4443 40.6203 53.3517 39.9127 52.1804C39.2059 51.0114 38.6753 49.7446 38.3381 48.4209H48.8719V60.4316ZM50.4343 48.4209H60.9681C60.6309 49.7446 60.1003 51.0114 59.3935 52.1804C58.6859 53.3517 57.8552 54.4443 56.9157 55.4394C55.9685 56.4432 54.9351 57.3621 53.8276 58.1857C52.7398 58.9978 51.6069 59.7477 50.4343 60.4316L50.4343 48.4209Z" fill="#949494"/>
<path d="M42.812 50.5966L48.6624 40.6092C48.7613 40.4404 48.9026 40.3004 49.0723 40.2031C49.242 40.1059 49.4342 40.0547 49.6298 40.0547C49.8254 40.0547 50.0176 40.1059 50.1874 40.2031C50.3571 40.3004 50.4984 40.4404 50.5972 40.6092L56.4477 50.5966C56.5475 50.7669 56.6005 50.9605 56.6015 51.1579C56.6024 51.3553 56.5512 51.5495 56.453 51.7208C56.3549 51.892 56.2132 52.0343 56.0424 52.1333C55.8716 52.2323 55.6777 52.2844 55.4803 52.2844H43.7793C43.5819 52.2844 43.388 52.2323 43.2172 52.1333C43.0464 52.0343 42.9048 51.892 42.8066 51.7207C42.7085 51.5495 42.6573 51.3553 42.6582 51.1579C42.6592 50.9605 42.7122 50.7669 42.812 50.5966V50.5966Z" fill="#FF9300"/>
<path d="M43.7796 51.5396C43.7138 51.5396 43.6492 51.5223 43.5922 51.4893C43.5353 51.4564 43.488 51.4089 43.4553 51.3519C43.4226 51.2948 43.4055 51.2301 43.4058 51.1643C43.4061 51.0985 43.4237 51.0339 43.457 50.9772L49.3073 40.9895C49.3402 40.9333 49.3874 40.8866 49.444 40.8541C49.5006 40.8217 49.5647 40.8047 49.6299 40.8047C49.6952 40.8047 49.7593 40.8218 49.8158 40.8543C49.8724 40.8867 49.9195 40.9334 49.9525 40.9897L55.8028 50.977C55.836 51.0337 55.8537 51.0983 55.854 51.1641C55.8544 51.2298 55.8373 51.2945 55.8046 51.3516C55.7719 51.4087 55.7247 51.4561 55.6678 51.4891C55.6109 51.5221 55.5463 51.5395 55.4805 51.5396H43.7796Z" fill="#FFCA00"/>
<path d="M49.6299 44.2891V47.8691" stroke="#FF9300" stroke-width="0.74743" stroke-miterlimit="10" stroke-linecap="round"/>
<path d="M49.6298 50.1356C49.9035 50.1356 50.1254 49.9138 50.1254 49.6401C50.1254 49.3664 49.9035 49.1445 49.6298 49.1445C49.3561 49.1445 49.1343 49.3664 49.1343 49.6401C49.1343 49.9138 49.3561 50.1356 49.6298 50.1356Z" fill="#FF9300"/>
<path opacity="0.4" fill-rule="evenodd" clip-rule="evenodd" d="M78.1829 60.6043C78.1829 62.9643 77.4831 65.2713 76.1719 67.2336C74.8608 69.1958 72.9972 70.7252 70.8168 71.6284C68.6365 72.5315 66.2373 72.7678 63.9226 72.3074C61.608 71.847 59.4818 70.7105 57.813 69.0417C56.1443 67.373 55.0078 65.2468 54.5474 62.9322C54.087 60.6175 54.3233 58.2183 55.2264 56.0379C56.1295 53.8576 57.659 51.994 59.6212 50.6828C61.5835 49.3717 63.8905 48.6719 66.2505 48.6719C69.4151 48.672 72.4501 49.9292 74.6878 52.167C76.9256 54.4047 78.1828 57.4397 78.1829 60.6043V60.6043Z" fill="#C7E7F1"/>
<path fill-rule="evenodd" clip-rule="evenodd" d="M54.3182 60.6029C54.3182 58.2429 55.018 55.9359 56.3291 53.9737C57.6403 52.0114 59.5039 50.482 61.6842 49.5788C63.8646 48.6757 66.2638 48.4394 68.5784 48.8998C70.8931 49.3602 73.0192 50.4967 74.688 52.1655C76.3568 53.8343 77.4932 55.9604 77.9537 58.2751C78.4141 60.5897 78.1778 62.9889 77.2746 65.1693C76.3715 67.3496 74.8421 69.2132 72.8798 70.5244C70.9175 71.8355 68.6105 72.5353 66.2505 72.5353C63.0868 72.5322 60.0535 71.2741 57.8164 69.037C55.5794 66.7999 54.3212 63.7667 54.3182 60.6029V60.6029ZM83.0951 75.5754L77.4538 69.9294C79.8624 67.0399 81.0644 63.3331 80.8096 59.5799C80.5547 55.8268 78.8628 52.3164 76.0856 49.7791C73.3085 47.2417 69.66 45.8726 65.8992 45.9568C62.1384 46.0409 58.5548 47.5718 55.8939 50.2308C53.233 52.8899 51.6997 56.4724 51.613 60.2332C51.5263 63.994 52.8928 67.6434 55.4283 70.4222C57.9638 73.2011 61.4731 74.8955 65.226 75.1529C68.9789 75.4103 72.6866 74.2109 75.5778 71.8042L81.2258 77.4502L83.0951 75.5754Z" fill="#30404D"/>
<path fill-rule="evenodd" clip-rule="evenodd" d="M64.1827 75.0447C67.8885 75.5761 71.6565 74.6587 74.7032 72.4832C74.9571 72.3023 75.267 72.2173 75.5778 72.2434C75.8885 72.2695 76.1799 72.405 76.4002 72.6258L80.2848 76.5144H82.1608L74.6832 69.0381C73.5764 70.1487 72.2615 71.0301 70.8136 71.6319C69.3658 72.2338 67.8135 72.5442 66.2456 72.5455C64.6777 72.5468 63.1249 72.2388 61.6761 71.6394C60.2273 71.0399 58.9109 70.1606 57.8023 69.0518C56.6937 67.943 55.8146 66.6265 55.2154 65.1776C54.6161 63.7287 54.3085 62.1759 54.31 60.6079C54.3115 59.04 54.6222 57.4878 55.2243 56.0401C55.8264 54.5923 56.708 53.2775 57.8188 52.1709L55.9428 50.2969C54.0255 52.2102 52.6794 54.62 52.0553 57.2558C51.4312 59.8915 51.5539 62.6491 52.4095 65.219C53.2652 67.7889 54.8201 70.0696 56.8996 71.8052C58.9792 73.5407 61.5012 74.6625 64.1828 75.0447H64.1827Z" fill="#182A37"/>
<path fill-rule="evenodd" clip-rule="evenodd" d="M81.8384 81.6447L78.5806 78.386C78.3259 78.1299 78.1829 77.7834 78.1829 77.4221C78.1829 77.0609 78.3259 76.7144 78.5806 76.4583L82.1073 72.9329C82.3637 72.6781 82.7104 72.5352 83.0718 72.5352C83.4333 72.5352 83.78 72.6781 84.0364 72.9329L87.1698 76.0672L81.8384 81.6447Z" fill="#0078D4"/>
<path fill-rule="evenodd" clip-rule="evenodd" d="M84.5035 78.8558L82.1008 76.4547C81.9783 76.3316 81.8326 76.234 81.6722 76.1673C81.5118 76.1007 81.3398 76.0664 81.1661 76.0664C80.9924 76.0664 80.8205 76.1007 80.6601 76.1673C80.4997 76.234 80.354 76.3316 80.2314 76.4547L78.4548 78.23V78.2585L81.8388 81.6436L84.5035 78.8558Z" fill="#1F56A3"/>
<path opacity="0.2" fill-rule="evenodd" clip-rule="evenodd" d="M73.2517 50.9531C74.9221 53.2492 75.718 56.0663 75.4959 58.8971C75.2739 61.7279 74.0485 64.3864 72.0405 66.394C70.0324 68.4015 67.3736 69.6263 64.5428 69.8476C61.712 70.069 58.8951 69.2725 56.5994 67.6015C57.6108 68.9995 58.9136 70.1613 60.4178 71.0067C61.922 71.8521 63.5918 72.3609 65.3118 72.4981C67.0319 72.6353 68.7612 72.3975 70.3804 71.8013C71.9996 71.205 73.4701 70.2644 74.6903 69.0444C75.9106 67.8245 76.8515 66.3542 77.4482 64.7351C78.0448 63.1161 78.283 61.3868 78.1462 59.6668C78.0094 57.9467 77.501 56.2768 76.6559 54.7724C75.8109 53.268 74.6494 51.9649 73.2517 50.9531V50.9531Z" fill="#ABDCEC"/>
<path fill-rule="evenodd" clip-rule="evenodd" d="M92.2821 49.6386C92.2821 58.161 89.7549 66.492 85.0201 73.5781C80.2853 80.6643 73.5556 86.1872 65.6819 89.4486C57.8082 92.71 49.1443 93.5633 40.7856 91.9007C32.427 90.238 24.7491 86.1341 18.7228 80.1079C12.6966 74.0816 8.59266 66.4037 6.93002 58.0451C5.26739 49.6864 6.12071 41.0225 9.38209 33.1488C12.6435 25.2751 18.1664 18.5454 25.2525 13.8106C32.3387 9.07581 40.6697 6.54862 49.1921 6.54862C54.8508 6.54828 60.4542 7.6626 65.6823 9.82795C70.9104 11.9933 75.6607 15.1673 79.6621 19.1686C83.6634 23.17 86.8374 27.9203 89.0027 33.1484C91.1681 38.3765 92.2824 43.9799 92.2821 49.6386V49.6386ZM49.1921 2.80862C58.4542 2.80862 67.5083 5.55516 75.2094 10.7009C82.9106 15.8466 88.9129 23.1605 92.4573 31.7176C96.0018 40.2746 96.9292 49.6906 95.1222 58.7747C93.3153 67.8588 88.8552 76.2031 82.3059 82.7524C75.7566 89.3017 67.4123 93.7619 58.3281 95.5688C49.244 97.3757 39.8281 96.4484 31.271 92.9039C22.7139 89.3595 15.4001 83.3571 10.2543 75.656C5.10859 67.9548 2.36206 58.9007 2.36206 49.6386C2.36325 37.2189 7.29749 25.3082 16.0796 16.5261C24.8616 7.74404 36.7723 2.80979 49.1921 2.80859V2.80862Z" fill="#0078D4"/>
</g>
<defs>
<linearGradient id="paint0_linear" x1="47.4222" y1="-15.1549" x2="51.405" y2="130.613" gradientUnits="userSpaceOnUse">
<stop stop-color="#00ABDE"/>
<stop offset="1" stop-color="#007ED8"/>
</linearGradient>
<clipPath id="clip0">
<rect width="99.2799" height="99.28" fill="white"/>
</clipPath>
</defs>
</svg>
