<svg xmlns="http://www.w3.org/2000/svg" viewBox="0 0 150 105">
  <defs>
    <style>
      .cls-1, .cls-5 {
        fill: #fff;
      }

      .cls-1, .cls-6, .cls-8 {
        stroke: #556a8a;
      }

      .cls-1, .cls-6, .cls-8, .cls-9 {
        stroke-miterlimit: 10;
        stroke-width: 2px;
      }

      .cls-2 {
        fill: #e5e5e5;
      }

      .cls-3 {
        fill: #b3b3b3;
      }

      .cls-4, .cls-6 {
        fill: none;
      }

      .cls-7 {
        fill: #556a8a;
      }

      .cls-8 {
        fill: #55d2f6;
      }

      .cls-9 {
        fill: #c2c2c2;
        stroke: #868787;
        fill-rule: evenodd;
      }
    </style>
  </defs>
  <title>ms365enterprise-admin-security-configurations-1</title>
  <g id="ICONS">
    <g>
      <g>
        <rect class="cls-1" x="15.93" y="15" width="102" height="75" rx="4" ry="4"/>
        <rect class="cls-2" x="20" y="19" width="94" height="62"/>
        <circle class="cls-3" cx="68.66" cy="84.58" r="1.46"/>
        <rect class="cls-4" x="11.07" y="9.49" width="113.72" height="86.02"/>
      </g>
      <g>
        <path class="cls-5" d="M138.93,18.25a7.51,7.51,0,0,1-.61,3,7.76,7.76,0,0,1-4.13,4.12,7.43,7.43,0,0,1-3,.61l-4.25-.5V65.61c0,3-1.88,6.89-6,6.89h-36V17.58a10.57,10.57,0,0,1,0-1.13,4.38,4.38,0,0,1,.31-1.22A7.15,7.15,0,0,1,85.93,14a7.28,7.28,0,0,1,1-1.27,2.25,2.25,0,0,1,.24-.21,7.39,7.39,0,0,1,2.23-1.45,7.88,7.88,0,0,1,3-.61h38.75a7.6,7.6,0,0,1,3,.61,7.76,7.76,0,0,1,4.13,4.12A7.51,7.51,0,0,1,138.93,18.25Z"/>
        <path class="cls-2" d="M138.93,17.75a7.51,7.51,0,0,1-.61,3,7.76,7.76,0,0,1-4.13,4.12,7.43,7.43,0,0,1-3,.61l-4.25-.5v1h-42V17.08A10.57,10.57,0,0,1,85,16a4.38,4.38,0,0,1,.31-1.22,7.15,7.15,0,0,1,.64-1.19,7.28,7.28,0,0,1,1-1.27,2.25,2.25,0,0,1,.24-.21,7.39,7.39,0,0,1,2.23-1.45,7.88,7.88,0,0,1,3-.61h38.75a7.6,7.6,0,0,1,3,.61,7.76,7.76,0,0,1,4.13,4.12A7.51,7.51,0,0,1,138.93,17.75Z"/>
        <path class="cls-6" d="M138.93,17.75a7.48,7.48,0,0,1-.61,3,7.62,7.62,0,0,1-1.66,2.46,7.82,7.82,0,0,1-2.47,1.66,7.38,7.38,0,0,1-3,.61l-4.25-.5V65.11c0,3-1.88,6.89-6,6.89h-7.88L84.93,64V17.75A15.22,15.22,0,0,1,85,16a4.3,4.3,0,0,1,.31-1.22A7.73,7.73,0,0,1,87,12.27a7.82,7.82,0,0,1,2.47-1.66,7.54,7.54,0,0,1,3-.61h38.75a7.54,7.54,0,0,1,3,.61,7.82,7.82,0,0,1,2.47,1.66,7.73,7.73,0,0,1,1.66,2.46A7.49,7.49,0,0,1,138.93,17.75Z"/>
        <path class="cls-7" d="M131.06,22.13a3.75,3.75,0,0,0,1.51-.3,3.94,3.94,0,0,0,2.06-2.06,3.94,3.94,0,0,0,0-3,3.94,3.94,0,0,0-2.06-2.06,3.94,3.94,0,0,0-3,0,3.94,3.94,0,0,0-2.06,2.06,3.75,3.75,0,0,0-.3,1.51l-.37,4.25Z"/>
        <path class="cls-8" d="M117.93,72c-3-1-5-2.89-5-8,0-6,6-8,5.43-8H85.93a8,8,0,1,0,0,16H117.2"/>
      </g>
      <path class="cls-9" d="M49.43,67.5h-.26C36.8,61.33,30.86,46.94,35.51,34.61c.26-.26.26-.51.52-.51h.77a10.45,10.45,0,0,0,5.67,1.8c2.58,0,4.38-1.54,5.67-2.57l.77-.77h1l.77.77a9.11,9.11,0,0,0,5.93,2.57,9.68,9.68,0,0,0,5.41-1.8h.77a.55.55,0,0,1,.52.51C68,46.94,62.06,61.33,49.95,67.5Z"/>
    </g>
  </g>
</svg>
