<svg xmlns="http://www.w3.org/2000/svg" viewBox="0 0 150 105">
  <defs>
    <style>
      .cls-1, .cls-7 {
        fill: none;
      }

      .cls-1, .cls-8 {
        stroke: #556a8a;
      }

      .cls-1, .cls-8, .cls-9 {
        stroke-miterlimit: 10;
        stroke-width: 2px;
      }

      .cls-2 {
        fill: #556a8a;
      }

      .cls-3 {
        fill: #2bc7f4;
      }

      .cls-4 {
        fill: #55d2f6;
      }

      .cls-5, .cls-8 {
        fill: #fff;
      }

      .cls-6 {
        fill: #e5e5e5;
      }

      .cls-9 {
        fill: #ffd055;
        stroke: #ffb900;
        fill-rule: evenodd;
      }
    </style>
  </defs>
  <title>ms365enterprise-admin-security-agile-organizations-3</title>
  <g id="ICONS">
    <g>
      <g>
        <g>
          <path class="cls-1" d="M81,81.5h34.5a13,13,0,0,0,0-26h-24a13,13,0,0,1,0-26h30.83"/>
          <polygon class="cls-2" points="115.7 37.68 114.34 36.22 121.56 29.5 114.34 22.79 115.7 21.32 124.5 29.5 115.7 37.68"/>
        </g>
        <g>
          <path class="cls-3" d="M97,42a6.5,6.5,0,0,1-13,0,6.5,6.5,0,0,1,13,0Z"/>
          <path class="cls-4" d="M97,42a6.53,6.53,0,0,1-2.24,4.92l-9.17-9.17A6.43,6.43,0,0,1,90.5,35.5,6.5,6.5,0,0,1,97,42Z"/>
        </g>
        <g>
          <path class="cls-3" d="M123.5,69a6.5,6.5,0,0,1-13,0,6.5,6.5,0,0,1,13,0Z"/>
          <path class="cls-4" d="M123.5,69a6.53,6.53,0,0,1-2.24,4.92l-9.17-9.17A6.43,6.43,0,0,1,117,62.5,6.5,6.5,0,0,1,123.5,69Z"/>
        </g>
      </g>
      <path class="cls-5" d="M74.39,19a33.85,33.85,0,0,1,.54,48.37h0A33.82,33.82,0,1,1,74.39,19Z"/>
      <path class="cls-6" d="M74.39,19a33.85,33.85,0,0,1,.54,48.37h0L27.08,19.58A33.85,33.85,0,0,1,74.39,19Z"/>
      <path class="cls-2" d="M51,11.12A32.37,32.37,0,1,1,28.1,20.6,32.29,32.29,0,0,1,51,11.12m0-2a34.35,34.35,0,1,0,23.78,9.53A34.27,34.27,0,0,0,51,9.12Z"/>
      <polygon class="cls-4" points="30.6 23.1 44.72 49.78 71.4 63.9 54.33 39.06 30.6 23.1"/>
      <polygon class="cls-3" points="30.6 23.1 71.4 63.9 57.28 37.22 30.6 23.1"/>
      <rect class="cls-7" x="15.5" y="8" width="71" height="71" transform="translate(-15.82 48.8) rotate(-45)"/>
      <line class="cls-8" x1="51" y1="14.66" x2="51" y2="22.42"/>
      <line class="cls-8" x1="51" y1="64.58" x2="51" y2="72.34"/>
      <line class="cls-8" x1="22.16" y1="42.39" x2="29.92" y2="42.39"/>
      <line class="cls-8" x1="70" y1="42.5" x2="77" y2="42.5"/>
      <circle class="cls-5" cx="51" cy="43.5" r="3.33"/>
      <path class="cls-9" d="M78.5,97.5h-.26C65.86,91.33,59.93,76.94,64.57,64.61c.26-.26.26-.51.52-.51h.77a10.45,10.45,0,0,0,5.67,1.8c2.58,0,4.38-1.54,5.67-2.57l.77-.77h1l.77.77a9.11,9.11,0,0,0,5.93,2.57,9.68,9.68,0,0,0,5.41-1.8h.77a.55.55,0,0,1,.52.51C97.06,76.94,91.13,91.33,79,97.5Z"/>
    </g>
  </g>
</svg>
