<svg id="ICONS" xmlns="http://www.w3.org/2000/svg" viewBox="0 0 150 105">
  <defs>
    <style>
      .cls-1 {
        fill: #fff;
      }

      .cls-2 {
        fill: #e5e5e5;
      }

      .cls-3 {
        fill: none;
        stroke: #556a8a;
      }

      .cls-3, .cls-4 {
        stroke-miterlimit: 10;
        stroke-width: 2px;
      }

      .cls-4 {
        fill: #c6df33;
        stroke: #bad80a;
      }

      .cls-5 {
        fill: #f3f8d6;
      }

      .cls-6 {
        fill: #c2c2c2;
      }
    </style>
  </defs>
  <title>ms365enterprise-information-end-user-work-securely-3</title>
  <g>
    <g>
      <circle class="cls-1" cx="70.09" cy="55.72" r="38.72"/>
      <path class="cls-2" d="M69.76,93.67c-21.06,0-38.33-16.78-38.49-37.4V55.16h77v1.11C108.08,76.89,90.82,93.67,69.76,93.67Z"/>
      <circle class="cls-3" cx="70.09" cy="55.72" r="38.72"/>
      <ellipse class="cls-3" cx="70.09" cy="55.72" rx="17.04" ry="38.72"/>
      <line class="cls-3" x1="31.25" y1="56" x2="109.25" y2="56"/>
    </g>
    <path class="cls-3" d="M102.37,33.71c-7.3,3.21-18.92,5.29-32,5.29s-24.7-2.08-32-5.29"/>
    <path class="cls-3" d="M102.37,78c-7.3-3.21-18.92-5.29-32-5.29s-24.7,2.08-32,5.29"/>
  </g>
  <path class="cls-4" d="M99.29,9c-.27,0-.53,0-.79,0S98,9,97.71,9A19.72,19.72,0,0,0,78,28.71c0,5.52,1,6.15,3.15,11.83C86.86,55.44,98.5,68.92,98.5,68.92s11.64-13.48,17.35-28.38C118,34.86,119,34.23,119,28.71A19.72,19.72,0,0,0,99.29,9Z"/>
  <circle class="cls-5" cx="98.5" cy="28" r="18"/>
  <g>
    <rect class="cls-3" x="92" y="13" width="12" height="16" rx="6" ry="6"/>
    <path class="cls-1" d="M108,39.17a.86.86,0,0,1-.89.83H88.89a.86.86,0,0,1-.89-.83V25.83a.86.86,0,0,1,.89-.83h18.22a.86.86,0,0,1,.89.83Z"/>
    <path class="cls-6" d="M108.25,25.71V39.87L93.18,24.8h14.15A.92.92,0,0,1,108.25,25.71Z"/>
    <path class="cls-3" d="M108,39.17a.86.86,0,0,1-.89.83H88.89a.86.86,0,0,1-.89-.83V25.83a.86.86,0,0,1,.89-.83h18.22a.86.86,0,0,1,.89.83Z"/>
  </g>
</svg>
