<svg xmlns="http://www.w3.org/2000/svg" viewBox="0 0 150 105">
  <defs>
    <style>
      .cls-1 {
        fill: #ace8f9;
        opacity: 0.7;
      }

      .cls-2, .cls-8 {
        fill: #fff;
      }

      .cls-11, .cls-2 {
        stroke: #556a8a;
      }

      .cls-11, .cls-2, .cls-4 {
        stroke-miterlimit: 10;
        stroke-width: 2px;
      }

      .cls-3 {
        fill: #ffc52b;
      }

      .cls-11, .cls-4 {
        fill: none;
      }

      .cls-4 {
        stroke: #fff;
        fill-rule: evenodd;
      }

      .cls-5 {
        fill: #ff9f2b;
      }

      .cls-6 {
        fill: #ff8c00;
      }

      .cls-7 {
        fill: #556a8a;
      }

      .cls-9 {
        fill: #e5e5e5;
      }

      .cls-10 {
        fill: #2bc7f4;
      }
    </style>
  </defs>
  <title>ms365enterprise-admin-collaboration-setup-guide-1</title>
  <g id="ICONS">
    <path class="cls-1" d="M29.2,49.85a28.34,28.34,0,0,1,56-.89,19.29,19.29,0,0,1,31,9.8,16.86,16.86,0,1,1,4,33.23H25.26A21.56,21.56,0,0,1,8.39,70.92,21.08,21.08,0,0,1,29.2,49.85Z"/>
    <g>
      <path class="cls-2" d="M8.11,39.47l4.47.67a17.31,17.31,0,0,0,.46,3L9.35,45.56a1.17,1.17,0,0,0-.66,1.59L9.8,49.88a1,1,0,0,0,1.43.49l4.49-.94,1.42,2.42-2.58,3.5a1.19,1.19,0,0,0,0,1.6l2.22,2.26a1.44,1.44,0,0,0,1.6,0l3.53-2.53c.8.48,1.76,1.12,2.55,1.61l-1,4.47A1.1,1.1,0,0,0,24.09,64l2.72,1.13a1,1,0,0,0,1.45-.46l2.43-4a9.35,9.35,0,0,0,2.87.67l.61,4.48A1.1,1.1,0,0,0,35.28,67l3-.15c.48.16,1-.32,1.12-.79l.84-4.64a9.64,9.64,0,0,0,2.88-.61l2.38,4A1.59,1.59,0,0,0,47,65.3L49.86,64a1.09,1.09,0,0,0,.65-1.27l-1.1-4.34A5.66,5.66,0,0,0,50,58c.13-.09.27-.19.4-.3.47-.35.94-.74,1.4-1l3.66,2.74a1,1,0,0,0,1.44-.15L58.27,58l.75-.75,0,0a1,1,0,0,0,.14-1.41l-2.69-3.7a13.13,13.13,0,0,0,1.78-2.71l4.46,1.3a1.42,1.42,0,0,0,1.46-.78l1.13-2.72a1.39,1.39,0,0,0-.62-1.6L60.88,43.3c.33-1,.33-1.92.66-2.87L66,39.82a1.42,1.42,0,0,0,1-1.28V35.67a1.36,1.36,0,0,0-.93-1.29l-4.65-.51a18.27,18.27,0,0,0-.61-3.21l4-2.37a1,1,0,0,0,.5-1.44l-1.11-2.72a1.49,1.49,0,0,0-1.43-.81l-4.5,1.25c-.47-.8-.94-1.61-1.42-2.41l2.75-3.66a1.48,1.48,0,0,0-.16-1.44L57.23,14.8a1.2,1.2,0,0,0-1.43-.17l-3.7,2.71c-.8-.5-1.75-1.14-2.55-1.62l1-4.48A1.07,1.07,0,0,0,49.91,10L47,8.66a1.38,1.38,0,0,0-1.45.47L43.33,13c-1,0-1.92-.33-2.88-.35L40,8a1.4,1.4,0,0,0-1.28-1l-3-.18a1.87,1.87,0,0,0-1.12,1.1l-.68,4.49c-1.12.15-2.08.47-3.2.61L28.48,9.19A1.11,1.11,0,0,0,27,8.7L24.32,9.81a1.3,1.3,0,0,0-.82,1.43l1.1,4.33a10.34,10.34,0,0,0-2.41,1.75l-3.67-2.75a1.07,1.07,0,0,0-1.61,0L15,16.47l-.17.16a1.09,1.09,0,0,0,0,1.6l2.69,3.7a7.16,7.16,0,0,0-1.37,1.85L16,24c-.1.2-.2.41-.29.63l-4.47-1.3A1.09,1.09,0,0,0,10,24l-1.3,2.88a1.63,1.63,0,0,0,.47,1.45l4,2.42a7.93,7.93,0,0,0-.51,2.72L8,34.18c-.47.17-1,.64-1,1l0,3.2A1.08,1.08,0,0,0,8.11,39.47Z"/>
      <path class="cls-3" d="M23.16,31.14A15,15,0,1,1,22,37,14.82,14.82,0,0,1,23.16,31.14Z"/>
      <polyline class="cls-4" points="26.24 37.1 33.99 44.85 48.24 30.6"/>
    </g>
    <g>
      <g>
        <g>
          <path class="cls-5" d="M74.79,81.56c-.92.3-1.9.58-2.92.86C78,57,90.06,61.6,90.06,61.6l2,1.86.07.24C92.53,65.39,94.17,75.42,74.79,81.56Z"/>
          <path class="cls-6" d="M74.79,81.56c6-20.93,16.27-18.2,17.32-17.86C92.53,65.39,94.17,75.42,74.79,81.56Z"/>
          <polygon class="cls-7" points="93.06 68.51 84.51 59.95 91.35 58.24 94.56 61.46 93.06 68.51"/>
        </g>
        <polygon class="cls-7" points="94.77 49.55 71.67 48.7 68.25 45.27 87.93 35.86 96.15 38.95 94.77 49.55"/>
        <polygon class="cls-7" points="104.55 56.53 105.4 79.63 108.83 83.05 118.24 63.37 115.15 55.15 104.55 56.53"/>
        <g>
          <path class="cls-8" d="M99.94,66.72h-.26l-.2-.19L87.29,53.82l.05-.3A50.51,50.51,0,0,1,101.19,29c11.07-11,36.87-15.64,38-15.83L140,13l-.14.84s-.45,2.69-1.38,6.6c-2.51,10.57-7,24.68-14.2,31.9C113.11,63.59,101,66.72,99.94,66.72Z"/>
          <path class="cls-9" d="M137.82,21.94c-2,8.6-6.49,23.51-14,31.1C112.63,64.26,100.49,66.6,99.87,66.72l-6.8-6.8s2.17-12.49,13.7-24C114.34,28.42,129.21,24,137.82,21.94Z"/>
          <path class="cls-10" d="M138.91,14.57A124.48,124.48,0,0,0,118.69,20l14.77,14.77A124.48,124.48,0,0,0,138.91,14.57Z"/>
          <path class="cls-11" d="M99.94,66.72h-.26l-.2-.19L87.29,53.82l.05-.3A50.51,50.51,0,0,1,101.19,29c11.07-11,36.87-15.64,38-15.83L140,13l-.14.84s-.45,2.69-1.38,6.6c-2.51,10.57-7,24.68-14.2,31.9C113.11,63.59,101,66.72,99.94,66.72Z"/>
        </g>
      </g>
      <circle class="cls-2" cx="111.81" cy="40.7" r="6.05"/>
    </g>
  </g>
</svg>
