<svg xmlns="http://www.w3.org/2000/svg" xmlns:xlink="http://www.w3.org/1999/xlink" viewBox="0 0 150 105">
  <defs>
    <style>
      .cls-1, .cls-3, .cls-8 {
        fill: none;
      }

      .cls-2 {
        fill: #80def9;
      }

      .cls-3, .cls-6 {
        stroke: #556a8a;
        stroke-width: 2px;
      }

      .cls-3, .cls-6, .cls-8 {
        stroke-miterlimit: 10;
      }

      .cls-4 {
        fill: #d1e55c;
      }

      .cls-5 {
        fill: #bad80a;
      }

      .cls-6 {
        fill: #fff;
      }

      .cls-7 {
        clip-path: url(#clip-path);
      }

      .cls-8 {
        stroke: #ffb900;
        stroke-width: 3px;
      }
    </style>
    <clipPath id="clip-path">
      <rect class="cls-1" x="105.04" y="12.1" width="33.91" height="33.54" transform="translate(-3.19 35.61) rotate(-16.4)"/>
    </clipPath>
  </defs>
  <title>ms365enterprise-admin-collaboration-advisor-6</title>
  <g id="ICONS">
    <path class="cls-2" d="M50.5,46.73A22.72,22.72,0,0,1,95.45,46a15.33,15.33,0,0,1,9.93-3.64,15.53,15.53,0,0,1,15,11.61,13.38,13.38,0,0,1,3.22-.41,13.72,13.72,0,0,1,0,27.43H47.34c-7.73-1.59-13.55-8.85-13.55-17.14A17,17,0,0,1,50.5,46.73Z"/>
    <path class="cls-3" d="M28.82,50.73A22.9,22.9,0,0,1,74.07,50a15.56,15.56,0,0,1,25.05,8,13.7,13.7,0,1,1,3.24,27H25.64A17.51,17.51,0,0,1,12,67.86,17.09,17.09,0,0,1,28.82,50.73Z"/>
    <g>
      <path class="cls-4" d="M92,36.5a23.5,23.5,0,0,1-47,0c0-.17,0-.33,0-.5a23.5,23.5,0,0,1,47,0C92,36.17,92,36.33,92,36.5Z"/>
      <path class="cls-5" d="M92,36.5a23.5,23.5,0,0,1-47,0V36H92C92,36.17,92,36.33,92,36.5Z"/>
      <g>
        <circle class="cls-6" cx="68.5" cy="29" r="7.71"/>
        <path class="cls-6" d="M56.5,49a12,12,0,0,1,24,0"/>
      </g>
    </g>
    <g class="cls-7">
      <g>
        <circle class="cls-8" cx="110.34" cy="48.54" r="10.81" transform="translate(-9.21 33.12) rotate(-16.4)"/>
        <circle class="cls-8" cx="110.34" cy="48.54" r="20.12" transform="translate(-9.21 33.12) rotate(-16.4)"/>
        <circle class="cls-8" cx="110.34" cy="48.54" r="29.44" transform="translate(-9.21 33.12) rotate(-16.4)"/>
      </g>
    </g>
  </g>
</svg>
