<svg xmlns="http://www.w3.org/2000/svg" viewBox="0 0 150 105">
  <defs>
    <style>
      .cls-1 {
        fill: #fff;
        stroke: #556a8a;
      }

      .cls-1, .cls-3 {
        stroke-miterlimit: 10;
        stroke-width: 2px;
      }

      .cls-2 {
        fill: #d83b01;
      }

      .cls-3 {
        fill: none;
        stroke: #fff;
        fill-rule: evenodd;
      }
    </style>
  </defs>
  <title>ms365enterprise-admin-collaboration-setup-guide-1</title>
  <g id="ICONS">
    <g>
      <path class="cls-1" d="M37,55.86l5.89.88a22.79,22.79,0,0,0,.61,4l-4.86,3.13A1.54,1.54,0,0,0,37.73,66l1.46,3.59a1.33,1.33,0,0,0,1.88.65L47,69c.62,1.05,1.24,2.12,1.87,3.19l-3.4,4.61a1.57,1.57,0,0,0,0,2.11l2.92,3a1.9,1.9,0,0,0,2.11,0l4.65-3.33c1.05.63,2.32,1.47,3.36,2.12l-1.3,5.89a1.45,1.45,0,0,0,.82,1.7l3.58,1.49a1.35,1.35,0,0,0,1.91-.61l3.2-5.27a12.31,12.31,0,0,0,3.78.88l.8,5.9a1.45,1.45,0,0,0,1.46,1.49l4-.2c.63.21,1.28-.42,1.47-1l1.11-6.11a12.7,12.7,0,0,0,3.79-.8l3.13,5.27a2.09,2.09,0,0,0,1.88.65l3.81-1.66a1.44,1.44,0,0,0,.86-1.67l-1.45-5.71a7.45,7.45,0,0,0,.82-.55c.17-.12.36-.25.53-.39.62-.46,1.24-1,1.84-1.34l4.82,3.61a1.35,1.35,0,0,0,1.9-.2L103,80.2l1-1,0,0a1.36,1.36,0,0,0,.18-1.86l-3.54-4.87A17.29,17.29,0,0,0,103,68.89l5.87,1.71a1.87,1.87,0,0,0,1.92-1L112.3,66a1.82,1.82,0,0,0-.82-2.11l-5-3c.43-1.25.43-2.53.87-3.78l5.9-.8a1.86,1.86,0,0,0,1.28-1.69V50.85a1.79,1.79,0,0,0-1.22-1.7l-6.12-.67a24.05,24.05,0,0,0-.8-4.23l5.28-3.12a1.34,1.34,0,0,0,.66-1.9l-1.46-3.58a2,2,0,0,0-1.88-1.07L103,36.24c-.62-1.05-1.24-2.12-1.87-3.17l3.62-4.82a2,2,0,0,0-.21-1.9l-2.92-3a1.59,1.59,0,0,0-1.88-.22l-4.87,3.57c-1.05-.66-2.3-1.5-3.36-2.13l1.29-5.9A1.41,1.41,0,0,0,92,17l-3.78-1.71a1.82,1.82,0,0,0-1.91.62l-3,5.06c-1.26,0-2.53-.43-3.79-.46L79,14.4a1.85,1.85,0,0,0-1.69-1.26l-4-.24a2.47,2.47,0,0,0-1.47,1.45l-.9,5.91c-1.47.2-2.74.62-4.21.8L63.78,16a1.47,1.47,0,0,0-1.9-.65L58.3,16.81a1.71,1.71,0,0,0-1.08,1.88l1.45,5.7a13.61,13.61,0,0,0-3.17,2.3l-4.83-3.62a1.41,1.41,0,0,0-2.12,0L46,25.57l-.22.21a1.43,1.43,0,0,0,0,2.11l3.54,4.87a9.43,9.43,0,0,0-1.8,2.44l-.16.29c-.13.26-.26.54-.38.83l-5.89-1.71a1.44,1.44,0,0,0-1.69.82l-1.71,3.79a2.14,2.14,0,0,0,.62,1.91l5.25,3.19a10.44,10.44,0,0,0-.67,3.58l-6.12,1c-.62.22-1.26.84-1.26,1.28l0,4.21A1.42,1.42,0,0,0,37,55.86Z"/>
      <path class="cls-2" d="M56.78,44.89a19.73,19.73,0,1,1-1.53,7.7A19.52,19.52,0,0,1,56.78,44.89Z"/>
      <polyline class="cls-3" points="60.83 52.74 71.04 62.94 89.8 44.18"/>
    </g>
  </g>
</svg>
