<svg xmlns="http://www.w3.org/2000/svg" viewBox="0 0 150 105">
  <defs>
    <style>
      .cls-1 {
        fill: #80def9;
      }

      .cls-2 {
        fill: #fff;
      }

      .cls-2, .cls-5 {
        stroke: #556a8a;
        stroke-miterlimit: 10;
        stroke-width: 2px;
      }

      .cls-3 {
        fill: #e5e5e5;
      }

      .cls-4 {
        fill: #556a8a;
      }

      .cls-5 {
        fill: none;
      }

      .cls-6 {
        fill: #5558af;
      }
    </style>
  </defs>
  <title>ms365enterprise-admin-collaboration-teams-5</title>
  <g id="ICONS">
    <g>
      <g>
        <polygon class="cls-1" points="78.5 40.54 53.93 40.54 53.93 17.14 78.5 40.54"/>
        <path class="cls-2" d="M54.38,17H25.13A1.13,1.13,0,0,0,24,18.14V88.86A1.13,1.13,0,0,0,25.13,90H76.88A1.13,1.13,0,0,0,78,88.86v-49Z"/>
        <rect class="cls-3" x="25" y="18" width="18" height="71"/>
        <path class="cls-4" d="M35.32,43.95V54H33.73V45.9a5.07,5.07,0,0,1-.93.52,7.79,7.79,0,0,1-1.14.38V45.44l.77-.27q.37-.15.73-.32t.73-.4q.37-.22.76-.5Z"/>
        <path class="cls-4" d="M38,68H31.78v-.76a2.86,2.86,0,0,1,.13-.87,3.54,3.54,0,0,1,.35-.77,4.31,4.31,0,0,1,.51-.68q.3-.32.63-.62t.69-.58l.69-.56q.31-.27.58-.52a3.54,3.54,0,0,0,.45-.53,2.4,2.4,0,0,0,.29-.58,2.06,2.06,0,0,0,.1-.66,1.79,1.79,0,0,0-.12-.68,1.32,1.32,0,0,0-.34-.49,1.43,1.43,0,0,0-.51-.29,2,2,0,0,0-.64-.1,3,3,0,0,0-1.23.28,4.2,4.2,0,0,0-1.2.84V58.95a5,5,0,0,1,.61-.39,4.13,4.13,0,0,1,.64-.28,4,4,0,0,1,.69-.17,5.25,5.25,0,0,1,.77-.05,3.93,3.93,0,0,1,1.21.17,2.57,2.57,0,0,1,.93.51,2.25,2.25,0,0,1,.59.85,3,3,0,0,1,.21,1.17,3.63,3.63,0,0,1-.15,1.07,3.46,3.46,0,0,1-.42.89,4.62,4.62,0,0,1-.65.78q-.38.37-.86.76l-.79.63q-.39.3-.71.6a3.34,3.34,0,0,0-.51.58,1,1,0,0,0-.2.59v0H38Z"/>
        <path class="cls-4" d="M32,81.72v-1.5a3.4,3.4,0,0,0,2.17.76,2.52,2.52,0,0,0,1.57-.45,1.44,1.44,0,0,0,.59-1.21q0-1.67-2.56-1.67H33V76.39h.73q2.27,0,2.27-1.58t-1.77-1.45a2.9,2.9,0,0,0-1.86.71V72.65a4.75,4.75,0,0,1,2.37-.56,3.17,3.17,0,0,1,2.1.66,2.1,2.1,0,0,1,.79,1.69,2.4,2.4,0,0,1-2,2.5v0a2.58,2.58,0,0,1,1.68.74,2.22,2.22,0,0,1,.62,1.6,2.62,2.62,0,0,1-1,2.14,4,4,0,0,1-2.62.81A4.47,4.47,0,0,1,32,81.72Z"/>
        <polyline class="cls-5" points="54 17 54 41 78.57 41"/>
        <line class="cls-5" x1="46" y1="50" x2="69" y2="50"/>
        <line class="cls-5" x1="46" y1="64" x2="70" y2="64"/>
        <line class="cls-5" x1="46" y1="78" x2="69" y2="78"/>
      </g>
      <g>
        <path class="cls-6" d="M117.25,34.09a5.2,5.2,0,0,0,1.52,1,5.07,5.07,0,0,0,3.78,0,4.79,4.79,0,0,0,2.56-2.56,5.07,5.07,0,0,0,0-3.78,4.79,4.79,0,0,0-2.56-2.56,5.07,5.07,0,0,0-3.78,0,4.79,4.79,0,0,0-2.56,2.56,5.07,5.07,0,0,0,0,3.78A5.19,5.19,0,0,0,117.25,34.09Z"/>
        <path class="cls-6" d="M106,30.26a5.2,5.2,0,0,0,1.52,1,5.07,5.07,0,0,0,3.78,0,4.79,4.79,0,0,0,2.56-2.56,5.07,5.07,0,0,0,0-3.78,4.79,4.79,0,0,0-2.56-2.56,5.07,5.07,0,0,0-3.78,0A4.79,4.79,0,0,0,105,25a5.07,5.07,0,0,0,0,3.78A5.19,5.19,0,0,0,106,30.26Z"/>
        <path class="cls-6" d="M116,37.5V52.7h2.85a11.31,11.31,0,0,0,2.44-.24,6.39,6.39,0,0,0,2.32-.83,5.89,5.89,0,0,0,1.73-1.49,3.81,3.81,0,0,0,.65-2.38V37.5Z"/>
        <path class="cls-6" d="M104,56.08c.6.12,1.89.24,2.31.3a11.63,11.63,0,0,0,1.37.12,8.77,8.77,0,0,0,2.14-.24,6,6,0,0,0,2-.77A5.26,5.26,0,0,0,113.4,54a4.18,4.18,0,0,0,.6-2.38V34.51H104Z"/>
        <path class="cls-6" d="M72.5,19.36V61L103,67V14ZM95.13,33.65l-5.36.24V49.55l-3.57-.24V34l-5.36.24V31l14.29-.89Z"/>
      </g>
    </g>
  </g>
</svg>
