<svg xmlns="http://www.w3.org/2000/svg" viewBox="0 0 150 105">
  <defs>
    <style>
      .cls-1 {
        fill: #ffa940;
      }

      .cls-2 {
        fill: #ff8c00;
      }

      .cls-3 {
        fill: #fff3d4;
      }

      .cls-4 {
        fill: #ba6800;
      }

      .cls-5 {
        fill: #556a8a;
      }

      .cls-6 {
        fill: #e5e5e5;
      }

      .cls-7 {
        fill: #fff;
        stroke: #556a8a;
        stroke-width: 2px;
      }

      .cls-7, .cls-8 {
        stroke-miterlimit: 10;
      }

      .cls-8 {
        fill: #2bc7f4;
        stroke: #2bc7f4;
      }
    </style>
  </defs>
  <title>ms365enterprise-admin-collaboration-best-practices-4</title>
  <g id="ICONS">
    <g>
      <polygon class="cls-1" points="97 91 62 91 62 12 97 12 97 91 97 91"/>
      <g>
        <polygon class="cls-2" points="62 90.87 27 90.87 27 38.75 62 38.75 62 90.87 62 90.87"/>
        <g>
          <path class="cls-3" d="M34.58,49H30.42a.4.4,0,0,1-.42-.39V42.39a.4.4,0,0,1,.42-.39h4.17a.4.4,0,0,1,.42.39v6.22A.4.4,0,0,1,34.58,49Z"/>
          <path class="cls-3" d="M42.58,49H38.42a.4.4,0,0,1-.42-.39V42.39a.4.4,0,0,1,.42-.39h4.17a.4.4,0,0,1,.42.39v6.22A.4.4,0,0,1,42.58,49Z"/>
          <path class="cls-3" d="M50.58,49H46.42a.4.4,0,0,1-.42-.39V42.39a.4.4,0,0,1,.42-.39h4.17a.4.4,0,0,1,.42.39v6.22A.4.4,0,0,1,50.58,49Z"/>
          <path class="cls-3" d="M58.58,49H54.42a.4.4,0,0,1-.42-.39V42.39a.4.4,0,0,1,.42-.39h4.17a.4.4,0,0,1,.42.39v6.22A.4.4,0,0,1,58.58,49Z"/>
        </g>
        <g>
          <path class="cls-3" d="M34.58,60H30.42a.4.4,0,0,1-.42-.39V53.39a.4.4,0,0,1,.42-.39h4.17a.4.4,0,0,1,.42.39v6.22A.4.4,0,0,1,34.58,60Z"/>
          <path class="cls-3" d="M42.58,60H38.42a.4.4,0,0,1-.42-.39V53.39a.4.4,0,0,1,.42-.39h4.17a.4.4,0,0,1,.42.39v6.22A.4.4,0,0,1,42.58,60Z"/>
          <path class="cls-3" d="M50.58,60H46.42a.4.4,0,0,1-.42-.39V53.39a.4.4,0,0,1,.42-.39h4.17a.4.4,0,0,1,.42.39v6.22A.4.4,0,0,1,50.58,60Z"/>
          <path class="cls-3" d="M58.58,60H54.42a.4.4,0,0,1-.42-.39V53.39a.4.4,0,0,1,.42-.39h4.17a.4.4,0,0,1,.42.39v6.22A.4.4,0,0,1,58.58,60Z"/>
        </g>
        <g>
          <path class="cls-3" d="M34.58,71H30.42a.4.4,0,0,1-.42-.39V64.39a.4.4,0,0,1,.42-.39h4.17a.4.4,0,0,1,.42.39v6.22A.4.4,0,0,1,34.58,71Z"/>
          <path class="cls-3" d="M42.58,71H38.42a.4.4,0,0,1-.42-.39V64.39a.4.4,0,0,1,.42-.39h4.17a.4.4,0,0,1,.42.39v6.22A.4.4,0,0,1,42.58,71Z"/>
          <path class="cls-3" d="M50.58,71H46.42a.4.4,0,0,1-.42-.39V64.39a.4.4,0,0,1,.42-.39h4.17a.4.4,0,0,1,.42.39v6.22A.4.4,0,0,1,50.58,71Z"/>
          <path class="cls-3" d="M58.58,71H54.42a.4.4,0,0,1-.42-.39V64.39a.4.4,0,0,1,.42-.39h4.17a.4.4,0,0,1,.42.39v6.22A.4.4,0,0,1,58.58,71Z"/>
        </g>
        <g>
          <path class="cls-3" d="M34.58,82H30.42a.4.4,0,0,1-.42-.39V75.39a.4.4,0,0,1,.42-.39h4.17a.4.4,0,0,1,.42.39v6.22A.4.4,0,0,1,34.58,82Z"/>
          <path class="cls-3" d="M42.58,82H38.42a.4.4,0,0,1-.42-.39V75.39a.4.4,0,0,1,.42-.39h4.17a.4.4,0,0,1,.42.39v6.22A.4.4,0,0,1,42.58,82Z"/>
          <path class="cls-3" d="M50.58,82H46.42a.4.4,0,0,1-.42-.39V75.39a.4.4,0,0,1,.42-.39h4.17a.4.4,0,0,1,.42.39v6.22A.4.4,0,0,1,50.58,82Z"/>
          <path class="cls-3" d="M58.58,82H54.42a.4.4,0,0,1-.42-.39V75.39a.4.4,0,0,1,.42-.39h4.17a.4.4,0,0,1,.42.39v6.22A.4.4,0,0,1,58.58,82Z"/>
        </g>
        <polygon class="cls-4" points="62 40 27 40 27 36 62 36 62 40 62 40"/>
      </g>
      <g>
        <polygon class="cls-2" points="132 90.87 97 90.87 97 38.75 132 38.75 132 90.87 132 90.87"/>
        <g>
          <path class="cls-3" d="M104.58,49h-4.17a.4.4,0,0,1-.42-.39V42.39a.4.4,0,0,1,.42-.39h4.17a.4.4,0,0,1,.42.39v6.22A.4.4,0,0,1,104.58,49Z"/>
          <path class="cls-3" d="M112.58,49h-4.17a.4.4,0,0,1-.42-.39V42.39a.4.4,0,0,1,.42-.39h4.17a.4.4,0,0,1,.42.39v6.22A.4.4,0,0,1,112.58,49Z"/>
          <path class="cls-3" d="M120.58,49h-4.17a.4.4,0,0,1-.42-.39V42.39a.4.4,0,0,1,.42-.39h4.17a.4.4,0,0,1,.42.39v6.22A.4.4,0,0,1,120.58,49Z"/>
          <path class="cls-3" d="M128.58,49h-4.17a.4.4,0,0,1-.42-.39V42.39a.4.4,0,0,1,.42-.39h4.17a.4.4,0,0,1,.42.39v6.22A.4.4,0,0,1,128.58,49Z"/>
        </g>
        <g>
          <path class="cls-3" d="M104.58,60h-4.17a.4.4,0,0,1-.42-.39V53.39a.4.4,0,0,1,.42-.39h4.17a.4.4,0,0,1,.42.39v6.22A.4.4,0,0,1,104.58,60Z"/>
          <path class="cls-3" d="M112.58,60h-4.17a.4.4,0,0,1-.42-.39V53.39a.4.4,0,0,1,.42-.39h4.17a.4.4,0,0,1,.42.39v6.22A.4.4,0,0,1,112.58,60Z"/>
          <path class="cls-3" d="M120.58,60h-4.17a.4.4,0,0,1-.42-.39V53.39a.4.4,0,0,1,.42-.39h4.17a.4.4,0,0,1,.42.39v6.22A.4.4,0,0,1,120.58,60Z"/>
          <path class="cls-3" d="M128.58,60h-4.17a.4.4,0,0,1-.42-.39V53.39a.4.4,0,0,1,.42-.39h4.17a.4.4,0,0,1,.42.39v6.22A.4.4,0,0,1,128.58,60Z"/>
        </g>
        <g>
          <path class="cls-3" d="M104.58,71h-4.17a.4.4,0,0,1-.42-.39V64.39a.4.4,0,0,1,.42-.39h4.17a.4.4,0,0,1,.42.39v6.22A.4.4,0,0,1,104.58,71Z"/>
          <path class="cls-3" d="M112.58,71h-4.17a.4.4,0,0,1-.42-.39V64.39a.4.4,0,0,1,.42-.39h4.17a.4.4,0,0,1,.42.39v6.22A.4.4,0,0,1,112.58,71Z"/>
          <path class="cls-3" d="M120.58,71h-4.17a.4.4,0,0,1-.42-.39V64.39a.4.4,0,0,1,.42-.39h4.17a.4.4,0,0,1,.42.39v6.22A.4.4,0,0,1,120.58,71Z"/>
          <path class="cls-3" d="M128.58,71h-4.17a.4.4,0,0,1-.42-.39V64.39a.4.4,0,0,1,.42-.39h4.17a.4.4,0,0,1,.42.39v6.22A.4.4,0,0,1,128.58,71Z"/>
        </g>
        <g>
          <path class="cls-3" d="M104.58,82h-4.17a.4.4,0,0,1-.42-.39V75.39a.4.4,0,0,1,.42-.39h4.17a.4.4,0,0,1,.42.39v6.22A.4.4,0,0,1,104.58,82Z"/>
          <path class="cls-3" d="M112.58,82h-4.17a.4.4,0,0,1-.42-.39V75.39a.4.4,0,0,1,.42-.39h4.17a.4.4,0,0,1,.42.39v6.22A.4.4,0,0,1,112.58,82Z"/>
          <path class="cls-3" d="M120.58,82h-4.17a.4.4,0,0,1-.42-.39V75.39a.4.4,0,0,1,.42-.39h4.17a.4.4,0,0,1,.42.39v6.22A.4.4,0,0,1,120.58,82Z"/>
          <path class="cls-3" d="M128.58,82h-4.17a.4.4,0,0,1-.42-.39V75.39a.4.4,0,0,1,.42-.39h4.17a.4.4,0,0,1,.42.39v6.22A.4.4,0,0,1,128.58,82Z"/>
        </g>
        <polygon class="cls-4" points="132 40 97 40 97 36 132 36 132 40 132 40"/>
      </g>
      <rect class="cls-3" x="68" y="70" width="23" height="20.85"/>
      <rect class="cls-1" x="79" y="70" width="1" height="22"/>
      <polygon class="cls-5" points="20 90 138 90 138 95 20 95 20 90 20 90"/>
      <rect class="cls-4" x="68" y="78" width="2" height="6"/>
      <rect class="cls-4" x="89" y="78" width="2" height="6"/>
    </g>
    <g>
      <path class="cls-3" d="M69.58,23H65.42a.4.4,0,0,1-.42-.39V16.39a.4.4,0,0,1,.42-.39h4.17a.4.4,0,0,1,.42.39v6.22A.4.4,0,0,1,69.58,23Z"/>
      <path class="cls-3" d="M77.58,23H73.42a.4.4,0,0,1-.42-.39V16.39a.4.4,0,0,1,.42-.39h4.17a.4.4,0,0,1,.42.39v6.22A.4.4,0,0,1,77.58,23Z"/>
      <path class="cls-3" d="M85.58,23H81.42a.4.4,0,0,1-.42-.39V16.39a.4.4,0,0,1,.42-.39h4.17a.4.4,0,0,1,.42.39v6.22A.4.4,0,0,1,85.58,23Z"/>
      <path class="cls-3" d="M93.58,23H89.42a.4.4,0,0,1-.42-.39V16.39a.4.4,0,0,1,.42-.39h4.17a.4.4,0,0,1,.42.39v6.22A.4.4,0,0,1,93.58,23Z"/>
    </g>
    <g>
      <path class="cls-3" d="M70.58,36H66.42a.4.4,0,0,1-.42-.39V29.39a.4.4,0,0,1,.42-.39h4.17a.4.4,0,0,1,.42.39v6.22A.4.4,0,0,1,70.58,36Z"/>
      <path class="cls-3" d="M78.58,36H74.42a.4.4,0,0,1-.42-.39V29.39a.4.4,0,0,1,.42-.39h4.17a.4.4,0,0,1,.42.39v6.22A.4.4,0,0,1,78.58,36Z"/>
      <path class="cls-3" d="M86.58,36H82.42a.4.4,0,0,1-.42-.39V29.39a.4.4,0,0,1,.42-.39h4.17a.4.4,0,0,1,.42.39v6.22A.4.4,0,0,1,86.58,36Z"/>
      <path class="cls-3" d="M94.58,36H90.42a.4.4,0,0,1-.42-.39V29.39a.4.4,0,0,1,.42-.39h4.17a.4.4,0,0,1,.42.39v6.22A.4.4,0,0,1,94.58,36Z"/>
    </g>
    <g>
      <path class="cls-3" d="M69.58,49H65.42a.4.4,0,0,1-.42-.39V42.39a.4.4,0,0,1,.42-.39h4.17a.4.4,0,0,1,.42.39v6.22A.4.4,0,0,1,69.58,49Z"/>
      <path class="cls-3" d="M77.58,49H73.42a.4.4,0,0,1-.42-.39V42.39a.4.4,0,0,1,.42-.39h4.17a.4.4,0,0,1,.42.39v6.22A.4.4,0,0,1,77.58,49Z"/>
      <path class="cls-3" d="M85.58,49H81.42a.4.4,0,0,1-.42-.39V42.39a.4.4,0,0,1,.42-.39h4.17a.4.4,0,0,1,.42.39v6.22A.4.4,0,0,1,85.58,49Z"/>
      <path class="cls-3" d="M93.58,49H89.42a.4.4,0,0,1-.42-.39V42.39a.4.4,0,0,1,.42-.39h4.17a.4.4,0,0,1,.42.39v6.22A.4.4,0,0,1,93.58,49Z"/>
    </g>
    <g>
      <path class="cls-3" d="M69.58,62H65.42a.4.4,0,0,1-.42-.39V55.39a.4.4,0,0,1,.42-.39h4.17a.4.4,0,0,1,.42.39v6.22A.4.4,0,0,1,69.58,62Z"/>
      <path class="cls-3" d="M77.58,62H73.42a.4.4,0,0,1-.42-.39V55.39a.4.4,0,0,1,.42-.39h4.17a.4.4,0,0,1,.42.39v6.22A.4.4,0,0,1,77.58,62Z"/>
      <path class="cls-3" d="M85.58,62H81.42a.4.4,0,0,1-.42-.39V55.39a.4.4,0,0,1,.42-.39h4.17a.4.4,0,0,1,.42.39v6.22A.4.4,0,0,1,85.58,62Z"/>
      <path class="cls-3" d="M93.58,62H89.42a.4.4,0,0,1-.42-.39V55.39a.4.4,0,0,1,.42-.39h4.17a.4.4,0,0,1,.42.39v6.22A.4.4,0,0,1,93.58,62Z"/>
    </g>
    <g>
      <g>
        <polygon class="cls-6" points="33.05 60.21 23.05 68.39 23.05 34.5 43.05 34.5 43.05 68.39 33.05 60.21"/>
        <path class="cls-5" d="M42.05,35.5V66.28L34.32,60l-1.27-1-1.27,1-7.73,6.33V35.5h18m2-2h-22v37l11-9,11,9v-37Z"/>
      </g>
      <circle class="cls-7" cx="33.05" cy="29.5" r="21"/>
      <polygon class="cls-8" points="33.05 36.43 42.94 44.38 38.81 32.03 49.05 24.6 36.61 24.6 33.05 12.38 29.49 24.6 17.05 24.6 27.29 32.03 23.16 44.38 33.05 36.43"/>
    </g>
  </g>
</svg>
