<svg id="ICONS" xmlns="http://www.w3.org/2000/svg" viewBox="0 0 150 105">
  <defs>
    <style>
      .cls-1, .cls-5 {
        fill: #fff;
      }

      .cls-2 {
        fill: #e5e5e5;
      }

      .cls-3 {
        fill: #55d2f6;
      }

      .cls-4 {
        fill: none;
      }

      .cls-4, .cls-5 {
        stroke: #556a8a;
        stroke-miterlimit: 10;
        stroke-width: 2px;
      }

      .cls-6 {
        fill: #556a8a;
      }
    </style>
  </defs>
  <title>ms365enterprise-information-end-user-email-5</title>
  <g>
    <path class="cls-1" d="M118,25V80.51a2.75,2.75,0,0,1-2.69,2.79H34.69A2.75,2.75,0,0,1,32,80.51V25a2.71,2.71,0,0,1,.12-.82A2.57,2.57,0,0,1,32.85,23a2.52,2.52,0,0,1,1.84-.78h80.62a2.59,2.59,0,0,1,1.92.85,2.45,2.45,0,0,1,.66,1.21A2.21,2.21,0,0,1,118,25Z"/>
    <path class="cls-2" d="M118,25V80.51a2.75,2.75,0,0,1-2.69,2.79H108v-61h7.31a2.59,2.59,0,0,1,1.92.85,2.45,2.45,0,0,1,.66,1.21A2.21,2.21,0,0,1,118,25Z"/>
    <path class="cls-2" d="M32,25V80.51a2.75,2.75,0,0,0,2.69,2.79H42v-61H34.69a2.59,2.59,0,0,0-1.92.85,2.45,2.45,0,0,0-.66,1.21A2.21,2.21,0,0,0,32,25Z"/>
    <polygon class="cls-3" points="33 23 75 48.05 116.23 23 33 23"/>
    <path class="cls-4" d="M118,25.74V80.26A2.72,2.72,0,0,1,115.31,83H34.69A2.72,2.72,0,0,1,32,80.26V25.74a2.61,2.61,0,0,1,.12-.81A2.77,2.77,0,0,1,34.69,23h80.62a2.61,2.61,0,0,1,1.92.84,2.54,2.54,0,0,1,.66,1.19A2.13,2.13,0,0,1,118,25.74Z"/>
    <polyline class="cls-4" points="33.39 23.09 75 48.05 116.61 23.09"/>
  </g>
  <path class="cls-5" d="M51,30a18,18,0,0,1-36,0c0-.13,0-.25,0-.38a18,18,0,0,1,36,0C51,29.75,51,29.87,51,30Z"/>
  <path class="cls-6" d="M33,20.94a1.62,1.62,0,0,1-1.17-.47,1.58,1.58,0,0,1-.48-1.19A1.64,1.64,0,0,1,33,17.61a1.66,1.66,0,0,1,1.2.48,1.67,1.67,0,0,1,0,2.37A1.64,1.64,0,0,1,33,20.94ZM34.28,41H31.72V25h2.56Z"/>
</svg>
