<svg xmlns="http://www.w3.org/2000/svg" viewBox="0 0 150 105">
  <defs>
    <style>
      .cls-1 {
        fill: #55d2f6;
      }

      .cls-2 {
        fill: #2bc7f4;
      }

      .cls-3 {
        fill: none;
        stroke: #556a8a;
        stroke-miterlimit: 10;
        stroke-width: 2px;
      }

      .cls-4 {
        fill: #ffb900;
      }

      .cls-5 {
        fill: #556a8a;
      }

      .cls-6, .cls-7 {
        fill: #fff;
      }

      .cls-7 {
        opacity: 0.5;
      }
    </style>
  </defs>
  <title>ms365enterprise-information-end-user-tips-2</title>
  <g id="ICONS">
    <g>
      <g>
        <path class="cls-1" d="M35,52.5a40,40,0,0,1,40-40h0a40,40,0,0,1,0,80h0A40,40,0,0,1,35,52.5Z"/>
        <path class="cls-2" d="M35,52.5a40,40,0,0,1,40-40h0v80h0A40,40,0,0,1,35,52.5Z"/>
        <path class="cls-3" d="M35,52.5a40,40,0,0,1,40-40h0a40,40,0,0,1,0,80h0A40,40,0,0,1,35,52.5Z"/>
      </g>
      <g>
        <g>
          <path class="cls-4" d="M92.33,46.18a14.28,14.28,0,0,1-2.86,8.57c-.11.15-.23.31-.35.45a16.17,16.17,0,0,1-1.25,1.37,24.79,24.79,0,0,0-5.09,8.32A11.9,11.9,0,0,0,82,68H70s-.47-1.43-1.46-3.67a27.19,27.19,0,0,0-5.07-7.73l0,0-.09-.09-.28-.29,0,0h0a14.25,14.25,0,0,1-1.31-1.59c-.14-.19-.27-.37-.39-.56A14.26,14.26,0,0,1,59,46.18a14,14,0,0,1,.7-4.39c0-.13.07-.25.12-.37a14.9,14.9,0,0,1,4.56-6.48c.25-.21,1.44-1,2.31-1.53.48-.31.86-.54.94-.58.48-.24,1-.45,1.47-.64A18.41,18.41,0,0,1,75.66,31c.27,0,1.79.08,1.88.09s2.08.32,2.24.36,2.4.71,2.89.92l1.27.59a15.84,15.84,0,0,1,1.57.92h0A14.72,14.72,0,0,1,92.33,46.18Z"/>
          <polygon class="cls-4" points="79 83 74 83 70.06 80 82 80 79 83"/>
          <rect class="cls-5" x="70.05" y="68" width="11.95" height="12"/>
        </g>
        <rect class="cls-6" x="70.05" y="70" width="11.95" height="1"/>
        <rect class="cls-6" x="70" y="73" width="11.95" height="1"/>
        <rect class="cls-6" x="70" y="76" width="12" height="1"/>
        <path class="cls-7" d="M92.37,46.2a14.28,14.28,0,0,1-2.86,8.57c-.11.15-.23.31-.35.45a18.49,18.49,0,0,1-5.06.31A19.15,19.15,0,0,1,66.48,37.77a18.74,18.74,0,0,1,.24-4.33c.48-.31.86-.54.94-.58.48-.24,1-.45,1.47-.64A18.41,18.41,0,0,1,75.7,31c.27,0,1.79.08,1.88.09s2.08.32,2.24.36,2.4.71,2.89.92L84,33a15.84,15.84,0,0,1,1.57.92h0A14.72,14.72,0,0,1,92.37,46.2Z"/>
      </g>
    </g>
  </g>
  <g id="Layer_6" data-name="Layer 6">
    <line class="cls-3" x1="75" y1="28" x2="75" y2="21"/>
    <line class="cls-3" x1="84" y1="30.27" x2="87.32" y2="24.1"/>
    <line class="cls-3" x1="90.85" y1="36.53" x2="96.69" y2="32.67"/>
    <line class="cls-3" x1="93.92" y1="45.28" x2="100.89" y2="44.65"/>
    <line class="cls-3" x1="67.89" y1="30.27" x2="64.58" y2="24.1"/>
    <line class="cls-3" x1="61.04" y1="36.53" x2="55.2" y2="32.67"/>
    <line class="cls-3" x1="57.97" y1="45.28" x2="51" y2="44.65"/>
  </g>
</svg>
