<svg xmlns="http://www.w3.org/2000/svg" viewBox="0 0 150 105">
  <defs>
    <style>
      .cls-1, .cls-12, .cls-4 {
        fill: #fff;
      }

      .cls-1 {
        stroke: #00bcf2;
      }

      .cls-1, .cls-12, .cls-5 {
        stroke-miterlimit: 10;
        stroke-width: 2px;
      }

      .cls-2 {
        fill: #55d2f6;
      }

      .cls-3 {
        fill: #556a8a;
      }

      .cls-5 {
        fill: none;
      }

      .cls-12, .cls-5 {
        stroke: #556a8a;
      }

      .cls-6 {
        fill: #2bc7f4;
      }

      .cls-7 {
        fill: #e5e5e5;
      }

      .cls-8 {
        fill: #ff9f2b;
      }

      .cls-9 {
        fill: #ff8c00;
      }

      .cls-10 {
        fill: #868787;
      }

      .cls-11 {
        fill: #bad80a;
      }
    </style>
  </defs>
  <title>information-worker-product-help-get-started-office-1</title>
  <g id="Illustrations">
    <g>
      <path class="cls-1" d="M129.62,34.61v-.35a14,14,0,0,0-.45-3.47,12.58,12.58,0,0,0-20.68-8.94A14.57,14.57,0,0,0,96.3,16.09c-9.21,0-16.15,8-16.31,17.09,0,.62.16,1.09.16,1.72-4.84,2.34-7.65,6.4-7.65,11.55C72.5,53.8,78.29,59.7,86,60.13,86.67,65.24,91.25,70,99.1,70c6.62,0,10.57.54,15.4-4.9a16.27,16.27,0,0,0,7.7,2.1c9.28,0,16.8-8.22,16.8-17.5A16.8,16.8,0,0,0,129.62,34.61Z"/>
      <path class="cls-2" d="M120,60.86C118.24,49.91,107.76,41.5,95.07,41.5c-12.41,0-22.71,8.05-24.8,18.65a18.3,18.3,0,0,0-11-3.57c-7.93,0-14.58,4.84-16.55,11.4a16.6,16.6,0,0,0-3.56-.4c-8.28,0-15,6-15,13.46s6.71,13.46,15,13.46h84.33c8.55-1.56,15-8.69,15-16.83C138.5,68.46,130.24,61,120,60.86Z"/>
      <g>
        <g>
          <g>
            <rect class="cls-3" x="11" y="10.5" width="82" height="61" rx="2" ry="2"/>
            <g>
              <rect class="cls-4" x="13" y="12.5" width="7" height="7"/>
              <rect class="cls-4" x="13" y="22.5" width="7" height="7"/>
              <rect class="cls-4" x="13" y="32.5" width="7" height="7"/>
              <rect class="cls-4" x="13" y="42.5" width="7" height="7"/>
              <rect class="cls-4" x="13" y="52.5" width="7" height="7"/>
              <rect class="cls-4" x="13" y="62.5" width="7" height="7"/>
            </g>
            <g>
              <rect class="cls-4" x="84" y="12.5" width="7" height="7"/>
              <rect class="cls-4" x="84" y="22.5" width="7" height="7"/>
              <rect class="cls-4" x="84" y="32.5" width="7" height="7"/>
              <rect class="cls-4" x="84" y="42.5" width="7" height="7"/>
              <rect class="cls-4" x="84" y="52.5" width="7" height="7"/>
              <rect class="cls-4" x="84" y="62.5" width="7" height="7"/>
            </g>
            <rect class="cls-4" x="22" y="12.5" width="60" height="57"/>
            <path class="cls-5" d="M68.18,41.32A16.19,16.19,0,0,1,52,57.5a15.91,15.91,0,0,1-5-.79,16.18,16.18,0,1,1,21.17-15.4Z"/>
          </g>
          <polygon class="cls-6" points="46 51.76 46 30.87 64 41.32 46 51.76"/>
        </g>
        <rect class="cls-7" x="22" y="12.5" width="60" height="7"/>
        <rect class="cls-7" x="22" y="62.5" width="60" height="7"/>
      </g>
      <g>
        <g>
          <g>
            <path class="cls-8" d="M68.91,87.77c-.76.25-1.57.48-2.41.71,5.06-21,15-17.21,15-17.21l1.63,1.54.06.2C83.57,74.4,84.92,82.69,68.91,87.77Z"/>
            <path class="cls-9" d="M68.91,87.77c5-17.3,13.45-15,14.31-14.76C83.57,74.4,84.92,82.69,68.91,87.77Z"/>
            <polygon class="cls-10" points="84.01 76.98 76.94 69.91 82.59 68.49 85.25 71.16 84.01 76.98"/>
          </g>
          <polygon class="cls-10" points="85.42 61.31 66.33 60.61 63.5 57.78 79.76 50 86.56 52.55 85.42 61.31"/>
          <polygon class="cls-10" points="93.5 67.08 94.21 86.17 97.04 89 104.81 72.74 102.26 65.94 93.5 67.08"/>
          <g>
            <path class="cls-4" d="M89.69,75.5h-.21l-.17-.15L79.24,64.84l0-.25A41.74,41.74,0,0,1,90.73,44.31c9.15-9.1,30.47-12.92,31.38-13.08l.7-.12-.12.7s-.37,2.22-1.14,5.45c-2.08,8.74-5.8,20.4-11.73,26.36C100.58,72.91,90.54,75.5,89.69,75.5Z"/>
            <path class="cls-7" d="M121,38.49c-1.69,7.11-5.36,19.43-11.6,25.7C100.18,73.47,90.15,75.4,89.63,75.5L84,69.88s1.79-10.32,11.32-19.8C101.59,43.85,113.88,40.18,121,38.49Z"/>
            <path class="cls-11" d="M123,30.8a92,92,0,0,0-18.3,5.45l13.4,13.4A123.08,123.08,0,0,0,123,30.8Z"/>
            <path class="cls-5" d="M89.69,75.5h-.21l-.17-.15L79.24,64.84l0-.25A41.74,41.74,0,0,1,90.73,44.31c9.15-9.1,30.47-12.92,31.38-13.08l.7-.12-.12.7s-.37,2.22-1.14,5.45c-2.08,8.74-5.8,20.4-11.73,26.36C100.58,72.91,90.54,75.5,89.69,75.5Z"/>
          </g>
        </g>
        <circle class="cls-12" cx="99.5" cy="54" r="5"/>
      </g>
    </g>
  </g>
</svg>
