<svg id="ICONS" xmlns="http://www.w3.org/2000/svg" viewBox="0 0 150 105">
  <defs>
    <style>
      .cls-1 {
        fill: #556a8a;
      }

      .cls-2 {
        fill: #adbdca;
      }

      .cls-3 {
        fill: #fff;
      }

      .cls-4 {
        fill: #c8edfb;
      }

      .cls-5, .cls-6, .cls-9 {
        fill: none;
      }

      .cls-5 {
        stroke: #556a8a;
      }

      .cls-5, .cls-9 {
        stroke-miterlimit: 10;
        stroke-width: 2px;
      }

      .cls-7 {
        fill: #ffb900;
      }

      .cls-8 {
        fill: #e5e5e5;
      }

      .cls-9 {
        stroke: #ababab;
      }

      .cls-10 {
        fill: #c2c2c2;
      }
    </style>
  </defs>
  <title>ms365enterprise-information-end-user-win10-readiness-1</title>
  <g>
    <g>
      <polygon class="cls-1" points="117.17 92 32.93 92 38.2 87 112.24 87 117.17 92"/>
      <polygon class="cls-2" points="109.25 90 40.85 90 43.25 88 106.92 88 109.25 90"/>
      <polygon class="cls-1" points="93.69 80 56.31 80 52 84 98 84 93.69 80"/>
      <polygon class="cls-1" points="77.21 81.44 72.17 81.44 73.18 71.36 76.2 71.36 77.21 81.44"/>
      <rect class="cls-3" x="20.5" y="14" width="109" height="59" rx="4" ry="4" transform="translate(150 87) rotate(180)"/>
      <path class="cls-4" d="M130,25V18a4,4,0,0,0-4-4H25a4,4,0,0,0-4,4v7Z"/>
      <rect class="cls-5" x="21" y="14" width="109" height="59" rx="4" ry="4" transform="translate(151 87) rotate(180)"/>
    </g>
    <rect class="cls-6" x="11.5" y="9" width="127" height="91"/>
  </g>
  <g>
    <path class="cls-3" d="M33.69,11h-19a.75.75,0,0,0-.73.77V59.23a.75.75,0,0,0,.73.77H48.27a.75.75,0,0,0,.73-.77V26.31Z"/>
    <polygon class="cls-7" points="49.41 26 33 26 33 10.38 49.41 26"/>
    <path class="cls-5" d="M33.69,11h-19a.75.75,0,0,0-.73.77V59.23a.75.75,0,0,0,.73.77H48.27a.75.75,0,0,0,.73-.77V26.31Z"/>
    <rect class="cls-8" x="15" y="12" width="11" height="46.88"/>
    <polyline class="cls-5" points="33 10.38 33 26 49 26"/>
    <rect class="cls-6" x="7" y="10" width="50" height="50"/>
  </g>
  <g>
    <path class="cls-1" d="M21.3,26.13V34H20.06V27.65a4,4,0,0,1-.73.41,6.06,6.06,0,0,1-.89.3V27.3l.6-.21q.29-.11.57-.25c.19-.09.38-.2.57-.31s.39-.25.59-.39Z"/>
    <path class="cls-1" d="M23.36,45H18.53v-.6a2.23,2.23,0,0,1,.1-.69,2.77,2.77,0,0,1,.27-.6,3.36,3.36,0,0,1,.4-.53q.23-.25.49-.48l.54-.45.54-.44q.25-.21.45-.41a2.74,2.74,0,0,0,.35-.42,1.88,1.88,0,0,0,.23-.45,1.62,1.62,0,0,0,.08-.52,1.4,1.4,0,0,0-.09-.53,1,1,0,0,0-.26-.38,1.13,1.13,0,0,0-.4-.23,1.56,1.56,0,0,0-.5-.08,2.33,2.33,0,0,0-1,.22,3.3,3.3,0,0,0-.94.66v-1.2a3.86,3.86,0,0,1,.48-.31,3.19,3.19,0,0,1,.5-.22,3.05,3.05,0,0,1,.54-.13,4.06,4.06,0,0,1,.61,0,3.08,3.08,0,0,1,.95.14,2,2,0,0,1,.72.4,1.76,1.76,0,0,1,.46.66,2.38,2.38,0,0,1,.16.91,2.84,2.84,0,0,1-.12.84,2.73,2.73,0,0,1-.33.7,3.63,3.63,0,0,1-.51.61c-.2.19-.42.39-.67.6l-.62.49c-.21.16-.39.31-.56.47a2.62,2.62,0,0,0-.4.46.82.82,0,0,0-.15.46v0h3.48Z"/>
    <path class="cls-1" d="M18.66,55.72V54.54a2.66,2.66,0,0,0,1.7.6,2,2,0,0,0,1.23-.35,1.12,1.12,0,0,0,.46-.95q0-1.31-2-1.31h-.6v-1H20q1.78,0,1.78-1.24t-1.39-1.14a2.27,2.27,0,0,0-1.46.55V48.61a3.72,3.72,0,0,1,1.85-.44,2.48,2.48,0,0,1,1.64.52A1.64,1.64,0,0,1,23.06,50a1.88,1.88,0,0,1-1.55,2v0a2,2,0,0,1,1.32.58,1.74,1.74,0,0,1,.48,1.25,2.06,2.06,0,0,1-.78,1.67,3.14,3.14,0,0,1-2.05.64A3.5,3.5,0,0,1,18.66,55.72Z"/>
  </g>
  <line class="cls-9" x1="28" y1="52" x2="44" y2="52"/>
  <line class="cls-9" x1="28" y1="42" x2="44" y2="42"/>
  <line class="cls-9" x1="28" y1="32" x2="44" y2="32"/>
  <g>
    <polygon class="cls-10" points="76 46 76 30.62 60 32.68 60 46 76 46"/>
    <polygon class="cls-10" points="78 46 99 46 99 28 78 30.7 78 46"/>
    <polygon class="cls-10" points="78 48 78 63.17 99 66 99 48 78 48"/>
    <polygon class="cls-10" points="76 48 60 48 60 60.68 76 62.91 76 48"/>
  </g>
</svg>
