<svg xmlns="http://www.w3.org/2000/svg" viewBox="0 0 150 105">
  <defs>
    <style>
      .cls-1 {
        fill: #ace8f9;
      }

      .cls-2, .cls-3 {
        fill: #fff;
        stroke-miterlimit: 10;
        stroke-width: 2px;
      }

      .cls-2 {
        stroke: #556a8a;
      }

      .cls-3 {
        stroke: #00bcf2;
      }

      .cls-4 {
        fill: #556a8a;
      }

      .cls-5 {
        fill: #d83b01;
      }
    </style>
  </defs>
  <title>information-worker-product-help-office-help-3</title>
  <g id="Illustrations">
    <g>
      <g>
        <path class="cls-1" d="M95,32.63a21.57,21.57,0,0,0-42.64-.68,14.65,14.65,0,0,0-23.61,7.53,12.75,12.75,0,0,0-3.05-.38,13,13,0,0,0,0,25.9H98a16.53,16.53,0,0,0,12.85-16.19A16.12,16.12,0,0,0,95,32.63Z"/>
        <circle class="cls-2" cx="109.18" cy="48.35" r="28" transform="translate(-2.21 91.36) rotate(-45)"/>
      </g>
      <path class="cls-3" d="M83.95,55.75v-.37a14.73,14.73,0,0,0-.48-3.66A13.24,13.24,0,0,0,61.7,42.32a15.33,15.33,0,0,0-12.83-6.07c-9.69,0-17,8.46-17.17,18,0,.66.16,1.15.16,1.81-5.09,2.46-8,6.74-8,12.16,0,7.75,6.1,14,14.17,14.41C38.74,88,43.56,93,51.82,93c7,0,11.13.56,16.21-5.16A17.13,17.13,0,0,0,76.14,90c9.77,0,17.68-8.65,17.68-18.42A17.68,17.68,0,0,0,83.95,55.75Z"/>
      <path class="cls-4" d="M54.33,74.89a10.9,10.9,0,0,1-.41-1.71,12.55,12.55,0,0,1-.18-2.09,6.52,6.52,0,0,1,.65-2.93A12.12,12.12,0,0,1,56,65.7a24.43,24.43,0,0,1,2.11-2.2q1.14-1.05,2.11-2.13a12.18,12.18,0,0,0,1.61-2.26,5.32,5.32,0,0,0,.65-2.6A4.77,4.77,0,0,0,62,54.35a4.57,4.57,0,0,0-1.28-1.57,5.64,5.64,0,0,0-1.88-1,7.89,7.89,0,0,0-2.26-.32,9.85,9.85,0,0,0-7.44,3.38V50.42a14.94,14.94,0,0,1,8-2.44,12.64,12.64,0,0,1,3.63.51,9,9,0,0,1,3,1.51,7.12,7.12,0,0,1,2,2.5A7.8,7.8,0,0,1,66.57,56a8.11,8.11,0,0,1-.66,3.35A12.11,12.11,0,0,1,64.25,62a21.48,21.48,0,0,1-2.17,2.3q-1.17,1.07-2.17,2.12a11.63,11.63,0,0,0-1.66,2.2,4.93,4.93,0,0,0-.66,2.51,7.51,7.51,0,0,0,.28,2.12,15,15,0,0,0,.56,1.61Zm2.29,10.56a2.8,2.8,0,0,1-2-.81,2.65,2.65,0,0,1-.84-2,2.6,2.6,0,0,1,.84-2,2.76,2.76,0,0,1,4,0,2.6,2.6,0,0,1,.84,2,2.65,2.65,0,0,1-.84,2A2.81,2.81,0,0,1,56.62,85.46Z"/>
      <polygon class="cls-5" points="123.72 62.32 123.72 61.9 123.72 34.43 112.75 31.26 93.92 38.28 93.82 58.51 100.53 55.89 100.53 39.32 113.78 36.79 113.78 61.15 94.59 58.51 112.96 65.14 112.96 65.15 123.82 62.23 123.72 62.32 123.72 62.32"/>
    </g>
  </g>
</svg>
