<svg xmlns="http://www.w3.org/2000/svg" viewBox="0 0 150 105">
  <defs>
    <style>
      .cls-1 {
        fill: #556a8a;
        isolation: isolate;
      }

      .cls-2 {
        fill: #55d2f6;
      }

      .cls-3, .cls-4 {
        fill: #fff;
        stroke-miterlimit: 10;
        stroke-width: 2px;
      }

      .cls-3 {
        stroke: #556a8a;
      }

      .cls-4 {
        stroke: #2bc7f4;
      }

      .cls-5 {
        fill: #ffb900;
      }
    </style>
  </defs>
  <title>ms365enterprise-information-end-user-preferences-12</title>
  <g id="Titles">
    <g>
      <g>
        <ellipse class="cls-1" cx="43.54" cy="29.46" rx="10" ry="12.46"/>
        <path class="cls-1" d="M67,86v14H24.79c-1.19-1.35-2.88-3.28-4.85-5.81-2.27-2.92-2-9.51-1.82-11.49.52-5.72.51-20,1.12-26.32a11.48,11.48,0,0,1,1.28-4.43l.11-.19,0-.08a8.66,8.66,0,0,1,2.7-2.91,9.59,9.59,0,0,1,2.69-1.23c.49-.14,1-.35,1.63-.51,3.73-1,11.3,10,11.3,10Z"/>
        <path class="cls-2" d="M94.72,61S77.4,64.94,76.89,65A4.54,4.54,0,0,1,75,64.72l-8.42-3.31L67,86V98L20.68,51.68a8.66,8.66,0,0,1,2.7-2.91,9.59,9.59,0,0,1,2.69-1.23c.49-.14,1-.35,1.63-.51,3.73-1,8.82-2.24,9.74-2.47l.15,0,6,12.23h.1l6-12.23,0,0a16.51,16.51,0,0,0,2.65.95c1.61.43,3.73,1,5.79,1.59l0,0c1,.29,2,.58,2.94.86L77,54l13.4-1.67c4,0,5.56.38,6.6,2.67A4.54,4.54,0,0,1,94.72,61Z"/>
        <g>
          <path class="cls-3" d="M81,37.28l3.87.58a15,15,0,0,0,.4,2.63L82,42.56a1,1,0,0,0-.57,1.38l1,2.37a.87.87,0,0,0,1.24.42l3.89-.81L88.79,48l-2.24,3a1,1,0,0,0,0,1.39l1.92,2a1.25,1.25,0,0,0,1.39,0l3.06-2.19c.69.42,1.53,1,2.21,1.4l-.86,3.87a1,1,0,0,0,.54,1.12l2.36,1a.89.89,0,0,0,1.26-.4l2.11-3.47a8.1,8.1,0,0,0,2.49.58l.53,3.88a1,1,0,0,0,1,1l2.63-.13c.42.14.84-.28,1-.68l.73-4a8.36,8.36,0,0,0,2.5-.53l2.06,3.47a1.38,1.38,0,0,0,1.24.42l2.5-1.09a1,1,0,0,0,.56-1.1l-1-3.76a4.9,4.9,0,0,0,.54-.36c.11-.08.23-.16.35-.26.41-.3.81-.64,1.21-.88L122,54.58a.89.89,0,0,0,1.25-.13l1.16-1.14.65-.65,0,0a.89.89,0,0,0,.12-1.22l-2.33-3.21a11.38,11.38,0,0,0,1.54-2.35L128.31,47a1.23,1.23,0,0,0,1.27-.68l1-2.36a1.2,1.2,0,0,0-.54-1.39l-3.32-2c.29-.82.29-1.66.57-2.49l3.88-.53a1.23,1.23,0,0,0,.84-1.11V34a1.18,1.18,0,0,0-.81-1.12l-4-.44a15.83,15.83,0,0,0-.53-2.78l3.48-2.05a.88.88,0,0,0,.43-1.25l-1-2.36a1.29,1.29,0,0,0-1.24-.7l-3.9,1.08c-.41-.69-.81-1.4-1.23-2.09l2.38-3.17a1.28,1.28,0,0,0-.14-1.25l-1.92-2a1,1,0,0,0-1.24-.15l-3.21,2.35c-.69-.43-1.52-1-2.21-1.4l.85-3.88a.93.93,0,0,0-.54-1.11l-2.49-1.13a1.2,1.2,0,0,0-1.26.41l-2,3.33c-.83,0-1.66-.29-2.5-.3l-.38-4a1.22,1.22,0,0,0-1.11-.83L104.86,9a1.62,1.62,0,0,0-1,1l-.59,3.89c-1,.13-1.8.41-2.77.53L98.62,11a1,1,0,0,0-1.25-.42l-2.36,1a1.12,1.12,0,0,0-.71,1.24l1,3.75a9,9,0,0,0-2.09,1.52L90,15.7a.93.93,0,0,0-1.4,0l-1.66,1.65-.15.14a.94.94,0,0,0,0,1.39l2.33,3.21a6.21,6.21,0,0,0-1.19,1.6l-.1.19c-.09.17-.17.36-.25.55l-3.87-1.13a1,1,0,0,0-1.11.54l-1.13,2.5a1.41,1.41,0,0,0,.41,1.26l3.46,2.1A6.87,6.87,0,0,0,84.88,32l-4,.66c-.41.15-.83.55-.83.84l0,2.77A.94.94,0,0,0,81,37.28Z"/>
          <path class="cls-4" d="M94,30.06a13,13,0,1,1-1,5.07A12.85,12.85,0,0,1,94,30.06Z"/>
        </g>
      </g>
      <polygon class="cls-5" points="106 26 108.12 32.54 115 32.54 109.44 36.58 111.56 43.12 106 39.08 100.44 43.12 102.56 36.58 97 32.54 103.88 32.54 106 26"/>
    </g>
  </g>
</svg>
