<svg id="ICONS" xmlns="http://www.w3.org/2000/svg" viewBox="0 0 150 105">
  <defs>
    <style>
      .cls-1, .cls-4, .cls-7 {
        fill: none;
        stroke-miterlimit: 10;
        stroke-width: 2px;
      }

      .cls-1 {
        stroke: #c2c2c2;
      }

      .cls-2 {
        fill: #e5e5e5;
      }

      .cls-3 {
        fill: #fff;
      }

      .cls-4 {
        stroke: #556a8a;
      }

      .cls-5 {
        fill: #bad80a;
      }

      .cls-6 {
        fill: #55d2f6;
      }

      .cls-7 {
        stroke: #a7a9ac;
      }
    </style>
  </defs>
  <title>ms365enterprise-information-end-user-content-7</title>
  <polyline class="cls-1" points="132 17 15 53 127.39 87"/>
  <g>
    <polygon class="cls-2" points="89 33.5 68 33.5 68 13.5 89 33.5"/>
    <rect class="cls-3" x="44" y="14.5" width="24" height="60"/>
    <path class="cls-4" d="M67.88,14H43a1,1,0,0,0-1,1V75a1,1,0,0,0,1,1H87a1,1,0,0,0,1-1V33.37Z"/>
    <rect class="cls-2" x="43" y="15" width="16" height="60"/>
    <polyline class="cls-4" points="68 14 68 34 89 34"/>
  </g>
  <g>
    <path class="cls-3" d="M82.88,25H58a1,1,0,0,0-1,1V86a1,1,0,0,0,1,1H102a1,1,0,0,0,1-1V44.37Z"/>
    <polygon class="cls-5" points="103 45 83 44.5 83 25 103 45"/>
    <rect class="cls-3" x="59" y="25.5" width="24" height="60"/>
    <path class="cls-4" d="M82.88,25H58a1,1,0,0,0-1,1V86a1,1,0,0,0,1,1H102a1,1,0,0,0,1-1V44.37Z"/>
    <rect class="cls-2" x="58" y="26" width="16" height="60"/>
    <polyline class="cls-4" points="83 25 83 45 104 45"/>
  </g>
  <circle class="cls-6" cx="18" cy="53" r="6"/>
  <circle class="cls-6" cx="127" cy="87" r="6"/>
  <circle class="cls-6" cx="127" cy="18" r="6"/>
  <g>
    <line class="cls-7" x1="67" y1="48" x2="80" y2="48"/>
    <line class="cls-7" x1="67" y1="57" x2="99" y2="57"/>
    <line class="cls-7" x1="67" y1="66" x2="99" y2="66"/>
    <line class="cls-7" x1="67" y1="75" x2="99" y2="75"/>
  </g>
</svg>
