<svg xmlns="http://www.w3.org/2000/svg" viewBox="0 0 150 105">
  <defs>
    <style>
      .cls-1 {
        fill: none;
        stroke: #bad80a;
      }

      .cls-1, .cls-2, .cls-4 {
        stroke-miterlimit: 10;
        stroke-width: 2px;
      }

      .cls-2 {
        fill: #fff;
        stroke: #55d2f6;
      }

      .cls-3 {
        fill: #ffb900;
      }

      .cls-4 {
        fill: #fcfcfc;
        stroke: #556a8a;
      }

      .cls-5 {
        fill: #e5e5e5;
      }

      .cls-6 {
        fill: #2bc7f4;
      }

      .cls-7 {
        fill: #ababab;
      }

      .cls-8 {
        fill: #55d2f6;
      }
    </style>
  </defs>
  <title>ms365enterprise-information-end-user-share-sites-8</title>
  <g id="ICONS">
    <polyline class="cls-1" points="76.51 85.32 130.83 52.66 75.83 18"/>
    <g>
      <line class="cls-1" x1="91.83" y1="52" x2="130.83" y2="52"/>
      <polygon class="cls-2" points="77 17.11 97 51.5 77 85.89 37 85.89 17 51.5 37 17.11 77 17.11"/>
      <circle class="cls-3" cx="129.33" cy="52.16" r="5.5"/>
      <circle class="cls-3" cx="77.33" cy="17.26" r="5.5"/>
      <circle class="cls-3" cx="77.33" cy="84.5" r="5.5"/>
    </g>
  </g>
  <g id="Titles">
    <rect class="cls-4" x="41" y="23" width="30" height="56" rx="4" ry="4"/>
    <rect class="cls-5" x="44" y="29" width="24" height="41"/>
    <path class="cls-6" d="M59.27,28H51.73c-.4,0-.73-.45-.73-1s.33-1,.73-1h7.54c.4,0,.73.45.73,1S59.67,28,59.27,28Z"/>
    <path class="cls-6" d="M59.35,74.89h-6.7c-.36,0-.65-.4-.65-.89s.29-.89.65-.89h6.7c.36,0,.65.4.65.89S59.71,74.89,59.35,74.89Z"/>
    <circle class="cls-6" cx="47" cy="74" r="1"/>
    <circle class="cls-6" cx="65" cy="74" r="1"/>
    <rect class="cls-6" x="47" y="35" width="10" height="7"/>
    <rect class="cls-7" x="58" y="35" width="7" height="7"/>
    <rect class="cls-8" x="47" y="43" width="7" height="7"/>
  </g>
</svg>
