<svg id="ICONS" xmlns="http://www.w3.org/2000/svg" viewBox="0 0 150 105">
  <defs>
    <style>
      .cls-1, .cls-2, .cls-9 {
        fill: #fff;
      }

      .cls-1, .cls-4 {
        stroke: #556a8a;
        stroke-linecap: round;
        stroke-linejoin: round;
      }

      .cls-1, .cls-4, .cls-8, .cls-9 {
        stroke-width: 2px;
      }

      .cls-3 {
        fill: #2bc7f4;
      }

      .cls-4, .cls-6, .cls-8 {
        fill: none;
      }

      .cls-5 {
        fill: #e5e5e5;
      }

      .cls-7 {
        fill: #ace8f9;
      }

      .cls-8 {
        stroke: #2bc7f4;
      }

      .cls-8, .cls-9 {
        stroke-miterlimit: 10;
      }

      .cls-9 {
        stroke: #bad80a;
      }

      .cls-10 {
        fill: #556a8a;
      }
    </style>
  </defs>
  <title>ms365enterprise-information-end-user-help-13</title>
  <g>
    <g>
      <g>
        <g>
          <rect class="cls-1" x="38" y="22" width="90" height="71.09"/>
          <path class="cls-2" d="M83,91a9.89,9.89,0,0,0-6.46-3H47V17H77.35C82.29,17,83,24.33,83,24.33S83.71,17,88.65,17H119V88H89.46A9.89,9.89,0,0,0,83,91"/>
          <rect class="cls-3" x="82.05" y="22.84" width="1.9" height="67.16"/>
          <path class="cls-4" d="M83,91a9.89,9.89,0,0,0-6.46-3H47V17H77.35C82.29,17,83,24.33,83,24.33S83.71,17,88.65,17H119V88H89.46A9.89,9.89,0,0,0,83,91"/>
        </g>
        <rect class="cls-5" x="48" y="18" width="9" height="69"/>
        <rect class="cls-5" x="109" y="18" width="9" height="69"/>
      </g>
      <g>
        <rect class="cls-6" x="19" y="8" width="48" height="48"/>
        <path class="cls-2" d="M28,9v9L43,33V51H53V33l1.35-1.35L68,18V9Z"/>
        <polygon class="cls-7" points="69 9 69 18 54 33 28 9 69 9"/>
        <path class="cls-8" d="M28,9v9L43,33V51H53V33L68,18V9Z"/>
      </g>
      <rect class="cls-7" x="48" y="27" width="4" height="23"/>
    </g>
    <circle class="cls-9" cx="112" cy="60" r="19.5"/>
    <path class="cls-10" d="M110.38,66.42a8.23,8.23,0,0,1-.3-1.29,9.44,9.44,0,0,1-.13-1.57,4.89,4.89,0,0,1,.49-2.2,9.11,9.11,0,0,1,1.21-1.84,18.39,18.39,0,0,1,1.58-1.65q.86-.79,1.58-1.6A9.15,9.15,0,0,0,116,54.59a4,4,0,0,0,.49-2,3.57,3.57,0,0,0-.35-1.62,3.43,3.43,0,0,0-1-1.18,4.24,4.24,0,0,0-1.41-.71,5.93,5.93,0,0,0-1.69-.24,7.39,7.39,0,0,0-5.58,2.53V48.06a11.21,11.21,0,0,1,6-1.83,9.47,9.47,0,0,1,2.72.38,6.72,6.72,0,0,1,2.24,1.13A5.34,5.34,0,0,1,119,49.63a5.85,5.85,0,0,1,.55,2.61,6.08,6.08,0,0,1-.5,2.51,9.06,9.06,0,0,1-1.25,2,16,16,0,0,1-1.63,1.72q-.88.8-1.63,1.59a8.73,8.73,0,0,0-1.25,1.65,3.7,3.7,0,0,0-.5,1.88,5.64,5.64,0,0,0,.21,1.59,11.39,11.39,0,0,0,.42,1.21Zm1.71,7.92a2.11,2.11,0,0,1-1.49-.61,2,2,0,0,1-.63-1.49,2,2,0,0,1,.63-1.49,2.07,2.07,0,0,1,3,0,2,2,0,0,1,.63,1.49,2,2,0,0,1-.63,1.49A2.11,2.11,0,0,1,112.09,74.34Z"/>
  </g>
</svg>
