<?xml version="1.0" encoding="UTF-8" standalone="no"?>
<!-- Generator: Adobe Illustrator 23.0.3, SVG Export Plug-In . SVG Version: 6.00 Build 0)  -->

<svg
   xmlns:dc="http://purl.org/dc/elements/1.1/"
   xmlns:cc="http://creativecommons.org/ns#"
   xmlns:rdf="http://www.w3.org/1999/02/22-rdf-syntax-ns#"
   xmlns:svg="http://www.w3.org/2000/svg"
   xmlns="http://www.w3.org/2000/svg"
   xmlns:sodipodi="http://sodipodi.sourceforge.net/DTD/sodipodi-0.dtd"
   xmlns:inkscape="http://www.inkscape.org/namespaces/inkscape"
   version="1.1"
   id="Layer_1"
   x="0px"
   y="0px"
   viewBox="0 0 400 140"
   style="enable-background:new 0 0 400 140;"
   xml:space="preserve"
   sodipodi:docname="DMC_Surface_HubTile_Government-01.svg"
   inkscape:version="0.92.3 (2405546, 2018-03-11)"
   inkscape:export-filename="C:\Users\emilija\Desktop\125 - Icons Hub tiles for new compliance offering landing page DMC\DMC_Surface_HubTile_Government-01.png"
   inkscape:export-xdpi="96"
   inkscape:export-ydpi="96"><metadata
   id="metadata5512"><rdf:RDF><cc:Work
       rdf:about=""><dc:format>image/svg+xml</dc:format><dc:type
         rdf:resource="http://purl.org/dc/dcmitype/StillImage" /><dc:title /></cc:Work></rdf:RDF></metadata><defs
   id="defs5510"><pattern
     y="0"
     x="0"
     height="6"
     width="6"
     patternUnits="userSpaceOnUse"
     id="EMFhbasepattern" /></defs><sodipodi:namedview
   pagecolor="#ffffff"
   bordercolor="#666666"
   borderopacity="1"
   objecttolerance="10"
   gridtolerance="10"
   guidetolerance="10"
   inkscape:pageopacity="0"
   inkscape:pageshadow="2"
   inkscape:window-width="1920"
   inkscape:window-height="1027"
   id="namedview5508"
   showgrid="false"
   inkscape:zoom="0.71"
   inkscape:cx="-28.873239"
   inkscape:cy="70"
   inkscape:window-x="-8"
   inkscape:window-y="-8"
   inkscape:window-maximized="1"
   inkscape:current-layer="Layer_1" />
<style
   type="text/css"
   id="style5471">
	.st0{fill:#939393;}
	.st1{fill:#C2C2C2;}
	.st2{fill:#0078D4;}
	.st3{fill:#F2F2F2;stroke:#FFFFFF;stroke-miterlimit:10;}
	.st4{fill:#F2F2F2;}
</style>
<path
   id="path832"
   d="M 0.3299412,0.54643183 H 402.48696 V 141.42539 H 0.3299412 Z"
   style="fill:#f2f2f2;fill-opacity:1;fill-rule:nonzero;stroke:none"
   inkscape:connector-curvature="0" /><g
   id="g5477">
	<path
   class="st0"
   d="M136.6,53.6c4-2,8.2-3,12.6-3c1.6,0,3.1,0.1,4.6,0.4c1.5,0.2,3,0.6,4.4,1.2c1.3-2.3,2.9-4.5,4.8-6.4   c1.9-1.9,4-3.6,6.2-5.1c2.3-1.5,4.6-2.7,7.2-3.6c2.5-0.9,5.1-1.6,7.8-1.9c-0.5-2.3-1.3-4.4-2.4-6.4c-1.2-2-2.6-3.7-4.3-5.1   c-1.7-1.4-3.7-2.5-5.8-3.3c-2.2-0.8-4.4-1.2-6.7-1.2c-2.5,0-4.9,0.5-7.2,1.4c-2.3,0.9-4.3,2.2-6,3.8c-1.7,1.6-3.2,3.5-4.3,5.7   c-1.1,2.2-1.8,4.6-2,7.1c-1.2-0.7-2.5-1.2-3.9-1.7c-1.4-0.4-2.7-0.6-4.2-0.6c-2.2,0-4.2,0.4-6.1,1.2c-1.9,0.8-3.6,1.9-5,3.4   c-1.4,1.4-2.6,3.1-3.4,5c-0.8,1.9-1.2,3.9-1.2,6.1c0,2.2,0.4,4.3,1.3,6.3c0.9,2,2.1,3.7,3.8,5.3C129.3,58.5,132.6,55.6,136.6,53.6z   "
   id="path5473" />
	<path
   class="st1"
   d="M216.6,66.3c-0.3,0-0.6,0-1,0c-0.5-3.4-1.5-6.5-3.1-9.4c-1.6-2.9-3.6-5.4-6-7.5c-2.4-2.1-5.1-3.8-8.2-4.9   c-3.1-1.2-6.3-1.8-9.8-1.8c-3.2,0-6.2,0.5-9,1.5c-2.8,1-5.4,2.4-7.8,4.2c-2.3,1.8-4.4,4-6.1,6.5c-1.7,2.5-2.9,5.3-3.7,8.3   c-1.8-1.6-3.8-2.8-6-3.6c-2.2-0.8-4.4-1.3-6.8-1.3c-2.7,0-5.3,0.5-7.7,1.5c-2.4,1-4.5,2.4-6.3,4.2c-1.8,1.8-3.2,3.9-4.2,6.3   c-1,2.4-1.5,4.9-1.5,7.7c0,2.7,0.5,5.3,1.5,7.7c1,2.4,2.4,4.5,4.2,6.3c1.8,1.8,3.9,3.2,6.3,4.2c2.4,1,4.9,1.5,7.7,1.5h57.5   c-0.5-2.2-0.7-4.5-0.7-6.8C206,81.3,210.1,72.5,216.6,66.3z"
   id="path5475" />
</g>
<circle
   class="st2"
   cx="240"
   cy="90.9"
   r="30"
   id="circle5479" />
<g
   id="g5505">
	<g
   id="g5503">
		<line
   class="st3"
   x1="227"
   y1="101.1"
   x2="227"
   y2="86"
   id="line5481" />
		<line
   class="st3"
   x1="253"
   y1="101.1"
   x2="253"
   y2="86"
   id="line5483" />
		<line
   class="st3"
   x1="248.7"
   y1="101.1"
   x2="248.7"
   y2="86"
   id="line5485" />
		<line
   class="st3"
   x1="244.4"
   y1="101.1"
   x2="244.4"
   y2="86"
   id="line5487" />
		<line
   class="st3"
   x1="240"
   y1="101.1"
   x2="240"
   y2="86"
   id="line5489" />
		<line
   class="st3"
   x1="235.7"
   y1="101.1"
   x2="235.7"
   y2="86"
   id="line5491" />
		<line
   class="st3"
   x1="231.4"
   y1="101.1"
   x2="231.4"
   y2="86"
   id="line5493" />
		<polyline
   class="st4"
   points="240,74.6 245.3,74.6 245.3,71.7 240.2,71.7   "
   id="polyline5495" />
		<rect
   x="239.6"
   y="71.7"
   class="st4"
   width="0.6"
   height="6"
   id="rect5497" />
		<polyline
   class="st4"
   points="248,81.3 257.4,86 222.7,86 240,77.5 248,81.3   "
   id="polyline5499" />
		<polyline
   class="st4"
   points="224.8,103.7 223.8,106.5 256.3,106.5 254.1,101 225.9,101 224.8,103.7   "
   id="polyline5501" />
	</g>
</g>
</svg>