<?xml version="1.0" encoding="UTF-8" standalone="no"?>
<!-- Generator: Adobe Illustrator 23.0.3, SVG Export Plug-In . SVG Version: 6.00 Build 0)  -->

<svg
   xmlns:dc="http://purl.org/dc/elements/1.1/"
   xmlns:cc="http://creativecommons.org/ns#"
   xmlns:rdf="http://www.w3.org/1999/02/22-rdf-syntax-ns#"
   xmlns:svg="http://www.w3.org/2000/svg"
   xmlns="http://www.w3.org/2000/svg"
   xmlns:sodipodi="http://sodipodi.sourceforge.net/DTD/sodipodi-0.dtd"
   xmlns:inkscape="http://www.inkscape.org/namespaces/inkscape"
   version="1.1"
   id="Layer_1"
   x="0px"
   y="0px"
   viewBox="0 0 400 140"
   style="enable-background:new 0 0 400 140;"
   xml:space="preserve"
   sodipodi:docname="DMC_Surface_HubTile_Industry-01.svg"
   inkscape:version="0.92.3 (2405546, 2018-03-11)"><metadata
   id="metadata41"><rdf:RDF><cc:Work
       rdf:about=""><dc:format>image/svg+xml</dc:format><dc:type
         rdf:resource="http://purl.org/dc/dcmitype/StillImage" /><dc:title></dc:title></cc:Work></rdf:RDF></metadata><defs
   id="defs39"><pattern
     y="0"
     x="0"
     height="6"
     width="6"
     patternUnits="userSpaceOnUse"
     id="EMFhbasepattern" /></defs><sodipodi:namedview
   pagecolor="#ffffff"
   bordercolor="#666666"
   borderopacity="1"
   objecttolerance="10"
   gridtolerance="10"
   guidetolerance="10"
   inkscape:pageopacity="0"
   inkscape:pageshadow="2"
   inkscape:window-width="1686"
   inkscape:window-height="872"
   id="namedview37"
   showgrid="false"
   inkscape:zoom="1.42"
   inkscape:cx="99.416601"
   inkscape:cy="63.29487"
   inkscape:window-x="0"
   inkscape:window-y="0"
   inkscape:window-maximized="0"
   inkscape:current-layer="Layer_1" />
<style
   type="text/css"
   id="style2">
	.st0{fill:#0078D4;}
	.st1{fill:#939393;}
	.st2{fill:#C2C2C2;}
	.st3{fill:#FFFFFF;stroke:#FFFFFF;stroke-width:1.5307;stroke-linecap:square;stroke-miterlimit:8;}
</style>
<path
   id="path4555"
   d="M -0.37428796,-0.86201386 H 401.78274 V 140.01695 H -0.37428796 Z"
   style="fill:#f2f2f2;fill-opacity:1;fill-rule:nonzero;stroke:none"
   inkscape:connector-curvature="0"
   inkscape:export-filename="C:\Users\emilija\Desktop\125 - Icons Hub tiles for new compliance offering landing page DMC\DMC_Surface_HubTile_Industry-01.png"
   inkscape:export-xdpi="96"
   inkscape:export-ydpi="96" /><circle
   class="st0"
   cx="239.8"
   cy="95.2"
   r="30"
   id="circle4" />
<g
   id="g10">
	<path
   class="st1"
   d="M136.4,57.9c4-2,8.2-3,12.6-3c1.6,0,3.1,0.1,4.6,0.4c1.5,0.2,3,0.6,4.4,1.2c1.3-2.3,2.9-4.5,4.8-6.4   c1.9-1.9,4-3.6,6.2-5.1c2.3-1.5,4.6-2.7,7.2-3.6c2.5-0.9,5.1-1.6,7.8-1.9c-0.5-2.3-1.3-4.4-2.4-6.4c-1.2-2-2.6-3.7-4.3-5.1   c-1.7-1.4-3.7-2.5-5.8-3.3c-2.2-0.8-4.4-1.2-6.7-1.2c-2.5,0-4.9,0.5-7.2,1.4c-2.3,0.9-4.3,2.2-6,3.8c-1.7,1.6-3.2,3.5-4.3,5.7   c-1.1,2.2-1.8,4.6-2,7.1c-1.2-0.7-2.5-1.2-3.9-1.7c-1.4-0.4-2.7-0.6-4.2-0.6c-2.2,0-4.2,0.4-6.1,1.2c-1.9,0.8-3.6,1.9-5,3.4   c-1.4,1.4-2.6,3.1-3.4,5c-0.8,1.9-1.2,3.9-1.2,6.1c0,2.2,0.4,4.3,1.3,6.3c0.9,2,2.1,3.7,3.8,5.3C129.2,62.7,132.4,59.9,136.4,57.9z   "
   id="path6" />
	<path
   class="st2"
   d="M216.4,70.6c-0.3,0-0.6,0-1,0c-0.5-3.4-1.5-6.5-3.1-9.4c-1.6-2.9-3.6-5.4-6-7.5c-2.4-2.1-5.1-3.8-8.2-4.9   c-3.1-1.2-6.3-1.8-9.8-1.8c-3.2,0-6.2,0.5-9,1.5c-2.8,1-5.4,2.4-7.8,4.2c-2.3,1.8-4.4,4-6.1,6.5c-1.7,2.5-2.9,5.3-3.7,8.3   c-1.8-1.6-3.8-2.8-6-3.6c-2.2-0.8-4.4-1.3-6.8-1.3c-2.7,0-5.3,0.5-7.7,1.5c-2.4,1-4.5,2.4-6.3,4.2c-1.8,1.8-3.2,3.9-4.2,6.3   c-1,2.4-1.5,4.9-1.5,7.7c0,2.7,0.5,5.3,1.5,7.7c1,2.4,2.4,4.5,4.2,6.3c1.8,1.8,3.9,3.2,6.3,4.2c2.4,1,4.9,1.5,7.7,1.5h57.5   c-0.5-2.2-0.7-4.5-0.7-6.8C205.8,85.5,209.9,76.8,216.4,70.6z"
   id="path8" />
</g>
<g
   id="g34">
	<polyline
   class="st3"
   points="261.4,89.2 261.4,105.1 218.3,105.1 218.3,89.2 226.6,82.9 226.6,89.2 235.8,82.9 235.8,89.2    261.4,89.2  "
   id="polyline12" />
	<rect
   x="219.2"
   y="90.1"
   class="st0"
   width="41.2"
   height="14.4"
   id="rect14" />
	<polyline
   class="st3"
   points="252.1,89.2 249.9,77.9 248.1,77.9 246.3,89.2  "
   id="polyline16" />
	<polyline
   class="st3"
   points="259.6,89.2 257.4,77.9 255.5,77.9 253.7,89.2  "
   id="polyline18" />
	<polyline
   class="st3"
   points="224.5,94 222.2,94 222.2,96.3 224.5,96.3 224.5,94  "
   id="polyline20" />
	<polyline
   class="st3"
   points="232.6,94 230.5,94 230.5,96.3 232.6,96.3 232.6,94  "
   id="polyline22" />
	<polyline
   class="st3"
   points="240.9,94 238.8,94 238.8,96.3 240.9,96.3 240.9,94  "
   id="polyline24" />
	<polyline
   class="st3"
   points="249.2,94 246.9,94 246.9,96.3 249.2,96.3 249.2,94  "
   id="polyline26" />
	<polyline
   class="st3"
   points="257.4,94 255.3,94 255.3,96.3 257.4,96.3 257.4,94  "
   id="polyline28" />
	<polyline
   class="st0"
   points="219.2,90.1 225.4,85.9 225.4,90.1 227.7,90.1  "
   id="polyline30" />
	<polyline
   class="st0"
   points="228.3,90.1 234.5,85.9 234.5,90.1 236.8,90.1  "
   id="polyline32" />
</g>
</svg>