<svg width="160" height="188" viewBox="0 0 160 188" fill="none" xmlns="http://www.w3.org/2000/svg">
<g clip-path="url(#clip0)">
<path d="M79.6779 188C82.7592 187.994 85.7796 187.141 88.4083 185.534L150.384 147.874C153.165 146.11 155.449 143.665 157.019 140.771C158.589 137.876 159.394 134.628 159.356 131.336V56.6207C159.392 53.3283 158.587 50.0812 157.017 47.1871C155.447 44.2929 153.163 41.8476 150.384 40.0829L88.4083 2.4228C85.7749 0.837605 82.7592 0 79.6855 0C76.6118 0 73.5961 0.837605 70.9627 2.4228L8.9876 40.098C6.2045 41.8604 3.91796 44.3048 2.34499 47.1991C0.772021 50.0935 -0.0351786 53.3418 4.1431e-06 56.6358V131.336C-0.0185283 134.119 0.556189 136.874 1.68588 139.418C2.81557 141.962 4.4743 144.236 6.5516 146.089V146.115L70.9627 185.549C73.5884 187.149 76.6032 187.996 79.6779 188V188ZM80.3257 6.95218C82.2776 6.95218 84.7548 8.1651 86.4646 9.20912L147.222 46.4034C150.974 48.6881 153.09 55.2842 153.09 60.0352L152.458 131.336C152.458 136.087 149.259 140.355 145.506 142.64L85.1104 179.021C81.6758 181.109 78.8854 181.109 75.4507 179.021L14.2427 142.549C10.4903 140.265 7.47191 136.072 7.47191 131.336V57.688C7.50442 55.3228 8.11341 53.0013 9.24608 50.9247C10.3787 48.8482 12.0009 47.0792 13.9718 45.7714L74.548 9.20912C76.2577 8.1651 78.3739 6.95218 80.3257 6.95218Z" fill="#F2F1F0"/>
<path fill-rule="evenodd" clip-rule="evenodd" d="M87.5765 10.5318C85.2056 9.05825 82.4697 8.27734 79.6783 8.27734C76.8868 8.27734 74.1509 9.05825 71.7801 10.5318L15.6454 44.8632C13.1193 46.4748 11.047 48.7052 9.625 51.3427C8.203 53.9801 7.47851 56.9372 7.52026 59.9333V128.036C7.48034 131.032 8.20562 133.989 9.62745 136.626C11.0493 139.263 13.1206 141.493 15.6454 143.106L71.7801 177.437C74.1508 178.911 76.8867 179.692 79.6783 179.692C82.4698 179.692 85.2057 178.911 87.5765 177.437L143.711 143.106C146.236 141.494 148.307 139.263 149.729 136.626C151.151 133.989 151.877 131.032 151.837 128.036V59.9333C151.875 56.9377 151.149 53.9819 149.727 51.3451C148.305 48.7082 146.234 46.4773 143.711 44.8632L87.5765 10.5318Z" fill="url(#paint0_linear)"/>
<path fill-rule="evenodd" clip-rule="evenodd" d="M79.6783 9.7539C81.3615 9.7539 83.2442 10.6196 85.311 11.8777L143.777 47.4201C145.668 48.6335 147.218 50.3104 148.278 52.2914C149.339 54.2725 149.875 56.4918 149.837 58.7386V129.217C149.875 131.464 149.339 133.683 148.278 135.664C147.218 137.645 145.668 139.322 143.777 140.535L85.312 176.077L85.311 176.078C83.6408 177.217 81.6958 177.888 79.6783 178.021C77.6609 177.888 75.7158 177.217 74.0456 176.078L74.0446 176.077L15.5823 140.537L15.5801 140.536C13.7918 139.572 12.2668 138.185 11.1383 136.496C10.1614 134.893 9.52031 132.678 9.52031 129.217V58.7386C9.48157 56.4919 10.018 54.2726 11.0785 52.2916C12.139 50.3106 13.6885 48.6336 15.5797 47.4202L74.0365 11.8831L74.0406 11.8807C76.1244 10.6277 77.9846 9.7539 79.6783 9.7539ZM87.3908 8.4609L145.855 44.0021C148.333 45.5722 150.368 47.751 151.765 50.3307C153.162 52.9104 153.876 55.8051 153.837 58.7386V129.217C153.876 132.151 153.162 135.045 151.765 137.625C150.368 140.205 148.333 142.384 145.855 143.954L87.3898 179.495C85.0956 181.02 82.4302 181.893 79.6783 182.021C76.9264 181.893 74.261 181.02 71.9667 179.495H71.9658L13.502 143.953L13.4995 143.952C11.1642 142.659 9.18097 140.814 7.72281 138.578C6.12823 135.725 5.36521 132.482 5.52031 129.217V58.7386C5.48125 55.805 6.19436 52.9103 7.59165 50.3305C8.98894 47.7508 11.0238 45.572 13.5022 44.002L71.9667 8.46025L71.9749 8.45537C74.0655 7.19796 76.7734 5.75391 79.6783 5.75391C82.5645 5.75391 85.2816 7.17699 87.3908 8.46085V8.4609Z" fill="#0078D4"/>
<path opacity="0.2" d="M139.959 132.028L80.409 166.635L20.47 132.029L80.02 97.4219L139.959 132.028Z" fill="#003067"/>
<path d="M140.532 120.545L79.81 155.833L18.698 120.55L79.42 85.2617L140.532 120.545Z" fill="#1B93EB"/>
<path d="M140.532 120.547L140.52 124.653L79.798 159.941L79.81 155.835L140.532 120.547Z" fill="#1F56A3"/>
<path d="M79.81 155.834L79.798 159.94L18.686 124.657L18.698 120.551L79.81 155.834Z" fill="#0078D4"/>
<path d="M28.421 120.116L79.182 90.6172L130.316 120.139L79.556 149.638L28.421 120.116Z" stroke="url(#paint1_radial)" stroke-width="0.75" stroke-miterlimit="10"/>
<path d="M38.397 120.104L79.19 96.3984L120.34 120.156L79.548 143.862L38.397 120.104Z" stroke="url(#paint2_radial)" stroke-width="0.75" stroke-miterlimit="10"/>
<path d="M48.3719 120.09L79.1979 102.176L110.365 120.17L79.5399 138.084L48.3719 120.09Z" stroke="url(#paint3_radial)" stroke-width="0.75" stroke-miterlimit="10"/>
<path opacity="0.2" d="M96.3274 109.474C99.1787 111.121 100.216 113.417 99.4094 115.543C99.9494 115.731 100.471 115.97 100.967 116.255C104.413 118.245 104.421 121.475 100.997 123.464C100.589 123.702 100.162 123.908 99.722 124.08C99.6585 124.106 99.5705 124.134 99.502 124.162C98.8283 124.407 98.1363 124.597 97.4325 124.733C97.3493 124.747 97.2611 124.758 97.1731 124.776C94.2274 125.294 91.193 124.835 88.5319 123.47L70.6915 113.125C68.9008 111.864 69.0029 109.988 71.0396 108.805C72.259 108.184 73.6079 107.86 74.9764 107.859C76.3448 107.859 77.694 108.182 78.9139 108.802C79.3232 109.029 79.691 109.323 80.0017 109.673C80.0993 109.605 80.2116 109.54 80.3191 109.477C84.7294 106.914 91.8932 106.914 96.3274 109.474Z" fill="#003067"/>
<path d="M99.6743 105.496L99.6707 106.751C99.6679 107.231 99.5781 107.706 99.4059 108.154L99.4094 106.898C99.5817 106.451 99.6714 105.976 99.6743 105.496V105.496Z" fill="#F2F2F2"/>
<path d="M100.997 114.819C100.589 115.056 100.162 115.262 99.722 115.435C99.6585 115.46 99.5704 115.489 99.502 115.517C98.8282 115.761 98.1363 115.952 97.4325 116.088C97.3493 116.102 97.2612 116.113 97.173 116.13C94.2273 116.648 91.1931 116.19 88.5319 114.825L70.6914 104.479C70.3285 104.266 70.0233 103.966 69.8027 103.608C69.582 103.249 69.4524 102.842 69.4253 102.422L69.4218 103.677C69.4489 104.097 69.5784 104.505 69.7991 104.863C70.0198 105.222 70.3249 105.521 70.6878 105.734L88.5283 116.08C91.1895 117.445 94.2237 117.903 97.1694 117.385C97.2576 117.368 97.3457 117.357 97.4289 117.343C98.1327 117.207 98.8247 117.017 99.4985 116.772C99.5668 116.744 99.6549 116.716 99.7184 116.69C100.159 116.517 100.585 116.312 100.994 116.074C102.697 115.084 103.551 113.787 103.555 112.489L103.558 111.234C103.555 112.532 102.701 113.829 100.997 114.819Z" fill="#F2F2F2"/>
<path d="M96.3274 100.83C99.1787 102.476 100.216 104.772 99.4094 106.898C99.9494 107.087 100.471 107.325 100.967 107.61C104.413 109.6 104.421 112.83 100.997 114.82C100.589 115.057 100.162 115.263 99.722 115.436C99.6585 115.461 99.5705 115.49 99.502 115.518C98.8283 115.762 98.1363 115.953 97.4325 116.088C97.3493 116.103 97.2611 116.114 97.1731 116.131C94.2274 116.649 91.193 116.191 88.5319 114.825L70.6915 104.48C68.9008 103.22 69.0029 101.344 71.0396 100.16C72.259 99.5391 73.6079 99.2151 74.9764 99.2146C76.3448 99.2141 77.694 99.5371 78.9139 100.157C79.3232 100.384 79.691 100.679 80.0017 101.029C80.0993 100.96 80.2116 100.895 80.3191 100.833C84.7294 98.2698 91.8932 98.2698 96.3274 100.83Z" fill="white"/>
<path d="M109.294 97.8865C107.623 100.115 105.565 102.025 103.218 103.525C102.891 103.734 102.559 103.937 102.224 104.132L110.468 99.3409C110.804 99.1458 111.135 98.9434 111.463 98.7338C116.476 95.5603 120.046 90.5485 121.406 84.7734L113.162 89.5644C112.436 92.5671 111.121 95.3958 109.294 97.8865V97.8865Z" fill="url(#paint4_linear)"/>
<path d="M66.201 52.8984L57.9561 57.6894L83.6551 72.5264L91.8991 67.7354L66.201 52.8984Z" fill="#003067"/>
<path d="M95.708 69.9336L87.464 74.7246L113.162 89.5616L121.406 84.7706L95.708 69.9336Z" fill="#003067"/>
<path d="M83.6548 72.5279L91.899 67.7369L91.8842 72.9519L87.4636 74.7269L91.8035 101.403L83.5593 106.194L83.6548 72.5279ZM91.9975 32.9727L83.7533 37.7637L83.6673 68.1427L91.9114 63.3517L87.5621 39.9627L91.9849 37.3924L91.9975 32.9727Z" fill="url(#paint5_linear)"/>
<path d="M120.129 57.6639C119.308 57.1553 118.501 56.6381 117.702 56.1082C116.118 55.0519 114.588 53.9162 113.119 52.7055C111.571 51.4354 110.101 50.0729 108.717 48.6254C107.216 47.0527 105.817 45.3863 104.527 43.6362C103.282 41.9254 101.887 40.329 100.359 38.866C98.9386 37.5194 97.4165 36.2843 95.8064 35.1716L91.9851 37.3923L91.9976 32.9726C90.5423 32.2795 89.0129 31.7541 87.4389 31.4066C86.0761 31.1052 84.6663 31.0837 83.2949 31.3434C81.8984 31.5998 80.4723 31.6536 79.0604 31.5032C77.5577 31.3298 76.0787 30.9918 74.6498 30.4953C73.0708 29.9596 71.5284 29.3217 70.0322 28.5858C69.2329 28.1931 68.4336 27.7832 67.627 27.3518C67.3876 27.1931 67.1113 27.099 66.8248 27.0785C66.5384 27.058 66.2515 27.1118 65.9919 27.2347L57.7477 32.0257C58.0072 31.9028 58.2942 31.849 58.5806 31.8695C58.8671 31.89 59.1434 31.9841 59.3828 32.1428C60.1895 32.5742 60.9888 32.984 61.788 33.3768C63.2842 34.1127 64.8266 34.7506 66.4056 35.2863C67.8345 35.7828 69.3136 36.1208 70.8163 36.2942C72.2281 36.4446 73.6542 36.3908 75.0507 36.1344C76.422 35.8747 77.8319 35.8962 79.1947 36.1976C80.7687 36.5451 82.2981 37.0705 83.7534 37.7636L83.6672 68.1426L91.9114 63.3516L91.9676 43.5278C92.0154 43.5725 92.0673 43.612 92.1148 43.6569C93.6433 45.1199 95.0382 46.7163 96.2829 48.4272C97.5725 50.1773 98.972 51.8437 100.473 53.4163C101.857 54.8639 103.327 56.2264 104.875 57.4965C106.344 58.7072 107.874 59.8429 109.458 60.8992C110.257 61.4292 111.064 61.9463 111.885 62.4549C112.564 62.9184 113.128 63.532 113.532 64.2482C113.936 64.9644 114.169 65.764 114.215 66.585L114.173 81.3712C114.171 82.1006 114.146 82.8172 114.107 83.525C114.06 84.2286 113.991 84.9192 113.891 85.5926L122.136 80.8016C122.235 80.1282 122.304 79.4376 122.351 78.734C122.39 78.0261 122.415 77.3096 122.417 76.5802L122.459 61.794C122.414 60.973 122.18 60.1734 121.776 59.4572C121.372 58.741 120.808 58.1274 120.129 57.6639V57.6639Z" fill="url(#paint6_linear)"/>
<path d="M57.9565 57.688L83.6549 72.525L83.5595 106.191C80.7642 102.703 78.0118 99.0109 75.3023 95.1143C72.5947 91.2285 70.0869 87.2072 67.7887 83.066C65.5217 78.9894 63.5124 74.7748 61.7728 70.4468C60.1002 66.3241 58.8223 62.052 57.9565 57.688V57.688ZM87.3682 108.39C90.175 108.135 92.9531 107.628 95.6685 106.873C98.339 106.141 100.884 105.011 103.218 103.521C108.232 100.348 111.802 95.3361 113.162 89.561L87.4637 74.724L87.3682 108.39ZM75.0507 36.1315C73.6542 36.3879 72.2281 36.4417 70.8164 36.2913C69.3137 36.1179 67.8345 35.7799 66.4056 35.2834C64.8267 34.7477 63.2842 34.1098 61.7881 33.3739C60.9888 32.9812 60.1895 32.5713 59.3829 32.14C58.0832 31.4498 57.0491 32.0734 57.0448 33.5665L57.0031 48.3613C57.0158 49.0993 57.0436 49.846 57.0864 50.6013C57.1216 51.3523 57.1793 52.1162 57.2594 52.8931L83.6674 68.1397L83.7535 37.7607C82.2982 37.0676 80.7689 36.5422 79.1949 36.1947C77.832 35.8933 76.4221 35.8718 75.0507 36.1315V36.1315ZM111.885 62.4521C111.064 61.9435 110.257 61.4263 109.458 60.8963C107.874 59.8401 106.344 58.7044 104.875 57.4936C103.327 56.2236 101.857 54.861 100.473 53.4136C98.9721 51.8409 97.5726 50.1744 96.2831 48.4243C95.0383 46.7135 93.6434 45.117 92.1149 43.654C90.6945 42.3075 89.1724 41.0724 87.5623 39.9597L87.4761 70.3387L113.892 85.5897C113.991 84.9163 114.06 84.2257 114.107 83.5221C114.146 82.8142 114.171 82.0977 114.173 81.3682L114.215 66.5822C114.169 65.7611 113.936 64.9615 113.532 64.2453C113.128 63.5291 112.564 62.9155 111.885 62.4521V62.4521Z" fill="url(#paint7_linear)"/>
<path opacity="0.2" d="M78.9145 129.806C79.4828 130.134 79.4858 130.658 78.9275 130.982L77.3862 131.878C77.0708 132.039 76.7219 132.123 76.3679 132.123C76.0139 132.123 75.665 132.039 75.3497 131.878L57.7472 121.715C57.6243 121.673 57.5175 121.594 57.4416 121.489C57.3657 121.384 57.3246 121.258 57.3239 121.128C57.3231 120.998 57.3629 120.871 57.4376 120.765C57.5123 120.659 57.6182 120.579 57.7406 120.536L59.282 119.64C59.5967 119.481 59.9446 119.398 60.2974 119.398C60.6502 119.399 60.9979 119.483 61.312 119.644L78.9145 129.806Z" fill="#003067"/>
<path d="M83.5785 95.0895C83.8683 95.279 84.1095 95.5339 84.2826 95.8338C84.4557 96.1336 84.5559 96.47 84.5751 96.8157L84.5338 111.391C84.4995 123.488 71.4936 125.749 68.6649 126.101C68.4747 126.111 68.2862 126.061 68.1254 125.959C67.9177 125.834 67.735 125.671 67.5867 125.479C64.7691 121.889 51.8187 104.642 51.853 92.5224L51.8943 77.9473C51.9157 77.328 52.3486 77.0589 52.8976 77.3759C62.9948 82.9121 60.6956 76.553 68.263 80.922C75.8106 85.2797 73.483 88.9676 83.5785 95.0895ZM83.1807 110.745L83.2187 97.3639C83.1938 97.047 83.0985 96.7398 82.9396 96.4645C82.7807 96.1893 82.5623 95.953 82.3003 95.7731C73.0477 90.1603 75.1781 86.7873 68.2577 82.7918C61.3176 78.785 63.422 84.6029 54.1678 79.5308C54.0781 79.4598 53.9693 79.4172 53.8552 79.4086C53.7412 79.3999 53.6271 79.4255 53.5278 79.4822C53.4284 79.5388 53.3482 79.6239 53.2976 79.7264C53.2469 79.829 53.2281 79.9443 53.2435 80.0577L53.2055 93.4387C53.174 104.545 65.0486 120.358 67.6313 123.654C67.7667 123.838 67.9363 123.993 68.1307 124.112C68.2794 124.207 68.4556 124.249 68.6311 124.232C71.2239 123.924 83.1492 121.851 83.1807 110.745" fill="#0078D4"/>
<path d="M60.8323 101.733C61.194 102.329 61.4484 102.984 61.584 103.668C61.632 103.92 61.6565 104.176 61.6572 104.433C61.658 104.654 61.6336 104.875 61.5846 105.09C61.3049 106.285 60.2435 106.685 58.9824 105.957C58.2083 105.453 57.5641 104.774 57.1022 103.974C56.6404 103.174 56.3741 102.276 56.3248 101.354C56.3297 99.642 57.5295 98.9809 58.9997 99.8297C59.2771 99.9924 59.5354 100.186 59.7699 100.405C60.1849 100.796 60.5426 101.243 60.8323 101.733Z" fill="#50E6FF"/>
<path d="M77.3103 110.399C78.0864 110.901 78.7321 111.58 79.1942 112.38C79.6562 113.181 79.9214 114.079 79.9679 115.002C79.9631 116.692 78.7634 117.375 77.2929 116.527C76.6246 116.089 76.051 115.521 75.6063 114.857C75.1616 114.194 74.8548 113.447 74.7042 112.663C74.6591 112.419 74.6361 112.171 74.6354 111.923C74.6345 111.695 74.6599 111.468 74.7112 111.245C74.7503 111.029 74.8352 110.823 74.96 110.642C75.0848 110.461 75.2468 110.309 75.4351 110.195C75.7684 110.024 76.1531 109.982 76.5154 110.077C76.7952 110.144 77.0632 110.252 77.3103 110.399Z" fill="#50E6FF"/>
<path d="M69.8779 93.5898L76.5155 110.078C76.1532 109.983 75.7685 110.025 75.4352 110.196L68.7979 93.7213C69.1617 93.8131 69.5467 93.7663 69.8779 93.5898V93.5898Z" fill="#9CEBFF"/>
<path d="M66.1604 91.5C66.4489 91.9881 66.8048 92.433 67.2175 92.8219L60.8323 101.734C60.5426 101.243 60.1849 100.796 59.7699 100.406L66.1604 91.5Z" fill="#9CEBFF"/>
<path d="M82.3004 95.7724C82.5624 95.9524 82.7808 96.1886 82.9397 96.4638C83.0986 96.739 83.1939 97.0463 83.2187 97.3632L83.1808 110.744C83.1493 121.85 71.2241 123.923 68.6312 124.231C68.4557 124.248 68.2795 124.206 68.1308 124.111C67.9364 123.992 67.7668 123.837 67.6314 123.654C65.0487 120.358 53.1741 104.544 53.2056 93.438L53.2436 80.057C53.2282 79.9437 53.247 79.8283 53.2977 79.7258C53.3483 79.6232 53.4285 79.5382 53.5279 79.4815C53.6272 79.4249 53.7413 79.3992 53.8553 79.4079C53.9694 79.4166 54.0782 79.4591 54.1679 79.5301C63.4221 84.6023 61.3177 78.7843 68.2578 82.7912C75.1782 86.7866 73.0478 90.1596 82.3004 95.7724ZM77.293 116.528C78.7635 117.377 79.9631 116.694 79.9679 115.004C79.9215 114.081 79.6563 113.182 79.1942 112.382C78.7322 111.582 78.0865 110.903 77.3104 110.401C77.0633 110.254 76.7952 110.146 76.5155 110.079L69.8779 93.5909C70.1506 93.4016 70.3675 93.1427 70.5063 92.8412C70.645 92.5397 70.7005 92.2065 70.6669 91.8763C70.6176 90.954 70.3513 90.0564 69.8895 89.2565C69.4277 88.4566 68.7835 87.7771 68.0094 87.2733C66.5389 86.4243 65.3393 87.1081 65.3345 88.7976C65.3674 89.7551 65.6524 90.6869 66.1605 91.4991L59.77 100.405C59.5355 100.185 59.2771 99.9922 58.9998 99.8295C57.5296 98.9806 56.3298 99.6417 56.3249 101.354C56.3741 102.276 56.6405 103.174 57.1023 103.974C57.5641 104.773 58.2083 105.453 58.9825 105.957C60.2436 106.685 61.305 106.285 61.5847 105.09L74.7043 112.665C74.8549 113.449 75.1617 114.196 75.6064 114.859C76.0511 115.523 76.6247 116.091 77.293 116.528L77.293 116.528ZM67.2176 92.821L60.8324 101.733C61.194 102.329 61.4484 102.984 61.5841 103.668L74.7112 111.247C74.7504 111.031 74.8352 110.825 74.9601 110.644C75.0849 110.463 75.2468 110.31 75.4351 110.197L68.7978 93.7224C68.514 93.6581 68.2421 93.5495 67.992 93.4007C67.7131 93.2369 67.4533 93.0425 67.2176 92.821V92.821Z" fill="url(#paint8_linear)"/>
<path d="M68.0093 87.271C68.7834 87.7748 69.4276 88.4543 69.8894 89.2542C70.3512 90.054 70.6175 90.9517 70.6668 91.874C70.7004 92.2042 70.6449 92.5373 70.5062 92.8389C70.3675 93.1404 70.1505 93.3993 69.8778 93.5886C69.5466 93.765 69.1616 93.8119 68.7978 93.72C68.5139 93.6557 68.242 93.5472 67.9919 93.3984C67.713 93.2346 67.4532 93.0401 67.2175 92.8186C66.8048 92.4298 66.4489 91.9848 66.1603 91.4968C65.6522 90.6846 65.3673 89.7528 65.3344 88.7953C65.3392 87.1058 66.5388 86.422 68.0093 87.271Z" fill="#50E6FF"/>
<path d="M61.584 103.668C61.6319 103.92 61.6565 104.176 61.6572 104.432C61.6579 104.653 61.6336 104.874 61.5846 105.09L74.7042 112.664C74.6591 112.421 74.6361 112.173 74.6354 111.925C74.6345 111.697 74.6599 111.469 74.7111 111.247L61.584 103.668Z" fill="#9CEBFF"/>
<path d="M77.5695 123.194L81.8979 120.679C84.8869 119.067 87.15 116.377 88.2272 113.156C86.7849 113.995 85.3423 114.833 83.8995 115.672C82.8219 118.892 80.5586 121.582 77.5695 123.194V123.194Z" fill="#1F56A3"/>
<path d="M87.9067 92.572C77.8112 86.45 80.1389 82.7621 72.591 78.4046C65.024 74.0354 67.3233 80.3947 57.2259 74.8583C57.1261 74.7857 57.0086 74.7413 56.8858 74.7296C56.7629 74.718 56.6392 74.7396 56.5276 74.7922L52.1995 77.3074C52.3111 77.2549 52.4348 77.2333 52.5577 77.245C52.6805 77.2566 52.798 77.301 52.8978 77.3736C62.9948 82.9099 60.6956 76.5509 68.2633 80.9198C75.8108 85.2775 73.4831 88.9652 83.5786 95.0872C83.8684 95.2766 84.1096 95.5316 84.2827 95.8314C84.4558 96.1312 84.5559 96.4676 84.5749 96.8133L84.5337 111.388C84.5412 112.84 84.3273 114.284 83.8995 115.671C85.1521 114.943 86.4049 114.215 87.6578 113.487C87.7527 113.432 87.8478 113.376 87.9423 113.321C88.0375 113.266 88.1537 113.247 88.2272 113.156C88.6555 111.769 88.8696 110.325 88.8622 108.873L88.9034 94.2981C88.8842 93.9524 88.784 93.616 88.6109 93.3162C88.4378 93.0163 88.1965 92.7614 87.9067 92.572V92.572Z" fill="#1F56A3"/>
<path d="M53.7469 123.228L53.7422 124.858C53.6953 125.362 53.5158 125.843 53.222 126.254C52.9282 126.666 52.5306 126.991 52.0698 127.199C50.812 127.839 49.4208 128.172 48.0097 128.172C46.5985 128.172 45.2074 127.839 43.9495 127.199C43.4806 126.991 43.0759 126.661 42.7772 126.243C42.4785 125.826 42.2967 125.337 42.2506 124.826L42.2552 123.195C42.3013 123.706 42.4831 124.196 42.7818 124.613C43.0805 125.03 43.4852 125.36 43.9542 125.569C45.212 126.208 46.6032 126.542 48.0143 126.542C49.4255 126.542 50.8166 126.208 52.0745 125.568C52.5352 125.361 52.9328 125.035 53.2266 124.624C53.5204 124.213 53.6999 123.731 53.7469 123.228V123.228Z" fill="#E8E8E8"/>
<path d="M52.0544 120.863C54.3018 122.16 54.3136 124.269 52.0745 125.57C50.8167 126.21 49.4255 126.543 48.0143 126.543C46.6032 126.543 45.212 126.21 43.9542 125.57C41.7004 124.269 41.6885 122.16 43.9213 120.863C45.1809 120.221 46.5743 119.887 47.9879 119.887C49.4014 119.887 50.7948 120.221 52.0544 120.863Z" fill="white"/>
<path d="M51.2084 123.162C51.248 123.181 51.2825 123.208 51.309 123.243C51.3356 123.278 51.3534 123.318 51.361 123.361C51.3753 123.531 51.1525 123.672 50.8656 123.68L45.8711 123.817C45.737 123.825 45.6034 123.797 45.4835 123.736C45.4389 123.717 45.4002 123.686 45.3713 123.647C45.3424 123.608 45.3243 123.562 45.3188 123.514L45.3121 122.339C45.3112 122.173 45.5474 122.035 45.8343 122.035C45.9645 122.032 46.0932 122.063 46.2082 122.124C46.2504 122.143 46.2868 122.173 46.3135 122.211C46.3402 122.248 46.3563 122.293 46.3599 122.339L46.3647 123.197L50.8121 123.075C50.9497 123.068 51.0867 123.098 51.2084 123.162V123.162Z" fill="#0078D4"/>
<path d="M64.6361 129.392L64.6315 131.022C64.5846 131.526 64.405 132.007 64.1112 132.418C63.8175 132.83 63.4199 133.155 62.9591 133.363C61.7013 134.003 60.3101 134.336 58.899 134.336C57.4878 134.336 56.0966 134.003 54.8388 133.363C54.3699 133.155 53.9651 132.825 53.6664 132.407C53.3678 131.99 53.186 131.501 53.1399 130.99L53.1445 129.359C53.1906 129.87 53.3724 130.36 53.6711 130.777C53.9698 131.194 54.3745 131.524 54.8434 131.733C56.1012 132.372 57.4924 132.706 58.9036 132.706C60.3147 132.706 61.7059 132.372 62.9637 131.733C63.4245 131.525 63.8221 131.199 64.1159 130.788C64.4097 130.377 64.5892 129.895 64.6361 129.392V129.392Z" fill="#E8E8E8"/>
<path d="M62.9435 127.023C65.1909 128.32 65.2028 130.429 62.9636 131.73C61.7058 132.37 60.3146 132.703 58.9035 132.703C57.4923 132.703 56.1012 132.37 54.8433 131.73C52.5896 130.429 52.5777 128.32 54.8105 127.023C56.0701 126.381 57.4635 126.047 58.877 126.047C60.2905 126.047 61.684 126.381 62.9435 127.023V127.023Z" fill="white"/>
<path d="M62.0976 129.326C62.1371 129.345 62.1716 129.373 62.1982 129.407C62.2247 129.442 62.2426 129.482 62.2501 129.525C62.2644 129.695 62.0417 129.837 61.7547 129.844L56.7602 129.981C56.6262 129.989 56.4926 129.961 56.3727 129.9C56.3281 129.881 56.2894 129.85 56.2605 129.811C56.2315 129.772 56.2134 129.726 56.2079 129.678L56.2013 128.503C56.2004 128.337 56.4365 128.199 56.7235 128.199C56.8536 128.197 56.9823 128.227 57.0973 128.288C57.1396 128.307 57.1759 128.337 57.2027 128.375C57.2294 128.412 57.2454 128.457 57.2491 128.503L57.2539 129.361L61.7013 129.239C61.8388 129.232 61.9758 129.262 62.0976 129.326V129.326Z" fill="#E8E8E8"/>
<path d="M75.7314 135.837L75.7267 137.468C75.6798 137.971 75.5002 138.453 75.2065 138.864C74.9127 139.275 74.5151 139.601 74.0543 139.808C72.7965 140.448 71.4053 140.781 69.9942 140.781C68.583 140.781 67.1919 140.448 65.934 139.808C65.4651 139.6 65.0604 139.27 64.7617 138.853C64.463 138.436 64.2812 137.946 64.2351 137.435L64.2397 135.805C64.2858 136.316 64.4676 136.805 64.7663 137.222C65.065 137.64 65.4697 137.97 65.9386 138.178C67.1965 138.818 68.5877 139.151 69.9988 139.151C71.41 139.151 72.8011 138.818 74.059 138.178C74.5197 137.97 74.9173 137.645 75.2111 137.233C75.5049 136.822 75.6844 136.341 75.7314 135.837Z" fill="#E8E8E8"/>
<path d="M74.0389 133.472C76.2863 134.77 76.2981 136.878 74.059 138.179C72.8012 138.819 71.41 139.152 69.9988 139.152C68.5877 139.152 67.1965 138.819 65.9387 138.179C63.6849 136.878 63.673 134.77 65.9058 133.472C67.1654 132.831 68.5588 132.496 69.9724 132.496C71.3859 132.496 72.7793 132.83 74.0389 133.472V133.472Z" fill="white"/>
<path d="M73.1929 135.772C73.2324 135.79 73.267 135.818 73.2935 135.852C73.3201 135.887 73.3379 135.928 73.3455 135.971C73.3598 136.141 73.137 136.282 72.8501 136.29L67.8556 136.427C67.7215 136.434 67.5879 136.406 67.468 136.346C67.4234 136.326 67.3847 136.296 67.3558 136.257C67.3269 136.218 67.3088 136.172 67.3033 136.123L67.2966 134.948C67.2957 134.782 67.5319 134.645 67.8188 134.645C67.949 134.642 68.0777 134.672 68.1927 134.733C68.2349 134.752 68.2713 134.782 68.298 134.82C68.3247 134.858 68.3407 134.902 68.3444 134.948L68.3492 135.806L72.7966 135.685C72.9342 135.677 73.0712 135.707 73.1929 135.772Z" fill="#E8E8E8"/>
</g>
<defs>
<linearGradient id="paint0_linear" x1="79.6785" y1="8.27734" x2="79.6785" y2="179.692" gradientUnits="userSpaceOnUse">
<stop stop-color="#00ABDE"/>
<stop offset="1" stop-color="#007ED8"/>
</linearGradient>
<radialGradient id="paint1_radial" cx="0" cy="0" r="1" gradientUnits="userSpaceOnUse" gradientTransform="translate(79.3685 120.128) scale(42.2436)">
<stop offset="0.00898" stop-color="#50E6FF"/>
<stop offset="1" stop-color="#1490DF"/>
</radialGradient>
<radialGradient id="paint2_radial" cx="0" cy="0" r="1" gradientUnits="userSpaceOnUse" gradientTransform="translate(6542.09 5798.2) scale(2793.59 1618.14)">
<stop offset="0.00898" stop-color="#50E6FF"/>
<stop offset="1" stop-color="#1490DF"/>
</radialGradient>
<radialGradient id="paint3_radial" cx="0" cy="0" r="1" gradientUnits="userSpaceOnUse" gradientTransform="translate(4968.66 4415.76) scale(1608.11 931.46)">
<stop offset="0.00898" stop-color="#50E6FF"/>
<stop offset="1" stop-color="#1490DF"/>
</radialGradient>
<linearGradient id="paint4_linear" x1="111.815" y1="84.7734" x2="111.815" y2="104.132" gradientUnits="userSpaceOnUse">
<stop stop-color="#005BA1"/>
<stop offset="0.26" stop-color="#00589D"/>
<stop offset="0.53" stop-color="#004F90"/>
<stop offset="0.8" stop-color="#003F7C"/>
<stop offset="1" stop-color="#003067"/>
</linearGradient>
<linearGradient id="paint5_linear" x1="824.249" y1="2447.17" x2="824.249" y2="7808.49" gradientUnits="userSpaceOnUse">
<stop stop-color="#005BA1"/>
<stop offset="0.26" stop-color="#00589D"/>
<stop offset="0.53" stop-color="#004F90"/>
<stop offset="0.8" stop-color="#003F7C"/>
<stop offset="1" stop-color="#003067"/>
</linearGradient>
<linearGradient id="paint6_linear" x1="5888.43" y1="1611.17" x2="5888.43" y2="5041.88" gradientUnits="userSpaceOnUse">
<stop stop-color="#005BA1"/>
<stop offset="0.26" stop-color="#00589D"/>
<stop offset="0.53" stop-color="#004F90"/>
<stop offset="0.8" stop-color="#003F7C"/>
<stop offset="1" stop-color="#003067"/>
</linearGradient>
<linearGradient id="paint7_linear" x1="85.6088" y1="31.8594" x2="85.6088" y2="108.39" gradientUnits="userSpaceOnUse">
<stop stop-color="#008BF1"/>
<stop offset="1" stop-color="#004DAE"/>
</linearGradient>
<linearGradient id="paint8_linear" x1="68.2122" y1="124.237" x2="68.2122" y2="79.4191" gradientUnits="userSpaceOnUse">
<stop stop-color="#0078D4"/>
<stop offset="1" stop-color="#5EA0EF"/>
</linearGradient>
<clipPath id="clip0">
<rect width="159.356" height="188" fill="white"/>
</clipPath>
</defs>
</svg>
