<?xml version="1.0" encoding="utf-8"?>
<!-- Generator: Adobe Illustrator 22.1.0, SVG Export Plug-In . SVG Version: 6.00 Build 0)  -->
<svg version="1.1" id="Layer_1" xmlns="http://www.w3.org/2000/svg" xmlns:xlink="http://www.w3.org/1999/xlink" x="0px" y="0px"
	 viewBox="0 0 1920 1080" style="enable-background:new 0 0 1920 1080;" xml:space="preserve">
<style type="text/css">
	.st0{fill:#E4EDF1;}
	.st1{fill:#00BCF2;}
	.st2{fill:#FFFFFF;}
	.st3{fill:#FFFFFF;stroke:#00BCF2;stroke-width:6;stroke-miterlimit:10;}
	.st4{fill:#00BCF2;stroke:#0854AF;stroke-width:4;stroke-miterlimit:10;}
	.st5{display:none;fill:#E4EDF1;}
	.st6{fill:#737373;}
	.st7{fill:#FF8C00;}
	.st8{fill:#D2D2D2;}
	.st9{display:none;fill:#2DD1F7;}
</style>
<rect x="70.4" y="306.7" class="st0" width="1492.8" height="551.2"/>
<path class="st1" d="M723.1,507.8c-5.7,0-11.1,1-16.1,2.9c2-8.7,3.2-17.7,3.2-27c0-64.8-52.5-117.3-117.3-117.3
	c-60.4,0-110.2,45.7-116.6,104.4c-11.8-8.5-26.2-13.4-41.8-13.4c-38.8,0-70.5,30.8-71.8,69.3c-5.7-3.1-12.2-4.9-19.2-4.9
	c-21.9,0-39.7,17.8-39.7,39.7c0,21.9,17.8,39.7,39.7,39.7h379.7c25.7,0,46.6-20.9,46.6-46.6C769.7,528.7,748.8,507.8,723.1,507.8"/>
<path class="st2" d="M629.3,523.3c5.4-4.5,8.8-11.2,8.8-18.8c0-13.5-11-24.5-24.5-24.5c-13.5,0-24.5,11-24.5,24.5
	c0,7.5,3.4,14.3,8.8,18.8c-2,0.9-3.9,2-5.8,3.3c-2.7-11.4-10.6-20.8-21-25.6c5.4-4.5,8.8-11.2,8.8-18.8c0-13.5-11-24.5-24.5-24.5
	c-13.5,0-24.5,11-24.5,24.5c0,7.5,3.4,14.3,8.8,18.8c-10.2,4.7-17.9,13.7-20.8,24.8c-1.4-0.9-2.9-1.7-4.5-2.4
	c5.4-4.5,8.8-11.2,8.8-18.8c0-13.5-11-24.5-24.5-24.5c-13.5,0-24.5,11-24.5,24.5c0,7.5,3.4,14.3,8.8,18.8c-13,6-22.1,19.1-22.1,34.3
	h9.2c0-15.8,12.8-28.6,28.6-28.6c15.8,0,28.6,12.8,28.6,28.6h9.2c0-9.6-3.6-18.3-9.5-25c1.3-14.5,13.6-25.9,28.4-25.9
	c15.4,0,28,12.3,28.5,27.6c-5.1,6.4-8.1,14.5-8.1,23.3h9.2c0-15.8,12.8-28.6,28.6-28.6c15.8,0,28.6,12.8,28.6,28.6h9.2
	C651.3,542.4,642.3,529.3,629.3,523.3 M483.6,504.5c0-8.4,6.9-15.3,15.3-15.3c8.4,0,15.3,6.9,15.3,15.3c0,8.4-6.9,15.3-15.3,15.3
	C490.4,519.8,483.6,513,483.6,504.5 M540.2,482.2c0-8.4,6.9-15.3,15.3-15.3c8.4,0,15.3,6.9,15.3,15.3s-6.9,15.3-15.3,15.3
	C547,497.5,540.2,490.6,540.2,482.2 M598.3,504.5c0-8.4,6.9-15.3,15.3-15.3c8.4,0,15.3,6.9,15.3,15.3c0,8.4-6.9,15.3-15.3,15.3
	C605.2,519.8,598.3,513,598.3,504.5"/>
<path class="st3" d="M993.4,497.6c0,0-8.3-47.6,34.5-70.3c42.8-22.7,76,17.9,76,17.9s22.3-14,48.5-9.6c15.4,4.2,37.1,14.8,36.7,59.8
	c6.6,5.2,43.7,24.5,38.4,69.9s-45.4,57.2-45.4,57.2s-28.4,8.3-52-6.6c-2.6,3.9-17.5,22.3-52,21.8c-34.5-0.4-54.2-7-62-40.6
	c0,0-46.3-5.7-53.7-37.1C957.2,541.3,962.4,510.3,993.4,497.6z"/>
<path class="st4" d="M1036.8,467.4c0,0-39.2,77.2,52,132.1c0,0,82.4-40.9,51.7-132.1c0,0-35.1,19.9-48.6,2.2
	c-3.1-3.6-1.9-3.5-5.3,0.2C1077.3,480.1,1061.7,486.4,1036.8,467.4z"/>
<rect x="104.2" y="164" class="st5" width="1583.1" height="663.6"/>
<path class="st6" d="M568.3,544.7c6-3.9,12.9-6,20-6l368.1,0.1c14.9,0,28.3,9.2,33.7,23.1l78.4,199.1c1.9,4.8,6.5,8,11.6,8
	l213.4,0.1l0,21.2l-237.3-0.1l-386.9-0.1L562.9,548.3L568.3,544.7z"/>
<path class="st7" d="M567.6,547.2l374.3,0.1c12,0,22.8,7.4,27.1,18.6l79.6,205c4.5,11.7,15.8,19.4,28.3,19.4l26.6,0l-457.9-0.2
	l-88.5-227.8C554.4,555.1,559.7,547.2,567.6,547.2"/>
<polygon class="st8" points="632.3,755.9 1042.9,756.1 1046.2,764.7 635.7,764.6 "/>
<polygon class="st2" points="790.5,659.7 784.2,643.8 807.9,643.8 814.2,659.7 "/>
<polygon class="st2" points="784.5,659.7 763.1,659.7 756.8,643.8 778.2,643.8 "/>
<polygon class="st2" points="792.8,665.3 816.4,665.3 822.7,681.1 799.1,681.1 "/>
<polygon class="st2" points="786.7,665.3 793,681.1 771.6,681.1 765.3,665.3 "/>
<image style="display:none;overflow:visible;" width="576" height="236" xlink:href="C:\Users\keantonc\Pictures\Capture.PNG"  transform="matrix(2.1563 0 0 2.1563 286.6667 564)">
</image>
<rect x="1326.1" y="679.5" class="st9" width="92.3" height="145.3"/>
</svg>
