<?xml version="1.0" encoding="UTF-8"?>
<svg width="100px" height="118px" viewBox="0 0 100 118" version="1.1" xmlns="http://www.w3.org/2000/svg" xmlns:xlink="http://www.w3.org/1999/xlink">
    <!-- Generator: Sketch 58 (84663) - https://sketch.com -->
    <title>Collaborate with SharePoint in Microsoft 365/collaborate-with-sharepoint-in-microsoft-365</title>
    <desc>Created with Sketch.</desc>
    <defs>
        <path d="M42.7425,1.49663266 C44.3745,0.498877554 46.1865,0 48,0 C49.8135,0 51.627,0.498877554 53.256,1.49663266 L90.591,24.3316189 C93.933,26.3773408 96,30.2031485 96,34.3529027 L96,79.6470973 C96,83.7952317 93.933,87.6242789 90.591,89.6683811 L53.256,112.504987 C51.627,113.501122 49.8135,114 48,114 C46.1865,114 44.3745,113.501122 42.7425,112.504987 L5.409,89.6683811 C2.0655,87.6242789 0,83.7952317 0,79.6470973 L0,34.3529027 C0,30.2031485 2.0655,26.3773408 5.409,24.3316189 L42.7425,1.49663266 Z" id="path-1"></path>
        <circle id="path-3" cx="30" cy="47.4324324" r="12.1621622"></circle>
        <filter x="-4.1%" y="-4.1%" width="108.2%" height="108.2%" filterUnits="objectBoundingBox" id="filter-4">
            <feOffset dx="-2" dy="-2" in="SourceAlpha" result="shadowOffsetInner1"></feOffset>
            <feComposite in="shadowOffsetInner1" in2="SourceAlpha" operator="arithmetic" k2="-1" k3="1" result="shadowInnerInner1"></feComposite>
            <feColorMatrix values="0 0 0 0 0   0 0 0 0 0   0 0 0 0 0  0 0 0 0.1 0" type="matrix" in="shadowInnerInner1"></feColorMatrix>
        </filter>
        <circle id="path-5" cx="45" cy="33.6486486" r="15"></circle>
        <filter x="-3.3%" y="-3.3%" width="106.7%" height="106.7%" filterUnits="objectBoundingBox" id="filter-6">
            <feOffset dx="-2" dy="0" in="SourceAlpha" result="shadowOffsetInner1"></feOffset>
            <feComposite in="shadowOffsetInner1" in2="SourceAlpha" operator="arithmetic" k2="-1" k3="1" result="shadowInnerInner1"></feComposite>
            <feColorMatrix values="0 0 0 0 0   0 0 0 0 0   0 0 0 0 0  0 0 0 0.1 0" type="matrix" in="shadowInnerInner1"></feColorMatrix>
        </filter>
        <circle id="path-7" cx="28.3783784" cy="17.8378378" r="17.8378378"></circle>
        <filter x="-2.8%" y="-2.8%" width="105.6%" height="105.6%" filterUnits="objectBoundingBox" id="filter-8">
            <feOffset dx="-2" dy="2" in="SourceAlpha" result="shadowOffsetInner1"></feOffset>
            <feComposite in="shadowOffsetInner1" in2="SourceAlpha" operator="arithmetic" k2="-1" k3="1" result="shadowInnerInner1"></feComposite>
            <feColorMatrix values="0 0 0 0 0   0 0 0 0 0   0 0 0 0 0  0 0 0 0.1 0" type="matrix" in="shadowInnerInner1"></feColorMatrix>
        </filter>
        <rect id="path-9" x="0" y="15" width="30" height="30" rx="5"></rect>
        <filter x="-3.3%" y="-3.3%" width="113.3%" height="113.3%" filterUnits="objectBoundingBox" id="filter-10">
            <feOffset dx="2" dy="2" in="SourceAlpha" result="shadowOffsetOuter1"></feOffset>
            <feColorMatrix values="0 0 0 0 0   0 0 0 0 0   0 0 0 0 0  0 0 0 0.1 0" type="matrix" in="shadowOffsetOuter1"></feColorMatrix>
        </filter>
    </defs>
    <g id="Badges" stroke="none" stroke-width="1" fill="none" fill-rule="evenodd">
        <g id="Collaborate-with-SharePoint-in-Microsoft-365" transform="translate(-50.000000, -50.000000)">
            <g id="Collaborate-with-SharePoint-in-Microsoft-365/collaborate-with-sharepoint-in-microsoft-365" transform="translate(50.000000, 50.000000)">
                <g id="Mask" transform="translate(2.000000, 2.000000)">
                    <mask id="mask-2" fill="white">
                        <use xlink:href="#path-1"></use>
                    </mask>
                    <use id="Trophy-1" fill="#55A2FF" xlink:href="#path-1"></use>
                    <g id="sharepoint-logo" mask="url(#mask-2)">
                        <g transform="translate(18.000000, 27.000000)">
                            <g id="Oval" fill="none">
                                <use fill="#37C5CF" fill-rule="evenodd" xlink:href="#path-3"></use>
                                <use fill="black" fill-opacity="1" filter="url(#filter-4)" xlink:href="#path-3"></use>
                            </g>
                            <g id="Oval" fill="none">
                                <use fill="#1A9BA1" fill-rule="evenodd" xlink:href="#path-5"></use>
                                <use fill="black" fill-opacity="1" filter="url(#filter-6)" xlink:href="#path-5"></use>
                            </g>
                            <g id="Oval" fill="none">
                                <use fill="#036C70" fill-rule="evenodd" xlink:href="#path-7"></use>
                                <use fill="black" fill-opacity="1" filter="url(#filter-8)" xlink:href="#path-7"></use>
                            </g>
                            <g id="Rectangle" fill="none">
                                <use fill="black" fill-opacity="1" filter="url(#filter-10)" xlink:href="#path-9"></use>
                                <use fill="#03787D" fill-rule="evenodd" xlink:href="#path-9"></use>
                            </g>
                            <path d="M8.59071474,38.32249 L8.59071474,34.2050913 C9.33699697,34.8312822 10.1476017,35.3009183 11.0225533,35.6140137 C11.8975049,35.9271091 12.7810212,36.0836545 13.6731287,36.0836545 C14.1963841,36.0836545 14.6531534,36.0364764 15.0434504,35.9421189 C15.4337475,35.8477614 15.7597049,35.7169495 16.0213326,35.5496793 C16.2829603,35.3824092 16.4781059,35.1851191 16.6067752,34.9578033 C16.7354446,34.7304874 16.7997783,34.4838749 16.7997783,34.2179582 C16.7997783,33.857684 16.6968444,33.5360155 16.4909734,33.2529429 C16.2851024,32.9698703 16.0041786,32.7082466 15.6481934,32.4680638 C15.2922082,32.227881 14.8697501,31.9962796 14.3808066,31.7732527 C13.8918631,31.5502259 13.3643266,31.3229134 12.7981815,31.0913086 C11.3570847,30.4908516 10.2827118,29.7574473 9.57503035,28.8910737 C8.86734892,28.0247001 8.51351351,26.978205 8.51351351,25.7515572 C8.51351351,24.7908261 8.70651465,23.9652101 9.0925227,23.2746846 C9.47853075,22.5841591 10.0039227,22.015878 10.6687144,21.5698242 C11.333506,21.1237705 12.1033661,20.7956685 12.9783177,20.5855086 C13.8532693,20.3753487 14.7796747,20.2702703 15.7575618,20.2702703 C16.7182929,20.2702703 17.5696424,20.3281706 18.3116356,20.443973 C19.0536289,20.5597754 19.7377107,20.7377654 20.3639015,20.9779482 L20.3639015,24.8251425 C20.0550951,24.6106936 19.7184153,24.4219814 19.3538521,24.2590002 C18.989289,24.096019 18.614009,23.9609182 18.228001,23.8536938 C17.8419929,23.7464693 17.4581351,23.6671244 17.076416,23.6156567 C16.6946969,23.5641889 16.3322837,23.5384554 15.9891654,23.5384554 C15.5173778,23.5384554 15.0884864,23.583489 14.7024784,23.6735576 C14.3164703,23.7636261 13.9905128,23.8901491 13.7245962,24.0531303 C13.4586795,24.2161115 13.2528116,24.411257 13.1069864,24.6385729 C12.9611611,24.8658888 12.8882496,25.1210791 12.8882496,25.4041517 C12.8882496,25.7129582 12.9697389,25.9895931 13.1327201,26.2340649 C13.2957013,26.4785366 13.5273027,26.710138 13.8275311,26.9288759 C14.1277596,27.1476138 14.4923173,27.3620595 14.9212152,27.5722194 C15.350113,27.7823794 15.8347603,27.9989695 16.3751716,28.2219964 C17.1128758,28.5308029 17.7755131,28.8589048 18.3631031,29.206312 C18.9506931,29.5537193 19.4546405,29.9461549 19.8749604,30.3836307 C20.2952803,30.8211065 20.6169488,31.320765 20.8399757,31.8826211 C21.0630026,32.4444773 21.1745144,33.0985367 21.1745144,33.8448189 C21.1745144,34.8741737 20.9793688,35.7383899 20.5890717,36.4374934 C20.1987747,37.1365969 19.6690938,37.7027335 19.0000132,38.1359203 C18.3309326,38.5691072 17.5524947,38.8800534 16.6646762,39.0687685 C15.7768576,39.2574835 14.8397299,39.3518396 13.8532649,39.3518396 C12.841066,39.3518396 11.8782048,39.2660614 10.9646524,39.0945022 C10.0511,38.9229431 9.25979536,38.6656082 8.59071474,38.32249 Z" id="S" fill="#FFFFFF" fill-rule="nonzero"></path>
                        </g>
                    </g>
                </g>
                <g id="Azure-Hex-Border" stroke="#0078D4" stroke-width="4">
                    <path d="M45.5618501,3.25844398 L45.5621963,3.25823359 L6.67338401,26.8942953 C3.79673288,28.6432593 2,31.9508238 2,35.5582677 L2,82.4417323 C2,86.0486597 3.79764663,89.3586805 6.67318764,91.1055853 L45.560618,114.742485 C46.9289662,115.572418 48.4546283,116 50,116 C51.5458817,116 53.0723633,115.572188 54.4362178,114.743457 L93.3268764,91.1055464 C96.2016145,89.3583456 98,86.0476286 98,82.4417323 L98,35.5582677 C98,31.9518547 96.202529,28.6435953 93.3268966,26.8944659 L54.4351916,3.25759524 C53.0721095,2.42798656 51.5462432,2 50,2 C48.4542664,2 46.9292165,2.42775755 45.5618501,3.25844398 Z"></path>
                </g>
            </g>
        </g>
    </g>
</svg>