<?xml version="1.0" encoding="UTF-8"?>
<svg width="180px" height="190px" viewBox="0 0 180 190" version="1.1" xmlns="http://www.w3.org/2000/svg" xmlns:xlink="http://www.w3.org/1999/xlink">
    <title>Information Protection and Governance in Microsoft 365/information-protection-and-governance-in-microsoft-365</title>
    <defs>
        <path d="M100.206168,6.55621559 L158.148455,40.9384601 C164.220022,44.5412538 167.942286,51.0782575 167.942286,58.1382893 L167.942286,127.861711 C167.942286,134.921743 164.220022,141.458746 158.148455,145.06154 L100.206168,179.443784 C93.9142272,183.177345 86.0857728,183.177345 79.7938316,179.443784 L21.8515452,145.06154 C15.7799781,141.458746 12.0577137,134.921743 12.0577137,127.861711 L12.0577137,58.1382893 C12.0577137,51.0782575 15.7799781,44.5412538 21.8515452,40.9384601 L79.7938316,6.55621559 C86.0857728,2.82265458 93.9142272,2.82265458 100.206168,6.55621559 Z" id="path-1"></path>
        <linearGradient x1="50%" y1="0%" x2="50%" y2="100%" id="linearGradient-3">
            <stop stop-color="#0062B3" offset="0%"></stop>
            <stop stop-color="#00549B" offset="100%"></stop>
        </linearGradient>
        <path d="M88.2061684,3.05621559 L146.148455,37.4384601 C152.220022,41.0412538 155.942286,47.5782575 155.942286,54.6382893 L155.942286,124.361711 C155.942286,131.421743 152.220022,137.958746 146.148455,141.56154 L88.2061684,175.943784 C81.9142272,179.677345 74.0857728,179.677345 67.7938316,175.943784 L9.85154523,141.56154 C3.77997814,137.958746 0.0577136594,131.421743 0.0577136594,124.361711 L0.0577136594,54.6382893 C0.0577136594,47.5782575 3.77997814,41.0412538 9.85154523,37.4384601 L67.7938316,3.05621559 C74.0857728,-0.677345417 81.9142272,-0.677345417 88.2061684,3.05621559 Z M85.6546263,7.3561729 C81.0429194,4.61964239 75.3306135,4.55744852 70.6688793,7.16959128 L70.3453737,7.3561729 L12.4030873,41.7384174 C7.95060481,44.3804661 5.18265925,49.1264521 5.06183821,54.2858887 L5.05771366,54.6382893 L5.05771366,124.361711 C5.05771366,129.539067 7.72671515,134.341394 12.1021306,137.078203 L12.4030873,137.261583 L70.3453737,171.643827 C74.9570806,174.380358 80.6693865,174.442551 85.3311207,171.830409 L85.6546263,171.643827 L143.596913,137.261583 C148.049395,134.619534 150.817341,129.873548 150.938162,124.714111 L150.942286,124.361711 L150.942286,54.6382893 C150.942286,49.4609326 148.273285,44.6586065 143.897869,41.9217974 L143.596913,41.7384174 L85.6546263,7.3561729 Z" id="path-4"></path>
        <filter x="-28.8%" y="-16.9%" width="160.9%" height="133.8%" filterUnits="objectBoundingBox" id="filter-6">
            <feOffset dx="0" dy="2" in="SourceAlpha" result="shadowOffsetOuter1"></feOffset>
            <feGaussianBlur stdDeviation="2" in="shadowOffsetOuter1" result="shadowBlurOuter1"></feGaussianBlur>
            <feColorMatrix values="0 0 0 0 0   0 0 0 0 0   0 0 0 0 0  0 0 0 0.102921196 0" type="matrix" in="shadowBlurOuter1" result="shadowMatrixOuter1"></feColorMatrix>
            <feMerge>
                <feMergeNode in="shadowMatrixOuter1"></feMergeNode>
                <feMergeNode in="SourceGraphic"></feMergeNode>
            </feMerge>
        </filter>
        <linearGradient x1="50%" y1="0%" x2="50%" y2="100%" id="linearGradient-7">
            <stop stop-color="#ECD3BA" offset="0%"></stop>
            <stop stop-color="#D4A884" offset="100%"></stop>
        </linearGradient>
        <linearGradient x1="50%" y1="0%" x2="50%" y2="100%" id="linearGradient-8">
            <stop stop-color="#EBC198" offset="0%"></stop>
            <stop stop-color="#BF997B" offset="100%"></stop>
        </linearGradient>
        <linearGradient x1="50%" y1="0%" x2="50%" y2="100%" id="linearGradient-9">
            <stop stop-color="#EBC198" offset="0%"></stop>
            <stop stop-color="#BF997B" offset="100%"></stop>
        </linearGradient>
        <linearGradient x1="50%" y1="0%" x2="50%" y2="100%" id="linearGradient-10">
            <stop stop-color="#F2F3F2" offset="0%"></stop>
            <stop stop-color="#E1E4E1" offset="100%"></stop>
        </linearGradient>
        <linearGradient x1="50%" y1="0%" x2="50%" y2="100%" id="linearGradient-11">
            <stop stop-color="#AEC6D0" offset="0%"></stop>
            <stop stop-color="#7694A3" offset="100%"></stop>
        </linearGradient>
        <linearGradient x1="50%" y1="0.411739865%" x2="50%" y2="100%" id="linearGradient-12">
            <stop stop-color="#CCA47C" offset="0%"></stop>
            <stop stop-color="#A47F61" offset="100%"></stop>
        </linearGradient>
        <filter x="-28.8%" y="-16.9%" width="160.9%" height="133.8%" filterUnits="objectBoundingBox" id="filter-13">
            <feOffset dx="0" dy="2" in="SourceAlpha" result="shadowOffsetOuter1"></feOffset>
            <feGaussianBlur stdDeviation="2" in="shadowOffsetOuter1" result="shadowBlurOuter1"></feGaussianBlur>
            <feColorMatrix values="0 0 0 0 0   0 0 0 0 0   0 0 0 0 0  0 0 0 0.102921196 0" type="matrix" in="shadowBlurOuter1" result="shadowMatrixOuter1"></feColorMatrix>
            <feMerge>
                <feMergeNode in="shadowMatrixOuter1"></feMergeNode>
                <feMergeNode in="SourceGraphic"></feMergeNode>
            </feMerge>
        </filter>
        <linearGradient x1="50%" y1="100%" x2="50%" y2="0%" id="linearGradient-14">
            <stop stop-color="#D2EBFF" offset="0%"></stop>
            <stop stop-color="#F0FFFD" offset="100%"></stop>
        </linearGradient>
        <linearGradient x1="48.3860391%" y1="-43.2911343%" x2="50.537987%" y2="111.411527%" id="linearGradient-15">
            <stop stop-color="#32D4F5" offset="22%"></stop>
            <stop stop-color="#31D1F3" offset="47%"></stop>
            <stop stop-color="#2EC9EB" offset="63%"></stop>
            <stop stop-color="#29BADE" offset="77%"></stop>
            <stop stop-color="#22A5CB" offset="89%"></stop>
            <stop stop-color="#198AB3" offset="100%"></stop>
            <stop stop-color="#198AB3" offset="100%"></stop>
        </linearGradient>
    </defs>
    <g id="Badges" stroke="none" stroke-width="1" fill="none" fill-rule="evenodd">
        <g id="Information-Protection-and-Governance-in-Microsoft-365" transform="translate(-120.000000, -35.000000)">
            <g id="Information-Protection-and-Governance-in-Microsoft-365/information-protection-and-governance-in-microsoft-365" transform="translate(160.000000, 75.000000)">
                <g id="Trophy-Plates/Hex" transform="translate(0.000000, 5.000000)">
                    <g id="BG" transform="translate(-40.000000, -43.000000)">
                        <mask id="mask-2" fill="white">
                            <use xlink:href="#path-1"></use>
                        </mask>
                        <path stroke="#FFFFFF" stroke-width="5" d="M101.481939,4.40623694 C97.9427226,2.30610887 93.9713613,1.25604484 90,1.25604484 C86.0286387,1.25604484 82.0572774,2.30610887 78.5180605,4.40623694 L20.5757742,38.7884814 C13.7452612,42.8416243 9.55771366,50.1957535 9.55771366,58.1382893 L9.55771366,127.861711 C9.55771366,135.804246 13.7452612,143.158376 20.5757742,147.211519 L78.5180605,181.593763 C82.0572774,183.693891 86.0286387,184.743955 90,184.743955 C93.9713613,184.743955 97.9427226,183.693891 101.481939,181.593763 L159.424226,147.211519 C166.254739,143.158376 170.442286,135.804246 170.442286,127.861711 L170.442286,58.1382893 C170.442286,50.1957535 166.254739,42.8416243 159.424226,38.7884814 L101.481939,4.40623694 Z"></path>
                        <g id="Colors/Microsoft-365/BG-Gradient-3" mask="url(#mask-2)" fill="url(#linearGradient-3)">
                            <g transform="translate(0.000000, 0.500000)" id="Rectangle">
                                <rect x="0" y="0" width="180" height="185"></rect>
                            </g>
                        </g>
                    </g>
                    <g id="Border" transform="translate(-28.000000, -39.500000)">
                        <mask id="mask-5" fill="white">
                            <use xlink:href="#path-4"></use>
                        </mask>
                        <use fill="#000000" fill-rule="nonzero" xlink:href="#path-4"></use>
                        <g id="Colors/Microsoft-365/Border" mask="url(#mask-5)" fill="#0076D7">
                            <g transform="translate(-12.000000, -3.000000)" id="Microsoft-365/Border">
                                <rect x="0" y="0" width="180" height="185"></rect>
                            </g>
                        </g>
                    </g>
                </g>
                <g id="Giving" filter="url(#filter-6)" transform="translate(56.764620, 36.000000)">
                    <path d="M9.18775454,38.0127388 L23.0148795,24.3552236 C25.5482545,21.8510247 29.6530045,21.8478142 32.1912545,24.3423815 C32.3765045,22.8832041 32.4853795,21.4160004 32.4853795,19.9455863 L32.4853795,5.08894503 C32.4853795,2.48040457 34.4613795,0.143152311 37.0987545,0.00670557916 C39.9100045,-0.137767431 42.2353795,2.07106437 42.2353795,4.81605157 L42.2353795,32.200108 C42.2353795,36.4781144 40.3796295,40.5522533 37.1393795,43.3903453 L27.2870045,52.0169893 C25.4247545,53.6463238 24.3603795,55.9851813 24.3603795,58.4412225 L24.3603795,61 L3.23537954,61 L3.23537954,52.20962 C3.23537954,46.8833816 5.37712954,41.7770634 9.18775454,38.0127388" id="Fill-121" fill="url(#linearGradient-7)"></path>
                    <path d="M21.1103795,56.7754857 L21.1103795,56.7754857 C21.1103795,54.2837714 22.1747545,51.9109429 24.0370045,50.2579429 L33.8893795,41.506 C37.1296295,38.6266857 38.9853795,34.4933714 38.9853795,30.1532286 L38.9853795,5.62857143 C38.9853795,4.7296 39.7133795,4 40.6103795,4 C41.5073795,4 42.2353795,4.7296 42.2353795,5.62857143 L42.2353795,31.7818 C42.2353795,36.1219429 40.3796295,40.2552571 37.1393795,43.1345714 L27.2870045,51.8865143 C25.4247545,53.5395143 24.3603795,55.9123429 24.3603795,58.4040571 L24.3603795,61 L3.23537954,61 C4.27537954,59.9577143 5.68750454,59.3714286 7.15812954,59.3714286 L18.5201295,59.3714286 C19.9501295,59.3714286 21.1103795,58.2086286 21.1103795,56.7754857" id="Fill-122" fill="url(#linearGradient-8)"></path>
                    <path d="M28.9421846,32.185639 C30.6593778,30.6094215 31.5153271,28.0158713 29.3992792,25.6750344 C28.089765,24.2251734 30.8093895,23.2321402 31.968892,24.7840584 C32.1012553,24.9606336 32.2318538,25.1582683 32.3606874,25.3785824 C33.9896384,28.1616674 33.2660524,31.6202743 30.8323325,33.8541941 L21.4857188,42.6375975 C20.9827383,43.1106248 20.1550264,43.1219645 19.6361623,42.6635168 C19.1137685,42.1985894 19.0996497,41.43397 19.6079248,40.9560828 L28.9421846,32.185639" id="Fill-123" fill="url(#linearGradient-9)"></path>
                    <path d="M26.2353795,64.3333333 L26.2353795,71 L0.235379538,71 L0.235379538,64.3333333 C0.235379538,62.4916667 1.60573248,61 3.29420307,61 L23.176556,61 C24.866556,61 26.2353795,62.4916667 26.2353795,64.3333333" id="Fill-124" fill="url(#linearGradient-10)"></path>
                    <path d="M5.73537954,65 C6.56337954,65 7.23537954,65.672 7.23537954,66.5 C7.23537954,67.328 6.56337954,68 5.73537954,68 C4.90737954,68 4.23537954,67.328 4.23537954,66.5 C4.23537954,65.672 4.90737954,65 5.73537954,65" id="Fill-126" fill="url(#linearGradient-11)"></path>
                    <path d="M22.6934932,31.3334635 L24.9024368,33.5419758 C25.5116928,34.1526747 26.5005621,34.1526747 27.1113803,33.5419758 L29.3203239,31.3334635 C30.5403981,30.1136275 30.5403981,28.134713 29.3203239,26.914877 C28.1002497,25.695041 26.122511,25.695041 24.9024368,26.914877 L22.6934932,29.1249512 C22.082675,29.7340882 22.082675,30.7227645 22.6934932,31.3334635" id="Fill-127" fill="url(#linearGradient-12)"></path>
                    <path d="M24.8774299,31.3582744 C25.7554116,32.2364653 26.2506432,33.2490413 26.2350208,33.9756583 C25.7538493,34.0569144 25.247682,33.9381555 24.8774299,33.5678152 L22.6684156,31.3582744 C22.2966013,30.9879341 22.179433,30.4800835 22.2591075,30.0003599 C22.9871136,29.9847338 23.9978861,30.4785208 24.8774299,31.3582744" id="Fill-128" fill="#D9B090"></path>
                </g>
                <g id="Giving" filter="url(#filter-13)" transform="translate(23.414521, 71.500000) scale(-1, 1) translate(-23.414521, -71.500000) translate(2.593663, 36.000000)">
                    <path d="M9.18775454,38.0127388 L23.0148795,24.3552236 C25.5482545,21.8510247 29.6530045,21.8478142 32.1912545,24.3423815 C32.3765045,22.8832041 32.4853795,21.4160004 32.4853795,19.9455863 L32.4853795,5.08894503 C32.4853795,2.48040457 34.4613795,0.143152311 37.0987545,0.00670557916 C39.9100045,-0.137767431 42.2353795,2.07106437 42.2353795,4.81605157 L42.2353795,32.200108 C42.2353795,36.4781144 40.3796295,40.5522533 37.1393795,43.3903453 L27.2870045,52.0169893 C25.4247545,53.6463238 24.3603795,55.9851813 24.3603795,58.4412225 L24.3603795,61 L3.23537954,61 L3.23537954,52.20962 C3.23537954,46.8833816 5.37712954,41.7770634 9.18775454,38.0127388" id="Fill-121" fill="url(#linearGradient-7)"></path>
                    <path d="M21.1103795,56.7754857 L21.1103795,56.7754857 C21.1103795,54.2837714 22.1747545,51.9109429 24.0370045,50.2579429 L33.8893795,41.506 C37.1296295,38.6266857 38.9853795,34.4933714 38.9853795,30.1532286 L38.9853795,5.62857143 C38.9853795,4.7296 39.7133795,4 40.6103795,4 C41.5073795,4 42.2353795,4.7296 42.2353795,5.62857143 L42.2353795,31.7818 C42.2353795,36.1219429 40.3796295,40.2552571 37.1393795,43.1345714 L27.2870045,51.8865143 C25.4247545,53.5395143 24.3603795,55.9123429 24.3603795,58.4040571 L24.3603795,61 L3.23537954,61 C4.27537954,59.9577143 5.68750454,59.3714286 7.15812954,59.3714286 L18.5201295,59.3714286 C19.9501295,59.3714286 21.1103795,58.2086286 21.1103795,56.7754857" id="Fill-122" fill="url(#linearGradient-8)"></path>
                    <path d="M28.9421846,32.185639 C30.6593778,30.6094215 31.5153271,28.0158713 29.3992792,25.6750344 C28.089765,24.2251734 30.8093895,23.2321402 31.968892,24.7840584 C32.1012553,24.9606336 32.2318538,25.1582683 32.3606874,25.3785824 C33.9896384,28.1616674 33.2660524,31.6202743 30.8323325,33.8541941 L21.4857188,42.6375975 C20.9827383,43.1106248 20.1550264,43.1219645 19.6361623,42.6635168 C19.1137685,42.1985894 19.0996497,41.43397 19.6079248,40.9560828 L28.9421846,32.185639" id="Fill-123" fill="url(#linearGradient-9)"></path>
                    <path d="M26.2353795,64.3333333 L26.2353795,71 L0.235379538,71 L0.235379538,64.3333333 C0.235379538,62.4916667 1.60573248,61 3.29420307,61 L23.176556,61 C24.866556,61 26.2353795,62.4916667 26.2353795,64.3333333" id="Fill-124" fill="url(#linearGradient-10)"></path>
                    <path d="M5.73537954,65 C6.56337954,65 7.23537954,65.672 7.23537954,66.5 C7.23537954,67.328 6.56337954,68 5.73537954,68 C4.90737954,68 4.23537954,67.328 4.23537954,66.5 C4.23537954,65.672 4.90737954,65 5.73537954,65" id="Fill-126" fill="url(#linearGradient-11)"></path>
                    <path d="M22.6934932,31.3334635 L24.9024368,33.5419758 C25.5116928,34.1526747 26.5005621,34.1526747 27.1113803,33.5419758 L29.3203239,31.3334635 C30.5403981,30.1136275 30.5403981,28.134713 29.3203239,26.914877 C28.1002497,25.695041 26.122511,25.695041 24.9024368,26.914877 L22.6934932,29.1249512 C22.082675,29.7340882 22.082675,30.7227645 22.6934932,31.3334635" id="Fill-127" fill="url(#linearGradient-12)"></path>
                    <path d="M24.8774299,31.3582744 C25.7554116,32.2364653 26.2506432,33.2490413 26.2350208,33.9756583 C25.7538493,34.0569144 25.247682,33.9381555 24.8774299,33.5678152 L22.6684156,31.3582744 C22.2966013,30.9879341 22.179433,30.4800835 22.2591075,30.0003599 C22.9871136,29.9847338 23.9978861,30.4785208 24.8774299,31.3582744" id="Fill-128" fill="#D9B090"></path>
                </g>
                <g id="Group-18" transform="translate(26.663366, 0.000000)" fill-rule="nonzero">
                    <g id="Group" transform="translate(0.336634, 0.000000)">
                        <path d="M27.762693,0.0531599737 L2.33983259,0.0531599737 C1.22673452,0.0531599737 0.324390244,0.930979555 0.324390244,2.01382488 L0.324390244,54.9861751 C0.324390244,56.0690204 1.22673452,56.94684 2.33983259,56.94684 L46.1138259,56.94684 C47.226924,56.94684 48.1292683,56.0690204 48.1292683,54.9861751 L48.1292683,19.9349901 C48.1292683,18.8521448 47.226924,17.9743252 46.1138259,17.9743252 L31.5814259,17.9743252 C30.4878559,17.9743252 29.6013422,17.111906 29.6013422,16.0480579 L29.6013422,2.01382488 C29.6228489,0.98826854 28.8144433,0.126215848 27.762693,0.0531599737 Z" id="Path" fill="url(#linearGradient-14)"></path>
                        <path d="M48.402439,19.1938776 L28.6829268,0 L28.6829268,15.5517755 C28.6829268,17.5632529 30.3487243,19.1938776 32.4035895,19.1938776 L48.402439,19.1938776 Z" id="Path" fill="#92C4FC"></path>
                    </g>
                </g>
                <g id="Information-Protection" transform="translate(39.360658, 19.000000)" fill-rule="nonzero">
                    <path d="M22.4704599,14.9350404 L20.8340252,14.9350404 L20.8340252,9.62868025 C20.837337,7.13976639 19.9344288,4.73721516 18.2984506,2.8817619 C16.7311046,1.02544394 14.432216,-0.0299048843 12.0224537,0.000645413674 C9.60902656,-0.0227542193 7.30746149,1.03080448 5.72847401,2.8817619 C4.06941321,4.72418882 3.15742916,7.13380053 3.17491654,9.62868025 L3.17491654,14.9350404 L1.82620661,14.9350404 C1.18157416,14.9445084 0.658519036,15.4668604 0.639341875,16.1203098 L0.639341875,29.8147306 C0.658519036,30.4681799 1.18157416,30.990532 1.82620661,31 L22.4704599,31 C23.1119766,30.9902162 23.6296934,30.4652411 23.6393419,29.8147306 L23.6393419,16.1203098 C23.6296934,15.4697992 23.1119766,14.9448241 22.4704599,14.9350404 Z M16.7519298,14.9350404 L7.29297753,14.9350404 L7.29297753,9.55574059 C7.32052498,8.19651233 7.84620717,6.89638512 8.76756705,5.9087577 C9.57356816,4.96992563 10.7409714,4.43096483 11.9685053,4.43096483 C13.1960391,4.43096483 14.3634424,4.96992563 15.1694435,5.9087577 C15.3764343,6.14098719 15.5629693,6.39115352 15.7269103,6.65638919 L15.7269103,6.65638919 C16.3613863,7.51696148 16.7192623,8.55470912 16.7519298,9.62868025 L16.7519298,14.9350404 Z" id="Shape" fill="url(#linearGradient-15)"></path>
                    <path d="M22.4317046,15 L1.4078383,15 C1.12560599,15.0062255 0.854159193,15.1101609 0.639341875,15.2942529 L23.2002011,31 C23.4690449,30.7773375 23.6291282,30.4488348 23.6393419,30.0988506 L23.6393419,16.2137931 C23.6202319,15.5515528 23.0905864,15.0192074 22.4317046,15 Z" id="Path" fill="#50E6FF"></path>
                    <path d="M1.8296285,15 L22.8702336,15 C23.1539059,14.999785 23.4277133,15.1045408 23.6393419,15.2942532 L1.06052022,31 C0.796343083,30.7754049 0.642594893,30.4464467 0.639341875,30.0988506 L0.639341875,16.2137934 C0.639341875,15.5505509 1.16930007,15.0100495 1.8296285,15 Z" id="Path" fill="#FFFFFF" opacity="0.2"></path>
                </g>
            </g>
        </g>
    </g>
</svg>