<svg xmlns="http://www.w3.org/2000/svg" viewBox="0 0 150 105">
  <defs>
    <style>
      .cls-1 {
        fill: #d1d3d4;
      }

      .cls-2 {
        fill: #2bc7f4;
      }

      .cls-3 {
        fill: #d1e55c;
      }

      .cls-4, .cls-6 {
        fill: #fff;
      }

      .cls-5 {
        fill: #556a8a;
      }

      .cls-6, .cls-8 {
        stroke: #556a8a;
        stroke-miterlimit: 10;
        stroke-width: 2px;
      }

      .cls-7 {
        fill: #55d2f6;
      }

      .cls-8 {
        fill: none;
      }
    </style>
  </defs>
  <title>information-worker-product-help-windows-help-4</title>
  <g id="Illustrations">
    <g>
      <polygon class="cls-1" points="87.19 9 62.58 9 50.28 30 62.58 51 87.19 51 99.5 30 87.19 9"/>
      <polygon class="cls-1" points="87 53 62.39 53 50.08 74 62.39 95 87 95 99.31 74 87 53"/>
      <polygon class="cls-2" points="59.72 52.31 47.41 73.63 22.8 73.63 10.5 52.31 22.8 31 47.41 31 59.72 52.31"/>
      <polygon class="cls-3" points="139.5 52.61 127.19 73.92 102.58 73.92 90.28 52.61 102.58 31.29 127.19 31.29 139.5 52.61"/>
    </g>
    <g>
      <polygon class="cls-4" points="32 52 32 43.24 23 44.45 23 52 32 52"/>
      <polygon class="cls-4" points="33 52 45 52 45 41.69 33 43.28 33 52"/>
      <polygon class="cls-4" points="33 53 33 61.84 45 63.51 45 53 33 53"/>
      <polygon class="cls-4" points="32 53 23 53 23 60.38 32 61.69 32 53"/>
    </g>
    <path class="cls-5" d="M72.2,37.45A9.24,9.24,0,0,1,71.85,36a10.6,10.6,0,0,1-.15-1.77,5.52,5.52,0,0,1,.55-2.48,10.27,10.27,0,0,1,1.36-2.07,20.67,20.67,0,0,1,1.78-1.86q1-.89,1.78-1.8a10.31,10.31,0,0,0,1.36-1.91,4.5,4.5,0,0,0,.55-2.2,4,4,0,0,0-.4-1.83,3.86,3.86,0,0,0-1.08-1.33A4.77,4.77,0,0,0,76,17.93a6.68,6.68,0,0,0-1.91-.27,8.33,8.33,0,0,0-6.29,2.86V16.74a12.64,12.64,0,0,1,6.81-2.06,10.7,10.7,0,0,1,3.07.43,7.58,7.58,0,0,1,2.52,1.28,6,6,0,0,1,1.71,2.12,6.6,6.6,0,0,1,.62,2.94A6.87,6.87,0,0,1,82,24.28a10.24,10.24,0,0,1-1.41,2.29,18.16,18.16,0,0,1-1.84,1.94q-1,.9-1.84,1.79a9.84,9.84,0,0,0-1.41,1.86,4.17,4.17,0,0,0-.56,2.13,6.36,6.36,0,0,0,.24,1.79,12.68,12.68,0,0,0,.47,1.36Zm1.93,8.94a2.38,2.38,0,0,1-1.68-.69A2.24,2.24,0,0,1,71.75,44a2.2,2.2,0,0,1,.71-1.68,2.33,2.33,0,0,1,3.35,0A2.2,2.2,0,0,1,76.52,44a2.24,2.24,0,0,1-.71,1.68A2.38,2.38,0,0,1,74.13,46.39Z"/>
    <g>
      <g>
        <path class="cls-6" d="M121.71,37.14h0a10.92,10.92,0,0,0-1-.63l-.84-.4c-.32-.14-1.83-.61-1.91-.63l-1.47-.24-1.24-.06a11.73,11.73,0,0,0-4.34.82q-.5.2-1,.44c-.16.08-1.89,1.22-2.15,1.44a10.1,10.1,0,0,0-3.55,7.68,10,10,0,0,0,1.55,5.36l.26.39a10.35,10.35,0,0,0,.87,1.08h0l0,0,.18.19.06.06v0h0A25.92,25.92,0,0,1,112,61h6a33.51,33.51,0,0,1,5.28-8.35,10.09,10.09,0,0,0-1.56-15.51Z"/>
        <polygon class="cls-5" points="117 71 113 71 111 69 119 69 117 71"/>
        <rect class="cls-5" x="111" y="61" width="8" height="7"/>
      </g>
      <rect class="cls-7" x="111" y="61" width="8" height="1"/>
      <rect class="cls-7" x="111" y="63" width="8" height="1"/>
      <rect class="cls-7" x="111" y="65" width="8" height="1"/>
    </g>
    <g>
      <circle class="cls-8" cx="74.69" cy="68.5" r="7.5"/>
      <path class="cls-8" d="M63.19,87a11.51,11.51,0,0,1,23,0"/>
    </g>
  </g>
</svg>
