<?xml version="1.0" encoding="utf-8"?>
<!-- Generator: Adobe Illustrator 16.0.0, SVG Export Plug-In . SVG Version: 6.00 Build 0)  -->
<!DOCTYPE svg PUBLIC "-//W3C//DTD SVG 1.1//EN" "http://www.w3.org/Graphics/SVG/1.1/DTD/svg11.dtd">
<svg version="1.1" id="Layer_1" xmlns="http://www.w3.org/2000/svg" xmlns:xlink="http://www.w3.org/1999/xlink" x="0px" y="0px"
	 width="400px" height="140px" viewBox="0 0 400 140" enable-background="new 0 0 400 140" xml:space="preserve">
<g>
	<defs>
		<rect id="SVGID_1_" width="400" height="140"/>
	</defs>
	<clipPath id="SVGID_2_">
		<use xlink:href="#SVGID_1_"  overflow="visible"/>
	</clipPath>
	<polygon clip-path="url(#SVGID_2_)" fill="#0078D4" points="178.1,69.934 178.1,70.076 178.193,69.934 	"/>
	<path clip-path="url(#SVGID_2_)" fill="#0078D4" d="M180.961,81.69c0.012,0.008,0.026,0.014,0.039,0.021v-0.058
		c-0.013-0.008-0.027-0.014-0.039-0.021V81.69z"/>
	<g clip-path="url(#SVGID_2_)">
		<g>
			<path fill="#C2C2C2" d="M249.96,79.011c-0.85-1.953-2.023-3.654-3.524-5.087c-1.501-1.438-3.249-2.553-5.249-3.345
				c-1.998-0.792-4.124-1.187-6.375-1.187c-0.499-3.414-1.559-6.591-3.181-9.53c-1.626-2.935-3.657-5.475-6.092-7.621
				c-2.437-2.141-5.22-3.819-8.342-5.029c-3.124-1.205-6.438-1.811-9.934-1.811c-3.209,0-6.26,0.522-9.151,1.562
				c-2.896,1.042-5.533,2.479-7.905,4.312c-2.376,1.83-4.426,4.042-6.155,6.621c-1.733,2.585-2.987,5.396-3.778,8.435
				c-1.836-1.577-3.856-2.8-6.062-3.654c-2.209-0.854-4.52-1.282-6.935-1.282c-2.748,0-5.342,0.522-7.777,1.563
				c-2.436,1.043-4.563,2.468-6.373,4.278c-1.811,1.812-3.239,3.938-4.28,6.374c-1.042,2.434-1.562,5.029-1.562,7.775
				c0,2.749,0.521,5.346,1.562,7.783c1.041,2.435,2.469,4.559,4.28,6.367c1.81,1.813,3.937,3.242,6.373,4.283
				c2.436,1.041,5.029,1.562,7.777,1.562h67.975c2.209,0,4.279-0.416,6.211-1.249c1.938-0.833,3.637-1.979,5.095-3.436
				c1.456-1.457,2.605-3.156,3.438-5.093c0.829-1.94,1.249-4.007,1.249-6.215C251.246,83.096,250.819,80.972,249.96,79.011"/>
			<path fill="#FFFFFF" d="M258.827,67.953c-2.918-0.157-5.748-0.632-8.416-1.414c-2.63-0.771-5.2-1.955-7.634-3.52
				c-1.558-1.008-3.142-1.76-4.713-2.238c-1.581-0.478-3.327-0.72-5.189-0.72s-3.608,0.242-5.192,0.722
				c-1.569,0.477-3.155,1.229-4.705,2.233c-2.439,1.568-5.01,2.753-7.64,3.523c-2.666,0.782-5.499,1.257-8.417,1.414l-1.881,0.101
				v2.282V81.93c0,1.133,0.078,2.249,0.2,3.354c0.108,0.991,0.255,1.972,0.462,2.935c0.133,0.619,0.281,1.232,0.455,1.838
				c0.731,2.558,1.744,5.02,3.011,7.322c1.257,2.289,2.776,4.489,4.513,6.539c0.669,0.793,1.368,1.563,2.081,2.323
				c1.105,1.176,2.253,2.316,3.442,3.396c0.938,0.85,1.908,1.675,2.9,2.471c0.057,0.046,0.113,0.093,0.172,0.14
				c0.283,0.227,0.573,0.445,0.861,0.666c0.748,0.576,1.506,1.142,2.275,1.679c0.042,0.03,0.084,0.057,0.126,0.086
				c0.224,0.153,0.449,0.297,0.673,0.448c1.875,1.284,3.773,2.503,5.668,3.598l0.995,0.575l0.995-0.575
				c2.154-1.246,4.33-2.637,6.466-4.132c2.158-1.506,4.246-3.175,6.208-4.955c1.957-1.776,3.815-3.7,5.524-5.72
				c1.735-2.05,3.255-4.25,4.513-6.539c1.267-2.303,2.278-4.765,3.012-7.322c0.742-2.594,1.117-5.327,1.117-8.127V68.054
				L258.827,67.953z"/>
			<path fill="#939393" d="M167.278,53.397c1.582,0,3.142,0.125,4.687,0.377c1.54,0.251,3.039,0.645,4.498,1.185
				c1.331-2.373,2.954-4.54,4.873-6.498c1.916-1.955,4.017-3.684,6.313-5.184c2.287-1.5,4.724-2.728,7.31-3.685
				c2.578-0.958,5.227-1.604,7.934-1.94c-0.461-2.328-1.282-4.498-2.474-6.496c-1.181-1.999-2.653-3.717-4.398-5.153
				c-1.751-1.437-3.719-2.563-5.907-3.375c-2.188-0.812-4.465-1.217-6.84-1.217c-2.581,0-5.031,0.469-7.342,1.406
				c-2.312,0.937-4.354,2.228-6.12,3.874c-1.772,1.647-3.221,3.584-4.344,5.81c-1.127,2.229-1.793,4.634-2,7.216
				c-1.249-0.704-2.563-1.269-3.936-1.686c-1.375-0.418-2.792-0.625-4.247-0.625c-2.208,0-4.283,0.418-6.216,1.247
				c-1.938,0.834-3.638,1.982-5.092,3.439c-1.461,1.457-2.606,3.153-3.437,5.092c-0.833,1.935-1.25,4.008-1.25,6.214
				c0,2.249,0.449,4.385,1.344,6.404c0.892,2.02,2.173,3.8,3.839,5.339c2.624-3.704,5.945-6.59,9.966-8.65
				C158.458,54.429,162.739,53.397,167.278,53.397"/>
			<path fill="#0078D4" d="M256.12,70.219c-2.613-0.141-5.149-0.566-7.538-1.266c-2.356-0.689-4.658-1.752-6.838-3.154
				c-1.395-0.902-2.814-1.576-4.221-2.003c-1.416-0.428-2.979-0.645-4.648-0.645s-3.231,0.217-4.65,0.646
				c-1.406,0.427-2.826,1.102-4.214,2.001c-2.186,1.403-4.488,2.466-6.844,3.155c-2.388,0.7-4.924,1.125-7.537,1.266l-1.686,0.092
				v2.043v10.385c0,1.015,0.069,2.015,0.179,3.004c0.098,0.889,0.229,1.766,0.414,2.629c0.118,0.555,0.253,1.104,0.407,1.646
				c0.654,2.29,1.563,4.496,2.697,6.559c1.126,2.05,2.486,4.02,4.042,5.856c0.599,0.71,1.226,1.4,1.864,2.081
				c0.989,1.054,2.018,2.074,3.082,3.042c0.842,0.761,1.709,1.5,2.598,2.213c0.052,0.041,0.103,0.084,0.154,0.125
				c0.254,0.203,0.514,0.398,0.771,0.597c0.671,0.517,1.349,1.022,2.038,1.504c0.038,0.026,0.076,0.051,0.113,0.076
				c0.2,0.139,0.401,0.266,0.602,0.402c1.68,1.149,3.382,2.241,5.077,3.223l0.892,0.515l0.892-0.515
				c1.93-1.117,3.878-2.361,5.791-3.701c1.933-1.349,3.803-2.844,5.561-4.438c1.752-1.591,3.417-3.314,4.948-5.123
				c1.555-1.837,2.915-3.807,4.042-5.856c1.134-2.063,2.041-4.269,2.697-6.559c0.664-2.323,1.001-4.771,1.001-7.279V70.311
				L256.12,70.219z"/>
		</g>
		<g>
			<rect x="230.21" y="75.076" fill="#FFFFFF" width="5.331" height="17.787"/>
			<rect x="230.188" y="96.588" fill="#FFFFFF" width="5.373" height="3.723"/>
		</g>
	</g>
</g>
</svg>
