<?xml version="1.0" encoding="utf-8"?>
<!-- Generator: Adobe Illustrator 16.0.0, SVG Export Plug-In . SVG Version: 6.00 Build 0)  -->
<!DOCTYPE svg PUBLIC "-//W3C//DTD SVG 1.1//EN" "http://www.w3.org/Graphics/SVG/1.1/DTD/svg11.dtd">
<svg version="1.1" id="Layer_1" xmlns="http://www.w3.org/2000/svg" xmlns:xlink="http://www.w3.org/1999/xlink" x="0px" y="0px"
	 width="400px" height="140px" viewBox="0 0 400 140" enable-background="new 0 0 400 140" xml:space="preserve">
<g>
	<defs>
		<rect id="SVGID_1_" width="400" height="140"/>
	</defs>
	<clipPath id="SVGID_2_">
		<use xlink:href="#SVGID_1_"  overflow="visible"/>
	</clipPath>
	<polygon clip-path="url(#SVGID_2_)" fill="#0078D4" points="178.1,69.934 178.1,70.076 178.193,69.934 	"/>
	<path clip-path="url(#SVGID_2_)" fill="#0078D4" d="M180.961,81.69c0.012,0.008,0.026,0.014,0.039,0.021v-0.058
		c-0.013-0.008-0.027-0.014-0.039-0.021V81.69z"/>
	<g clip-path="url(#SVGID_2_)">
		<path fill="#C2C2C2" d="M237.792,73.873c-0.499-3.414-1.185-4.199-2.807-7.138c-1.626-2.935-3.657-5.475-6.092-7.621
			c-2.437-2.141-5.22-3.819-8.342-5.029c-3.124-1.205-6.438-1.811-9.934-1.811c-3.209,0-6.26,0.522-9.151,1.562
			c-2.895,1.042-5.532,2.479-7.904,4.312c-2.376,1.83-4.426,4.042-6.155,6.621c-1.733,2.585-2.987,5.396-3.778,8.435
			c-1.836-1.578-3.856-2.8-6.062-3.655c-2.209-0.854-4.52-1.282-6.935-1.282c-2.748,0-5.342,0.522-7.777,1.563
			c-2.436,1.043-4.563,2.469-6.373,4.277c-1.811,1.813-3.239,3.938-4.28,6.374c-1.042,2.434-1.562,5.029-1.562,7.775
			c0,2.749,0.521,5.346,1.562,7.783c1.041,2.435,2.469,4.559,4.28,6.367c1.81,1.813,3.937,3.242,6.373,4.283
			c2.436,1.041,5.029,1.562,7.777,1.562h42.722V73.873H237.792"/>
		<path fill="#939393" d="M170.633,60.271c1.582,0,3.142,0.125,4.687,0.377c1.54,0.251,3.039,0.645,4.498,1.185
			c1.331-2.373,2.954-4.54,4.873-6.498c1.916-1.955,4.017-3.684,6.313-5.184c2.287-1.5,4.724-2.728,7.31-3.685
			c2.579-0.958,5.227-1.604,7.934-1.94c-0.461-2.328-1.282-4.498-2.474-6.496c-1.181-1.999-2.653-3.717-4.398-5.153
			c-1.751-1.437-3.719-2.563-5.907-3.375c-2.188-0.812-4.465-1.217-6.84-1.217c-2.581,0-5.031,0.469-7.342,1.406
			c-2.312,0.937-4.354,2.228-6.12,3.874c-1.772,1.647-3.221,3.584-4.344,5.81c-1.127,2.229-1.793,4.634-2,7.216
			c-1.249-0.704-2.563-1.269-3.936-1.686c-1.375-0.418-2.792-0.625-4.247-0.625c-2.208,0-4.283,0.418-6.216,1.247
			c-1.938,0.834-3.638,1.982-5.092,3.439c-1.461,1.457-2.606,3.153-3.437,5.092c-0.833,1.935-1.25,4.008-1.25,6.214
			c0,2.249,0.449,4.385,1.344,6.404c0.892,2.02,2.173,3.8,3.839,5.339c2.624-3.704,5.945-6.59,9.966-8.65
			C161.813,61.302,166.094,60.271,170.633,60.271"/>
		<rect x="218.354" y="79.529" fill="#0078D4" width="23.87" height="7.093"/>
		<rect x="218.354" y="92.078" fill="#0078D4" width="23.87" height="7.092"/>
		<rect x="218.354" y="104.626" fill="#0078D4" width="23.87" height="7.091"/>
		<polygon fill="#0078D4" points="249.587,96.187 247.174,93.771 245.681,95.264 249.587,99.17 257.355,91.402 255.861,89.91 		"/>
		<polygon fill="#0078D4" points="249.587,108.733 247.174,106.319 245.681,107.812 249.587,111.717 257.355,103.949 
			255.861,102.457 		"/>
		<polygon fill="#0078D4" points="249.587,83.639 247.174,81.225 245.681,82.717 249.587,86.622 257.355,78.855 255.861,77.363 		
			"/>
	</g>
</g>
</svg>
