<?xml version="1.0" encoding="UTF-8"?>
<svg width="100px" height="118px" viewBox="0 0 100 118" version="1.1" xmlns="http://www.w3.org/2000/svg" xmlns:xlink="http://www.w3.org/1999/xlink">
    <!-- Generator: Sketch 55.2 (78181) - https://sketchapp.com -->
    <title>Manage team collaboration with Microsoft Teams/manage-team-collaboration-with-microsoft-teams</title>
    <desc>Created with Sketch.</desc>
    <defs>
        <path d="M42.7425,1.49663266 C44.3745,0.498877554 46.1865,0 48,0 C49.8135,0 51.627,0.498877554 53.256,1.49663266 L90.591,24.3316189 C93.933,26.3773408 96,30.2031485 96,34.3529027 L96,79.6470973 C96,83.7952317 93.933,87.6242789 90.591,89.6683811 L53.256,112.504987 C51.627,113.501122 49.8135,114 48,114 C46.1865,114 44.3745,113.501122 42.7425,112.504987 L5.409,89.6683811 C2.0655,87.6242789 0,83.7952317 0,79.6470973 L0,34.3529027 C0,30.2031485 2.0655,26.3773408 5.409,24.3316189 L42.7425,1.49663266 Z" id="path-1"></path>
        <filter x="-12.5%" y="-13.3%" width="125.0%" height="126.7%" filterUnits="objectBoundingBox" id="filter-3">
            <feOffset dx="0" dy="2" in="SourceAlpha" result="shadowOffsetOuter1"></feOffset>
            <feColorMatrix values="0 0 0 0 0   0 0 0 0 0   0 0 0 0 0  0 0 0 0.102764423 0" type="matrix" in="shadowOffsetOuter1" result="shadowMatrixOuter1"></feColorMatrix>
            <feMerge>
                <feMergeNode in="shadowMatrixOuter1"></feMergeNode>
                <feMergeNode in="SourceGraphic"></feMergeNode>
            </feMerge>
        </filter>
        <path d="M1.33334,7 L14.6667,7 C15.4030661,7 16,7.59696389 16,8.33333 L16,21.66666 C16,22.40303 15.40307,23 14.6667,23 L1.33334,23 C0.596956652,23 0,22.4030433 0,21.66666 L0,8.33334 C0,7.59695665 0.596956652,7 1.33334,7 Z" id="path-4"></path>
        <filter x="-6.2%" y="-6.3%" width="112.5%" height="125.0%" filterUnits="objectBoundingBox" id="filter-5">
            <feOffset dx="0" dy="2" in="SourceAlpha" result="shadowOffsetOuter1"></feOffset>
            <feColorMatrix values="0 0 0 0 0   0 0 0 0 0   0 0 0 0 0  0 0 0 0.0950065559 0" type="matrix" in="shadowOffsetOuter1"></feColorMatrix>
        </filter>
    </defs>
    <g id="Badges" stroke="none" stroke-width="1" fill="none" fill-rule="evenodd">
        <g id="Manage-team-collaboration-with-Microsoft-Teams" transform="translate(-50.000000, -50.000000)">
            <g id="Manage-team-collaboration-with-Microsoft-Teams/manage-team-collaboration-with-microsoft-teams" transform="translate(50.000000, 50.000000)">
                <g id="Mask" transform="translate(2.000000, 2.000000)">
                    <mask id="mask-2" fill="white">
                        <use xlink:href="#path-1"></use>
                    </mask>
                    <use id="Trophy-1" fill="#DEDEDE" xlink:href="#path-1"></use>
                    <path d="M48,92 C67.3299662,92 83,76.3299662 83,57 C83,37.6700338 67.3299662,22 48,22 C28.6700338,22 13,37.6700338 13,57 C13,76.3299662 28.6700338,92 48,92 Z" id="Oval" stroke="#FFFFFF" stroke-width="4" stroke-linecap="round" stroke-dasharray="1,10" mask="url(#mask-2)"></path>
                    <g id="User" mask="url(#mask-2)">
                        <g transform="translate(35.200000, 11.200000)">
                            <path d="M12.8,26.6 C5.18984848,26.6 -1,20.410018 -1,12.8 C-1,5.18971525 5.18971525,-1 12.8,-1 C20.410018,-1 26.6,5.18984848 26.6,12.8 C26.6,20.4098847 20.4098847,26.6 12.8,26.6 Z" id="Fill-115" stroke="#7B83EB" stroke-width="2" fill="#5059C9"></path>
                            <path d="M12.8000001,13.7842517 C15.5185379,13.7842517 17.7236224,11.5803488 17.7236224,8.86181103 C17.7236224,6.14212123 15.5185675,3.93818882 12.8000001,3.93818882 C10.0814328,3.93818882 7.87637794,6.14209169 7.87637794,8.86181103 C7.87637794,11.5803488 10.0814328,13.7842517 12.8000001,13.7842517 Z" id="Path" stroke="none" fill="#FFFFFE"></path>
                            <path d="M3.53674908,18.4160249 C5.43604196,21.541881 8.87451325,23.6314961 12.8000001,23.6314961 C16.725487,23.6314961 20.1641651,21.541822 22.0632512,18.4160249 C22.0517131,18.3294834 22.0182509,18.2452519 21.9594026,18.1725555 C20.7455117,16.6552067 18.8243893,15.7540196 16.2464884,15.7540196 L9.35318102,15.7540196 C6.77539835,15.7540196 4.85433496,16.6552067 3.64026685,18.1725555 C3.58141851,18.2452489 3.54795631,18.3294834 3.53641824,18.4160249 L3.53674908,18.4160249 Z" id="Path" stroke="none" fill="#FFFFFE"></path>
                        </g>
                    </g>
                    <g id="User" mask="url(#mask-2)">
                        <g transform="translate(7.600000, 63.400000)">
                            <path d="M12.8,26.6 C5.18984848,26.6 -1,20.410018 -1,12.8 C-1,5.18971525 5.18971525,-1 12.8,-1 C20.410018,-1 26.6,5.18984848 26.6,12.8 C26.6,20.4098847 20.4098847,26.6 12.8,26.6 Z" id="Fill-115" stroke="#7B83EB" stroke-width="2" fill="#5059C9"></path>
                            <path d="M12.8000001,13.7842517 C15.5185379,13.7842517 17.7236224,11.5803488 17.7236224,8.86181103 C17.7236224,6.14212123 15.5185675,3.93818882 12.8000001,3.93818882 C10.0814328,3.93818882 7.87637794,6.14209169 7.87637794,8.86181103 C7.87637794,11.5803488 10.0814328,13.7842517 12.8000001,13.7842517 Z" id="Path" stroke="none" fill="#FFFFFE"></path>
                            <path d="M3.53674908,18.4160249 C5.43604196,21.541881 8.87451325,23.6314961 12.8000001,23.6314961 C16.725487,23.6314961 20.1641651,21.541822 22.0632512,18.4160249 C22.0517131,18.3294834 22.0182509,18.2452519 21.9594026,18.1725555 C20.7455117,16.6552067 18.8243893,15.7540196 16.2464884,15.7540196 L9.35318102,15.7540196 C6.77539835,15.7540196 4.85433496,16.6552067 3.64026685,18.1725555 C3.58141851,18.2452489 3.54795631,18.3294834 3.53641824,18.4160249 L3.53674908,18.4160249 Z" id="Path" stroke="none" fill="#FFFFFE"></path>
                        </g>
                    </g>
                    <g id="User" mask="url(#mask-2)">
                        <g transform="translate(62.800000, 63.400000)">
                            <path d="M12.8,26.6 C5.18984848,26.6 -1,20.410018 -1,12.8 C-1,5.18971525 5.18971525,-1 12.8,-1 C20.410018,-1 26.6,5.18984848 26.6,12.8 C26.6,20.4098847 20.4098847,26.6 12.8,26.6 Z" id="Fill-115" stroke="#7B83EB" stroke-width="2" fill="#4B53BC"></path>
                            <path d="M12.8000001,13.7842517 C15.5185379,13.7842517 17.7236224,11.5803488 17.7236224,8.86181103 C17.7236224,6.14212123 15.5185675,3.93818882 12.8000001,3.93818882 C10.0814328,3.93818882 7.87637794,6.14209169 7.87637794,8.86181103 C7.87637794,11.5803488 10.0814328,13.7842517 12.8000001,13.7842517 Z" id="Path" stroke="none" fill="#FFFFFE"></path>
                            <path d="M3.53674908,18.4160249 C5.43604196,21.541881 8.87451325,23.6314961 12.8000001,23.6314961 C16.725487,23.6314961 20.1641651,21.541822 22.0632512,18.4160249 C22.0517131,18.3294834 22.0182509,18.2452519 21.9594026,18.1725555 C20.7455117,16.6552067 18.8243893,15.7540196 16.2464884,15.7540196 L9.35318102,15.7540196 C6.77539835,15.7540196 4.85433496,16.6552067 3.64026685,18.1725555 C3.58141851,18.2452489 3.54795631,18.3294834 3.53641824,18.4160249 L3.53674908,18.4160249 Z" id="Path" stroke="none" fill="#FFFFFE"></path>
                        </g>
                    </g>
                    <g id="Microsoft_Office_Teams_(2018–present)" filter="url(#filter-3)" mask="url(#mask-2)" fill-rule="nonzero">
                        <g transform="translate(32.000000, 42.000000)">
                            <circle id="Head" fill="#7B83EB" cx="17.00001" cy="5.00001" r="4.66666"></circle>
                            <circle id="Head-2" fill="#5059C9" cx="27.5" cy="6.50001" r="3.5"></circle>
                            <path d="M30.49976,11 L22.63882,11 C22.2858769,11 21.99976,11.2861169 21.99976,11.63906 L21.99976,19.74932 C21.9548733,22.1682627 23.6088838,24.2886459 25.966,24.8339 C27.4413684,25.1435676 28.9777273,24.7718056 30.148305,23.8218826 C31.3188827,22.8719595 31.9989952,21.4450563 31.99972,19.93754 L31.99972,12.5 C31.99972,11.6715885 31.3281715,11 30.49976,11 L30.49976,11 Z" id="Path" fill="#5059C9"></path>
                            <path d="M24.9999987,12.4999987 L24.9999987,21.9999987 C25.0023725,25.620026 22.5720256,28.7899169 19.075477,29.7273294 C15.5789285,30.6647418 11.8888204,29.1357236 10.08,25.9999987 C9.88756895,25.6801835 9.72039458,25.3458347 9.58,24.9999987 C9.44911204,24.6739264 9.3388938,24.3399317 9.25,23.9999987 C9.08513985,23.3460751 9.00117858,22.674385 8.99999866,21.9999987 L8.99999866,12.4999987 C8.99946829,12.1020125 9.15733279,11.7201726 9.4387527,11.4387527 C9.72017262,11.1573328 10.1020125,10.9994683 10.4999987,10.9999987 L23.4999987,10.9999987 C23.8979875,10.9994683 24.2798274,11.1573328 24.5612473,11.4387527 C24.8426672,11.7201726 25.0005317,12.1020125 24.9999987,12.4999987 Z" id="Path" fill="#7B83EB"></path>
                            <g id="Back_Plate" fill="none">
                                <use fill="black" fill-opacity="1" filter="url(#filter-5)" xlink:href="#path-4"></use>
                                <use fill="#4B53BC" xlink:href="#path-4"></use>
                            </g>
                            <polygon id="Path" fill="#FFFFFF" points="11.97961 11.975 8.99081 11.975 8.99081 19.9953 7.02654 19.9953 7.02654 11.975 4.02042 11.975 4.02042 10.00466 11.97961 10.00466"></polygon>
                        </g>
                    </g>
                </g>
                <g id="Teams-Hex-Border" stroke="#4B53BC" stroke-width="4">
                    <path d="M45.5618501,3.25844398 L45.5621963,3.25823359 L6.67338401,26.8942953 C3.79673288,28.6432593 2,31.9508238 2,35.5582677 L2,82.4417323 C2,86.0486597 3.79764663,89.3586805 6.67318764,91.1055853 L45.560618,114.742485 C46.9289662,115.572418 48.4546283,116 50,116 C51.5458817,116 53.0723633,115.572188 54.4362178,114.743457 L93.3268764,91.1055464 C96.2016145,89.3583456 98,86.0476286 98,82.4417323 L98,35.5582677 C98,31.9518547 96.202529,28.6435953 93.3268966,26.8944659 L54.4351916,3.25759524 C53.0721095,2.42798656 51.5462432,2 50,2 C48.4542664,2 46.9292165,2.42775755 45.5618501,3.25844398 Z" id="Azure-Hex-Border"></path>
                </g>
            </g>
        </g>
    </g>
</svg>