<svg width="181" height="191" viewBox="0 0 181 191" fill="none" xmlns="http://www.w3.org/2000/svg">
<path fill-rule="evenodd" clip-rule="evenodd" d="M6.91846 59.5056L26.396 154.072C27.5697 159.774 32.6316 163.84 38.4642 163.757L147.161 162.121L176.407 40.3837L161.174 27.8176L14.0788 46.9513L6.91846 59.5056Z" fill="url(#paint0_linear)"/>
<path fill-rule="evenodd" clip-rule="evenodd" d="M159.241 27.5567C157.321 27.201 155.353 27.1655 153.409 27.45L21.2745 47.2713L20.9782 47.3187C11.5654 48.8954 5.12832 57.7273 6.5509 67.1993C6.62203 67.6498 6.70497 68.1003 6.7998 68.5389L25.6847 150.397L25.7557 150.705C27.6999 158.494 34.7061 163.97 42.7555 163.97H136.931H137.251C145.549 163.828 152.626 157.865 154.156 149.685L173.218 48.0063L173.266 47.7099C174.878 38.309 168.654 29.3231 159.241 27.5567ZM154.452 31.0894C155.756 30.9353 157.084 30.9827 158.376 31.2317C165.501 32.5713 170.183 39.4708 168.856 46.6311L149.829 148.666L149.769 148.95C148.501 155.044 143.154 159.418 136.931 159.418H42.9334H42.637C36.6503 159.288 31.5053 155.091 30.1538 149.199L11.3047 67.0571L11.2335 66.7251C11.1861 66.4999 11.1506 66.2746 11.115 66.0494C10.0362 58.8417 14.9797 52.1318 22.1401 51.053L154.013 31.1487L154.452 31.0894Z" fill="#0076D7"/>
<path d="M42.8976 165.962H136.8C146.26 165.962 154.381 159.229 156.123 149.934L175.127 48.5517C177.616 35.2624 166.259 23.4905 152.887 25.494L21.1559 45.256C9.82262 46.9513 2.34227 57.9526 4.91477 69.108L23.7521 150.729C25.803 159.644 33.7457 165.962 42.8976 165.962Z" stroke="white" stroke-width="5"/>
<path opacity="0.15" d="M130.944 139.146C139.183 139.146 145.893 132.401 145.893 124.115C145.893 116.527 140.333 110.292 133.066 109.296C133.635 106.961 133.991 104.483 133.991 101.922C133.92 85.3373 120.595 71.9294 104.093 71.9294C92.7476 71.9294 82.8606 78.3785 77.7986 87.8149C75.3328 86.6176 72.5114 85.8945 69.5595 85.8945C59.2695 85.8945 50.8644 94.3351 50.8644 104.684C50.8644 106.237 51.0778 107.814 51.4334 109.296C50.8644 109.225 50.3071 109.225 49.7381 109.225C41.5583 109.154 34.8604 115.816 34.8604 124.126C34.8604 132.425 41.5702 139.158 49.8093 139.158L130.944 139.146Z" fill="#1F1D20"/>
<path d="M38.7369 61.189H130.138C133.054 61.189 135.413 63.5481 135.413 66.4644V119.195C135.413 122.111 133.054 124.47 130.138 124.47H38.7369C35.8206 124.47 33.4614 122.111 33.4614 119.195V66.4644C33.4733 63.5481 35.8325 61.189 38.7369 61.189Z" fill="url(#paint1_linear)" stroke="#A3A3A3" stroke-width="1.8743"/>
<path d="M128.526 136.858C136.765 136.858 143.474 130.113 143.474 121.826C143.474 114.239 137.914 108.004 130.647 107.008C131.216 104.673 131.572 102.195 131.572 99.6342C131.501 83.0493 118.176 69.6414 101.674 69.6414C90.3292 69.6414 80.4422 76.0905 75.3801 85.5269C72.9143 84.3296 70.0929 83.6064 67.1411 83.6064C56.8511 83.6064 48.4459 92.0471 48.4459 102.396C48.4459 103.949 48.6593 105.526 49.015 107.008C48.4459 106.937 47.8888 106.937 47.3198 106.937C39.1399 106.866 32.4419 113.528 32.4419 121.838C32.4419 130.137 39.1517 136.87 47.3908 136.87L128.526 136.858Z" fill="url(#paint2_linear)"/>
<path opacity="0.15" d="M123.95 72.9964L86.4409 87.5779V129.746L99.9672 124.067V90.8735L124.246 85.195V134.736L86.4409 129.722L123.95 143.331L144.909 136.527V80.0619L123.95 72.9964Z" fill="#1F1D20"/>
<path d="M123.95 70.981L86.4409 85.5625V127.73L99.9672 122.052V88.8581L124.246 83.1797V132.721L86.4409 127.706L123.95 141.316L144.909 134.511V78.0465L123.95 70.981Z" fill="white"/>
<path opacity="0.15" fill-rule="evenodd" clip-rule="evenodd" d="M77.5023 110.481H67.8881C67.2242 110.481 66.6907 111.015 66.6907 111.679V125.49C66.6907 126.153 66.1572 126.687 65.4933 126.687H55.8791C54.5513 126.687 53.4844 125.608 53.4844 124.292V125.49C53.4844 126.817 54.5632 127.884 55.8791 127.884H77.5023C78.8301 127.884 79.897 126.805 79.897 125.49V108.087C79.9089 109.403 78.8301 110.481 77.5023 110.481Z" fill="#1F1D20"/>
<path fill-rule="evenodd" clip-rule="evenodd" d="M79.9087 124.494C79.9087 125.822 78.8299 126.888 77.514 126.888H55.8908C54.5631 126.888 53.4961 125.81 53.4961 124.494V106.474H79.9206V124.494H79.9087Z" fill="#30404D"/>
<path fill-rule="evenodd" clip-rule="evenodd" d="M79.9087 106.474C79.9087 107.802 78.8299 108.869 77.514 108.869H55.8908C54.5631 108.869 53.4961 107.79 53.4961 106.474V104.08C53.4961 102.752 54.5749 101.685 55.8908 101.685H77.514C78.8418 101.685 79.9087 102.764 79.9087 104.08V106.474Z" fill="#546670"/>
<path fill-rule="evenodd" clip-rule="evenodd" d="M77.5023 109.474H67.8881C67.2242 109.474 66.6907 110.007 66.6907 110.671V124.482C66.6907 125.146 66.1572 125.679 65.4933 125.679H55.8791C54.5513 125.679 53.4844 124.601 53.4844 123.285V124.482C53.4844 125.81 54.5632 126.877 55.8791 126.877H77.5023C78.8301 126.877 79.897 125.798 79.897 124.482V107.079C79.9089 108.395 78.8301 109.474 77.5023 109.474Z" fill="#182A37"/>
<path fill-rule="evenodd" clip-rule="evenodd" d="M66.6913 112.497C63.8105 112.497 61.4751 114.832 61.4751 117.713C61.4751 120.594 63.8105 122.929 66.6913 122.929C69.572 122.929 71.9074 120.582 71.9074 117.713C71.9193 114.832 69.572 112.497 66.6913 112.497Z" fill="#ADBDC4"/>
<path fill-rule="evenodd" clip-rule="evenodd" d="M61.2849 105.277C61.2849 106.273 60.2062 107.079 58.8903 107.079C57.5626 107.079 56.4956 106.273 56.4956 105.277C56.4956 104.281 57.5744 103.475 58.8903 103.475C60.2181 103.475 61.2849 104.281 61.2849 105.277Z" fill="#182A37"/>
<path fill-rule="evenodd" clip-rule="evenodd" d="M76.9095 105.277C76.9095 106.273 75.8307 107.079 74.5148 107.079C73.1871 107.079 72.1201 106.273 72.1201 105.277C72.1201 104.281 73.1989 103.475 74.5148 103.475C75.8307 103.475 76.9095 104.281 76.9095 105.277Z" fill="#182A37"/>
<path fill-rule="evenodd" clip-rule="evenodd" d="M66.6909 88.4669C61.3918 88.4669 57.0767 92.7821 57.0767 98.0812V106.474C57.5153 106.854 58.1555 107.091 58.8786 107.091C59.6018 107.091 60.2418 106.842 60.6804 106.474V98.0812C60.6804 94.7737 63.3716 92.0708 66.6791 92.0708C69.9866 92.0708 72.6777 94.7618 72.6777 98.0812V105.289C72.6777 105.953 73.4837 106.486 74.4795 106.486C75.4753 106.486 76.2815 105.953 76.2815 105.289V98.0812C76.3052 92.7821 71.99 88.4669 66.6909 88.4669Z" fill="#F5F8F5"/>
<path fill-rule="evenodd" clip-rule="evenodd" d="M63.253 92.5213C60.9294 93.4934 59.4832 95.8288 59.4832 98.342V104.483C59.4832 105.277 58.7364 105.846 57.9776 105.645C57.5983 105.55 57.2663 105.396 57.0767 105.242V106.439C57.5153 106.818 58.1555 107.055 58.8786 107.055C59.092 107.055 59.2936 107.032 59.4832 106.984C59.6018 106.96 59.7202 106.925 59.8388 106.901C59.8981 106.877 59.9455 106.854 60.0048 106.83C60.0878 106.794 60.1707 106.759 60.2537 106.723C60.3011 106.7 60.3368 106.676 60.3723 106.652C60.479 106.581 60.5975 106.51 60.6923 106.427V98.0338C60.6923 94.9278 63.0752 92.3553 66.0863 92.0589C65.1972 91.9996 64.2251 92.1182 63.253 92.5213Z" fill="#C5CCCD"/>
<path fill-rule="evenodd" clip-rule="evenodd" d="M66.6905 88.4669C66.489 88.4669 66.2875 88.4906 66.0859 88.5025C71.1124 88.8107 75.0956 92.9836 75.0956 98.0812V104.507C75.0956 105.301 74.3487 105.87 73.59 105.668C73.2107 105.573 72.8787 105.419 72.689 105.265V106.463C73.1277 106.842 73.7678 107.079 74.491 107.079C75.2141 107.079 75.8543 106.83 76.2929 106.463V98.0693C76.3048 92.7821 71.9897 88.4669 66.6905 88.4669Z" fill="#C5CCCD"/>
<defs>
<linearGradient id="paint0_linear" x1="91.6505" y1="48.5099" x2="92.9949" y2="156.94" gradientUnits="userSpaceOnUse">
<stop stop-color="#00ABDE"/>
<stop offset="1" stop-color="#007ED8"/>
</linearGradient>
<linearGradient id="paint1_linear" x1="84.4426" y1="61.1833" x2="84.4426" y2="124.464" gradientUnits="userSpaceOnUse">
<stop stop-color="#555559"/>
<stop offset="1" stop-color="#2E2E33"/>
</linearGradient>
<linearGradient id="paint2_linear" x1="87.9486" y1="66.0535" x2="87.9486" y2="139.711" gradientUnits="userSpaceOnUse">
<stop stop-color="#008BF1"/>
<stop offset="0.22" stop-color="#0086EC"/>
<stop offset="0.49" stop-color="#0078DD"/>
<stop offset="0.79" stop-color="#0061C4"/>
<stop offset="1" stop-color="#004DAE"/>
</linearGradient>
</defs>
</svg>
