<?xml version="1.0" encoding="UTF-8" standalone="no"?>
<!-- Generator: Adobe Illustrator 23.0.3, SVG Export Plug-In . SVG Version: 6.00 Build 0)  -->

<svg
   xmlns:dc="http://purl.org/dc/elements/1.1/"
   xmlns:cc="http://creativecommons.org/ns#"
   xmlns:rdf="http://www.w3.org/1999/02/22-rdf-syntax-ns#"
   xmlns:svg="http://www.w3.org/2000/svg"
   xmlns="http://www.w3.org/2000/svg"
   xmlns:sodipodi="http://sodipodi.sourceforge.net/DTD/sodipodi-0.dtd"
   xmlns:inkscape="http://www.inkscape.org/namespaces/inkscape"
   version="1.1"
   id="Layer_1"
   x="0px"
   y="0px"
   viewBox="0 0 400 140"
   style="enable-background:new 0 0 400 140;"
   xml:space="preserve"
   sodipodi:docname="DMC_Surface_HubTile_Global.svg"
   inkscape:version="0.92.3 (2405546, 2018-03-11)"><metadata
   id="metadata36"><rdf:RDF><cc:Work
       rdf:about=""><dc:format>image/svg+xml</dc:format><dc:type
         rdf:resource="http://purl.org/dc/dcmitype/StillImage" /><dc:title></dc:title></cc:Work></rdf:RDF></metadata><defs
   id="defs34" /><sodipodi:namedview
   pagecolor="#ffffff"
   bordercolor="#666666"
   borderopacity="1"
   objecttolerance="10"
   gridtolerance="10"
   guidetolerance="10"
   inkscape:pageopacity="0"
   inkscape:pageshadow="2"
   inkscape:window-width="1920"
   inkscape:window-height="1027"
   id="namedview32"
   showgrid="false"
   inkscape:zoom="1.42"
   inkscape:cx="200"
   inkscape:cy="182.67606"
   inkscape:window-x="-8"
   inkscape:window-y="-8"
   inkscape:window-maximized="1"
   inkscape:current-layer="Layer_1" />
<style
   type="text/css"
   id="style2">
	.st0{fill:none;}
	.st1{fill:#0078D4;}
	.st2{fill:#C2C2C2;}
	.st3{fill:#939393;}
	.st4{fill:#FFFFFF;}
	.st5{fill:#2F2F2F;}
</style>
<rect
   style="fill:#f2f2f2;fill-opacity:1;stroke:none;stroke-width:0.9845798;stroke-opacity:1"
   id="rect843"
   width="402.13644"
   height="140.86887"
   x="-2.124572"
   y="-0.85696417"
   inkscape:export-xdpi="96"
   inkscape:export-ydpi="96" /><g
   id="g14">
	<path
   class="st0"
   d="M150.4,60.9l2.9,1.7l1.3-0.7c-0.6-0.2-1.1-0.6-1.6-1.2c-0.5-0.6-1-1.1-1.4-1.6c-0.5-0.5-0.9-0.9-1.4-1.2   c-0.5-0.3-1-0.2-1.6,0.2l-0.5-0.2c0.1-0.6,0.3-1.1,0.6-1.6c0.3-0.5,0.5-1,0.7-1.6c-0.7,0.3-1.4,0.5-2.1,0.8   c-0.7,0.2-1.4,0.3-2.2,0.3c-0.8,0-1.4-0.3-1.8-0.8c-0.4-0.5-0.5-1.1-0.5-1.9l0.2-1.7c0.3-0.3,0.7-0.6,1.1-0.8   c0.4-0.2,0.8-0.3,1.3-0.3c0.4,0,0.9,0,1.3,0c0.5,0,0.9,0.1,1.3,0.1l-0.8-0.5l1.6-0.1c1,0,1.8,0.2,2.5,0.7c0.7,0.5,1.2,1.2,1.5,2.1   c0.1-0.4,0.1-0.8,0.1-1.2c0-0.4-0.1-0.8-0.1-1.2c0-0.7,0.2-1.2,0.6-1.6c0.4-0.4,0.8-0.7,1.2-0.9c0.4-0.2,0.7-0.3,0.9-0.4   c0.2,0,0.1-0.1-0.2-0.1c-0.1,0-0.1,0,0,0c0.1,0,0.2-0.1,0.3-0.1c0.1,0,0.2-0.1,0.3-0.2c0.1-0.1,0.2-0.1,0.2-0.2   c-0.2-0.2-0.3-0.4-0.4-0.5c-0.1-0.1-0.2-0.3-0.3-0.4c-0.1-0.1-0.1-0.3-0.1-0.3l-0.1-0.1l0.5,0.3c0,0,0-0.1,0-0.2   c0-0.1-0.1-0.2-0.1-0.3c0-0.1,0-0.2,0-0.3c0-0.1,0.1-0.1,0.3-0.1l0.1,0l-0.2,1.3l0.3-0.1v-1l3.4-1.3l-0.1-0.6   c0.6-0.3,1.2-0.6,1.7-0.9c0.6-0.4,1.1-0.7,1.6-1.2l-2.1-0.7c0-0.2,0.1-0.4,0.4-0.6c0.3-0.2,0.7-0.3,1.1-0.4   c0.4-0.1,0.9-0.2,1.4-0.3c0.5-0.1,1-0.2,1.4-0.3c0.4-0.1,0.8-0.3,1-0.6c0.3-0.2,0.4-0.5,0.4-0.9c0-0.3-0.2-0.6-0.6-1   c-0.4-0.3-0.9-0.7-1.4-1c-0.5-0.3-1.1-0.6-1.6-0.8c-0.6-0.2-1-0.4-1.2-0.5l-1.3,1c-0.4-0.6-0.8-1-1-1.4c-0.2-0.4-0.5-0.6-0.8-0.8   c-0.3-0.2-0.6-0.3-1-0.4c-0.4-0.1-1-0.1-1.7-0.1c-0.1,0-0.3,0.1-0.6,0.3c-0.3,0.2-0.4,0.3-0.6,0.4l1,2.7l-1.2,1.7l0.1,0.8l-0.6,0.4   c-0.5,0-1-0.2-1.3-0.5c-0.3-0.3-0.6-0.7-0.9-1.1c-0.3-0.4-0.6-0.7-1-1.1c-0.3-0.3-0.7-0.4-1.1-0.4c-5.4,5.1-9,12.1-9.8,19.8   c0.6,0.4,1.2,0.8,1.9,1.2c0.8,0.5,1.7,0.9,2.6,1.2c0.9,0.4,1.8,0.6,2.7,0.9c0.9,0.2,1.7,0.4,2.5,0.4l1.3,2.2   c0.1,0.1,0.1,0.1,0.1-0.1C150.5,61.1,150.5,61,150.4,60.9z"
   id="path4" />
	<path
   class="st0"
   d="M204.1,52.5c-1.1-5.4-3.5-10.3-6.9-14.3c-0.7,0.2-1.3,0.3-2.1,0.4c-0.9,0.1-1.7,0.3-2.6,0.4   c-0.9,0.1-1.8,0.2-2.6,0.3c-0.9,0.1-1.6,0.1-2.3,0.1l-0.6,0.1l-2.4,2.9l0.1,0.4c-0.6,0.8-1.2,1.4-1.8,1.8c-0.6,0.4-1.2,0.9-1.6,1.3   s-0.8,1-1,1.7c-0.2,0.7-0.1,1.7,0.2,2.9l-0.9,2.4l1.3,0.7c-0.1,0.1-0.2,0.1-0.4,0.1c-0.2,0-0.3,0-0.3-0.1l0.3,1.1l0.8,0.1l-0.4,0.3   c0,0.2,0.1,0.4,0.2,0.5c0.1,0.1,0.3,0.3,0.5,0.4c0.2,0.1,0.4,0.2,0.6,0.4c0.2,0.1,0.4,0.3,0.5,0.4l-0.1,0.1c0,0.3,0.2,0.6,0.5,0.8   c0.4,0.3,0.8,0.6,1.3,0.8c0.5,0.2,1,0.5,1.4,0.6c0.5,0.2,0.8,0.3,1.1,0.3c0.3,0,0.7-0.1,1.1-0.2c0.4-0.1,0.8-0.3,1.1-0.4l-0.1,0.3   l0.6,0.1c0.3,0,0.7,0,1-0.1c0.3-0.1,0.6-0.2,0.9-0.3c0.3-0.1,0.6-0.3,0.9-0.4c0.3-0.1,0.6-0.2,1-0.3l-0.2,0.2   c0.5,0.4,1.1,0.7,1.8,0.9c0.3,0.1,0.5,0.1,0.8,0.2v-6.8H204.1z"
   id="path6" />
	<path
   class="st0"
   d="M182.2,35.3l-0.6,2.1l0.6,1.3c0.6-0.2,1.1-0.4,1.7-0.3c0.6,0,1.2,0,1.8,0c0.6,0,1.1-0.1,1.7-0.3   c0.5-0.2,1-0.6,1.5-1.3l-0.2-0.7c0-0.3,0.1-0.7,0.4-1c0.3-0.3,0.6-0.6,0.9-0.9c0.4-0.3,0.8-0.5,1.2-0.7c0.3-0.1,0.5-0.2,0.8-0.3   c-1.8-1.4-3.7-2.5-5.7-3.5l-1.7,0.3v0.4c0.7,0,1.4,0.2,2,0.5c0.6,0.3,1.1,0.9,1.3,1.5l-6.4,2L182.2,35.3z"
   id="path8" />
	<path
   class="st0"
   d="M178.7,70.4c-0.5-0.6-1.1-1.2-1.8-1.8c-0.7-0.6-1.6-1.2-2.5-1.8c-0.9-0.6-1.8-1.1-2.7-1.6   c-0.9-0.5-1.7-0.8-2.5-1.1c-0.8-0.3-1.4-0.4-1.8-0.4c-0.1-0.1-0.2-0.2-0.5-0.4c-0.3-0.2-0.5-0.4-0.8-0.6c-0.3-0.2-0.6-0.4-0.9-0.5   c-0.3-0.2-0.5-0.3-0.5-0.3l0.1-0.3c0-0.1-0.1-0.2-0.3-0.2c-0.2-0.1-0.3-0.2-0.3-0.3c-0.2,0-0.5-0.1-0.9-0.3   c-0.4-0.1-0.8-0.3-1.3-0.4c-0.4-0.1-0.9-0.3-1.3-0.4c-0.4-0.1-0.7-0.2-0.8-0.2c-1.1,0-1.9,0.2-2.7,0.5c-0.7,0.4-1.3,1-1.7,2   l-0.8-0.2c0,0.2,0.1,0.5,0.2,0.8c0.1,0.3,0.2,0.5,0.2,0.8c0,0.4-0.1,0.8-0.3,1.1c-0.2,0.3-0.4,0.7-0.6,1c-0.2,0.3-0.5,0.7-0.8,1   c-0.3,0.3-0.5,0.7-0.6,1l0.6,0.3c-0.2,0.5-0.3,1.1-0.2,1.7c0.1,0.7,0.3,1.4,0.6,2.1c0.3,0.8,0.6,1.6,1,2.4c0.4,0.9,0.8,1.7,1.1,2.6   c0.4,0.9,0.7,1.7,0.9,2.6c0.2,0.9,0.4,1.7,0.4,2.5c0,0.5-0.1,1-0.2,1.6c-0.2,0.5-0.3,1-0.5,1.6c-0.2,0.5-0.3,1-0.4,1.5   c-0.1,0.4-0.1,0.8,0,1.2c2.5,1.4,5.2,2.5,8,3.2c0.3-0.3,0.5-0.7,0.8-1.2c0.4-0.6,0.7-1.2,1-1.8c0.3-0.6,0.5-1.3,0.6-1.9   c0.1-0.6,0.1-1.2-0.2-1.6c0,0.1,0.1,0.1,0.2-0.1c0.1-0.1,0.1-0.2,0-0.3l1.5,1.2c0.5,0,1-0.2,1.5-0.5c0.5-0.3,0.9-0.8,1.3-1.3   c0.4-0.5,0.7-1,0.9-1.6s0.4-1.1,0.4-1.6c0.8-0.5,1.6-0.9,2.4-1.3c0.7-0.3,1.4-0.7,2-1.1c0.6-0.4,1-1,1.3-1.6   c0.3-0.7,0.4-1.6,0.3-2.9l1.3-1.3C179.4,71.6,179.2,71,178.7,70.4z"
   id="path10" />
	<path
   class="st1"
   d="M195.7,78.6V59.4c-0.3-0.1-0.5-0.1-0.8-0.2c-0.7-0.2-1.3-0.5-1.8-0.9l0.2-0.2c-0.3,0.1-0.6,0.2-1,0.3   c-0.3,0.1-0.6,0.3-0.9,0.4c-0.3,0.1-0.6,0.2-0.9,0.3c-0.3,0.1-0.6,0.1-1,0.1l-0.6-0.1l0.1-0.3c-0.3,0.1-0.7,0.2-1.1,0.4   c-0.4,0.1-0.8,0.2-1.1,0.2c-0.2,0-0.6-0.1-1.1-0.3c-0.5-0.2-0.9-0.4-1.4-0.6c-0.5-0.2-0.9-0.5-1.3-0.8c-0.4-0.3-0.5-0.6-0.5-0.8   l0.1-0.1c-0.1-0.1-0.3-0.3-0.5-0.4c-0.2-0.1-0.4-0.2-0.6-0.4c-0.2-0.1-0.3-0.3-0.5-0.4c-0.1-0.1-0.2-0.3-0.2-0.5l0.4-0.3l-0.8-0.1   l-0.3-1.1c0,0.1,0.2,0.2,0.3,0.1c0.2,0,0.3-0.1,0.4-0.1l-1.3-0.7l0.9-2.4c-0.3-1.3-0.4-2.3-0.2-2.9c0.2-0.7,0.5-1.3,1-1.7   s1-0.9,1.6-1.3c0.6-0.4,1.2-1,1.8-1.8l-0.1-0.4l2.4-2.9l0.6-0.1c0.7,0,1.5,0,2.3-0.1c0.9-0.1,1.7-0.1,2.6-0.3   c0.9-0.1,1.8-0.2,2.6-0.4c0.8-0.1,1.5-0.3,2.1-0.4c3.4,4.1,5.8,8.9,6.9,14.3h4.3c-3.1-17.2-18.2-30.3-36.3-30.3   c-20.4,0-36.9,16.6-36.9,36.9s16.6,36.9,36.9,36.9c5,0,9.7-1,14.1-2.8c0-0.4-0.1-0.7-0.1-1.1C186.1,86,190.1,80.6,195.7,78.6z    M186.6,30.9c-0.6-0.3-1.3-0.5-2-0.5V30l1.7-0.3c2,1,3.9,2.1,5.7,3.5c-0.2,0.1-0.5,0.2-0.8,0.3c-0.4,0.2-0.8,0.4-1.2,0.7   c-0.4,0.3-0.7,0.5-0.9,0.9c-0.3,0.3-0.4,0.7-0.4,1l0.2,0.7c-0.4,0.7-0.9,1.2-1.5,1.3c-0.5,0.2-1.1,0.3-1.7,0.3c-0.6,0-1.2,0-1.8,0   c-0.6,0-1.2,0.1-1.7,0.3l-0.6-1.3l0.6-2.1l-0.6-0.9l6.4-2C187.6,31.7,187.2,31.2,186.6,30.9z M150.5,61.4l-1.3-2.2   c-0.8,0-1.6-0.2-2.5-0.4c-0.9-0.2-1.8-0.5-2.7-0.9c-0.9-0.4-1.7-0.8-2.6-1.2c-0.7-0.4-1.3-0.8-1.9-1.2c0.9-7.8,4.5-14.7,9.8-19.8   c0.4,0.1,0.8,0.2,1.1,0.4c0.4,0.3,0.7,0.7,1,1.1c0.3,0.4,0.6,0.7,0.9,1.1c0.3,0.3,0.7,0.5,1.3,0.5l0.6-0.4l-0.1-0.8l1.2-1.7l-1-2.7   c0.1-0.1,0.3-0.2,0.6-0.4c0.3-0.2,0.5-0.3,0.6-0.3c0.7,0,1.3,0,1.7,0.1c0.4,0.1,0.7,0.2,1,0.4c0.3,0.2,0.5,0.5,0.8,0.8   c0.2,0.4,0.6,0.8,1,1.4l1.3-1c0.2,0.1,0.6,0.3,1.2,0.5c0.6,0.2,1.1,0.5,1.6,0.8c0.5,0.3,1,0.6,1.4,1c0.4,0.3,0.6,0.7,0.6,1   c0,0.4-0.1,0.7-0.4,0.9c-0.3,0.2-0.6,0.4-1,0.6c-0.4,0.1-0.9,0.3-1.4,0.3c-0.5,0.1-1,0.2-1.4,0.3c-0.4,0.1-0.8,0.2-1.1,0.4   c-0.3,0.2-0.4,0.4-0.4,0.6l2.1,0.7c-0.5,0.4-1,0.8-1.6,1.2c-0.6,0.4-1.2,0.7-1.7,0.9l0.1,0.6l-3.4,1.3v1l-0.3,0.1l0.2-1.3l-0.1,0   c-0.2,0-0.3,0-0.3,0.1c0,0.1,0,0.2,0,0.3c0,0.1,0.1,0.2,0.1,0.3c0,0.1,0,0.2,0,0.2l-0.5-0.3l0.1,0.1c0,0.1,0,0.2,0.1,0.3   c0.1,0.1,0.2,0.3,0.3,0.4c0.1,0.1,0.3,0.3,0.4,0.5c0,0.1-0.1,0.1-0.2,0.2c-0.1,0.1-0.2,0.1-0.3,0.2c-0.1,0-0.2,0.1-0.3,0.1   c-0.1,0-0.1,0,0,0c0.3,0,0.4,0,0.2,0.1c-0.2,0-0.5,0.2-0.9,0.4c-0.4,0.2-0.8,0.5-1.2,0.9c-0.4,0.4-0.6,0.9-0.6,1.6   c0,0.4,0,0.8,0.1,1.2c0,0.4,0,0.8-0.1,1.2c-0.3-0.9-0.9-1.6-1.5-2.1c-0.7-0.5-1.5-0.7-2.5-0.7l-1.6,0.1l0.8,0.5   c-0.4,0-0.9-0.1-1.3-0.1c-0.5,0-0.9-0.1-1.3,0c-0.4,0-0.9,0.1-1.3,0.3c-0.4,0.2-0.8,0.4-1.1,0.8l-0.2,1.7c0,0.8,0.2,1.4,0.5,1.9   c0.4,0.5,1,0.8,1.8,0.8c0.7,0,1.5-0.1,2.2-0.3c0.7-0.2,1.4-0.5,2.1-0.8c-0.2,0.5-0.5,1.1-0.7,1.6c-0.3,0.5-0.5,1-0.6,1.6l0.5,0.2   c0.6-0.4,1.1-0.5,1.6-0.2c0.5,0.3,1,0.7,1.4,1.2c0.5,0.5,0.9,1,1.4,1.6c0.5,0.6,1,0.9,1.6,1.2l-1.3,0.7l-2.9-1.7   c0,0,0.1,0.2,0.1,0.3C150.6,61.4,150.6,61.5,150.5,61.4z M177.9,76.2c-0.3,0.7-0.7,1.2-1.3,1.6c-0.6,0.4-1.2,0.8-2,1.1   c-0.7,0.3-1.5,0.7-2.4,1.3c0,0.5-0.1,1-0.4,1.6s-0.6,1.1-0.9,1.6c-0.4,0.5-0.8,0.9-1.3,1.3c-0.5,0.3-1,0.5-1.5,0.5l-1.5-1.2   c0,0,0,0.1,0,0.3c-0.1,0.1-0.1,0.2-0.2,0.1c0.2,0.5,0.3,1,0.2,1.6c-0.1,0.6-0.3,1.2-0.6,1.9c-0.3,0.6-0.6,1.2-1,1.8   c-0.3,0.5-0.6,0.9-0.8,1.2c-2.8-0.7-5.5-1.8-8-3.2c-0.1-0.4-0.1-0.8,0-1.2c0.1-0.5,0.2-1,0.4-1.5c0.2-0.5,0.3-1,0.5-1.6   c0.2-0.5,0.2-1,0.2-1.6c0-0.8-0.1-1.6-0.4-2.5c-0.2-0.9-0.5-1.7-0.9-2.6c-0.4-0.9-0.7-1.7-1.1-2.6c-0.4-0.9-0.7-1.7-1-2.4   c-0.3-0.8-0.5-1.5-0.6-2.1c-0.1-0.6,0-1.2,0.2-1.7l-0.6-0.3c0.1-0.3,0.3-0.7,0.6-1c0.3-0.3,0.5-0.6,0.8-1c0.2-0.3,0.5-0.7,0.6-1   c0.2-0.3,0.3-0.7,0.3-1.1c0-0.2-0.1-0.5-0.2-0.8c-0.1-0.3-0.2-0.5-0.2-0.8l0.8,0.2c0.4-1,1-1.6,1.7-2c0.7-0.4,1.6-0.5,2.7-0.5   c0.1,0,0.4,0.1,0.8,0.2c0.4,0.1,0.8,0.2,1.3,0.4c0.4,0.1,0.9,0.3,1.3,0.4c0.4,0.1,0.7,0.2,0.9,0.3c0,0.2,0.1,0.3,0.3,0.3   c0.2,0.1,0.3,0.1,0.3,0.2l-0.1,0.3c0.1,0,0.3,0.1,0.5,0.3c0.3,0.2,0.6,0.3,0.9,0.5c0.3,0.2,0.6,0.4,0.8,0.6   c0.3,0.2,0.4,0.3,0.5,0.4c0.4,0,1,0.1,1.8,0.4c0.8,0.3,1.6,0.7,2.5,1.1c0.9,0.5,1.8,1,2.7,1.6c0.9,0.6,1.7,1.2,2.5,1.8   c0.7,0.6,1.3,1.2,1.8,1.8c0.5,0.6,0.7,1.1,0.7,1.6l-1.3,1.3C178.2,74.6,178.2,75.6,177.9,76.2z"
   id="path12" />
</g>
<g
   id="g20">
	<path
   class="st2"
   d="M220.6,78.3V57.2h-21.1v20.4c0.3,0,0.5,0,0.8,0c8,0,14.5,6.5,14.5,14.5c0,5-2.5,9.4-6.4,12v9.5h33.3V78.3   H220.6z"
   id="path16" />
	<polygon
   class="st3"
   points="224.1,58.2 224.1,74.8 240.7,74.8  "
   id="polygon18" />
</g>
<g
   id="XMLID_3_">
	<g
   id="g28">
		<path
   class="st1"
   d="M202.7,103.8c-0.8,0.3-1.6,0.5-2.5,0.5s-1.7-0.2-2.5-0.5c-0.7-0.3-1.3-0.7-1.8-1.2c-0.2,0-0.5,0-0.7-0.1v11.7    l5-2.5l5,2.5v-11.7c-0.2,0-0.5,0.1-0.7,0.1C203.9,103.1,203.3,103.5,202.7,103.8z"
   id="path22" />
		<path
   class="st4"
   d="M195,97.2c0.7,0.7,1.4,1.2,2.3,1.6c0.9,0.4,1.8,0.6,2.8,0.6c1,0,1.9-0.2,2.8-0.6c0.9-0.4,1.7-0.9,2.3-1.6    c0.7-0.7,1.2-1.4,1.6-2.3c0.4-0.9,0.6-1.8,0.6-2.8c0-1-0.2-1.9-0.6-2.8c-0.4-0.9-0.9-1.7-1.6-2.3c-0.7-0.7-1.4-1.2-2.3-1.6    c-0.9-0.4-1.8-0.6-2.8-0.6c-1,0-2,0.2-2.8,0.6c-0.9,0.4-1.6,0.9-2.3,1.6c-0.7,0.7-1.2,1.4-1.6,2.3c-0.4,0.9-0.6,1.8-0.6,2.8    c0,1,0.2,2,0.6,2.8C193.8,95.7,194.3,96.5,195,97.2z"
   id="path24" />
		<path
   class="st5"
   d="M210.3,90.3c-0.2-0.5-0.6-1-1-1.4c-0.2-0.2-0.4-0.4-0.6-0.5c0-0.1,0-0.2,0-0.2c0-0.6-0.1-1.2-0.4-1.7    c-0.2-0.5-0.6-1-1-1.4c-0.4-0.4-0.9-0.7-1.4-1c-0.5-0.2-1.1-0.4-1.7-0.4c-0.1,0-0.3,0-0.4,0c-0.2-0.2-0.4-0.5-0.6-0.7    c-0.4-0.4-0.9-0.7-1.4-1c-0.5-0.2-1.1-0.4-1.7-0.4c-0.6,0-1.2,0.1-1.7,0.4c-0.3,0.1-0.5,0.3-0.8,0.4c-0.2,0.2-0.5,0.3-0.7,0.5    c-0.2,0.2-0.4,0.4-0.6,0.7c-0.1,0-0.3,0-0.4,0c-0.6,0-1.2,0.1-1.7,0.4c-0.3,0.1-0.5,0.3-0.8,0.4c-0.2,0.2-0.5,0.3-0.7,0.5    c-0.4,0.4-0.7,0.9-1,1.4c-0.2,0.5-0.4,1.1-0.4,1.7c0,0.2,0,0.3,0,0.5c-0.1,0.1-0.2,0.2-0.3,0.3c-0.4,0.4-0.7,0.9-1,1.4    c-0.2,0.5-0.4,1.1-0.4,1.7c0,0.6,0.1,1.2,0.4,1.7c0.2,0.5,0.6,1,1,1.4c0.1,0.1,0.2,0.2,0.4,0.3v0c0,0.2-0.1,0.5-0.1,0.7    c0,0.6,0.1,1.2,0.4,1.7c0.1,0.3,0.3,0.5,0.4,0.8c0.2,0.2,0.3,0.5,0.5,0.7c0.2,0.2,0.4,0.4,0.7,0.5c0.2,0.2,0.5,0.3,0.8,0.4    c0.3,0.1,0.5,0.2,0.8,0.3c0,0,0,0,0,0c0.3,0.1,0.6,0.1,0.9,0.1c0.2,0,0.4,0,0.6-0.1c0.1,0.1,0.2,0.3,0.3,0.4    c0.1,0.1,0.2,0.2,0.3,0.2c0.3,0.3,0.7,0.5,1.1,0.7c0.5,0.2,1.1,0.4,1.7,0.4c0.6,0,1.2-0.1,1.7-0.4c0.5-0.2,1-0.6,1.4-1    c0.1-0.1,0.2-0.3,0.3-0.4c0.2,0,0.4,0.1,0.6,0.1c0.3,0,0.6,0,0.9-0.1c0.3-0.1,0.6-0.1,0.8-0.3c0.3-0.1,0.5-0.3,0.8-0.4    c0.2-0.2,0.5-0.3,0.7-0.5c0.4-0.4,0.7-0.9,1-1.4c0.2-0.5,0.4-1.1,0.4-1.7c0-0.2,0-0.3,0-0.5v0c0.2-0.2,0.4-0.3,0.6-0.5    c0.2-0.2,0.4-0.4,0.5-0.7s0.3-0.5,0.4-0.8c0.2-0.5,0.4-1.1,0.4-1.7C210.6,91.4,210.5,90.8,210.3,90.3z M206.3,94.6    c-0.4,0.8-0.8,1.5-1.4,2.1c-0.6,0.6-1.3,1.1-2.1,1.4c-0.8,0.4-1.7,0.5-2.6,0.5c-0.9,0-1.8-0.2-2.6-0.5c-0.8-0.4-1.5-0.8-2.1-1.4    c-0.6-0.6-1.1-1.3-1.4-2.1c-0.4-0.8-0.5-1.7-0.5-2.6c0-0.9,0.2-1.8,0.5-2.6c0.4-0.8,0.8-1.5,1.4-2.1c0.6-0.6,1.3-1.1,2.1-1.4    c0.8-0.4,1.7-0.5,2.6-0.5c0.9,0,1.8,0.2,2.6,0.5c0.8,0.4,1.5,0.8,2.1,1.4c0.6,0.6,1.1,1.3,1.4,2.1c0.4,0.8,0.5,1.7,0.5,2.6    C206.9,92.9,206.7,93.8,206.3,94.6z"
   id="path26" />
	</g>
</g>
</svg>