<?xml version="1.0" encoding="UTF-8"?>
<svg width="100px" height="118px" viewBox="0 0 100 118" version="1.1" xmlns="http://www.w3.org/2000/svg" xmlns:xlink="http://www.w3.org/1999/xlink">
    <!-- Generator: Sketch 55.2 (78181) - https://sketchapp.com -->
    <title>Protect identity and access with Microsoft 365/protect-identity-and-access-with-microsoft-365</title>
    <desc>Created with Sketch.</desc>
    <defs>
        <path d="M42.7425,1.49663266 C44.3745,0.498877554 46.1865,0 48,0 C49.8135,0 51.627,0.498877554 53.256,1.49663266 L90.591,24.3316189 C93.933,26.3773408 96,30.2031485 96,34.3529027 L96,79.6470973 C96,83.7952317 93.933,87.6242789 90.591,89.6683811 L53.256,112.504987 C51.627,113.501122 49.8135,114 48,114 C46.1865,114 44.3745,113.501122 42.7425,112.504987 L5.409,89.6683811 C2.0655,87.6242789 0,83.7952317 0,79.6470973 L0,34.3529027 C0,30.2031485 2.0655,26.3773408 5.409,24.3316189 L42.7425,1.49663266 Z" id="path-1"></path>
        <filter x="-6.2%" y="-7.4%" width="112.5%" height="114.8%" filterUnits="objectBoundingBox" id="filter-3">
            <feOffset dx="0" dy="2" in="SourceAlpha" result="shadowOffsetOuter1"></feOffset>
            <feColorMatrix values="0 0 0 0 0   0 0 0 0 0   0 0 0 0 0  0 0 0 0.101081295 0" type="matrix" in="shadowOffsetOuter1" result="shadowMatrixOuter1"></feColorMatrix>
            <feMerge>
                <feMergeNode in="shadowMatrixOuter1"></feMergeNode>
                <feMergeNode in="SourceGraphic"></feMergeNode>
            </feMerge>
        </filter>
        <filter x="-12.9%" y="-11.4%" width="125.8%" height="122.9%" filterUnits="objectBoundingBox" id="filter-4">
            <feOffset dx="0" dy="2" in="SourceAlpha" result="shadowOffsetOuter1"></feOffset>
            <feColorMatrix values="0 0 0 0 0   0 0 0 0 0   0 0 0 0 0  0 0 0 0.102921196 0" type="matrix" in="shadowOffsetOuter1" result="shadowMatrixOuter1"></feColorMatrix>
            <feMerge>
                <feMergeNode in="shadowMatrixOuter1"></feMergeNode>
                <feMergeNode in="SourceGraphic"></feMergeNode>
            </feMerge>
        </filter>
    </defs>
    <g id="Badges" stroke="none" stroke-width="1" fill="none" fill-rule="evenodd">
        <g id="Protect-identity-and-access-with-Microsoft-365" transform="translate(-50.000000, -50.000000)">
            <g id="Protect-identity-and-access-with-Microsoft-365/protect-identity-and-access-with-microsoft-365" transform="translate(50.000000, 50.000000)">
                <g id="Mask" transform="translate(2.000000, 2.000000)">
                    <mask id="mask-2" fill="white">
                        <use xlink:href="#path-1"></use>
                    </mask>
                    <use id="Trophy-1" fill="#55A2FF" xlink:href="#path-1"></use>
                    <g id="Badge" filter="url(#filter-3)" mask="url(#mask-2)">
                        <g transform="translate(15.000000, 25.000000)">
                            <path d="M0,52 C0,53.1 0.9,54 2,54 L62,54 C63.1,54 64,53.1 64,52 L64,15 L0,15 L0,52" id="Fill-1164" fill="#E1E4E1"></path>
                            <path d="M64,11 C64,9.9 63.1,9 62,9 L2,9 C0.9,9 0,9.9 0,11 L0,15 L64,15 L64,11" id="Fill-1165" fill="#ADBDC4"></path>
                            <polygon id="Fill-1166" fill="#FFFFFE" points="6 47.9996367 34 47.9996367 34 19.9996367 6 19.9996367"></polygon>
                            <path d="M38,13 L26,13 C24.895,13 25,12.553 25,12 C25,11.447 24.895,11 26,11 L38,11 C39.104,11 39,11.447 39,12 C39,12.553 39.104,13 38,13" id="Fill-1167" fill="#2D87AC"></path>
                            <path d="M52,23 L40,23 C39.141,23 39,22.552 39,22 C39,21.448 39.141,21 40,21 L52,21 C52.859,21 53,21.448 53,22 C53,22.552 52.859,23 52,23" id="Fill-1169" fill="#546670"></path>
                            <path d="M32,6 C30.895,6 30,5.104 30,4 C30,2.895 30.895,2 32,2 C33.104,2 34,2.895 34,4 C34,5.104 33.104,6 32,6 Z M32,0 C29.791,0 28,1.791 28,4 L28,13 L36,13 L36,4 C36,1.791 34.209,0 32,0 L32,0 Z" id="Fill-1173" fill="#30404D"></path>
                            <path d="M34,4 C34,5.104 33.104,6 32,6 L32,13 L36,13 L36,4 C36,1.791 34.209,0 32,0 L32,2 C33.104,2 34,2.896 34,4" id="Fill-1174" fill="#182A37"></path>
                        </g>
                    </g>
                    <g id="microsoft" mask="url(#mask-2)" fill-rule="nonzero">
                        <g transform="translate(27.000000, 51.000000)" id="Rectangle-path">
                            <rect fill="#E86C60" x="0" y="0" width="7" height="7"></rect>
                            <polygon fill="#72C472" points="9 0 16 0 16 7 9 7"></polygon>
                            <polygon fill="#43A6DD" points="0 9 7 9 7 16 0 16"></polygon>
                            <polygon fill="#EFD358" points="9 9 16 9 16 16 9 16"></polygon>
                        </g>
                    </g>
                    <g id="Shield" filter="url(#filter-4)" mask="url(#mask-2)">
                        <g transform="translate(54.000000, 51.000000)">
                            <path d="M15.5,1 C12.45964,4.3044 7.1045,5.4 1,5.4 L1,14.2 C1,23.2728 5.24096,29.1116 15.5,34 C25.75846,29.1116 30,23.2728 30,14.2 L30,5.4 C23.89608,5.4 18.54036,4.3044 15.5,1" id="Fill-22" fill="#7CB65A"></path>
                            <path d="M15.1842105,1 L15.1842105,23.55 C11.4031053,23.55 8.31113158,20.6405 8.02763158,16.95 C8.01381579,17.13205 8,17.3141 8,17.5 C8,20.9782 10.4962368,23.87725 13.8031842,24.518 C14.5967632,24.672 15.1842105,25.33805 15.1842105,26.1427 L15.1842105,34 C24.9586053,29.1116 29,23.2728 29,14.2 L29,5.4 C23.1841053,5.4 18.0811053,4.3044 15.1842105,1" id="Fill-23" fill="#629E3F"></path>
                            <path d="M2.2962963,6.53472057 L2.2962963,14.2084406 C2.2962963,22.6833294 6.13111111,28.0667458 15.5,32.6774309 C24.8688889,28.0667458 28.7037037,22.6833294 28.7037037,14.2084406 L28.7037037,6.53472057 C22.668463,6.39362737 18.3267407,5.11394487 15.5,2.64153265 C12.6732593,5.11394487 8.33153704,6.39362737 2.2962963,6.53472057 Z M15.5,35 C15.3231852,35 15.1469444,34.961172 14.9844815,34.8835161 C4.4817963,29.8533795 0,23.669888 0,14.2084406 L0,5.45409979 C0,4.84980527 0.513796296,4.35980719 1.14814815,4.35980719 C7.75803704,4.35980719 12.1692222,3.05059355 14.6348704,0.357244698 C15.0711667,-0.119081566 15.9288333,-0.119081566 16.3651296,0.357244698 C18.8307778,3.05059355 23.241963,4.35980719 29.8518519,4.35980719 C30.4856296,4.35980719 31,4.84980527 31,5.45409979 L31,14.2084406 C31,23.669888 26.5182037,29.8533795 16.0155185,34.8835161 C15.8530556,34.961172 15.6768148,35 15.5,35 L15.5,35 Z" id="Fill-24" fill="#629E3F"></path>
                            <path d="M22,17 C22,20.8656154 18.8661538,24 15,24 C11.1338462,24 8,20.8656154 8,17 C8,13.1343846 11.1338462,10 15,10 C18.8661538,10 22,13.1343846 22,17" id="Fill-25" fill="#FFFFFE"></path>
                            <path d="M18.7069014,14.2928872 C18.3161032,13.9023709 17.6821194,13.9023709 17.2918216,14.2928872 L13.9933047,17.5890245 L12.8018956,16.4089754 C12.7733738,16.3689737 12.7443517,16.328972 12.7078238,16.2929705 C12.3170256,15.9024543 11.6830419,15.9024543 11.2927441,16.2929705 C10.9054485,16.6784866 10.9029466,17.3035126 11.282236,17.695029 L11.2702269,17.7070295 L13.2887671,19.7071128 C13.6795653,20.0976291 14.3135491,20.0976291 14.7043472,19.7071128 L18.7038991,15.7094462 C18.7048998,15.7089462 18.7059006,15.7079462 18.7069014,15.7069461 C19.0976995,15.3164299 19.0976995,14.6824034 18.7069014,14.2928872" id="Fill-26" fill="#7CB65A"></path>
                        </g>
                    </g>
                </g>
                <g id="Azure-Hex-Border" stroke="#0078D4" stroke-width="4">
                    <path d="M45.5618501,3.25844398 L45.5621963,3.25823359 L6.67338401,26.8942953 C3.79673288,28.6432593 2,31.9508238 2,35.5582677 L2,82.4417323 C2,86.0486597 3.79764663,89.3586805 6.67318764,91.1055853 L45.560618,114.742485 C46.9289662,115.572418 48.4546283,116 50,116 C51.5458817,116 53.0723633,115.572188 54.4362178,114.743457 L93.3268764,91.1055464 C96.2016145,89.3583456 98,86.0476286 98,82.4417323 L98,35.5582677 C98,31.9518547 96.202529,28.6435953 93.3268966,26.8944659 L54.4351916,3.25759524 C53.0721095,2.42798656 51.5462432,2 50,2 C48.4542664,2 46.9292165,2.42775755 45.5618501,3.25844398 Z"></path>
                </g>
            </g>
        </g>
    </g>
</svg>