<?xml version="1.0" encoding="UTF-8"?>
<svg width="107px" height="127px" viewBox="0 0 107 127" version="1.1" xmlns="http://www.w3.org/2000/svg" xmlns:xlink="http://www.w3.org/1999/xlink">
    <!-- Generator: Sketch 59 (86127) - https://sketch.com -->
    <title>protect-your-enterprise-information-with-microsoft-365 (1)</title>
    <desc>Created with Sketch.</desc>
    <defs>
        <linearGradient x1="58.5494807%" y1="-10.4657707%" x2="34.1382236%" y2="116.311077%" id="linearGradient-1">
            <stop stop-color="#FFFFFF" offset="0%"></stop>
            <stop stop-color="#000000" stop-opacity="0.5" offset="100%"></stop>
        </linearGradient>
        <path d="M48.2332564,3.35139274 L48.2336026,3.35118235 L7.01144651,28.4054169 C3.92580922,30.2814415 2,33.8266197 2,37.6917638 L2,87.3882362 C2,91.2528359 3.92678198,94.8006347 7.01125014,96.6744637 L48.2320242,121.729637 C49.7012131,122.620732 51.3399349,123.08 53,123.08 C54.660622,123.08 56.3002463,122.620479 57.7647178,121.730609 L98.9888139,96.6744248 C102.072436,94.800269 104,91.2517424 104,87.3882362 L104,37.6917638 C104,33.8277131 102.07341,30.2818084 98.9888341,28.4055875 L57.7636916,3.350544 C56.3000291,2.45971937 54.6610283,2 53,2 C51.3395281,2 49.7014267,2.45946711 48.2332564,3.35139274 Z" id="path-2"></path>
        <filter x="-2.5%" y="-2.1%" width="105.9%" height="105.0%" filterUnits="objectBoundingBox" id="filter-3">
            <feMorphology radius="2" operator="dilate" in="SourceAlpha" result="shadowSpreadOuter1"></feMorphology>
            <feOffset dx="1" dy="1" in="shadowSpreadOuter1" result="shadowOffsetOuter1"></feOffset>
            <feMorphology radius="2" operator="erode" in="SourceAlpha" result="shadowInner"></feMorphology>
            <feOffset dx="1" dy="1" in="shadowInner" result="shadowInner"></feOffset>
            <feComposite in="shadowOffsetOuter1" in2="shadowInner" operator="out" result="shadowOffsetOuter1"></feComposite>
            <feColorMatrix values="0 0 0 0 0   0 0 0 0 0   0 0 0 0 0  0 0 0 0.0964816434 0" type="matrix" in="shadowOffsetOuter1"></feColorMatrix>
        </filter>
    </defs>
    <g id="Badges-2.0" stroke="none" stroke-width="1" fill="none" fill-rule="evenodd">
        <g id="protect-your-enterprise-information-with-microsoft-365-(1)">
            <g id="Mask" transform="translate(4.000000, 6.000000)" fill-rule="nonzero">
                <g id="Color-/-Microsoft-365" fill="#0078D4">
                    <path d="M55.2142124,0 L93.365625,23.1853599 C96.846875,25.3028615 99,29.2629081 99,33.5582677 L99,80.4417323 C99,84.7354153 96.846875,88.698815 93.365625,90.8146401 L54.475,114.45253 C52.778125,115.483618 50.8890625,116 49,116 C47.1109375,116 45.2234375,115.483618 43.5234375,114.45253 L4.634375,90.8146401 C3.16457678,89.9217307 1.93186945,88.6997749 0.997907144,87.2628111 L0.997656549,26.7377657 C1.93164895,25.3009629 3.16444532,24.0790567 4.634375,23.1853599 L42.7832124,0 L55.2142124,0 Z" id="Rectangle-2"></path>
                </g>
                <g id="Buildings" transform="translate(8.000000, 30.000000)">
                    <g id="building-1" transform="translate(3.000000, 18.000000)">
                        <path d="M22,31 L1,31 L1,1.78947368 C1,1.35368421 1.336,1 1.75,1 L21.25,1 C21.664,1 22,1.35368421 22,1.78947368 L22,31 Z" id="Shape" fill="#E1E4E1"></path>
                        <path d="M11.6899245,31 L1,31 L1,1.97685121 C1,1.5438572 1.34207758,1.19244178 1.76356604,1.19244178 C5.9843894,1.19244178 9.15000693,1.19244178 11.2604186,1.19244178 C13.5617218,1.19244178 13.5797186,1.19244178 11.314409,1.19244178 C11.7358975,1.19244178 11.6899245,0.759447776 11.6899245,1.19244178 L11.6899245,31 Z" id="Shape" fill="#C5CCCD"></path>
                        <g id="Shape" transform="translate(5.000000, 6.000000)">
                            <g id="path-2-link" fill="#55B7D9">
                                <path d="M4.16666667,4 L0.83333333,4 C0.37333333,4 0,3.6416 0,3.2 L0,0.8 C0,0.3584 0.37333333,0 0.83333333,0 L4.16666667,0 C4.62666667,0 5,0.3584 5,0.8 L5,3.2 C5,3.6416 4.62666667,4 4.16666667,4 Z" id="path-2"></path>
                            </g>
                            <g id="path-2-link" fill="#000000">
                                <path d="M4.16666667,4 L0.83333333,4 C0.37333333,4 0,3.6416 0,3.2 L0,0.8 C0,0.3584 0.37333333,0 0.83333333,0 L4.16666667,0 C4.62666667,0 5,0.3584 5,0.8 L5,3.2 C5,3.6416 4.62666667,4 4.16666667,4 Z" id="path-2"></path>
                            </g>
                        </g>
                        <g id="Shape" transform="translate(13.000000, 6.000000)">
                            <g id="path-4-link" fill="#55B7D9">
                                <path d="M4.1666667,4 L0.8333333,4 C0.3733333,4 0,3.6416 0,3.2 L0,0.8 C0,0.3584 0.3733333,0 0.8333333,0 L4.1666667,0 C4.6266667,0 5,0.3584 5,0.8 L5,3.2 C5,3.6416 4.6266667,4 4.1666667,4 Z" id="path-4"></path>
                            </g>
                            <g id="path-4-link" fill="#000000">
                                <path d="M4.1666667,4 L0.8333333,4 C0.3733333,4 0,3.6416 0,3.2 L0,0.8 C0,0.3584 0.3733333,0 0.8333333,0 L4.1666667,0 C4.6266667,0 5,0.3584 5,0.8 L5,3.2 C5,3.6416 4.6266667,4 4.1666667,4 Z" id="path-4"></path>
                            </g>
                        </g>
                        <g id="Shape" transform="translate(5.000000, 12.000000)">
                            <g id="path-6-link" fill="#55B7D9">
                                <path d="M4.16666667,4 L0.83333333,4 C0.37333333,4 0,3.6416 0,3.2 L0,0.8 C0,0.3584 0.37333333,0 0.83333333,0 L4.16666667,0 C4.62666667,0 5,0.3584 5,0.8 L5,3.2 C5,3.6416 4.62666667,4 4.16666667,4 Z" id="path-6"></path>
                            </g>
                            <g id="path-6-link" fill="#000000">
                                <path d="M4.16666667,4 L0.83333333,4 C0.37333333,4 0,3.6416 0,3.2 L0,0.8 C0,0.3584 0.37333333,0 0.83333333,0 L4.16666667,0 C4.62666667,0 5,0.3584 5,0.8 L5,3.2 C5,3.6416 4.62666667,4 4.16666667,4 Z" id="path-6"></path>
                            </g>
                        </g>
                        <g id="Shape" transform="translate(13.000000, 12.000000)">
                            <g id="path-8-link" fill="#55B7D9">
                                <path d="M4.1666667,4 L0.8333333,4 C0.3733333,4 0,3.6416 0,3.2 L0,0.8 C0,0.3584 0.3733333,0 0.8333333,0 L4.1666667,0 C4.6266667,0 5,0.3584 5,0.8 L5,3.2 C5,3.6416 4.6266667,4 4.1666667,4 Z" id="path-8"></path>
                            </g>
                            <g id="path-8-link" fill="#000000">
                                <path d="M4.1666667,4 L0.8333333,4 C0.3733333,4 0,3.6416 0,3.2 L0,0.8 C0,0.3584 0.3733333,0 0.8333333,0 L4.1666667,0 C4.6266667,0 5,0.3584 5,0.8 L5,3.2 C5,3.6416 4.6266667,4 4.1666667,4 Z" id="path-8"></path>
                            </g>
                        </g>
                        <g id="Shape" transform="translate(5.000000, 18.000000)">
                            <g id="path-10-link" fill="#55B7D9">
                                <path d="M4.16666667,4 L0.83333333,4 C0.37333333,4 0,3.6416 0,3.2 L0,0.8 C0,0.3584 0.37333333,0 0.83333333,0 L4.16666667,0 C4.62666667,0 5,0.3584 5,0.8 L5,3.2 C5,3.6416 4.62666667,4 4.16666667,4 Z" id="path-10"></path>
                            </g>
                            <g id="path-10-link" fill="#000000">
                                <path d="M4.16666667,4 L0.83333333,4 C0.37333333,4 0,3.6416 0,3.2 L0,0.8 C0,0.3584 0.37333333,0 0.83333333,0 L4.16666667,0 C4.62666667,0 5,0.3584 5,0.8 L5,3.2 C5,3.6416 4.62666667,4 4.16666667,4 Z" id="path-10"></path>
                            </g>
                        </g>
                        <g id="Shape" transform="translate(13.000000, 18.000000)">
                            <g id="path-12-link" fill="#55B7D9">
                                <path d="M4.1666667,4 L0.8333333,4 C0.3733333,4 0,3.6416 0,3.2 L0,0.8 C0,0.3584 0.3733333,0 0.8333333,0 L4.1666667,0 C4.6266667,0 5,0.3584 5,0.8 L5,3.2 C5,3.6416 4.6266667,4 4.1666667,4 Z" id="path-12"></path>
                            </g>
                            <g id="path-12-link" fill="#000000">
                                <path d="M4.1666667,4 L0.8333333,4 C0.3733333,4 0,3.6416 0,3.2 L0,0.8 C0,0.3584 0.3733333,0 0.8333333,0 L4.1666667,0 C4.6266667,0 5,0.3584 5,0.8 L5,3.2 C5,3.6416 4.6266667,4 4.1666667,4 Z" id="path-12"></path>
                            </g>
                        </g>
                        <path d="M13.1666667,25 L9.83333333,25 C9.37333333,25 9,25.336 9,25.75 L9,31 L14,31 L14,25.75 C14,25.336 13.6266667,25 13.1666667,25 Z" id="Shape" fill="#30404D"></path>
                        <path d="M11,25 L9.66967497,25 C9.30001439,25 9,25.336 9,25.75 L9,31 L10.9951442,31 L11,25 Z" id="Shape" fill="#233039"></path>
                        <rect id="Rectangle-Copy-2" fill="#30404D" x="0" y="0" width="23" height="2" rx="1"></rect>
                    </g>
                    <g id="building-2" transform="translate(29.000000, 6.000000)">
                        <path d="M22,43 L1,43 L1,2.10526316 C1,1.49515789 1.336,1 1.75,1 L21.25,1 C21.664,1 22,1.49515789 22,2.10526316 L22,43 Z" id="Shape" fill="#E1E4E1"></path>
                        <path d="M11.6899245,43 L1,43 L1,2.36759169 C1,1.76140008 1.34207758,1.26941849 1.76356604,1.26941849 C5.9843894,1.26941849 9.15000693,1.26941849 11.2604186,1.26941849 C13.5617218,1.26941849 13.5797186,1.26941849 11.314409,1.26941849 C11.7358975,1.26941849 11.6899245,0.663226886 11.6899245,1.26941849 L11.6899245,43 Z" id="Shape" fill="#C5CCCD"></path>
                        <g id="Shape" transform="translate(5.000000, 18.000000)">
                            <g id="path-15-link" fill="#55B7D9">
                                <path d="M4.16666667,4 L0.83333333,4 C0.37333333,4 0,3.6416 0,3.2 L0,0.8 C0,0.3584 0.37333333,0 0.83333333,0 L4.16666667,0 C4.62666667,0 5,0.3584 5,0.8 L5,3.2 C5,3.6416 4.62666667,4 4.16666667,4 Z" id="path-15"></path>
                            </g>
                            <g id="path-15-link" fill="#000000">
                                <path d="M4.16666667,4 L0.83333333,4 C0.37333333,4 0,3.6416 0,3.2 L0,0.8 C0,0.3584 0.37333333,0 0.83333333,0 L4.16666667,0 C4.62666667,0 5,0.3584 5,0.8 L5,3.2 C5,3.6416 4.62666667,4 4.16666667,4 Z" id="path-15"></path>
                            </g>
                        </g>
                        <g id="Shape" transform="translate(13.000000, 18.000000)">
                            <g id="path-17-link" fill="#55B7D9">
                                <path d="M4.1666667,4 L0.8333333,4 C0.3733333,4 0,3.6416 0,3.2 L0,0.8 C0,0.3584 0.3733333,0 0.8333333,0 L4.1666667,0 C4.6266667,0 5,0.3584 5,0.8 L5,3.2 C5,3.6416 4.6266667,4 4.1666667,4 Z" id="path-17"></path>
                            </g>
                            <g id="path-17-link" fill="#000000">
                                <path d="M4.1666667,4 L0.8333333,4 C0.3733333,4 0,3.6416 0,3.2 L0,0.8 C0,0.3584 0.3733333,0 0.8333333,0 L4.1666667,0 C4.6266667,0 5,0.3584 5,0.8 L5,3.2 C5,3.6416 4.6266667,4 4.1666667,4 Z" id="path-17"></path>
                            </g>
                        </g>
                        <g id="Shape" transform="translate(5.000000, 24.000000)">
                            <g id="path-19-link" fill="#55B7D9">
                                <path d="M4.16666667,4 L0.83333333,4 C0.37333333,4 0,3.6416 0,3.2 L0,0.8 C0,0.3584 0.37333333,0 0.83333333,0 L4.16666667,0 C4.62666667,0 5,0.3584 5,0.8 L5,3.2 C5,3.6416 4.62666667,4 4.16666667,4 Z" id="path-19"></path>
                            </g>
                            <g id="path-19-link" fill="#000000">
                                <path d="M4.16666667,4 L0.83333333,4 C0.37333333,4 0,3.6416 0,3.2 L0,0.8 C0,0.3584 0.37333333,0 0.83333333,0 L4.16666667,0 C4.62666667,0 5,0.3584 5,0.8 L5,3.2 C5,3.6416 4.62666667,4 4.16666667,4 Z" id="path-19"></path>
                            </g>
                        </g>
                        <g id="Shape" transform="translate(13.000000, 24.000000)">
                            <g id="path-21-link" fill="#55B7D9">
                                <path d="M4.1666667,4 L0.8333333,4 C0.3733333,4 0,3.6416 0,3.2 L0,0.8 C0,0.3584 0.3733333,0 0.8333333,0 L4.1666667,0 C4.6266667,0 5,0.3584 5,0.8 L5,3.2 C5,3.6416 4.6266667,4 4.1666667,4 Z" id="path-21"></path>
                            </g>
                            <g id="path-21-link" fill="#000000">
                                <path d="M4.1666667,4 L0.8333333,4 C0.3733333,4 0,3.6416 0,3.2 L0,0.8 C0,0.3584 0.3733333,0 0.8333333,0 L4.1666667,0 C4.6266667,0 5,0.3584 5,0.8 L5,3.2 C5,3.6416 4.6266667,4 4.1666667,4 Z" id="path-21"></path>
                            </g>
                        </g>
                        <g id="Shape" transform="translate(5.000000, 30.000000)">
                            <g id="path-23-link" fill="#55B7D9">
                                <path d="M4.16666667,4 L0.83333333,4 C0.37333333,4 0,3.6416 0,3.2 L0,0.8 C0,0.3584 0.37333333,0 0.83333333,0 L4.16666667,0 C4.62666667,0 5,0.3584 5,0.8 L5,3.2 C5,3.6416 4.62666667,4 4.16666667,4 Z" id="path-23"></path>
                            </g>
                            <g id="path-23-link" fill="#000000">
                                <path d="M4.16666667,4 L0.83333333,4 C0.37333333,4 0,3.6416 0,3.2 L0,0.8 C0,0.3584 0.37333333,0 0.83333333,0 L4.16666667,0 C4.62666667,0 5,0.3584 5,0.8 L5,3.2 C5,3.6416 4.62666667,4 4.16666667,4 Z" id="path-23"></path>
                            </g>
                        </g>
                        <g id="Shape" transform="translate(13.000000, 30.000000)">
                            <g id="path-25-link" fill="#55B7D9">
                                <path d="M4.1666667,4 L0.8333333,4 C0.3733333,4 0,3.6416 0,3.2 L0,0.8 C0,0.3584 0.3733333,0 0.8333333,0 L4.1666667,0 C4.6266667,0 5,0.3584 5,0.8 L5,3.2 C5,3.6416 4.6266667,4 4.1666667,4 Z" id="path-25"></path>
                            </g>
                            <g id="path-25-link" fill="#000000">
                                <path d="M4.1666667,4 L0.8333333,4 C0.3733333,4 0,3.6416 0,3.2 L0,0.8 C0,0.3584 0.3733333,0 0.8333333,0 L4.1666667,0 C4.6266667,0 5,0.3584 5,0.8 L5,3.2 C5,3.6416 4.6266667,4 4.1666667,4 Z" id="path-25"></path>
                            </g>
                        </g>
                        <g id="Shape" transform="translate(5.000000, 6.000000)">
                            <g id="path-27-link" fill="#55B7D9">
                                <path d="M4.16666667,4 L0.83333333,4 C0.37333333,4 0,3.6416 0,3.2 L0,0.8 C0,0.3584 0.37333333,0 0.83333333,0 L4.16666667,0 C4.62666667,0 5,0.3584 5,0.8 L5,3.2 C5,3.6416 4.62666667,4 4.16666667,4 Z" id="path-27"></path>
                            </g>
                            <g id="path-27-link" fill="#000000">
                                <path d="M4.16666667,4 L0.83333333,4 C0.37333333,4 0,3.6416 0,3.2 L0,0.8 C0,0.3584 0.37333333,0 0.83333333,0 L4.16666667,0 C4.62666667,0 5,0.3584 5,0.8 L5,3.2 C5,3.6416 4.62666667,4 4.16666667,4 Z" id="path-27"></path>
                            </g>
                        </g>
                        <g id="Shape" transform="translate(13.000000, 6.000000)">
                            <g id="path-29-link" fill="#55B7D9">
                                <path d="M4.1666667,4 L0.8333333,4 C0.3733333,4 0,3.6416 0,3.2 L0,0.8 C0,0.3584 0.3733333,0 0.8333333,0 L4.1666667,0 C4.6266667,0 5,0.3584 5,0.8 L5,3.2 C5,3.6416 4.6266667,4 4.1666667,4 Z" id="path-29"></path>
                            </g>
                            <g id="path-29-link" fill="#000000">
                                <path d="M4.1666667,4 L0.8333333,4 C0.3733333,4 0,3.6416 0,3.2 L0,0.8 C0,0.3584 0.3733333,0 0.8333333,0 L4.1666667,0 C4.6266667,0 5,0.3584 5,0.8 L5,3.2 C5,3.6416 4.6266667,4 4.1666667,4 Z" id="path-29"></path>
                            </g>
                        </g>
                        <g id="Shape" transform="translate(5.000000, 12.000000)">
                            <g id="path-31-link" fill="#55B7D9">
                                <path d="M4.16666667,4 L0.83333333,4 C0.37333333,4 0,3.6416 0,3.2 L0,0.8 C0,0.3584 0.37333333,0 0.83333333,0 L4.16666667,0 C4.62666667,0 5,0.3584 5,0.8 L5,3.2 C5,3.6416 4.62666667,4 4.16666667,4 Z" id="path-31"></path>
                            </g>
                            <g id="path-31-link" fill="#000000">
                                <path d="M4.16666667,4 L0.83333333,4 C0.37333333,4 0,3.6416 0,3.2 L0,0.8 C0,0.3584 0.37333333,0 0.83333333,0 L4.16666667,0 C4.62666667,0 5,0.3584 5,0.8 L5,3.2 C5,3.6416 4.62666667,4 4.16666667,4 Z" id="path-31"></path>
                            </g>
                        </g>
                        <g id="Shape" transform="translate(13.000000, 12.000000)">
                            <g id="path-33-link" fill="#55B7D9">
                                <path d="M4.1666667,4 L0.8333333,4 C0.3733333,4 0,3.6416 0,3.2 L0,0.8 C0,0.3584 0.3733333,0 0.8333333,0 L4.1666667,0 C4.6266667,0 5,0.3584 5,0.8 L5,3.2 C5,3.6416 4.6266667,4 4.1666667,4 Z" id="path-33"></path>
                            </g>
                            <g id="path-33-link" fill="#000000">
                                <path d="M4.1666667,4 L0.8333333,4 C0.3733333,4 0,3.6416 0,3.2 L0,0.8 C0,0.3584 0.3733333,0 0.8333333,0 L4.1666667,0 C4.6266667,0 5,0.3584 5,0.8 L5,3.2 C5,3.6416 4.6266667,4 4.1666667,4 Z" id="path-33"></path>
                            </g>
                        </g>
                        <path d="M13.1666667,37 L9.83333333,37 C9.37333333,37 9,37.336 9,37.75 L9,43 L14,43 L14,37.75 C14,37.336 13.6266667,37 13.1666667,37 Z" id="Shape" fill="#30404D"></path>
                        <path d="M11,37 L9.66967497,37 C9.30001439,37 9,37.336 9,37.75 L9,43 L10.9951442,43 L11,37 Z" id="Shape" fill="#233039"></path>
                        <rect id="Rectangle-Copy" fill="#30404D" x="0" y="0" width="23" height="2" rx="1"></rect>
                    </g>
                    <g id="building-3" transform="translate(55.000000, 0.000000)">
                        <path d="M22,49 L1,49 L1,2.26315789 C1,1.56589474 1.336,1 1.75,1 L21.25,1 C21.664,1 22,1.56589474 22,2.26315789 L22,49 Z" id="Shape" fill="#E1E4E1"></path>
                        <path d="M11.6899245,49 L1,49 L1,2.56296193 C1,1.87017152 1.34207758,1.30790685 1.76356604,1.30790685 C5.9843894,1.30790685 9.15000693,1.30790685 11.2604186,1.30790685 C13.5617218,1.30790685 13.5797186,1.30790685 11.314409,1.30790685 C11.7358975,1.30790685 11.6899245,0.615116441 11.6899245,1.30790685 L11.6899245,49 Z" id="Shape" fill="#C5CCCD"></path>
                        <g id="Shape" transform="translate(5.000000, 24.000000)">
                            <g id="path-36-link" fill="#55B7D9">
                                <path d="M4.16666667,4 L0.83333333,4 C0.37333333,4 0,3.6416 0,3.2 L0,0.8 C0,0.3584 0.37333333,0 0.83333333,0 L4.16666667,0 C4.62666667,0 5,0.3584 5,0.8 L5,3.2 C5,3.6416 4.62666667,4 4.16666667,4 Z" id="path-36"></path>
                            </g>
                            <g id="path-36-link" fill="#000000">
                                <path d="M4.16666667,4 L0.83333333,4 C0.37333333,4 0,3.6416 0,3.2 L0,0.8 C0,0.3584 0.37333333,0 0.83333333,0 L4.16666667,0 C4.62666667,0 5,0.3584 5,0.8 L5,3.2 C5,3.6416 4.62666667,4 4.16666667,4 Z" id="path-36"></path>
                            </g>
                        </g>
                        <g id="Shape" transform="translate(13.000000, 24.000000)">
                            <g id="path-38-link" fill="#55B7D9">
                                <path d="M4.1666667,4 L0.8333333,4 C0.3733333,4 0,3.6416 0,3.2 L0,0.8 C0,0.3584 0.3733333,0 0.8333333,0 L4.1666667,0 C4.6266667,0 5,0.3584 5,0.8 L5,3.2 C5,3.6416 4.6266667,4 4.1666667,4 Z" id="path-38"></path>
                            </g>
                            <g id="path-38-link" fill="#000000">
                                <path d="M4.1666667,4 L0.8333333,4 C0.3733333,4 0,3.6416 0,3.2 L0,0.8 C0,0.3584 0.3733333,0 0.8333333,0 L4.1666667,0 C4.6266667,0 5,0.3584 5,0.8 L5,3.2 C5,3.6416 4.6266667,4 4.1666667,4 Z" id="path-38"></path>
                            </g>
                        </g>
                        <g id="Shape" transform="translate(5.000000, 30.000000)">
                            <g id="path-40-link" fill="#55B7D9">
                                <path d="M4.16666667,4 L0.83333333,4 C0.37333333,4 0,3.6416 0,3.2 L0,0.8 C0,0.3584 0.37333333,0 0.83333333,0 L4.16666667,0 C4.62666667,0 5,0.3584 5,0.8 L5,3.2 C5,3.6416 4.62666667,4 4.16666667,4 Z" id="path-40"></path>
                            </g>
                            <g id="path-40-link" fill="#000000">
                                <path d="M4.16666667,4 L0.83333333,4 C0.37333333,4 0,3.6416 0,3.2 L0,0.8 C0,0.3584 0.37333333,0 0.83333333,0 L4.16666667,0 C4.62666667,0 5,0.3584 5,0.8 L5,3.2 C5,3.6416 4.62666667,4 4.16666667,4 Z" id="path-40"></path>
                            </g>
                        </g>
                        <g id="Shape" transform="translate(13.000000, 30.000000)">
                            <g id="path-42-link" fill="#55B7D9">
                                <path d="M4.1666667,4 L0.8333333,4 C0.3733333,4 0,3.6416 0,3.2 L0,0.8 C0,0.3584 0.3733333,0 0.8333333,0 L4.1666667,0 C4.6266667,0 5,0.3584 5,0.8 L5,3.2 C5,3.6416 4.6266667,4 4.1666667,4 Z" id="path-42"></path>
                            </g>
                            <g id="path-42-link" fill="#000000">
                                <path d="M4.1666667,4 L0.8333333,4 C0.3733333,4 0,3.6416 0,3.2 L0,0.8 C0,0.3584 0.3733333,0 0.8333333,0 L4.1666667,0 C4.6266667,0 5,0.3584 5,0.8 L5,3.2 C5,3.6416 4.6266667,4 4.1666667,4 Z" id="path-42"></path>
                            </g>
                        </g>
                        <g id="Shape" transform="translate(5.000000, 36.000000)">
                            <g id="path-44-link" fill="#55B7D9">
                                <path d="M4.16666667,4 L0.83333333,4 C0.37333333,4 0,3.6416 0,3.2 L0,0.8 C0,0.3584 0.37333333,0 0.83333333,0 L4.16666667,0 C4.62666667,0 5,0.3584 5,0.8 L5,3.2 C5,3.6416 4.62666667,4 4.16666667,4 Z" id="path-44"></path>
                            </g>
                            <g id="path-44-link" fill="#000000">
                                <path d="M4.16666667,4 L0.83333333,4 C0.37333333,4 0,3.6416 0,3.2 L0,0.8 C0,0.3584 0.37333333,0 0.83333333,0 L4.16666667,0 C4.62666667,0 5,0.3584 5,0.8 L5,3.2 C5,3.6416 4.62666667,4 4.16666667,4 Z" id="path-44"></path>
                            </g>
                        </g>
                        <g id="Shape" transform="translate(13.000000, 36.000000)">
                            <g id="path-46-link" fill="#55B7D9">
                                <path d="M4.1666667,4 L0.8333333,4 C0.3733333,4 0,3.6416 0,3.2 L0,0.8 C0,0.3584 0.3733333,0 0.8333333,0 L4.1666667,0 C4.6266667,0 5,0.3584 5,0.8 L5,3.2 C5,3.6416 4.6266667,4 4.1666667,4 Z" id="path-46"></path>
                            </g>
                            <g id="path-46-link" fill="#000000">
                                <path d="M4.1666667,4 L0.8333333,4 C0.3733333,4 0,3.6416 0,3.2 L0,0.8 C0,0.3584 0.3733333,0 0.8333333,0 L4.1666667,0 C4.6266667,0 5,0.3584 5,0.8 L5,3.2 C5,3.6416 4.6266667,4 4.1666667,4 Z" id="path-46"></path>
                            </g>
                        </g>
                        <g id="Shape" transform="translate(5.000000, 6.000000)">
                            <g id="path-48-link" fill="#55B7D9">
                                <path d="M4.16666667,4 L0.83333333,4 C0.37333333,4 0,3.6416 0,3.2 L0,0.8 C0,0.3584 0.37333333,0 0.83333333,0 L4.16666667,0 C4.62666667,0 5,0.3584 5,0.8 L5,3.2 C5,3.6416 4.62666667,4 4.16666667,4 Z" id="path-48"></path>
                            </g>
                            <g id="path-48-link" fill="#000000">
                                <path d="M4.16666667,4 L0.83333333,4 C0.37333333,4 0,3.6416 0,3.2 L0,0.8 C0,0.3584 0.37333333,0 0.83333333,0 L4.16666667,0 C4.62666667,0 5,0.3584 5,0.8 L5,3.2 C5,3.6416 4.62666667,4 4.16666667,4 Z" id="path-48"></path>
                            </g>
                        </g>
                        <g id="Shape" transform="translate(13.000000, 6.000000)">
                            <g id="path-50-link" fill="#55B7D9">
                                <path d="M4.1666667,4 L0.8333333,4 C0.3733333,4 0,3.6416 0,3.2 L0,0.8 C0,0.3584 0.3733333,0 0.8333333,0 L4.1666667,0 C4.6266667,0 5,0.3584 5,0.8 L5,3.2 C5,3.6416 4.6266667,4 4.1666667,4 Z" id="path-50"></path>
                            </g>
                            <g id="path-50-link" fill="#000000">
                                <path d="M4.1666667,4 L0.8333333,4 C0.3733333,4 0,3.6416 0,3.2 L0,0.8 C0,0.3584 0.3733333,0 0.8333333,0 L4.1666667,0 C4.6266667,0 5,0.3584 5,0.8 L5,3.2 C5,3.6416 4.6266667,4 4.1666667,4 Z" id="path-50"></path>
                            </g>
                        </g>
                        <g id="Shape" transform="translate(5.000000, 12.000000)">
                            <g id="path-52-link" fill="#55B7D9">
                                <path d="M4.16666667,4 L0.83333333,4 C0.37333333,4 0,3.6416 0,3.2 L0,0.8 C0,0.3584 0.37333333,0 0.83333333,0 L4.16666667,0 C4.62666667,0 5,0.3584 5,0.8 L5,3.2 C5,3.6416 4.62666667,4 4.16666667,4 Z" id="path-52"></path>
                            </g>
                            <g id="path-52-link" fill="#000000">
                                <path d="M4.16666667,4 L0.83333333,4 C0.37333333,4 0,3.6416 0,3.2 L0,0.8 C0,0.3584 0.37333333,0 0.83333333,0 L4.16666667,0 C4.62666667,0 5,0.3584 5,0.8 L5,3.2 C5,3.6416 4.62666667,4 4.16666667,4 Z" id="path-52"></path>
                            </g>
                        </g>
                        <g id="Shape" transform="translate(13.000000, 12.000000)">
                            <g id="path-54-link" fill="#55B7D9">
                                <path d="M4.1666667,4 L0.8333333,4 C0.3733333,4 0,3.6416 0,3.2 L0,0.8 C0,0.3584 0.3733333,0 0.8333333,0 L4.1666667,0 C4.6266667,0 5,0.3584 5,0.8 L5,3.2 C5,3.6416 4.6266667,4 4.1666667,4 Z" id="path-54"></path>
                            </g>
                            <g id="path-54-link" fill="#000000">
                                <path d="M4.1666667,4 L0.8333333,4 C0.3733333,4 0,3.6416 0,3.2 L0,0.8 C0,0.3584 0.3733333,0 0.8333333,0 L4.1666667,0 C4.6266667,0 5,0.3584 5,0.8 L5,3.2 C5,3.6416 4.6266667,4 4.1666667,4 Z" id="path-54"></path>
                            </g>
                        </g>
                        <g id="Shape" transform="translate(5.000000, 18.000000)">
                            <g id="path-56-link" fill="#55B7D9">
                                <path d="M4.16666667,4 L0.83333333,4 C0.37333333,4 0,3.6416 0,3.2 L0,0.8 C0,0.3584 0.37333333,0 0.83333333,0 L4.16666667,0 C4.62666667,0 5,0.3584 5,0.8 L5,3.2 C5,3.6416 4.62666667,4 4.16666667,4 Z" id="path-56"></path>
                            </g>
                            <g id="path-56-link" fill="#000000">
                                <path d="M4.16666667,4 L0.83333333,4 C0.37333333,4 0,3.6416 0,3.2 L0,0.8 C0,0.3584 0.37333333,0 0.83333333,0 L4.16666667,0 C4.62666667,0 5,0.3584 5,0.8 L5,3.2 C5,3.6416 4.62666667,4 4.16666667,4 Z" id="path-56"></path>
                            </g>
                        </g>
                        <g id="Shape" transform="translate(13.000000, 18.000000)">
                            <g id="path-58-link" fill="#55B7D9">
                                <path d="M4.1666667,4 L0.8333333,4 C0.3733333,4 0,3.6416 0,3.2 L0,0.8 C0,0.3584 0.3733333,0 0.8333333,0 L4.1666667,0 C4.6266667,0 5,0.3584 5,0.8 L5,3.2 C5,3.6416 4.6266667,4 4.1666667,4 Z" id="path-58"></path>
                            </g>
                            <g id="path-58-link" fill="#000000">
                                <path d="M4.1666667,4 L0.8333333,4 C0.3733333,4 0,3.6416 0,3.2 L0,0.8 C0,0.3584 0.3733333,0 0.8333333,0 L4.1666667,0 C4.6266667,0 5,0.3584 5,0.8 L5,3.2 C5,3.6416 4.6266667,4 4.1666667,4 Z" id="path-58"></path>
                            </g>
                        </g>
                        <path d="M13.1666667,43 L9.83333333,43 C9.37333333,43 9,43.336 9,43.75 L9,49 L14,49 L14,43.75 C14,43.336 13.6266667,43 13.1666667,43 Z" id="Shape" fill="#30404D"></path>
                        <path d="M11,43 L9.66967497,43 C9.30001439,43 9,43.336 9,43.75 L9,49 L10.9951442,49 L11,43 Z" id="Shape" fill="#233039"></path>
                        <rect id="Rectangle" fill="#30404D" x="0" y="0" width="23" height="2" rx="1"></rect>
                    </g>
                    <g id="Bush" transform="translate(71.000000, 42.000000)">
                        <path d="M6.36997136,7 C6.76708032,6.38071429 7,5.62964286 7,4.81857143 C7,2.70892857 5.43256512,1 3.50047729,1 C1.56743488,1 0,2.70892857 0,4.81857143 C0,5.62964286 0.233874267,6.38071429 0.630028638,7 L6.36997136,7" id="Fill-499" fill="#6AA143"></path>
                        <path d="M10.19,7 C10.6993182,6.277 11,5.401 11,4.455 C11,1.994 8.98522727,0 6.5,0 C4.01477273,0 2,1.994 2,4.455 C2,5.401 2.30068182,6.277 2.81,7 L10.19,7" id="Fill-500" fill="#87BF5F"></path>
                        <path d="M2,2 C0.83943662,2.44493882 0,3.66203189 0,5.11271783 C0,5.81442343 0.197183099,6.4642195 0.531187123,7 L1.81730382,7 C1.41730382,6.3298109 1.1806841,5.51779755 1.1806841,4.64089729 C1.1806841,3.63607712 1.4889336,2.71560994 2,2" id="Fill-501" fill="#6EA846"></path>
                        <path d="M9.00563063,1 C9.62725225,1.71736997 10.009009,2.5986261 10.009009,3.56526006 C10.009009,4.9764475 9.21283784,6.21687929 8,7 L10.1081081,7 C10.7353604,6.28066732 11,5.39548577 11,4.42394504 C11,3.01864573 10.2094595,1.78312071 9.00563063,1" id="Fill-503" fill="#6EA846"></path>
                    </g>
                    <g id="Bush" transform="translate(0.000000, 42.000000)">
                        <path d="M8,7 C8.699,6.277 9,5.402 9,4 C9,1.994 6.985,0 5,0 C2.015,0 0,1.994 0,4 C0,5.402 0.301,6.277 1,7 L8,7" id="Fill-498" fill="#87BF5F"></path>
                        <path d="M7,1 C7.62715596,1.71736997 8.00917431,2.5986261 8,4 C8.00917431,4.9764475 7.21321101,6.21687929 6,7 L8,7 C8.7346789,6.28066732 9,5.39548577 9,4 C9,3.01864573 8.20954128,1.78312071 7,1" id="Fill-502" fill="#6EA846"></path>
                    </g>
                </g>
                <g id="Group" transform="translate(6.752706, 29.615398)">
                    <ellipse id="Shadow" fill="#000000" opacity="0.1" cx="28.7712648" cy="61.5261112" rx="23.082" ry="4.022"></ellipse>
                    <g id="Cape" transform="translate(42.247265, 6.384111)">
                        <path d="M0.132,16.94 C0.132,20.94 3.132,24.94 5.132,24.94 C7.132,24.94 9.132,23.94 11.132,22.94 C13.132,21.94 18.132,24.94 22.132,23.94 C26.132,22.94 25.132,13.94 30.132,12.94 C35.132,11.94 38.132,16.94 43.132,16.94 C45.3788073,16.94 49.0981533,16.3740592 50.5395504,14.6983666 C52.000029,13.000491 52.000029,11.040243 50.5981743,11.5597026 C49.3868239,12.0085706 48.1483829,12.1940957 47.132,11.94 C43.132,10.94 39.132,0.94 35.132,2.94 C31.132,4.94 26.132,11.94 17.132,11.94 C11.132,11.94 5.799,9.607 1.132,4.94 C0.465,10.274 0.132,14.274 0.132,16.94 Z" id="Path-3" fill="#DF5142"></path>
                        <path d="M37.877,14.682 L37.877,15.235 C33.897,13.165 29.983,12.734 26.132,13.941 C19.75,15.941 18.132,18.941 11.132,18.941 C4.132,18.941 1.132,12.941 0.132,0.941 C6.132,9.941 9.132,9.941 11.132,9.941 C13.132,9.941 15.132,9.941 18.132,5.441 C21.132,0.941 27.132,2.941 29.132,5.441 C30.357,6.972 33.272,10.053 37.877,14.682 Z" id="Path-2" fill="#C2423D"></path>
                    </g>
                    <g id="Legs" transform="translate(26.661085, 49.143537) rotate(-4.000000) translate(-26.661085, -49.143537) translate(13.161085, 34.643537)" fill="#30404D">
                        <path d="M4.72004418,23.4001878 L4.38304418,18.8481878 C4.1198043,15.2948604 4.23713748,11.7235737 4.73304418,8.19518782 L5.49004418,2.81218782 C5.55921061,2.15813116 5.97960085,1.59386996 6.58652429,1.34045718 C7.19344774,1.0870444 7.8902667,1.18482983 8.40399784,1.59550539 C8.91772899,2.00618095 9.16657321,2.66435662 9.05304418,3.31218782 L8.36304418,8.23018782 C7.87676043,11.6898731 7.75442549,15.1909985 7.99804418,18.6761878 L8.44004418,25.0091878 C8.46704418,25.3881878 8.37404418,25.7471878 8.19404418,26.0511878 C7.88056645,26.6070256 7.29609057,26.9551997 6.65804418,26.9661878 L3.33504418,27.0241878 C2.36087243,27.0136074 1.57192444,26.2298865 1.55486857,25.2558066 C1.53781269,24.2817267 2.29883999,23.4708662 3.27204418,23.4261878 L4.72004418,23.4001878 L4.72004418,23.4001878 Z" id="Combined-Shape" transform="translate(5.317347, 14.112825) rotate(4.000000) translate(-5.317347, -14.112825) "></path>
                        <path d="M21.5983791,24.8780577 L21.2603791,20.3260577 C20.9971393,16.7727303 21.1144724,13.2014436 21.6103791,9.67305768 L22.3673791,4.29005768 C22.4421813,3.6406733 22.8631575,3.08288252 23.46714,2.83288144 C24.0711226,2.58288036 24.7631669,2.67996851 25.2750412,3.08651516 C25.7869154,3.49306181 26.0381543,4.14515884 25.9313791,4.79005768 L25.2403791,9.70705768 C24.7540254,13.1670723 24.6316904,16.6685366 24.8753791,20.1540577 L25.3183791,26.4870577 C25.3443791,26.8660577 25.2513791,27.2250577 25.0713791,27.5290577 C24.7578266,28.0842059 24.1738592,28.4319234 23.5363791,28.4430577 L20.2123791,28.5010577 C19.2382074,28.4904773 18.4492594,27.7067564 18.4322035,26.7326765 C18.4151476,25.7585966 19.1761749,24.9477361 20.1493791,24.9030577 L21.5983791,24.8780577 L21.5983791,24.8780577 Z" id="Combined-Shape-Copy" transform="translate(22.193759, 15.598537) scale(-1, 1) rotate(-4.000000) translate(-22.193759, -15.598537) "></path>
                    </g>
                    <g id="Arm" transform="translate(47.247280, 23.384570) rotate(8.000000) translate(-47.247280, -23.384570) translate(41.247280, 12.384570)" fill="#30404D">
                        <path d="M2.01,17.403 L6.571,12.156 C7.26913224,11.3530667 7.21639622,10.1440935 6.451,9.405 L0.941,4.085 C0.226146499,3.39433354 0.206448169,2.25496423 0.897,1.54 C1.587,0.825 1.677,0.043 2.392,0.733 L10.554,9.498 C11.2143765,10.2069117 11.2716777,11.2872071 10.69,12.062 L6.032,18.261 C6.63093613,18.8563491 6.73545917,19.7880351 6.28333248,20.5012998 C5.83120578,21.2145645 4.94400488,21.5176131 4.15,21.23 L2.71,20.706 C1.86192802,20.3968401 1.37399127,19.5073498 1.569,18.626 C1.559,18.194 1.703,17.756 2.009,17.403 L2.01,17.403 Z" id="Combined-Shape"></path>
                    </g>
                    <g id="Arm-Copy" transform="translate(7.000000, 23.384667) scale(-1, 1) rotate(4.000000) translate(-7.000000, -23.384667) translate(1.000000, 12.384667)" fill="#30404D">
                        <path d="M2.01,17.403 L6.571,12.156 C7.26913224,11.3530667 7.21639622,10.1440935 6.451,9.405 L0.941,4.085 C0.226146499,3.39433354 0.206448169,2.25496423 0.897,1.54 C1.587,0.825 1.677,0.043 2.392,0.733 L10.554,9.498 C11.2143765,10.2069117 11.2716777,11.2872071 10.69,12.062 L6.032,18.261 C6.63093613,18.8563491 6.73545917,19.7880351 6.28333248,20.5012998 C5.83120578,21.2145645 4.94400488,21.5176131 4.15,21.23 L2.71,20.706 C1.86192802,20.3968401 1.37399127,19.5073498 1.569,18.626 C1.559,18.194 1.703,17.756 2.009,17.403 L2.01,17.403 Z" id="Combined-Shape"></path>
                    </g>
                    <g id="Shield" transform="translate(26.956855, 22.000000) rotate(2.000000) translate(-26.956855, -22.000000) translate(8.956855, 1.000000)">
                        <path d="M17.788,1.297 C14.335,5.193 8.252,6.485 1.318,6.485 L1.318,16.862 C1.318,27.56 6.135,34.445 17.788,40.209 C29.441,34.445 34.258,27.559 34.258,16.862 L34.258,6.485 C27.325,6.485 21.242,5.193 17.788,1.297" id="Fill-22" fill="#2D4A5E"></path>
                        <path d="M17.788,40.209 C29.441,34.445 34.258,27.559 34.258,16.862 L34.258,6.485 C27.325,6.485 21.242,5.193 17.788,1.297 L17.788,40.209 Z" id="Fill-23" fill="#000000" opacity="0.100000001"></path>
                        <path d="M2.635,7.75 L2.635,16.85 C2.635,26.9 7.036,33.284 17.788,38.752 C28.54,33.284 32.941,26.9 32.941,16.849 L32.941,7.749 C26.015,7.582 21.032,6.064 17.788,3.132 C14.544,6.064 9.562,7.582 2.635,7.749 L2.635,7.75 Z M17.788,41.5060005 C17.585,41.5060005 17.383,41.46 17.197,41.368 C5.143,35.403 0,28.07 0,16.849 L0,6.468 C0,5.75 0.59,5.17 1.318,5.17 C8.903,5.17 13.966,3.617 16.795,0.423 C17.296,-0.141 18.28,-0.141 18.781,0.423 C21.611,3.617 26.673,5.17 34.259,5.17 C34.986,5.17 35.576,5.751 35.576,6.468 L35.576,16.849 C35.576,28.069 30.433,35.403 18.38,41.368 C18.1959165,41.4589462 17.9933239,41.5060005 17.788,41.5060005 Z" id="Fill-24" fill="#182A37"></path>
                    </g>
                </g>
            </g>
            <g id="Azure-Hex-Border">
                <path d="M47.5234375,5.54914609 C49.2234375,4.51638203 51.1109375,4 53,4 C54.8890625,4 56.778125,4.51638203 58.475,5.54914609 L97.365625,29.1853599 C100.846875,31.3028615 103,35.2629081 103,39.5582677 L103,86.4417323 C103,90.7354153 100.846875,94.698815 97.365625,96.8146401 L58.475,120.45253 C56.778125,121.483618 54.8890625,122 53,122 C51.1109375,122 49.2234375,121.483618 47.5234375,120.45253 L8.634375,96.8146401 C5.1515625,94.698815 3,90.7354153 3,86.4417323 L3,39.5582677 C3,35.2629081 5.1515625,31.3028615 8.634375,29.1853599 L47.5234375,5.54914609 Z" id="Combined-Shape" fill="url(#linearGradient-1)" opacity="0.400000006" style="mix-blend-mode: overlay;"></path>
                <g id="Group">
                    <g id="Path">
                        <use fill="black" fill-opacity="1" filter="url(#filter-3)" xlink:href="#path-2"></use>
                        <use stroke="#F2F1F0" stroke-width="4" xlink:href="#path-2"></use>
                    </g>
                </g>
                <path d="M48.5618501,7.25844398 L48.5621963,7.25823359 L9.67338401,30.8942953 C6.79673288,32.6432593 5,35.9508238 5,39.5582677 L5,86.4417323 C5,90.0486597 6.79764663,93.3586805 9.67318764,95.1055853 L48.560618,118.742485 C49.9289662,119.572418 51.4546283,120 53,120 C54.5458817,120 56.0723633,119.572188 57.4362178,118.743457 L96.3268764,95.1055464 C99.2016145,93.3583456 101,90.0476286 101,86.4417323 L101,39.5582677 C101,35.9518547 99.202529,32.6435953 96.3268966,30.8944659 L57.4351916,7.25759524 C56.0721095,6.42798656 54.5462432,6 53,6 C51.4542664,6 49.9292165,6.42775755 48.5618501,7.25844398 Z" id="Path" stroke="#0078D4" stroke-width="4"></path>
            </g>
        </g>
    </g>
</svg>