<svg width="100" height="100" viewBox="0 0 100 100" fill="none" xmlns="http://www.w3.org/2000/svg">
<g clip-path="url(#clip0)">
<path d="M49.1926 96.4501C39.9344 96.4501 30.8842 93.7047 23.1863 88.5612C15.4885 83.4176 9.48873 76.1069 5.94579 67.5535C2.40285 59.0001 1.47586 49.5882 3.28203 40.5079C5.0882 31.4277 9.54643 23.0869 16.0929 16.5404C22.6394 9.99393 30.9802 5.53571 40.0604 3.72954C49.1407 1.92337 58.5526 2.85036 67.106 6.3933C75.6594 9.93624 82.9701 15.936 88.1137 23.6339C93.2572 31.3317 96.0026 40.382 96.0026 49.6401C96.003 55.7874 94.7925 61.8746 92.4403 67.554C90.088 73.2335 86.64 78.3939 82.2932 82.7407C77.9464 87.0875 72.7859 90.5355 67.1065 92.8878C61.4271 95.24 55.3399 96.4505 49.1926 96.4501V96.4501Z" fill="url(#paint0_linear)"/>
<path fill-rule="evenodd" clip-rule="evenodd" d="M95.5402 49.7103C95.5402 58.7885 92.8483 67.6628 87.8047 75.211C82.7611 82.7592 75.5925 88.6423 67.2054 92.1164C58.8183 95.5904 49.5893 96.4994 40.6856 94.7284C31.7819 92.9573 23.6033 88.5857 17.184 82.1665C10.7648 75.7473 6.39326 67.5687 4.6222 58.665C2.85114 49.7612 3.76011 40.5323 7.23417 32.1451C10.7082 23.758 16.5914 16.5894 24.1396 11.5459C31.6878 6.5023 40.5621 3.81031 49.6402 3.81031C55.6679 3.81029 61.6366 4.99751 67.2054 7.3042C72.7743 9.61088 77.8343 12.9918 82.0965 17.2541C86.3587 21.5163 89.7397 26.5763 92.0464 32.1451C94.353 37.714 95.5403 43.6826 95.5402 49.7103V49.7103ZM49.6402 0.0703125C59.4581 0.0703125 69.0555 2.98165 77.2188 8.43616C85.382 13.8907 91.7445 21.6434 95.5016 30.7139C99.2588 39.7844 100.242 49.7654 98.3264 59.3946C96.4111 69.0238 91.6833 77.8688 84.741 84.8111C77.7987 91.7534 68.9537 96.4811 59.3245 98.3965C49.6953 100.312 39.7144 99.3288 30.6438 95.5717C21.5733 91.8146 13.8206 85.4521 8.36609 77.2888C2.91158 69.1256 0.000244502 59.5282 0.000244502 49.7103C-0.000542285 43.1913 1.2829 36.7359 3.77726 30.713C6.27163 24.69 9.92805 19.2174 14.5377 14.6078C19.1474 9.99812 24.62 6.3417 30.6429 3.84734C36.6659 1.35297 43.1212 0.0695344 49.6402 0.0703225V0.0703125Z" fill="#F2F1F0"/>
<path fill-rule="evenodd" clip-rule="evenodd" d="M92.2821 49.6386C92.2821 58.161 89.7549 66.492 85.0201 73.5781C80.2853 80.6643 73.5556 86.1872 65.6819 89.4486C57.8082 92.71 49.1443 93.5633 40.7856 91.9007C32.427 90.238 24.7491 86.1341 18.7228 80.1079C12.6966 74.0816 8.59266 66.4037 6.93002 58.0451C5.26739 49.6864 6.12071 41.0225 9.38209 33.1488C12.6435 25.2751 18.1664 18.5454 25.2525 13.8106C32.3387 9.07581 40.6697 6.54862 49.1921 6.54862C54.8508 6.54828 60.4542 7.6626 65.6823 9.82795C70.9104 11.9933 75.6607 15.1673 79.6621 19.1686C83.6634 23.17 86.8374 27.9203 89.0027 33.1484C91.1681 38.3765 92.2824 43.9799 92.2821 49.6386V49.6386ZM49.1921 2.80862C58.4542 2.80862 67.5083 5.55515 75.2094 10.7009C82.9106 15.8466 88.9129 23.1605 92.4573 31.7176C96.0018 40.2746 96.9292 49.6906 95.1222 58.7747C93.3153 67.8588 88.8552 76.2031 82.3059 82.7524C75.7566 89.3017 67.4123 93.7619 58.3281 95.5688C49.244 97.3757 39.8281 96.4484 31.271 92.9039C22.7139 89.3594 15.4001 83.3571 10.2543 75.656C5.10859 67.9548 2.36206 58.9007 2.36206 49.6386C2.36325 37.2189 7.29749 25.3082 16.0796 16.5261C24.8616 7.74404 36.7723 2.80979 49.1921 2.80859V2.80862Z" fill="#0078D4"/>
<path d="M61.2393 17.8754C60.6402 17.8754 60.055 17.8535 59.4882 17.8102C58.9653 17.7698 58.4455 17.6956 57.9322 17.588C57.457 17.4881 56.9916 17.3466 56.5413 17.165C56.0988 16.9847 55.6757 16.76 55.2785 16.4944C54.5706 16.0102 53.7971 15.6301 52.9814 15.3655C52.2218 15.1256 51.4391 14.9664 50.6462 14.8905C50.5677 14.8829 50.4904 14.8789 50.4131 14.8789H48.8675C48.7901 14.8789 48.7128 14.8829 48.6343 14.8905C47.841 14.9664 47.0579 15.1258 46.298 15.366C45.495 15.6254 44.7326 15.9967 44.0332 16.469C43.6227 16.7442 43.1862 16.9787 42.73 17.169C42.2854 17.3497 41.8253 17.4894 41.3552 17.5863C40.8361 17.6943 40.3106 17.7691 39.7819 17.8103C39.2129 17.8535 38.6326 17.8753 38.0412 17.8755C37.4143 17.8755 36.813 18.1246 36.3697 18.5679C35.9264 19.0112 35.6773 19.6125 35.6772 20.2395L35.6784 26.4993C35.6876 26.7821 35.7015 27.0649 35.7176 27.3361C35.7361 27.6461 35.765 27.956 35.8042 28.2659C35.8446 28.5891 36.0709 29.7913 36.1505 30.1047C36.5422 31.6387 37.1571 33.1069 37.9755 34.4622C38.7633 35.765 39.6873 36.9804 40.732 38.0879C41.7647 39.1812 42.8906 40.1827 44.0968 41.081C45.2452 41.9377 46.441 42.7289 47.6786 43.4508C48.0395 43.6612 48.4498 43.7719 48.8675 43.7717H50.4131C50.8309 43.7719 51.2412 43.6612 51.602 43.4508C52.8397 42.7289 54.0356 41.9375 55.1839 41.0804C56.39 40.1825 57.5159 39.1814 58.5486 38.0885C59.5932 36.9807 60.5172 35.7651 61.3051 34.4622C62.1235 33.1069 62.7384 31.6387 63.1301 30.1047C63.2109 29.7913 63.4198 28.6347 63.466 28.338C63.518 28.0073 63.5541 27.677 63.5745 27.347C63.5941 27.04 63.6038 26.7328 63.6034 26.4253V20.2395C63.6033 19.6125 63.3543 19.0112 62.9109 18.5678C62.4676 18.1245 61.8663 17.8754 61.2393 17.8754Z" fill="white"/>
<path d="M50.4134 17.2422C51.0411 17.3016 51.6607 17.4271 52.262 17.6167C52.8628 17.8122 53.4324 18.093 53.9535 18.4504C54.4888 18.8101 55.0596 19.1137 55.6571 19.3566C56.236 19.5899 56.8344 19.7718 57.4452 19.9003C58.059 20.0294 58.6805 20.1182 59.3059 20.1661C59.9341 20.2144 60.5785 20.2386 61.239 20.2386V26.4246C61.239 26.6824 61.2309 26.9401 61.2148 27.1979C61.1987 27.4556 61.1705 27.7134 61.1302 27.9711H50.4134V17.2422ZM38.0413 20.2386C38.6937 20.2386 39.3341 20.2144 39.9624 20.1661C40.5916 20.1176 41.2172 20.0288 41.8351 19.9003C42.4465 19.7741 43.0451 19.5921 43.6232 19.3566C44.2239 19.1076 44.7986 18.8 45.3389 18.4383C45.857 18.0864 46.4225 17.8098 47.0183 17.6167C47.6196 17.4271 48.2392 17.3016 48.8669 17.2422V27.9711H38.15C38.1178 27.7134 38.0936 27.4556 38.0775 27.1979C38.0614 26.9401 38.0493 26.6824 38.0413 26.4246L38.0413 20.2386ZM48.8669 41.4065C47.7062 40.7294 46.5848 39.9872 45.5081 39.1833C44.4117 38.3681 43.3889 37.4585 42.4513 36.4648C41.5213 35.4798 40.6991 34.3984 39.9986 33.2389C39.299 32.0818 38.7738 30.8279 38.44 29.5176H48.8669V41.4065ZM50.4134 29.5176H60.8403C60.5065 30.8279 59.9813 32.0818 59.2817 33.2389C58.5812 34.3984 57.759 35.4799 56.829 36.4649C55.8914 37.4585 54.8685 38.3681 53.7722 39.1833C52.6955 39.9872 51.5741 40.7294 50.4134 41.4064V29.5176Z" fill="#0078D4"/>
<path d="M20.9624 56.93V53.6408C20.9624 52.5246 21.4058 51.454 22.1951 50.6647C22.9845 49.8754 24.055 49.432 25.1713 49.432H45.4308C46.547 49.432 47.6176 48.9886 48.4069 48.1992C49.1962 47.4099 49.6396 46.3394 49.6396 45.2231V43.7695" stroke="white" stroke-miterlimit="10"/>
<path d="M49.6396 43.7695V45.2231C49.6396 46.3394 50.0831 47.4099 50.8724 48.1992C51.6617 48.9886 52.7322 49.432 53.8485 49.432H74.108C75.2243 49.432 76.2948 49.8754 77.0841 50.6647C77.8735 51.454 78.3169 52.5246 78.3169 53.6408V56.93" stroke="white" stroke-miterlimit="10"/>
<path d="M49.6398 45.849C50.7885 45.849 51.7196 44.9178 51.7196 43.7692C51.7196 42.6206 50.7885 41.6895 49.6398 41.6895C48.4912 41.6895 47.5601 42.6206 47.5601 43.7692C47.5601 44.9178 48.4912 45.849 49.6398 45.849Z" fill="white"/>
<path d="M49.6398 55.724C50.7885 55.724 51.7196 54.7928 51.7196 53.6442C51.7196 52.4956 50.7885 51.5645 49.6398 51.5645C48.4912 51.5645 47.5601 52.4956 47.5601 53.6442C47.5601 54.7928 48.4912 55.724 49.6398 55.724Z" fill="white"/>
<path d="M49.6396 53.6445V62.8857" stroke="white" stroke-miterlimit="10"/>
<path d="M13.582 65.5289L19.9152 54.7174C20.0222 54.5347 20.1752 54.3832 20.3589 54.2779C20.5426 54.1726 20.7507 54.1172 20.9624 54.1172C21.1742 54.1172 21.3822 54.1726 21.566 54.2779C21.7497 54.3832 21.9026 54.5347 22.0097 54.7174L28.3429 65.5289C28.4509 65.7133 28.5083 65.9229 28.5093 66.1366C28.5103 66.3503 28.4549 66.5605 28.3487 66.7459C28.2424 66.9313 28.0891 67.0853 27.9042 67.1925C27.7193 67.2996 27.5094 67.356 27.2957 67.356H14.6292C14.4155 67.356 14.2056 67.2996 14.0207 67.1925C13.8358 67.0853 13.6825 66.9313 13.5762 66.7459C13.47 66.5605 13.4145 66.3503 13.4155 66.1366C13.4166 65.9229 13.474 65.7133 13.582 65.5289Z" fill="#FF9300"/>
<path d="M14.6293 66.5465C14.5581 66.5465 14.4881 66.5277 14.4265 66.4921C14.3648 66.4564 14.3137 66.4051 14.2782 66.3433C14.2428 66.2815 14.2243 66.2114 14.2246 66.1402C14.2249 66.069 14.2441 65.9991 14.28 65.9377L20.613 55.1259C20.6488 55.0649 20.6998 55.0144 20.7611 54.9793C20.8223 54.9442 20.8917 54.9258 20.9623 54.9258C21.033 54.9258 21.1024 54.9443 21.1636 54.9794C21.2249 55.0146 21.2759 55.0651 21.3115 55.1261L27.6445 65.9375C27.6805 65.9989 27.6997 66.0688 27.7 66.14C27.7004 66.2112 27.6819 66.2812 27.6465 66.343C27.6111 66.4048 27.56 66.4562 27.4984 66.4919C27.4368 66.5276 27.3669 66.5464 27.2957 66.5465H14.6293Z" fill="#FFCA00"/>
<path d="M20.9624 58.6992V62.5747" stroke="#FF9300" stroke-width="0.80911" stroke-miterlimit="10" stroke-linecap="round"/>
<path d="M20.9625 65.028C21.2587 65.028 21.4989 64.7878 21.4989 64.4915C21.4989 64.1952 21.2587 63.9551 20.9625 63.9551C20.6662 63.9551 20.426 64.1952 20.426 64.4915C20.426 64.7878 20.6662 65.028 20.9625 65.028Z" fill="#FF9300"/>
<path d="M42.2592 72.1481L48.5925 61.3366C48.6995 61.1538 48.8525 61.0023 49.0362 60.897C49.2199 60.7917 49.4279 60.7363 49.6397 60.7363C49.8514 60.7363 50.0595 60.7917 50.2432 60.897C50.4269 61.0023 50.5799 61.1538 50.6869 61.3366L57.0201 72.1481C57.1282 72.3325 57.1856 72.5421 57.1866 72.7558C57.1876 72.9695 57.1322 73.1796 57.0259 73.365C56.9196 73.5504 56.7663 73.7045 56.5814 73.8116C56.3965 73.9188 56.1866 73.9752 55.9729 73.9752H43.3064C43.0928 73.9752 42.8828 73.9188 42.698 73.8116C42.5131 73.7045 42.3597 73.5504 42.2535 73.365C42.1472 73.1796 42.0918 72.9695 42.0928 72.7558C42.0938 72.5421 42.1512 72.3325 42.2592 72.1481V72.1481Z" fill="#FF9300"/>
<path d="M43.3065 73.1656C43.2353 73.1656 43.1653 73.1469 43.1037 73.1112C43.0421 73.0755 42.9909 73.0242 42.9555 72.9624C42.92 72.9006 42.9015 72.8306 42.9019 72.7594C42.9022 72.6881 42.9213 72.6182 42.9573 72.5568L49.2903 61.745C49.326 61.6841 49.377 61.6336 49.4383 61.5985C49.4996 61.5634 49.569 61.5449 49.6396 61.5449C49.7102 61.5449 49.7796 61.5634 49.8409 61.5986C49.9021 61.6337 49.9531 61.6843 49.9888 61.7452L56.3218 72.5566C56.3578 72.618 56.3769 72.6879 56.3773 72.7591C56.3776 72.8303 56.3592 72.9004 56.3238 72.9621C56.2884 73.0239 56.2373 73.0753 56.1757 73.111C56.1141 73.1467 56.0441 73.1656 55.9729 73.1656H43.3065Z" fill="#FFCA00"/>
<path d="M49.6396 65.3203V69.1958" stroke="#FF9300" stroke-width="0.80911" stroke-miterlimit="10" stroke-linecap="round"/>
<path d="M49.6397 71.6471C49.936 71.6471 50.1762 71.4069 50.1762 71.1107C50.1762 70.8144 49.936 70.5742 49.6397 70.5742C49.3434 70.5742 49.1033 70.8144 49.1033 71.1107C49.1033 71.4069 49.3434 71.6471 49.6397 71.6471Z" fill="#FF9300"/>
<path d="M70.9365 65.4293L77.2697 54.6178C77.3767 54.4351 77.5297 54.2836 77.7134 54.1783C77.8971 54.073 78.1052 54.0176 78.3169 54.0176C78.5287 54.0176 78.7367 54.073 78.9204 54.1783C79.1042 54.2836 79.2571 54.4351 79.3641 54.6178L85.6974 65.4293C85.8054 65.6137 85.8628 65.8233 85.8638 66.037C85.8648 66.2507 85.8094 66.4609 85.7031 66.6463C85.5969 66.8317 85.4436 66.9857 85.2587 67.0929C85.0738 67.2 84.8639 67.2564 84.6502 67.2564H71.9837C71.77 67.2564 71.5601 67.2 71.3752 67.0929C71.1903 66.9857 71.037 66.8317 70.9307 66.6463C70.8245 66.4609 70.769 66.2507 70.77 66.037C70.771 65.8233 70.8285 65.6137 70.9365 65.4293Z" fill="#FF9300"/>
<path d="M71.9838 66.4488C71.9126 66.4488 71.8426 66.4301 71.7809 66.3944C71.7193 66.3587 71.6682 66.3074 71.6327 66.2456C71.5973 66.1838 71.5788 66.1138 71.5791 66.0426C71.5794 65.9713 71.5985 65.9015 71.6345 65.84L77.9675 55.0282C78.0032 54.9673 78.0543 54.9168 78.1156 54.8817C78.1768 54.8466 78.2462 54.8281 78.3168 54.8281C78.3875 54.8281 78.4569 54.8466 78.5181 54.8818C78.5794 54.9169 78.6304 54.9675 78.666 55.0284L84.999 65.8398C85.035 65.9012 85.0542 65.9711 85.0545 66.0423C85.0549 66.1135 85.0364 66.1836 85.001 66.2453C84.9656 66.3071 84.9145 66.3585 84.8529 66.3942C84.7913 66.4299 84.7214 66.4488 84.6502 66.4488H71.9838Z" fill="#FFCA00"/>
<path d="M78.3169 58.6016V62.477" stroke="#FF9300" stroke-width="0.80911" stroke-miterlimit="10" stroke-linecap="round"/>
<path d="M78.317 64.9283C78.6132 64.9283 78.8534 64.6882 78.8534 64.3919C78.8534 64.0956 78.6132 63.8555 78.317 63.8555C78.0207 63.8555 77.7805 64.0956 77.7805 64.3919C77.7805 64.6882 78.0207 64.9283 78.317 64.9283Z" fill="#FF9300"/>
</g>
<defs>
<linearGradient id="paint0_linear" x1="47.4222" y1="-15.153" x2="51.405" y2="130.615" gradientUnits="userSpaceOnUse">
<stop stop-color="#00ABDE"/>
<stop offset="1" stop-color="#007ED8"/>
</linearGradient>
<clipPath id="clip0">
<rect width="99.2799" height="99.28" fill="white"/>
</clipPath>
</defs>
</svg>
