<svg xmlns="http://www.w3.org/2000/svg" viewBox="0 0 150 105">
  <defs>
    <style>
      .cls-1 {
        fill: #556a8a;
      }

      .cls-11, .cls-2 {
        fill: #fff;
      }

      .cls-3 {
        fill: #e5e5e5;
      }

      .cls-10, .cls-4 {
        fill: none;
      }

      .cls-11, .cls-4, .cls-5 {
        stroke: #556a8a;
        stroke-miterlimit: 10;
        stroke-width: 2px;
      }

      .cls-5 {
        fill: #fcfcfc;
      }

      .cls-6 {
        fill: #ababab;
      }

      .cls-7 {
        fill: #0078d7;
      }

      .cls-8 {
        fill: #55d2f6;
      }

      .cls-9 {
        fill: #2bc7f4;
      }
    </style>
  </defs>
  <title>ms365enterprise-developer-uwp-apps-1</title>
  <g id="ICONS">
    <g>
      <g>
        <g>
          <g>
            <polygon class="cls-1" points="73.76 70.72 70.41 70.72 70.97 62.9 73.2 62.9 73.76 70.72"/>
            <polygon class="cls-1" points="86.17 69 57.28 69 53.94 72 89.5 72 86.17 69"/>
          </g>
          <path class="cls-2" d="M111.5,23.33V63h-76V23.33A2.35,2.35,0,0,1,37.86,21h71.28A2.35,2.35,0,0,1,111.5,23.33Z"/>
          <path class="cls-3" d="M111.5,23.33V31h-76V23.33A2.35,2.35,0,0,1,37.86,21h71.28A2.35,2.35,0,0,1,111.5,23.33Z"/>
          <path class="cls-4" d="M111,63V23.33A2.35,2.35,0,0,0,108.64,21H37.36A2.35,2.35,0,0,0,35,23.33V63Z"/>
          <path class="cls-5" d="M132,84H90c-2.2,0-4,.11-4,.11V51a4,4,0,0,1,4-4h42a4,4,0,0,1,4,4V84.11S134.2,84,132,84Z"/>
          <rect class="cls-3" x="89" y="50" width="44" height="26"/>
        </g>
        <path class="cls-5" d="M54.79,43,12.1,45A1.16,1.16,0,0,0,11,46.16V79.72L54.79,82A1.16,1.16,0,0,0,56,80.84V44.16A1.16,1.16,0,0,0,54.79,43Z"/>
        <polygon class="cls-3" points="14 75.92 14 48.88 51 47.14 51 77.85 14 75.92"/>
      </g>
      <rect class="cls-6" x="30" y="75" width="3" height="2"/>
    </g>
    <g>
      <polygon class="cls-7" points="108 63 108 55.11 100 56.17 100 63 108 63"/>
      <polygon class="cls-7" points="109 63 120 63 120 53.77 109 55.15 109 63"/>
      <polygon class="cls-7" points="109 64 109 71.78 120 73.23 120 64 109 64"/>
      <polygon class="cls-7" points="108 64 100 64 100 70.5 108 71.65 108 64"/>
    </g>
    <g>
      <g>
        <path class="cls-2" d="M48,51.5a19.51,19.51,0,1,1,13.78-5.71A19.37,19.37,0,0,1,48,51.5Z"/>
        <path class="cls-1" d="M48,14a18,18,0,1,1-12.72,5.27A17.88,17.88,0,0,1,48,14h0m0-2a20,20,0,1,0,14.14,5.86A19.93,19.93,0,0,0,48,12Z"/>
        <polygon class="cls-8" points="37 21 44.95 36.03 59.98 43.98 50.37 29.99 37 21"/>
        <polygon class="cls-9" points="37 21 59.98 43.98 52.03 28.95 37 21"/>
        <rect class="cls-10" x="28" y="12" width="40" height="40"/>
        <line class="cls-11" x1="48" y1="16" x2="48" y2="20"/>
        <line class="cls-11" x1="48" y1="44" x2="48" y2="48"/>
        <line class="cls-11" x1="32" y1="32" x2="37" y2="32"/>
        <line class="cls-11" x1="59" y1="32" x2="64" y2="32"/>
      </g>
      <circle class="cls-2" cx="48" cy="32" r="2"/>
    </g>
    <polygon class="cls-5" points="136.5 83.95 85.5 83.95 80.5 88 141.5 88 136.5 83.95"/>
  </g>
</svg>
