<svg xmlns="http://www.w3.org/2000/svg" viewBox="0 0 400 140">
  <defs>
    <style>
      .cls-1 {
        fill: #556a8a;
      }

      .cls-12, .cls-2, .cls-8 {
        fill: #fff;
      }

      .cls-3 {
        fill: #e5e5e5;
      }

      .cls-11, .cls-4 {
        fill: none;
      }

      .cls-12, .cls-4, .cls-5 {
        stroke: #556a8a;
        stroke-miterlimit: 10;
        stroke-width: 2px;
      }

      .cls-5 {
        fill: #fcfcfc;
      }

      .cls-6 {
        fill: #414042;
      }

      .cls-7 {
        fill: #999;
      }

      .cls-8 {
        opacity: 0.4;
      }

      .cls-9 {
        fill: #55d2f6;
      }

      .cls-10 {
        fill: #2bc7f4;
      }
    </style>
  </defs>
  <title>ms365enterprise-developer-uwp-apps</title>
  <g id="ICONS">
    <g>
      <g>
        <g>
          <g>
            <g>
              <g>
                <polygon class="cls-1" points="197.03 101.25 191.28 101.25 192.24 87.83 196.08 87.83 197.03 101.25"/>
                <polygon class="cls-1" points="218.78 99.5 169.22 99.5 163.5 103.5 224.5 103.5 218.78 99.5"/>
              </g>
              <path class="cls-2" d="M258.5,21.5v68h-129v-68a4,4,0,0,1,4-4h121A4,4,0,0,1,258.5,21.5Z"/>
              <path class="cls-3" d="M258.5,21.5v9h-129v-9a4,4,0,0,1,4-4h121A4,4,0,0,1,258.5,21.5Z"/>
              <path class="cls-4" d="M258,89.5v-68a4,4,0,0,0-4-4H133a4,4,0,0,0-4,4v68Z"/>
              <rect class="cls-5" x="235" y="53.5" width="93" height="69" rx="4" ry="4"/>
              <path class="cls-6" d="M336.53,128.5H228.7a4,4,0,0,1-4.2-3h116S339.33,128.5,336.53,128.5Z"/>
              <polygon class="cls-5" points="227.5 124.5 235.5 119.5 328.5 119.5 337.5 124.5 227.5 124.5"/>
              <rect class="cls-3" x="240" y="57.5" width="85" height="54"/>
            </g>
            <path class="cls-5" d="M155.35,51.34,79.46,54.9a2.05,2.05,0,0,0-2,2.05V116.5l77.85,4a2.05,2.05,0,0,0,2.15-2.05V53.4A2.05,2.05,0,0,0,155.35,51.34Z"/>
            <polygon class="cls-3" points="83 110.8 83 60.77 150.95 57.54 151 114.34 83 110.8"/>
          </g>
          <rect class="cls-5" x="59.5" y="67.5" width="30" height="56" rx="4" ry="4"/>
          <rect class="cls-3" x="62.5" y="74.5" width="24" height="41"/>
          <path class="cls-7" d="M77.77,72.5H70.23c-.4,0-.73-.45-.73-1s.33-1,.73-1h7.54c.4,0,.73.45.73,1S78.17,72.5,77.77,72.5Z"/>
          <g>
            <polygon class="cls-2" points="278 84.5 278 69.58 262 72.5 262 84.5 278 84.5"/>
            <polygon class="cls-2" points="280 84.5 300 84.5 300 66.82 280 69.5 280 84.5"/>
            <polygon class="cls-2" points="280 86.5 280 101.72 300 104.5 300 86.5 280 86.5"/>
            <polygon class="cls-2" points="278 86.5 262.01 86.5 262 98.51 278 101.5 278 86.5"/>
          </g>
        </g>
        <polygon class="cls-8" points="86.5 74.5 86.5 94.5 66.5 74.5 86.5 74.5"/>
      </g>
      <g>
        <path class="cls-2" d="M194,77.28A24.79,24.79,0,1,1,211.52,70,24.61,24.61,0,0,1,194,77.28Z"/>
        <path class="cls-3" d="M176.41,34.57a24.58,24.58,0,0,1,34.76,34.76Z"/>
        <path class="cls-1" d="M194,29.32a23.2,23.2,0,1,1-16.39,6.79A23,23,0,0,1,194,29.32h0m0-2a25.2,25.2,0,1,0,17.8,7.38A25.1,25.1,0,0,0,194,27.32Z"/>
        <polygon class="cls-9" points="179.06 37.56 189.4 57.1 208.94 67.44 196.44 49.25 179.06 37.56"/>
        <polygon class="cls-10" points="179.06 37.56 208.94 67.44 198.6 47.9 179.06 37.56"/>
        <rect class="cls-11" x="168" y="26.5" width="52" height="52"/>
        <line class="cls-12" x1="194" y1="31.38" x2="194" y2="37.06"/>
        <line class="cls-12" x1="194" y1="67.94" x2="194" y2="73.63"/>
        <line class="cls-12" x1="172.88" y1="51.69" x2="178.56" y2="51.69"/>
        <line class="cls-12" x1="209.44" y1="51.69" x2="215.13" y2="51.69"/>
        <circle class="cls-2" cx="194" cy="52.5" r="2.44"/>
      </g>
    </g>
  </g>
</svg>
