<svg xmlns="http://www.w3.org/2000/svg" viewBox="0 0 150 105">
  <defs>
    <style>
      .cls-1 {
        fill: #fff;
      }

      .cls-1, .cls-3 {
        stroke: #556a8a;
        stroke-miterlimit: 10;
        stroke-width: 2px;
      }

      .cls-2 {
        fill: #bad80a;
      }

      .cls-3, .cls-5 {
        fill: none;
      }

      .cls-4 {
        fill: #556a8a;
      }
    </style>
  </defs>
  <title>ms365enterprise-admin-devices-update-proplus-5</title>
  <g id="ICONS">
    <path class="cls-1" d="M36,55l6,.9a23.36,23.36,0,0,0,.62,4.1l-5,3.21a1.58,1.58,0,0,0-.89,2.15l1.5,3.69a1.36,1.36,0,0,0,1.93.66l6.06-1.27c.63,1.08,1.27,2.17,1.92,3.27l-3.48,4.72a1.61,1.61,0,0,0,0,2.16l3,3.05a2,2,0,0,0,2.16,0l4.77-3.42c1.08.65,2.38,1.51,3.44,2.17l-1.34,6a1.49,1.49,0,0,0,.84,1.74l3.67,1.53a1.38,1.38,0,0,0,2-.62l3.28-5.4a12.62,12.62,0,0,0,3.87.9l.82,6a1.48,1.48,0,0,0,1.5,1.53l4.1-.2c.65.22,1.31-.43,1.51-1.07l1.13-6.26a13,13,0,0,0,3.89-.82l3.21,5.4a2.15,2.15,0,0,0,1.93.66l3.9-1.7a1.47,1.47,0,0,0,.88-1.71l-1.48-5.86a7.64,7.64,0,0,0,.84-.57c.18-.12.36-.26.54-.4.63-.47,1.27-1,1.89-1.38L100,82a1.38,1.38,0,0,0,1.94-.2L103.71,80l1-1,0,0a1.39,1.39,0,0,0,.19-1.9l-3.63-5a17.73,17.73,0,0,0,2.4-3.66l6,1.75a1.91,1.91,0,0,0,2-1.05l1.53-3.67a1.87,1.87,0,0,0-.84-2.16l-5.17-3.06c.45-1.28.45-2.59.89-3.87l6-.82a1.91,1.91,0,0,0,1.31-1.73V49.92a1.83,1.83,0,0,0-1.26-1.74L108,47.49a24.66,24.66,0,0,0-.82-4.33l5.41-3.2a1.37,1.37,0,0,0,.67-1.94l-1.5-3.67a2,2,0,0,0-1.93-1.09l-6.07,1.69c-.63-1.08-1.27-2.17-1.92-3.25l3.71-4.94a2,2,0,0,0-.22-1.94l-3-3.05a1.63,1.63,0,0,0-1.93-.23l-5,3.66C94.3,24.5,93,23.64,91.94,23l1.32-6a1.45,1.45,0,0,0-.84-1.73l-3.87-1.75a1.86,1.86,0,0,0-2,.63l-3.05,5.18c-1.3,0-2.59-.45-3.89-.47l-.59-6.26a1.9,1.9,0,0,0-1.73-1.3L73.23,11a2.53,2.53,0,0,0-1.51,1.48l-.92,6.06c-1.51.2-2.81.63-4.32.82l-3-5.2a1.5,1.5,0,0,0-1.94-.66L57.88,15a1.75,1.75,0,0,0-1.11,1.93l1.49,5.85A14,14,0,0,0,55,25.15l-5-3.71a1.45,1.45,0,0,0-2.17,0L45.29,24l-.23.22a1.47,1.47,0,0,0,0,2.16l3.63,5a9.67,9.67,0,0,0-1.85,2.5l-.16.3c-.14.27-.27.55-.39.85l-6-1.75a1.47,1.47,0,0,0-1.73.84L36.77,38a2.19,2.19,0,0,0,.63,2l5.39,3.27a10.7,10.7,0,0,0-.69,3.67l-6.28,1c-.63.23-1.3.86-1.3,1.31l0,4.32A1.46,1.46,0,0,0,36,55Z"/>
    <path class="cls-2" d="M46.51,52a28.49,28.49,0,0,0,57,0Z"/>
    <path class="cls-3" d="M75,22.5a29,29,0,1,0,29,29A29,29,0,0,0,75,22.5Z"/>
    <g>
      <rect class="cls-4" x="74" y="68.07" width="2" height="0.14"/>
      <polygon class="cls-4" points="75.07 31.07 61.44 44.7 62.86 46.11 74 34.97 74 69 76 69 76 34.83 87.14 45.97 88.56 44.56 75.07 31.07"/>
    </g>
    <rect class="cls-5" x="43" y="19" width="64" height="64"/>
  </g>
</svg>
