<svg xmlns="http://www.w3.org/2000/svg" viewBox="0 0 150 105">
  <defs>
    <style>
      .cls-1 {
        fill: #556a8a;
      }

      .cls-2 {
        fill: #adbdca;
      }

      .cls-3 {
        fill: #fff;
      }

      .cls-4 {
        fill: #c8edfb;
      }

      .cls-5, .cls-6 {
        fill: none;
      }

      .cls-5 {
        stroke: #556a8a;
        stroke-miterlimit: 10;
        stroke-width: 2px;
      }

      .cls-7 {
        fill: #55d2f6;
      }

      .cls-8 {
        fill: #ffb900;
      }
    </style>
  </defs>
  <title>ms365enterprise-admin-devices-intune-6</title>
  <g id="ICONS">
    <g>
      <g>
        <polygon class="cls-1" points="117.67 94.25 33.43 94.25 38.7 88.84 112.74 88.84 117.67 94.25"/>
        <polygon class="cls-2" points="109.25 92 40.85 92 43.25 90 106.92 90 109.25 92"/>
        <polygon class="cls-1" points="93.69 82 56.31 82 52 86 98 86 93.69 82"/>
        <polygon class="cls-1" points="77.71 83.44 72.67 83.44 73.68 73.36 76.7 73.36 77.71 83.44"/>
        <rect class="cls-3" x="21" y="17" width="109" height="59" rx="4" ry="4" transform="translate(151 93) rotate(180)"/>
        <path class="cls-4" d="M130,31V21a4,4,0,0,0-4-4H25a4,4,0,0,0-4,4V31Z"/>
        <rect class="cls-5" x="21" y="17" width="109" height="59" rx="4" ry="4" transform="translate(151 93) rotate(180)"/>
      </g>
      <rect class="cls-6" x="11.5" y="11" width="127" height="91"/>
    </g>
    <g>
      <path class="cls-3" d="M75,27.75A19.94,19.94,0,1,0,94.94,47.69,19.94,19.94,0,0,0,75,27.75Z"/>
      <path class="cls-7" d="M71.23,67A20.66,20.66,0,0,1,55.59,52.9c-.21-.64-.38-1.27-.52-1.9H94.93c-.14.63-.31,1.26-.52,1.9A20.66,20.66,0,0,1,78.75,67Z"/>
      <path class="cls-5" d="M75,27.34a20,20,0,1,0,20,20A20,20,0,0,0,75,27.34Z"/>
      <rect class="cls-1" x="74.31" y="58.73" width="1.37" height="0.1"/>
      <rect class="cls-6" x="53" y="25" width="44" height="44"/>
    </g>
    <path class="cls-8" d="M27.33,38.42a1.1,1.1,0,0,0,1.06.66l2.24-.24a1.1,1.1,0,0,0,.83-1.24l-.07-2.76c-.14-.73,0-1.42,2.11-2.64a1.93,1.93,0,0,1,1.9.11L38,33.8a1.3,1.3,0,0,0,1.17-.22l1.53-1.94a1.15,1.15,0,0,0-.38-1.38l-2.09-2a1.4,1.4,0,0,1-.4-1.72s.6-2.79,1.77-3l2.57-.6A1.37,1.37,0,0,0,43,21.73l-.41-2.41a.85.85,0,0,0-1-.67h-.06l-2.77.08c-.74.11-2.3-1.83-2.64-2.16a2.76,2.76,0,0,1,0-2.07l1.49-2.29a1.25,1.25,0,0,0-.22-1.55L35.49,9.52a1.1,1.1,0,0,0-1.38,0l-1.81,2.29c-.46.56-1.32,1.08-3.28.28,0,0-1.45-.85-1.62-1.53l-.56-2.9A1.1,1.1,0,0,0,25.76,7l-2.41.41a.85.85,0,0,0-.62,1v0l-.09,2.94c0,1-1.67,2.12-2,2.46a1.81,1.81,0,0,1-2.07.06L16.1,12.32a1.35,1.35,0,0,0-1.38.38l-1.53,1.94A1.52,1.52,0,0,0,13.58,16l2.13,2c1.25.94.51,2.29.26,3.28-.11.53-.32,1.06-1.52,1.25l-2.74.77A1.1,1.1,0,0,0,11,24.39l.41,2.41a1.1,1.1,0,0,0,.89.84l2.93-.25c1,0,1.39.29,1.58.82a15.46,15.46,0,0,1,.9,1.53A1.55,1.55,0,0,1,18,31.59l-1.64,2.47a1.34,1.34,0,0,0,.38,1.36l1.76,1.33a1.1,1.1,0,0,0,1.38,0l1.84-2.29a1.76,1.76,0,0,1,1.87-.55l1.57.47c.69,0,1.06.32,1.41,1.34l.76,2.74"/>
    <path class="cls-4" d="M32.93,22.21a6.07,6.07,0,0,1-5,6.7,5.64,5.64,0,0,1-6.62-4.45q-.05-.27-.08-.54a5.8,5.8,0,0,1,4.82-6.52,5.87,5.87,0,0,1,6.87,4.67l0,.14"/>
    <polygon class="cls-1" points="75.07 32.03 63.67 43.43 65.09 44.85 74 35.93 74 60 76 60 76 35.79 85.24 45.03 86.65 43.62 75.07 32.03"/>
  </g>
</svg>
