<svg xmlns="http://www.w3.org/2000/svg" viewBox="0 0 150 105">
  <defs>
    <style>
      .cls-1 {
        fill: #556a8a;
      }

      .cls-2 {
        fill: #adbdca;
      }

      .cls-10, .cls-3 {
        fill: #fff;
      }

      .cls-4 {
        fill: #c8edfb;
      }

      .cls-5, .cls-6 {
        fill: none;
      }

      .cls-10, .cls-5 {
        stroke: #556a8a;
        stroke-miterlimit: 10;
        stroke-width: 2px;
      }

      .cls-7 {
        fill: #0078d7;
      }

      .cls-8 {
        fill: #e5e5e5;
      }

      .cls-9 {
        fill: #ffb900;
      }
    </style>
  </defs>
  <title>ms365enterprise-admin-devices-win10-deploy-1</title>
  <g id="ICONS">
    <g>
      <g>
        <g>
          <g>
            <polygon class="cls-1" points="109.42 93.25 25.18 93.25 30.45 87.84 104.49 87.84 109.42 93.25"/>
            <polygon class="cls-2" points="101.5 91 33.1 91 35.5 89 99.17 89 101.5 91"/>
            <polygon class="cls-1" points="85.94 80 48.56 80 44.25 84 90.25 84 85.94 80"/>
            <polygon class="cls-1" points="69.46 82.44 64.42 82.44 65.43 72.36 68.45 72.36 69.46 82.44"/>
            <rect class="cls-3" x="12" y="16" width="109" height="59" rx="4" ry="4" transform="translate(133 91) rotate(180)"/>
            <path class="cls-4" d="M121.25,29.5v-10a4,4,0,0,0-4-4h-101a4,4,0,0,0-4,4v10Z"/>
            <rect class="cls-5" x="12" y="16" width="109" height="59" rx="4" ry="4" transform="translate(133 91) rotate(180)"/>
          </g>
          <rect class="cls-6" x="3.75" y="10" width="127" height="91"/>
        </g>
        <g>
          <polygon class="cls-7" points="62.25 46 62.25 30.62 46.25 32.68 46.25 46 62.25 46"/>
          <polygon class="cls-7" points="64.25 46 85.25 46 85.25 28 64.25 30.7 64.25 46"/>
          <polygon class="cls-7" points="64.25 48 64.25 63.17 85.25 66 85.25 48 64.25 48"/>
          <polygon class="cls-7" points="62.25 48 46.25 48 46.25 60.68 62.25 62.91 62.25 48"/>
        </g>
      </g>
      <rect class="cls-6" x="98.25" y="4.5" width="48" height="48"/>
      <polygon class="cls-1" points="117.4 41.28 106.39 51.5 103.25 51.5 107.97 38.14 113.16 35.78 117.4 41.28"/>
      <polygon class="cls-1" points="126.1 41.28 137.11 51.5 140.25 51.5 135.53 38.14 130.34 35.78 126.1 41.28"/>
      <polygon class="cls-1" points="126.25 53 117.25 53 119.25 48 124.25 48 126.25 53"/>
      <path class="cls-3" d="M121.39,6.13S111,19.57,111.17,29.71A30.44,30.44,0,0,0,116.67,47h9.43a30.44,30.44,0,0,0,5.5-17.29C131.77,19.57,121.39,6.13,121.39,6.13Z"/>
      <path class="cls-8" d="M131.25,30.59a30.27,30.27,0,0,1-5.19,16.74l-.12.17h-4.72l-.12-.17a29.48,29.48,0,0,1-5.86-16.83c-.06-3.23.67-10.42,8.34-19.69a64.1,64.1,0,0,1,5.22,9.57A26,26,0,0,1,131.25,30.59Z"/>
      <path class="cls-9" d="M128.77,19.49H114a69,69,0,0,1,7.06-12.27l.32-.44.32.44A69,69,0,0,1,128.77,19.49Z"/>
      <path class="cls-5" d="M121.25,6.5S111,19.57,111.17,29.71a31.1,31.1,0,0,0,6.08,17.79h9a36.76,36.76,0,0,0,5-18C131.42,19.36,121.25,6.5,121.25,6.5Z"/>
      <circle class="cls-10" cx="121.25" cy="25.5" r="4"/>
    </g>
  </g>
</svg>
