<svg xmlns="http://www.w3.org/2000/svg" viewBox="0 0 150 105">
  <defs>
    <style>
      .cls-1 {
        fill: #c2c2c2;
        fill-rule: evenodd;
      }

      .cls-2 {
        fill: none;
      }

      .cls-2, .cls-6 {
        stroke: #556a8a;
        stroke-miterlimit: 10;
        stroke-width: 2px;
      }

      .cls-3, .cls-6 {
        fill: #fff;
      }

      .cls-4 {
        fill: #2bc7f4;
      }

      .cls-5 {
        fill: #e5e5e5;
      }

      .cls-7 {
        fill: #556a8a;
      }
    </style>
  </defs>
  <title>ms365enterprise-admin-devices-manage-config-manager-8</title>
  <g id="ICONS">
    <g>
      <path class="cls-1" d="M58.19,37l-3.79-.54c-.27-.81-.27-1.62-.54-2.43l3.25-1.89a1,1,0,0,0,.54-1.35L56.56,28.6c0-.54-.54-.81-1.08-.81l-3.79,1.08a5.89,5.89,0,0,0-1.35-2.16l2.17-3.24a.82.82,0,0,0,0-1.08l-1.89-1.89a.82.82,0,0,0-1.08,0l-3.25,2.16c-.54-.54-1.35-.81-1.89-1.35l.81-3.79c.27-.27,0-.81-.54-1.08l-2.17-.81a1.19,1.19,0,0,0-1.35.27l-1.89,3.24c-.81-.27-1.62-.27-2.71-.54L36,14.81a.86.86,0,0,0-.81-.81H32.47a.86.86,0,0,0-.81.81l-.54,3.79c-.81.27-1.62.27-2.44.54l-1.89-3.24c-.27-.54-.81-.54-1.35-.54L23,16.43c-.27,0-.54.54-.54,1.08l1.08,3.79a5.89,5.89,0,0,0-2.17,1.35l-3.25-2.16a.82.82,0,0,0-1.08,0l-1.89,1.89a.82.82,0,0,0,0,1.08l2.17,3.24c-.54.54-.81,1.35-1.35,1.89l-3.79-.81c-.27-.27-.81,0-1.08.54L10,30.49c0,.54,0,1.08.54,1.35l3.25,1.89c-.27.81-.27,1.89-.54,2.7L9.46,37a.86.86,0,0,0-.81.81v2.7a.72.72,0,0,0,.81.81l3.79.54a7.89,7.89,0,0,0,.54,2.43l-3.25,1.89A1,1,0,0,0,10,47.53L11.09,50c0,.27.54.54,1.08.54L16,49.42a5.89,5.89,0,0,0,1.35,2.16l-2.17,3.24a1.21,1.21,0,0,0,0,1.35L17,57.8c.27.27.81.54,1.08.27l3.25-2.43A4.86,4.86,0,0,0,23.27,57l-.81,3.79c-.27.27,0,.81.54,1.08l2.17,1.08c.54,0,1.08,0,1.35-.54l1.89-3.24a8,8,0,0,0,2.71.54l.54,3.79a.86.86,0,0,0,.81.81h2.71a.86.86,0,0,0,.81-.81l.54-3.79A7.91,7.91,0,0,0,39,59.16l1.89,3.24a1,1,0,0,0,1.35.54l2.44-1.08c.27,0,.54-.54.54-1.08L44.11,57a5.89,5.89,0,0,0,2.17-1.35l3.25,2.43c.27.27.81,0,1.08-.27l1.89-1.62a1.21,1.21,0,0,0,0-1.35l-2.17-3.24a11.45,11.45,0,0,0,1.35-1.89l3.79,1.08A1.45,1.45,0,0,0,56.56,50l1.08-2.16c0-.54,0-1.08-.54-1.35l-3.25-1.89c.27-.81.27-1.62.54-2.7l3.79-.54A.72.72,0,0,0,59,40.5v-2.7a.86.86,0,0,0-.81-.81ZM49.26,43.2a1.25,1.25,0,0,1-1.89.81L41.13,40c-.81-.27-.81-1.08,0-1.62l6.23-4.06a1.4,1.4,0,0,1,1.89.81,19.71,19.71,0,0,1,.54,4.06,16.56,16.56,0,0,1-.54,4.06ZM47.63,31a1.24,1.24,0,0,1-.81,1.89l-7.31,1.62c-.81.27-1.35-.27-1.08-1.08l1.62-7.3c.27-1.08,1.08-1.35,1.89-.81a17.88,17.88,0,0,1,3.25,2.43A17.86,17.86,0,0,1,47.63,31ZM29.77,23.46a19.77,19.77,0,0,1,4.06-.54,19.77,19.77,0,0,1,4.06.54,1.24,1.24,0,0,1,.81,1.89l-4.06,6.49c-.54.81-1.35.81-1.62,0L29,25.36a1.24,1.24,0,0,1,.81-1.89Zm8.12,15.68a4.06,4.06,0,0,1-8.12,0,4.07,4.07,0,0,1,8.12,0ZM25.7,25.09a1.25,1.25,0,0,1,1.89.81l1.62,7.3c.27.81-.27,1.35-1.35,1.35l-7-1.89c-1.08-.27-1.35-1.08-.81-1.89a9.76,9.76,0,0,1,2.44-3.24,17.88,17.88,0,0,1,3.25-2.43ZM18.13,42.93a16.56,16.56,0,0,1-.54-4.06,19.71,19.71,0,0,1,.54-4.06A1.16,1.16,0,0,1,20,34.28l6.5,3.79a1,1,0,0,1,0,1.89L20,43.74c-.81.54-1.62.27-1.89-.81Zm1.62,4.33a1.19,1.19,0,0,1,.81-1.89l7.31-1.89c.81-.27,1.35.27,1.35,1.35l-1.89,7.3a1.4,1.4,0,0,1-1.89.81,17.88,17.88,0,0,1-3.25-2.43c-1.35-1.62-2.44-3.24-2.44-3.24Zm17.87,7.3a16.61,16.61,0,0,1-4.06.54,19.77,19.77,0,0,1-4.06-.54,1.4,1.4,0,0,1-.81-1.89l4.06-6.22c.54-.81,1.35-.81,1.62,0l4.06,6.22c.54.81.27,1.62-.81,1.89Zm4.06-1.62c-.81.54-1.62.27-1.89-.81l-1.62-7.3c-.27-.81.27-1.35,1.35-1.08l7.31,1.62a1.4,1.4,0,0,1,.81,1.89,17.86,17.86,0,0,1-2.44,3.24,28.06,28.06,0,0,1-3.52,2.43Z"/>
      <rect class="cls-2" x="58" y="21" width="36" height="22" rx="2" ry="2"/>
      <path class="cls-3" d="M121,41.15v39.4a2.44,2.44,0,0,1-1.18,2.09,2.41,2.41,0,0,1-1.27.36H33.45A2.45,2.45,0,0,1,31,80.55V41.15A8.19,8.19,0,0,1,39.18,33h73.64A8.19,8.19,0,0,1,121,41.15Z"/>
      <g>
        <rect class="cls-4" x="30" y="53" width="91" height="6"/>
        <path class="cls-5" d="M121,70V80.55a2.44,2.44,0,0,1-1.18,2.09,2.41,2.41,0,0,1-1.27.36H33.45A2.45,2.45,0,0,1,31,80.55V70Z"/>
        <path class="cls-2" d="M112.82,33H39.18A8.19,8.19,0,0,0,31,41.15v39.4A2.46,2.46,0,0,0,33.45,83h85.09a2.44,2.44,0,0,0,1.28-.36A2.46,2.46,0,0,0,121,80.55V41.15A8.19,8.19,0,0,0,112.82,33Z"/>
        <rect class="cls-6" x="53" y="46" width="10" height="19" rx="2" ry="2"/>
        <rect class="cls-6" x="89" y="46" width="10" height="19" rx="2" ry="2"/>
      </g>
      <rect class="cls-7" x="57" y="49" width="2" height="13"/>
      <rect class="cls-7" x="93" y="49" width="2" height="13"/>
    </g>
  </g>
</svg>
