<svg xmlns="http://www.w3.org/2000/svg" viewBox="0 0 150 105">
  <defs>
    <style>
      .cls-1, .cls-7 {
        fill: #fff;
      }

      .cls-1 {
        stroke: #556a8a;
        stroke-miterlimit: 10;
        stroke-width: 2px;
      }

      .cls-2 {
        fill: #e5e5e5;
      }

      .cls-3 {
        fill: #b3b3b3;
      }

      .cls-4 {
        fill: none;
      }

      .cls-5 {
        fill: #ababab;
      }

      .cls-6 {
        fill: #c2c2c2;
        opacity: 0.7;
      }

      .cls-8 {
        fill: #556a8a;
      }

      .cls-9 {
        fill: #55d2f6;
      }

      .cls-10 {
        fill: #2bc7f4;
      }
    </style>
  </defs>
  <title>ms365enterprise-admin-devices-overview-2</title>
  <g id="ICONS">
    <g>
      <rect class="cls-1" x="23" y="14" width="102" height="75" rx="4" ry="4"/>
      <rect class="cls-2" x="27" y="17" width="94" height="64"/>
      <circle class="cls-3" cx="75.73" cy="84.58" r="1.46"/>
      <rect class="cls-4" x="18.14" y="9.49" width="113.72" height="86.02"/>
    </g>
    <path class="cls-5" d="M60.2,74.46a.9.9,0,0,0,.86.54l1.82-.19a.9.9,0,0,0,.68-1l-.06-2.25c-.11-.6,0-1.15,1.72-2.15a1.57,1.57,0,0,1,1.55.09l2.15,1.21a1.06,1.06,0,0,0,1-.18l1.25-1.58a.94.94,0,0,0-.31-1.12l-1.7-1.63a1.14,1.14,0,0,1-.33-1.4s.49-2.27,1.44-2.44l2.09-.49a1.12,1.12,0,0,0,.68-1l-.34-2a.69.69,0,0,0-.81-.55H71.8l-2.26.07c-.6.09-1.88-1.49-2.15-1.76a2.25,2.25,0,0,1,0-1.69l1.21-1.86a1,1,0,0,0-.18-1.26l-1.58-.94a.9.9,0,0,0-1.13,0l-1.48,1.86c-.37.45-1.08.88-2.68.23,0,0-1.18-.69-1.32-1.25l-.46-2.36a.9.9,0,0,0-.86-.54l-2,.34a.69.69,0,0,0-.51.84v0l-.07,2.39c0,.84-1.36,1.73-1.64,2a1.48,1.48,0,0,1-1.69,0l-2-1.34a1.1,1.1,0,0,0-1.12.31l-1.25,1.58A1.24,1.24,0,0,0,49,56.21l1.74,1.64c1,.76.41,1.87.21,2.67-.09.43-.26.86-1.24,1l-2.24.63a.9.9,0,0,0-.54.86l.34,2a.9.9,0,0,0,.72.68l2.39-.2c.84,0,1.14.24,1.29.67a12.6,12.6,0,0,1,.73,1.25,1.26,1.26,0,0,1,.18,1.51l-1.34,2A1.09,1.09,0,0,0,51.54,72L53,73.11a.9.9,0,0,0,1.13,0l1.5-1.87a1.43,1.43,0,0,1,1.53-.45l1.28.38c.56,0,.86.26,1.15,1.09l.62,2.23m4.57-13.22a5,5,0,0,1-4.07,5.46,4.6,4.6,0,0,1-5.4-3.63q0-.22-.06-.44a4.72,4.72,0,0,1,3.93-5.32,4.79,4.79,0,0,1,5.6,3.8l0,.12"/>
    <path class="cls-6" d="M121,17H73.9l0,.07L73.66,17H66.57l-1.08,2.32a1.63,1.63,0,0,0,.67,1.91l4.38,2.83c-.43,1.11-.48,2.24-.91,3.35l-5.28.51a1.65,1.65,0,0,0-1.2,1.45L63,32.74a1.64,1.64,0,0,0,1,1.56l5.42.81A21.72,21.72,0,0,0,70,38.89l-4.82,2.6a1.19,1.19,0,0,0-.64,1.67l1.17,3.25a1.76,1.76,0,0,0,1.65,1l5.32-1.26L74.28,49l-3.39,4.17a1.77,1.77,0,0,0,.11,1.7l2.51,2.74a1.42,1.42,0,0,0,1.67.27l4.47-3c.91.61,2,1.41,2.91,2L81.2,62.15a1.26,1.26,0,0,0,.68,1.53l3.3,1.66a1.62,1.62,0,0,0,1.72-.49l2.83-4.39c1.13.05,2.24.48,3.36.53l.31,5.47a1.64,1.64,0,0,0,1.45,1.19l3.56.35a2.26,2.26,0,0,0,1.37-1.25l1-5.22c1.32-.13,2.46-.46,3.78-.58L107,65.57a1.29,1.29,0,0,0,1.67.64L111.89,65a1.53,1.53,0,0,0,1-1.65l-1.08-5.12a13.15,13.15,0,0,0,2.91-1.94l4.17,3.39a1.26,1.26,0,0,0,1.88.08l.21-.19V52l-.57-.85a7.65,7.65,0,0,0,.57-.57ZM98,41a9,9,0,1,1,9-9A9,9,0,0,1,98,41Z"/>
    <path class="cls-7" d="M34,47a19,19,0,1,1,13.43-5.57A18.87,18.87,0,0,1,34,47Z"/>
    <g>
      <g>
        <path class="cls-8" d="M34,10a18,18,0,1,1-12.72,5.27A17.88,17.88,0,0,1,34,10h0m0-2a20,20,0,1,0,14.14,5.86A19.93,19.93,0,0,0,34,8Z"/>
        <polygon class="cls-9" points="23 17 30.95 32.03 45.98 39.98 36.37 25.99 23 17"/>
        <polygon class="cls-10" points="23 17 45.98 39.98 38.03 24.95 23 17"/>
        <rect class="cls-4" x="14" y="8" width="40" height="40"/>
        <line class="cls-1" x1="34" y1="12" x2="34" y2="16"/>
        <line class="cls-1" x1="34" y1="40" x2="34" y2="44"/>
        <line class="cls-1" x1="18" y1="28" x2="23" y2="28"/>
        <line class="cls-1" x1="45" y1="28" x2="50" y2="28"/>
      </g>
      <circle class="cls-7" cx="34" cy="28" r="2"/>
    </g>
  </g>
</svg>
