<svg xmlns="http://www.w3.org/2000/svg" viewBox="0 0 150 105">
  <defs>
    <style>
      .cls-1, .cls-9 {
        fill: #fff;
      }

      .cls-2 {
        fill: #e5e5e5;
      }

      .cls-3, .cls-7 {
        fill: none;
      }

      .cls-3, .cls-9 {
        stroke: #556a8a;
        stroke-miterlimit: 10;
        stroke-width: 2px;
      }

      .cls-4 {
        fill: #556a8a;
      }

      .cls-5 {
        fill: #0072c6;
      }

      .cls-6 {
        fill: #c2c2c2;
      }

      .cls-8 {
        fill: #ffb900;
      }
    </style>
  </defs>
  <title>ms365enterprise-admin-devices-deploy-config-manager-7</title>
  <g id="ICONS">
    <g>
      <g>
        <path class="cls-1" d="M103,83.75H29V22.52A2.54,2.54,0,0,1,31.51,20h89.94A2.54,2.54,0,0,1,124,22.52V54H103Z"/>
        <path class="cls-2" d="M124,22.52V30H29V22.52A2.54,2.54,0,0,1,31.51,20h89.94A2.54,2.54,0,0,1,124,22.52Z"/>
        <path class="cls-3" d="M124,64V22.52A2.54,2.54,0,0,0,121.45,20H31.51A2.54,2.54,0,0,0,29,22.52V83.75h75"/>
        <path class="cls-4" d="M20,81s4,5,8,5h82c4,0,8-5,8-5Z"/>
      </g>
      <g id="Completed_Icons" data-name="Completed Icons">
        <g>
          <path class="cls-5" d="M119,70c0-3.2,3.5-4.5,8-5.1V41a3,3,0,0,0-3-3H103a3,3,0,0,0-3,3V91h19ZM105,45h17v2H105Z"/>
          <path class="cls-5" d="M120,73.5v17c.4,3.8,8.4,4.5,11.1,4.5s10.6-.3,10.9-4.1V73.3c-2.1,1.6-6.6,2.4-10.8,2.4S122.2,75.2,120,73.5Z"/>
          <ellipse class="cls-5" cx="130.85" cy="70.55" rx="10.9" ry="3.4"/>
        </g>
      </g>
      <g>
        <polygon class="cls-6" points="68.54 52.23 68.54 39.22 55 40.96 55 52.23 68.54 52.23"/>
        <polygon class="cls-6" points="70.23 52.23 88 52.23 88 37 70.23 39.28 70.23 52.23"/>
        <polygon class="cls-6" points="70.23 53.92 70.23 66.76 88 69.15 88 53.92 70.23 53.92"/>
        <polygon class="cls-6" points="68.54 53.92 55 53.92 55 64.66 68.54 66.54 68.54 53.92"/>
      </g>
    </g>
    <rect class="cls-1" x="105" y="75" width="14" height="3"/>
    <rect class="cls-1" x="105" y="81" width="14" height="3"/>
    <g>
      <rect class="cls-7" x="6" y="8" width="48" height="48"/>
      <polygon class="cls-4" points="25.15 44.78 14.14 55 11 55 15.72 41.64 20.91 39.28 25.15 44.78"/>
      <polygon class="cls-4" points="33.85 44.78 44.86 55 48 55 43.28 41.64 38.09 39.28 33.85 44.78"/>
      <polygon class="cls-4" points="34 56 25 56 27 51 32 51 34 56"/>
      <path class="cls-1" d="M29.14,9.63S18.75,23.07,18.92,33.21a30.44,30.44,0,0,0,5.5,17.29h9.43a30.44,30.44,0,0,0,5.5-17.29C39.52,23.07,29.14,9.63,29.14,9.63Z"/>
      <path class="cls-2" d="M39,34.09a30.27,30.27,0,0,1-5.19,16.74l-.12.17H29l-.12-.17A29.48,29.48,0,0,1,23,34c-.06-3.23.67-10.42,8.34-19.69a64.1,64.1,0,0,1,5.22,9.57A26,26,0,0,1,39,34.09Z"/>
      <path class="cls-8" d="M36.52,23H21.76a69,69,0,0,1,7.06-12.27l.32-.44.32.44A69,69,0,0,1,36.52,23Z"/>
      <path class="cls-3" d="M29,10S18.75,23.07,18.92,33.21A31.1,31.1,0,0,0,25,51h9a36.76,36.76,0,0,0,5-18C39.17,22.86,29,10,29,10Z"/>
      <circle class="cls-9" cx="29" cy="29" r="4"/>
    </g>
  </g>
</svg>
