<svg xmlns="http://www.w3.org/2000/svg" viewBox="0 0 150 105">
  <defs>
    <style>
      .cls-1 {
        fill: #556a8a;
      }

      .cls-2 {
        fill: #fff;
      }

      .cls-3 {
        fill: #ace8f9;
      }

      .cls-4 {
        fill: none;
      }

      .cls-4, .cls-5 {
        stroke: #556a8a;
        stroke-miterlimit: 10;
        stroke-width: 2px;
      }

      .cls-5 {
        fill: #fcfcfc;
      }

      .cls-6 {
        fill: #e5e5e5;
      }

      .cls-7 {
        fill: #0072c6;
      }

      .cls-8 {
        fill: #ababab;
      }
    </style>
  </defs>
  <title>ms365enterprise-admin-devices-win10-intune-4</title>
  <g id="ICONS">
    <g>
      <g>
        <g>
          <polygon class="cls-1" points="74.26 67.72 70.91 67.72 71.47 59.9 73.7 59.9 74.26 67.72"/>
          <polygon class="cls-1" points="86.67 66 57.78 66 54.44 69 90 69 86.67 66"/>
        </g>
        <path class="cls-2" d="M112,20.33V60H36V20.33A2.35,2.35,0,0,1,38.36,18h71.28A2.35,2.35,0,0,1,112,20.33Z"/>
        <path class="cls-3" d="M112,20.33V28H36V20.33A2.35,2.35,0,0,1,38.36,18h71.28A2.35,2.35,0,0,1,112,20.33Z"/>
        <path class="cls-4" d="M112,60V20.33A2.35,2.35,0,0,0,109.64,18H38.36A2.35,2.35,0,0,0,36,20.33V60Z"/>
        <rect class="cls-5" x="86" y="44" width="50" height="37" rx="4" ry="4"/>
        <polygon class="cls-5" points="81 81 86 76.95 136 77 140 81 81 81"/>
        <rect class="cls-6" x="89" y="47.39" width="44" height="26"/>
      </g>
      <path class="cls-5" d="M54.79,40,12.1,42A1.16,1.16,0,0,0,11,43.16V76.72L54.79,79A1.16,1.16,0,0,0,56,77.84V41.16A1.16,1.16,0,0,0,54.79,40Z"/>
      <polygon class="cls-6" points="15 72.92 15 45.88 52 44.14 52 74.85 15 72.92"/>
    </g>
    <g>
      <path class="cls-7" d="M116,68c-5.45,0-5-.37-5-3.66h-4.51c0,3.29-.09,3.66-5.54,3.66v2h15Z"/>
      <polygon class="cls-7" points="120.13 67.38 123.88 64.56 120.13 61.83 120.13 67.38"/>
      <path class="cls-7" d="M121,65V63H99V51h20v4h2V50c0-.52-1-1-1.5-1H98c-.52,0-1,.77-1,1.29V64a1.08,1.08,0,0,0,1,1h8.5c0,2.6,4.43,2.6,4.46,0Z"/>
      <circle class="cls-7" cx="108" cy="57" r="3"/>
      <path class="cls-7" d="M126.13,56H110.75v2H125V71h-6V66h-2v6.13a.86.86,0,0,0,.87.87h8.27a.86.86,0,0,0,.87-.87V57A1,1,0,0,0,126.13,56Z"/>
    </g>
    <rect class="cls-8" x="30" y="72" width="3" height="2"/>
  </g>
</svg>
