<?xml version="1.0" encoding="UTF-8"?>
<svg width="100px" height="118px" viewBox="0 0 100 118" version="1.1" xmlns="http://www.w3.org/2000/svg" xmlns:xlink="http://www.w3.org/1999/xlink">
    <!-- Generator: Sketch 53.2 (72643) - https://sketchapp.com -->
    <title>M365 Fundamentals/m365-fundamentals</title>
    <desc>Created with Sketch.</desc>
    <defs>
        <path d="M42.7425,1.49663266 C44.3745,0.498877554 46.1865,0 48,0 C49.8135,0 51.627,0.498877554 53.256,1.49663266 L90.591,24.3316189 C93.933,26.3773408 96,30.2031485 96,34.3529027 L96,79.6470973 C96,83.7952317 93.933,87.6242789 90.591,89.6683811 L53.256,112.504987 C51.627,113.501122 49.8135,114 48,114 C46.1865,114 44.3745,113.501122 42.7425,112.504987 L5.409,89.6683811 C2.0655,87.6242789 0,83.7952317 0,79.6470973 L0,34.3529027 C0,30.2031485 2.0655,26.3773408 5.409,24.3316189 L42.7425,1.49663266 Z" id="path-1"></path>
        <filter x="-6.8%" y="-6.9%" width="113.7%" height="114.6%" filterUnits="objectBoundingBox" id="filter-3">
            <feOffset dx="0" dy="2" in="SourceAlpha" result="shadowOffsetOuter1"></feOffset>
            <feColorMatrix values="0 0 0 0 0   0 0 0 0 0   0 0 0 0 0  0 0 0 0.101647418 0" type="matrix" in="shadowOffsetOuter1" result="shadowMatrixOuter1"></feColorMatrix>
            <feMerge>
                <feMergeNode in="shadowMatrixOuter1"></feMergeNode>
                <feMergeNode in="SourceGraphic"></feMergeNode>
            </feMerge>
        </filter>
        <filter x="-5.3%" y="-8.5%" width="110.7%" height="117.0%" filterUnits="objectBoundingBox" id="filter-4">
            <feOffset dx="0" dy="2" in="SourceAlpha" result="shadowOffsetOuter1"></feOffset>
            <feColorMatrix values="0 0 0 0 0   0 0 0 0 0   0 0 0 0 0  0 0 0 0.0964956975 0" type="matrix" in="shadowOffsetOuter1" result="shadowMatrixOuter1"></feColorMatrix>
            <feMerge>
                <feMergeNode in="shadowMatrixOuter1"></feMergeNode>
                <feMergeNode in="SourceGraphic"></feMergeNode>
            </feMerge>
        </filter>
        <path d="M21.6137933,34.4151927 L21.6137933,31.66918 C22.5724062,32.3681685 23.6907711,32.7176575 24.9689215,32.7176575 C25.7744226,32.7176575 26.4018387,32.5445773 26.8511884,32.1984115 C27.3005382,31.8522458 27.5252097,31.369618 27.5252097,30.7505139 C27.5252097,30.1114387 27.2472827,29.6188256 26.6914204,29.2726598 C26.1355581,28.926494 25.3716749,28.7534138 24.399748,28.7534138 L23.0716764,28.7534138 L23.0716764,26.3369226 L24.299893,26.3369226 C26.1638625,26.3369226 27.0958332,25.7178277 27.0958332,24.4796194 C27.0958332,23.3146385 26.3802128,22.7321568 24.9489505,22.7321568 C23.9903377,22.7321568 23.0583669,23.0417042 22.1530103,23.6608084 L22.1530103,21.0845492 C23.1582224,20.5786146 24.3298428,20.3256511 25.6679066,20.3256511 C27.132454,20.3256511 28.272454,20.6551694 29.0879406,21.3142157 C29.9034272,21.9732621 30.3111644,22.8286781 30.3111644,23.8804894 C30.3111644,25.7511159 29.3625514,26.9227363 27.4652967,27.3953857 L27.4652967,27.4453132 C28.4771659,27.5717968 29.2759979,27.9395924 29.8618169,28.548711 C30.4476359,29.1578296 30.740541,29.9050704 30.740541,30.7904559 C30.740541,32.1285197 30.2512563,33.1869722 29.2726724,33.9658451 C28.2940884,34.7447181 26.9427308,35.1341487 25.2185591,35.1341487 C23.7406976,35.1341487 22.539121,34.8944991 21.6137933,34.4151927 Z M43.2923154,30.1214274 C43.2923154,30.8270729 43.1691621,31.4861094 42.9228519,32.0985565 C42.6765416,32.7110036 42.3337095,33.2418941 41.8943453,33.6912439 C41.4549811,34.1405936 40.9324117,34.4934111 40.3266217,34.7497069 C39.7208316,35.0060027 39.0584667,35.1341487 38.339507,35.1341487 C37.5340059,35.1341487 36.8133928,34.9843677 36.1776461,34.6848012 C35.5418994,34.3852347 35.004352,33.9508697 34.5649877,33.3816933 C34.1256235,32.812517 33.7894484,32.1152031 33.5564522,31.2897309 C33.323456,30.4642588 33.2069596,29.5289595 33.2069596,28.4838052 C33.2069596,27.252254 33.3584049,26.1355533 33.6612999,25.1336697 C33.964195,24.1317862 34.3968957,23.2747059 34.959415,22.5624033 C35.5219344,21.8501007 36.2026059,21.2992394 37.0014499,20.9098029 C37.800294,20.5203665 38.6989801,20.3256511 39.6975351,20.3256511 C40.8026027,20.3256511 41.6613472,20.4554614 42.2737943,20.7150857 L42.2737943,23.3512579 C41.5481776,22.9385218 40.7560025,22.7321568 39.8972451,22.7321568 C39.3646824,22.7321568 38.8820547,22.8353393 38.4493475,23.0417073 C38.0166403,23.2480754 37.6455163,23.5409805 37.3359642,23.9204314 C37.0264121,24.2998823 36.783434,24.7575465 36.6070226,25.2934378 C36.4306113,25.829329 36.3357499,26.4267888 36.3224359,27.0858351 L36.3823489,27.0858351 C37.0613663,26.1471934 38.0632349,25.6778795 39.3879846,25.6778795 C39.9804606,25.6778795 40.5163438,25.7843905 40.9956502,25.9974156 C41.4749567,26.2104406 41.8843581,26.5116669 42.2238668,26.9011034 C42.5633755,27.2905398 42.8263244,27.7581895 43.0127214,28.3040662 C43.1991183,28.849943 43.2923154,29.455724 43.2923154,30.1214274 Z M40.2067957,30.3211374 C40.2067957,28.7833626 39.5777154,28.0144867 38.319536,28.0144867 C38.0332836,28.0144867 37.7736631,28.0677422 37.540667,28.1742547 C37.3076708,28.2807673 37.1079628,28.4305483 36.9415369,28.6236022 C36.7751111,28.8166562 36.6469651,29.0446562 36.5570951,29.307609 C36.4672252,29.5705619 36.4222909,29.8618027 36.4222909,30.1813404 C36.4222909,30.5341632 36.4688894,30.8636814 36.5620879,31.1699049 C36.6552864,31.4761285 36.7867608,31.7440701 36.9565152,31.9737377 C37.1262695,32.2034054 37.3276418,32.3848069 37.560638,32.5179475 C37.7936341,32.6510882 38.0532546,32.7176575 38.339507,32.7176575 C38.6257595,32.7176575 38.8837157,32.6594094 39.1133833,32.5429113 C39.343051,32.4264132 39.5394305,32.2633183 39.7025279,32.0536217 C39.8656252,31.8439252 39.9904427,31.5909617 40.0769842,31.2947237 C40.1635256,30.9984857 40.2067957,30.6739602 40.2067957,30.3211374 Z M45.3892705,34.5150477 L45.3892705,31.8189625 C46.3678545,32.4180955 47.4096647,32.7176575 48.5147323,32.7176575 C49.3468615,32.7176575 49.9975768,32.5196138 50.4668977,32.1235203 C50.9362185,31.7274267 51.1708755,31.1898793 51.1708755,30.5108619 C51.1708755,29.0929137 50.1690069,28.3839502 48.1652397,28.3839502 C47.426309,28.3839502 46.5742215,28.4405342 45.6089516,28.5537037 L46.1481686,20.5653032 L53.7271637,20.5653032 L53.7271637,23.1415623 L48.5546743,23.1415623 L48.3549643,26.0074011 C48.8675559,25.9674589 49.310242,25.9474881 49.6830359,25.9474881 C51.1542403,25.9474881 52.3058899,26.3335902 53.1380191,27.1058061 C53.9701483,27.8780221 54.3862067,28.9165037 54.3862067,30.2212824 C54.3862067,31.6658587 53.8902651,32.8458002 52.8983671,33.7611424 C51.9064691,34.6764845 50.5617684,35.1341487 48.8642248,35.1341487 C47.4862188,35.1341487 46.3279123,34.9277838 45.3892705,34.5150477 Z" id="path-5"></path>
        <filter x="-1.5%" y="-3.4%" width="103.1%" height="113.5%" filterUnits="objectBoundingBox" id="filter-6">
            <feOffset dx="0" dy="1" in="SourceAlpha" result="shadowOffsetOuter1"></feOffset>
            <feColorMatrix values="0 0 0 0 0   0 0 0 0 0   0 0 0 0 0  0 0 0 0.0977411685 0" type="matrix" in="shadowOffsetOuter1"></feColorMatrix>
        </filter>
    </defs>
    <g id="Badges" stroke="none" stroke-width="1" fill="none" fill-rule="evenodd">
        <g id="M365-Fundamentals-1" transform="translate(-50.000000, -50.000000)">
            <g id="M365-Fundamentals/m365-fundamentals" transform="translate(50.000000, 50.000000)">
                <g id="Mask" transform="translate(2.000000, 2.000000)">
                    <mask id="mask-2" fill="white">
                        <use xlink:href="#path-1"></use>
                    </mask>
                    <use id="Trophy-1" fill="#55A2FF" xlink:href="#path-1"></use>
                    <g id="Gear" filter="url(#filter-3)" mask="url(#mask-2)">
                        <g transform="translate(18.750000, 35.720850)">
                            <path d="M37.8009,28.8 C37.8009,33.7626 33.7626,37.8 28.8009,37.8 C23.8383,37.8 19.8009,33.7626 19.8009,28.8 C19.8009,23.8374 23.8383,19.8 28.8009,19.8 C33.7626,19.8 37.8009,23.8374 37.8009,28.8 Z M54.4338,23.9526 L50.2488,23.022 C49.9059,22.9464 49.3722,22.4604 49.2651,22.1256 C49.2516,22.0797 49.2345,22.0347 49.2156,21.9906 L48.0609,19.1844 C48.0411,19.1358 48.0186,19.0872 47.9943,19.0404 C47.8323,18.7299 47.8638,18.0144 48.0519,17.7201 L50.3541,14.1021 C51.3306,12.5676 51.0876,10.3581 49.8024,9.072 L48.5289,7.7985 C47.2734,6.5421 45.0009,6.291 43.4988,7.2468 L39.8799,9.5481 C39.7593,9.6264 39.474,9.7101 39.1356,9.7101 C38.8584,9.7101 38.6523,9.6543 38.5605,9.6066 C38.5146,9.5814 38.4651,9.5598 38.4156,9.54 L35.6103,8.3844 C35.5662,8.3664 35.5212,8.3493 35.4753,8.3358 C35.1414,8.2287 34.6545,7.695 34.5789,7.3512 L33.6492,3.1671 C33.2541,1.3914 31.5198,0 29.7009,0 L27.9009,0 C26.0811,0 24.3477,1.3914 23.9535,3.1662 L23.0229,7.353 C22.9464,7.695 22.4604,8.2287 22.1265,8.3358 C22.0806,8.3493 22.0356,8.3664 21.9906,8.3844 L19.1853,9.54 C19.1358,9.5598 19.0872,9.5814 19.0404,9.6066 C18.9495,9.6543 18.7434,9.7101 18.4653,9.7101 C18.1269,9.7101 17.8416,9.6255 17.7201,9.5481 L14.103,7.2477 C12.6009,6.2919 10.3275,6.5439 9.0729,7.7994 L7.7994,9.072 C6.5133,10.359 6.2712,12.5685 7.2477,14.103 L9.5499,17.7201 C9.7371,18.0153 9.7686,18.729 9.6075,19.0395 C9.5832,19.0872 9.5598,19.1358 9.54,19.1844 L8.3853,21.9906 C8.3673,22.0347 8.3502,22.0797 8.3358,22.1256 C8.2287,22.4604 7.6959,22.9464 7.3521,23.0229 L3.168,23.9517 C1.3923,24.3468 0.0009,26.0802 0.0009,27.9 L0.0009,29.7 C0.0009,31.5189 1.3923,33.2532 3.1671,33.6474 L7.353,34.5771 C7.6959,34.6536 8.2287,35.1396 8.3358,35.4744 C8.3502,35.5203 8.3673,35.5653 8.3853,35.6094 L9.54,38.4156 C9.5598,38.4642 9.5823,38.5119 9.6075,38.5596 C9.7686,38.8692 9.7371,39.5847 9.549,39.8799 L7.2477,43.497 C6.2703,45.0315 6.5133,47.2419 7.7994,48.528 L9.0729,49.8015 C10.3266,51.0543 12.5973,51.3099 14.1039,50.3532 L17.7192,48.0519 C17.8416,47.9736 18.1269,47.8899 18.4653,47.8899 C18.7434,47.8899 18.9495,47.9448 19.0404,47.9934 C19.0881,48.0168 19.1358,48.0402 19.1853,48.06 L21.9906,49.2156 C22.0356,49.2336 22.0806,49.2498 22.1265,49.2642 C22.4604,49.3713 22.9464,49.905 23.0229,50.2479 L23.9535,54.4329 C24.3477,56.2086 26.0811,57.6 27.9009,57.6 L29.7009,57.6 C31.5198,57.6 33.2532,56.2086 33.6483,54.4329 L34.5789,50.2479 C34.6545,49.905 35.1414,49.3713 35.4753,49.2642 C35.5212,49.2498 35.5662,49.2336 35.6103,49.2156 L38.4156,48.06 C38.4651,48.0402 38.5137,48.0168 38.5605,47.9934 C38.6523,47.9448 38.8584,47.8899 39.1347,47.8899 C39.4731,47.8899 39.7593,47.9736 39.8799,48.0519 L43.4979,50.3523 C44.9991,51.3099 47.2734,51.0561 48.5289,49.8015 L49.8015,48.5289 C51.0876,47.2428 51.3306,45.0324 50.3541,43.497 L48.0519,39.8799 C47.8638,39.5847 47.8323,38.8701 47.9943,38.5605 C48.0186,38.5128 48.0411,38.4651 48.0609,38.4165 L49.2156,35.6094 C49.2345,35.5653 49.2516,35.5203 49.2651,35.4744 C49.3722,35.1396 49.9059,34.6536 50.2497,34.5771 L54.4329,33.6474 C56.2095,33.2532 57.6009,31.5189 57.6009,29.7 L57.6009,27.9 C57.6009,26.0802 56.2095,24.3468 54.4338,23.9526 L54.4338,23.9526 Z" id="Fill-376" fill="#E1E4E1"></path>
                            <path d="M14.1039,50.3532 L17.7192,48.0519 C17.8416,47.9736 18.1269,47.8899 18.4653,47.8899 C18.7434,47.8899 18.9495,47.9448 19.0404,47.9934 C19.0881,48.0168 19.1358,48.0402 19.1853,48.06 L21.9906,49.2156 C22.0356,49.2336 22.0806,49.2498 22.1265,49.2642 C22.4604,49.3713 22.9464,49.905 23.0229,50.2479 L23.9535,54.4329 C24.3477,56.2086 26.0811,57.6 27.9009,57.6 L29.7009,57.6 C31.5198,57.6 33.2532,56.2086 33.6483,54.4329 L34.5789,50.2479 C34.6545,49.905 35.1414,49.3713 35.4753,49.2642 C35.5212,49.2498 35.5662,49.2336 35.6103,49.2156 L38.4156,48.06 C38.4651,48.0402 38.5137,48.0168 38.5605,47.9934 C38.6523,47.9448 38.8584,47.8899 39.1347,47.8899 C39.4731,47.8899 39.7593,47.9736 39.8799,48.0519 L43.4979,50.3523 C44.9991,51.3099 47.2734,51.0561 48.5289,49.8015 L49.8015,48.5289 C51.0876,47.2428 51.3306,45.0324 50.3541,43.497 L48.0519,39.8799 C47.8638,39.5847 47.8323,38.8701 47.9943,38.5605 C48.0186,38.5128 48.0411,38.4651 48.0609,38.4165 L49.2156,35.6094 C49.2345,35.5653 49.2516,35.5203 49.2651,35.4744 C49.3722,35.1396 49.9059,34.6536 50.2497,34.5771 L54.4329,33.6474 C56.2095,33.2532 57.6009,31.5189 57.6009,29.7 L57.6009,27.9 C57.6009,26.0802 56.2095,24.3468 54.4338,23.9526 L50.2488,23.022 C49.9059,22.9464 49.3722,22.4604 49.2651,22.1256 C49.2516,22.0797 49.2345,22.0347 49.2156,21.9906 L48.0609,19.1844 C48.0411,19.1358 48.0186,19.0872 47.9943,19.0404 C47.8323,18.7299 47.8638,18.0144 48.0519,17.7201 L50.3541,14.1021 C51.3306,12.5676 51.0876,10.3581 49.8024,9.072 L49.1652,8.4348 L35.1612,22.4388 C36.7911,24.0687 37.8009,26.3187 37.8009,28.8 C37.8009,33.7626 33.7626,37.8 28.8009,37.8 C26.3196,37.8 24.0696,36.7902 22.4397,35.1612 L8.4366,49.1643 L9.0729,49.8015 C10.3266,51.0543 12.5973,51.3099 14.1039,50.3532" id="Fill-377" fill="#C4CBCD"></path>
                            <path d="M28.8009,37.8 C23.8302,37.8 19.8009,33.7707 19.8009,28.8 C19.8009,23.8293 23.8302,19.8 28.8009,19.8 C33.7716,19.8 37.8009,23.8293 37.8009,28.8 C37.8009,33.7707 33.7716,37.8 28.8009,37.8 Z M28.8009,16.2 C21.8421,16.2 16.2009,21.8412 16.2009,28.8 C16.2009,35.7588 21.8421,41.4 28.8009,41.4 C35.7597,41.4 41.4009,35.7588 41.4009,28.8 C41.4009,21.8412 35.7597,16.2 28.8009,16.2 L28.8009,16.2 Z" id="Fill-378" fill="#C4CBCD"></path>
                            <path d="M37.8009,28.8 C37.8009,33.7707 33.7716,37.8 28.8009,37.8 C26.3151,37.8 24.0651,36.7929 22.437,35.1639 L19.8909,37.7091 C22.1715,39.9897 25.3215,41.4 28.8009,41.4 C35.7597,41.4 41.4009,35.7588 41.4009,28.8 C41.4009,25.3206 39.9906,22.1706 37.7109,19.89 L35.1648,22.4361 C36.7938,24.0642 37.8009,26.3142 37.8009,28.8" id="Fill-379" fill="#E1E4E1"></path>
                        </g>
                    </g>
                    <g id="Group-7" mask="url(#mask-2)">
                        <g transform="translate(10.000000, 20.000000)">
                            <g id="Cloud" filter="url(#filter-4)" stroke-width="1" fill="none" fill-rule="evenodd" transform="translate(0.500000, 0.679150)">
                                <path d="M16.7566406,14.117625 C18.3785156,6.064175 25.4742188,0 33.984375,0 C41.5921875,0 48.0515625,4.853925 50.4984375,11.63485 C51.8859375,10.96275 53.4351563,10.575 55.078125,10.575 C60.9035156,10.575 65.625,15.309075 65.625,21.15 C65.625,21.31685 65.6074219,21.477825 65.6003906,21.642325 C71.0214844,23.171 75,28.151825 75,34.075 C75,41.213125 69.2285156,47 62.109375,47 L16.40625,47 C7.3453125,47 0,39.6351 0,30.55 C0,21.4649 7.3453125,14.1 16.40625,14.1 C16.5246094,14.1 16.6394531,14.115275 16.7566406,14.117625 Z" id="Fill-11" fill="#FFFFFF"></path>
                                <path d="M65.6993058,21.6777766 C65.7057556,21.5140977 65.593714,21.0258023 65.593714,20.8597851 C65.593714,17.3570572 63.8463672,14.6569487 61.4265876,12.7442441 C62.5854158,14.4792402 63.8500403,16.8628215 63.8500403,19.1718628 C63.8500403,19.9925955 63.7757693,20.4647107 63.7359301,21.0688382 C64.5055903,21.2515659 64.9317702,21.4439496 65.6993058,21.6777766 Z" id="Fill-12" fill="#C4CBCD" opacity="0.5"></path>
                                <path d="M61.6656321,47 C69.596731,47 74.7425208,41.5115727 74.9916267,34.4183976 C75.1573057,29.7086053 72.878166,25.8731689 69.3072553,23.4470562 C71.085073,26.1153054 71.8860272,29.1376855 71.2750126,32.7103858 C70.4207671,37.7038576 66.6277761,41.8106825 61.7596344,43.0356083 C59.0394441,43.7204748 56.4355817,43.4961424 54.1290013,42.6462908 C55.4250574,40.874184 56.199401,38.6902077 56.199401,36.3175074 C56.199401,32.7614243 54.4721096,29.6195846 51.8271211,27.6777448 C53.4216344,29.8949555 54.2065532,32.7448071 53.6930659,35.7952522 C52.9551482,40.1845697 49.4547392,43.7216617 45.11066,44.4682493 C44.2082384,44.6225519 43.3234422,44.6605341 42.4680216,44.5952522 C39.1156662,44.3364985 36.3508249,41.8498516 35.4178525,38.5869436 C35.1992973,37.820178 35.0488937,37.0344214 35.0488937,36.3175074 C35.0488937,35.8866469 35.0794444,35.464095 35.1311457,35.0474777 C35.3379506,33.2836795 35.9665907,31.651632 36.9183635,30.2593472 C35.5670811,30.8077151 34.1394219,31.2041543 32.6483111,31.4011869 C32.6682866,31.062908 32.6988373,30.727003 32.6988373,30.3827893 C32.6988373,24.8848665 30.0444487,20.0255193 25.971801,17 C28.4358351,20.3875371 29.68254,24.7353116 28.9786981,29.4023739 C27.9129475,36.4718101 22.2763373,42.1655786 15.2778695,43.2421365 C10.6576587,43.9531157 6.35353043,42.6937685 3,40.2047478 C5.99514684,44.3186944 10.8057122,47 16.2484428,47 L45.6241473,47 L61.6656321,47 Z" id="Fill-13" fill="#E6E6E6" opacity="0.5"></path>
                                <path d="M48.7052423,26 C50.1555744,23.3921538 50.6737224,20.2401073 51,17.1396923 C51.611693,11.32715 48.6243121,6.76702277 44.5050525,3.53994585 C46.6336381,6.49574072 47.6087325,9.61928205 47.6087325,13.6012308 C47.6087325,18.2861538 45.8509255,22.5311282 43,25.6909744 C43.7551222,25.5046154 44.538505,25.3961026 45.3478875,25.3961026 C46.5257878,25.3961026 47.652819,25.6154872 48.7052423,26 Z" id="Fill-14" fill="#E6E6E6" opacity="0.5"></path>
                            </g>
                            <circle id="Oval" fill="#FFFFFF" fill-rule="nonzero" cx="38" cy="29.1791501" r="18.5"></circle>
                            <g id="365" fill="none">
                                <use fill="black" fill-opacity="1" filter="url(#filter-6)" xlink:href="#path-5"></use>
                                <use fill="#182A37" fill-rule="evenodd" xlink:href="#path-5"></use>
                            </g>
                        </g>
                    </g>
                </g>
                <g id="Azure-Hex-Border" stroke="#0078D4" stroke-width="4">
                    <path d="M45.5620146,3.25834407 L6.67338401,26.8942953 C3.79673288,28.6432593 2,31.9508238 2,35.5582677 L2,82.4417323 C2,86.0486597 3.79764663,89.3586805 6.67318764,91.1055853 L45.560618,114.742485 C46.9289662,115.572418 48.4546283,116 50,116 C51.5458817,116 53.0723633,115.572188 54.4362178,114.743457 L93.3268764,91.1055464 C96.2016145,89.3583456 98,86.0476286 98,82.4417323 L98,35.5582677 C98,31.9518547 96.202529,28.6435953 93.3268966,26.8944659 L54.4351916,3.25759524 C53.0721095,2.42798656 51.5462432,2 50,2 C48.4543284,2 46.9293388,2.42772325 45.5620146,3.25834407 Z M45.5620146,3.25834407 C45.5619597,3.25837737 45.5619049,3.25841067 45.5618501,3.25844398 L45.5621963,3.25823359 L45.5620146,3.25834407 Z"></path>
                </g>
            </g>
        </g>
    </g>
</svg>