<svg xmlns="http://www.w3.org/2000/svg" viewBox="0 0 150 105">
  <defs>
    <style>
      .cls-1, .cls-7 {
        fill: #556a8a;
      }

      .cls-1 {
        isolation: isolate;
      }

      .cls-2 {
        fill: #55d2f6;
      }

      .cls-3, .cls-5 {
        fill: #fff;
      }

      .cls-4 {
        fill: #80def9;
      }

      .cls-5, .cls-8 {
        stroke: #556a8a;
        stroke-miterlimit: 10;
        stroke-width: 2px;
      }

      .cls-6 {
        fill: #e5e5e5;
      }

      .cls-8 {
        fill: none;
      }
    </style>
  </defs>
  <title>information-worker-product-help-office-training-2 </title>
  <g id="Illustrations">
    <g>
      <ellipse class="cls-1" cx="44.14" cy="32.46" rx="10" ry="12.46"/>
      <path class="cls-1" d="M67.6,89v14H25.39c-1.19-1.35-2.88-3.28-4.85-5.81-2.27-2.92-2-9.51-1.82-11.49.52-5.72.51-20,1.12-26.32a11.48,11.48,0,0,1,1.28-4.43l.11-.19,0-.08A8.66,8.66,0,0,1,24,51.77a9.59,9.59,0,0,1,2.69-1.23c.49-.14,1-.35,1.63-.51,3.73-1,11.3,10,11.3,10Z"/>
      <path class="cls-2" d="M95.32,64S78,67.94,77.49,68a4.54,4.54,0,0,1-1.93-.26l-8.42-3.31L67.6,89v12L21.28,54.68A8.66,8.66,0,0,1,24,51.77a9.59,9.59,0,0,1,2.69-1.23c.49-.14,1-.35,1.63-.51,3.73-1,8.82-2.24,9.74-2.47l.15,0,6,12.23h.1l6-12.23,0,0a16.51,16.51,0,0,0,2.65.95c1.61.43,3.73,1,5.79,1.59l0,0c1,.29,2,.58,2.94.86L77.6,57,91,55.33c4,0,5.56.38,6.6,2.67A4.54,4.54,0,0,1,95.32,64Z"/>
    </g>
    <g>
      <polygon class="cls-3" points="137 32.71 137 76 90 76 90 13 116.3 13 137 32.71"/>
      <polygon class="cls-4" points="137 33 116 33 116 13 137 33"/>
      <path class="cls-5" d="M116.88,13H92a1,1,0,0,0-1,1V74a1,1,0,0,0,1,1H136a1,1,0,0,0,1-1V32.37Z"/>
      <rect class="cls-6" x="92" y="14" width="16" height="60"/>
      <path class="cls-7" d="M100.1,35.91V44.5H98.74V37.57A4.33,4.33,0,0,1,98,38a6.54,6.54,0,0,1-1,.33V37.19l.66-.23q.32-.12.62-.28t.62-.34q.31-.19.65-.43Z"/>
      <path class="cls-7" d="M102.35,56.5H97.07v-.65a2.44,2.44,0,0,1,.11-.75,3,3,0,0,1,.3-.66,3.66,3.66,0,0,1,.44-.58q.25-.27.54-.53l.59-.49.59-.48q.27-.23.49-.45a3,3,0,0,0,.38-.45,2.06,2.06,0,0,0,.25-.5,1.76,1.76,0,0,0,.09-.57,1.52,1.52,0,0,0-.1-.58,1.13,1.13,0,0,0-.29-.42,1.23,1.23,0,0,0-.44-.25,1.71,1.71,0,0,0-.55-.08,2.54,2.54,0,0,0-1,.24,3.59,3.59,0,0,0-1,.72V48.72a4.29,4.29,0,0,1,.52-.34,3.55,3.55,0,0,1,.54-.24A3.36,3.36,0,0,1,99,48a4.44,4.44,0,0,1,.66,0,3.35,3.35,0,0,1,1,.15,2.2,2.2,0,0,1,.79.44,1.93,1.93,0,0,1,.51.72,2.6,2.6,0,0,1,.18,1,3.1,3.1,0,0,1-.13.92,3,3,0,0,1-.36.76,3.94,3.94,0,0,1-.56.67q-.33.32-.73.65l-.68.54q-.34.26-.61.51a2.85,2.85,0,0,0-.44.5.89.89,0,0,0-.17.5v0h3.79Z"/>
      <path class="cls-7" d="M97.22,68.19V66.91a2.9,2.9,0,0,0,1.85.65,2.16,2.16,0,0,0,1.34-.38,1.23,1.23,0,0,0,.5-1q0-1.43-2.19-1.43h-.65V63.63h.62q1.94,0,1.94-1.35T99.13,61a2.48,2.48,0,0,0-1.59.6V60.44a4.06,4.06,0,0,1,2-.48,2.71,2.71,0,0,1,1.79.56A1.79,1.79,0,0,1,102,62a2.05,2.05,0,0,1-1.69,2.13v0a2.21,2.21,0,0,1,1.44.64,1.89,1.89,0,0,1,.53,1.37,2.24,2.24,0,0,1-.85,1.83,3.43,3.43,0,0,1-2.24.69A3.82,3.82,0,0,1,97.22,68.19Z"/>
      <polyline class="cls-8" points="116 13 116 33 137 33"/>
      <line class="cls-8" x1="110" y1="41" x2="130" y2="41"/>
      <line class="cls-8" x1="110" y1="52" x2="130" y2="52"/>
      <line class="cls-8" x1="110" y1="64" x2="130" y2="64"/>
    </g>
  </g>
</svg>
