<svg xmlns="http://www.w3.org/2000/svg" viewBox="0 0 150 105">
  <defs>
    <style>
      .cls-1 {
        fill: #556a8a;
      }

      .cls-2 {
        fill: #adbdca;
      }

      .cls-3 {
        fill: #fff;
      }

      .cls-4 {
        fill: #c8edfb;
      }

      .cls-5 {
        fill: none;
        stroke: #556a8a;
        stroke-miterlimit: 10;
        stroke-width: 2px;
      }

      .cls-6 {
        fill: #0072c6;
      }

      .cls-7 {
        fill: #e5e5e5;
      }

      .cls-8 {
        fill: #bad80a;
      }
    </style>
  </defs>
  <title>information-worker-product-help-intune-7</title>
  <g id="Illustrations">
    <g>
      <g>
        <polygon class="cls-1" points="116.92 95 32.68 95 37.95 89 111.99 89 116.92 95"/>
        <polygon class="cls-2" points="109 93 40.6 93 43 91 106.67 91 109 93"/>
        <polygon class="cls-1" points="93.44 83 56.06 83 51.75 87 97.75 87 93.44 83"/>
        <polygon class="cls-1" points="76.96 84.44 71.92 84.44 72.93 74.36 75.95 74.36 76.96 84.44"/>
        <rect class="cls-3" x="20.25" y="17" width="109" height="59" rx="4" ry="4" transform="translate(149.5 93) rotate(180)"/>
        <path class="cls-4" d="M129.75,26V21a4,4,0,0,0-4-4h-101a4,4,0,0,0-4,4v5Z"/>
        <rect class="cls-5" x="20" y="17" width="109" height="59" rx="4" ry="4" transform="translate(149 93) rotate(180)"/>
      </g>
      <g>
        <path class="cls-6" d="M83,60.8c-8.71,0-8.53-1.39-8.53-6.66H67.26c0,5.27.45,6.66-8.26,6.66V63H83Z"/>
        <polygon class="cls-6" points="89 59 95 54.5 89 50.12 89 59"/>
        <path class="cls-6" d="M91.4,56V53H55V33H87v7h3V31.66c0-.83-1.17-1.66-2-1.66H53.66A1.79,1.79,0,0,0,52,31.66V54.34A1.79,1.79,0,0,0,53.66,56h13.6c.06,4.16,7.16,4.16,7.21,0Z"/>
        <circle class="cls-6" cx="71" cy="42.5" r="4"/>
        <path class="cls-6" d="M98.61,41H74v3H97V65H87V57H84v9.61A1.37,1.37,0,0,0,85.39,68H98.61A1.37,1.37,0,0,0,100,66.61V42.39A1.37,1.37,0,0,0,98.61,41ZM93,67H90l-.08-1H93Z"/>
      </g>
    </g>
    <g>
      <rect class="cls-1" x="12" y="18" width="2" height="15" rx="0.5" ry="0.5"/>
      <path class="cls-7" d="M52.65,17.18,32,9,10.37,17.18,17,20.1V31.57c0,4.06,7.1,7.48,15,7.48s14-3.43,14-7.65V19.93Z"/>
      <path class="cls-3" d="M32.3,26.12,17,20.1V31.57c0,4.06,7.1,7.48,15,7.48s14-3.43,14-7.65V19.93Z"/>
      <path class="cls-5" d="M52.65,17.18,32,9,10.37,17.18,17,20.1V31.57c0,4.06,7.1,7.48,15,7.48s14-3.43,14-7.65V19.93Z"/>
      <path class="cls-1" d="M11,36V33.08c0-1.6.72-3.08,1.6-3.08h.8c.88,0,1.6,1.48,1.6,3.08V36Z"/>
      <polygon class="cls-8" points="45 21 32 26.15 18 21 18 24.41 32 29.95 45 24.41 45 21"/>
      <polyline class="cls-5" points="16.06 19.73 32 26 46.08 19.93"/>
    </g>
  </g>
</svg>
