<svg xmlns="http://www.w3.org/2000/svg" viewBox="0 0 150 105">
  <defs>
    <style>
      .cls-1 {
        fill: #ace8f9;
      }

      .cls-2 {
        fill: #fff;
        stroke: #00bcf2;
        stroke-miterlimit: 10;
        stroke-width: 2px;
      }

      .cls-3 {
        fill: #556a8a;
      }

      .cls-4 {
        fill: #d83b01;
        fill-rule: evenodd;
      }
    </style>
  </defs>
  <title>information-worker-product-help-office-help-3</title>
  <g id="Illustrations">
    <g>
      <path class="cls-1" d="M92.47,32.73A21.57,21.57,0,0,0,49.84,32a14.65,14.65,0,0,0-23.61,7.53,12.75,12.75,0,0,0-3.05-.38,13,13,0,0,0,0,25.9h72.3a16.53,16.53,0,0,0,12.85-16.19A16.12,16.12,0,0,0,92.47,32.73Z"/>
      <path class="cls-2" d="M83.95,58.75v-.37a14.73,14.73,0,0,0-.48-3.66A13.24,13.24,0,0,0,61.7,45.32a15.33,15.33,0,0,0-12.83-6.07c-9.69,0-17,8.46-17.17,18,0,.66.16,1.15.16,1.81-5.09,2.46-8,6.74-8,12.16,0,7.75,6.1,14,14.17,14.41C38.74,91,43.56,96,51.82,96c7,0,11.13.56,16.21-5.16A17.13,17.13,0,0,0,76.14,93c9.77,0,17.68-8.65,17.68-18.42A17.68,17.68,0,0,0,83.95,58.75Z"/>
      <path class="cls-3" d="M54.33,77.89a10.89,10.89,0,0,1-.41-1.71,12.55,12.55,0,0,1-.18-2.09,6.52,6.52,0,0,1,.65-2.93A12.12,12.12,0,0,1,56,68.7a24.43,24.43,0,0,1,2.11-2.2q1.14-1.05,2.11-2.13a12.18,12.18,0,0,0,1.61-2.26,5.32,5.32,0,0,0,.65-2.6A4.77,4.77,0,0,0,62,57.35a4.57,4.57,0,0,0-1.28-1.57,5.64,5.64,0,0,0-1.88-1,7.89,7.89,0,0,0-2.26-.32,9.85,9.85,0,0,0-7.44,3.38V53.42a14.94,14.94,0,0,1,8-2.44,12.64,12.64,0,0,1,3.63.51,9,9,0,0,1,3,1.51,7.12,7.12,0,0,1,2,2.5A7.8,7.8,0,0,1,66.57,59a8.11,8.11,0,0,1-.66,3.35A12.11,12.11,0,0,1,64.25,65a21.48,21.48,0,0,1-2.17,2.3q-1.17,1.07-2.17,2.12a11.63,11.63,0,0,0-1.66,2.2,4.93,4.93,0,0,0-.66,2.51,7.5,7.5,0,0,0,.28,2.12,15,15,0,0,0,.56,1.61Zm2.29,10.56a2.8,2.8,0,0,1-2-.81,2.65,2.65,0,0,1-.84-2,2.6,2.6,0,0,1,.84-2,2.76,2.76,0,0,1,4,0,2.6,2.6,0,0,1,.84,2,2.65,2.65,0,0,1-.84,2A2.81,2.81,0,0,1,56.62,88.46Z"/>
    </g>
    <circle class="cls-1" cx="103" cy="50" r="19"/>
    <path class="cls-4" d="M129.54,47.3l-4.17-.6c-.3-.89-.3-1.79-.6-2.68l3.58-2.08a1.09,1.09,0,0,0,.6-1.49l-1.19-2.38c0-.6-.6-.89-1.19-.89l-4.17,1.19A6.48,6.48,0,0,0,120.9,36l2.38-3.57a.9.9,0,0,0,0-1.19l-2.09-2.08a.91.91,0,0,0-1.19,0l-3.58,2.38c-.6-.6-1.49-.89-2.09-1.49l.89-4.17c.3-.3,0-.89-.6-1.19l-2.38-.89a1.31,1.31,0,0,0-1.49.3l-2.09,3.57c-.89-.3-1.79-.3-3-.6l-.6-4.17a1,1,0,0,0-.89-.89h-3a1,1,0,0,0-.89.89l-.6,4.17c-.89.3-1.79.3-2.68.6L95,24.08c-.3-.6-.89-.6-1.49-.6L90.8,24.68c-.3,0-.6.6-.6,1.19L91.39,30A6.49,6.49,0,0,0,89,31.53l-3.58-2.38a.91.91,0,0,0-1.19,0l-2.09,2.08a.9.9,0,0,0,0,1.19L84.54,36c-.6.6-.89,1.49-1.49,2.08l-4.17-.89c-.3-.3-.89,0-1.19.6l-1.19,2.38c0,.6,0,1.19.6,1.49l3.58,2.08c-.3.89-.3,2.08-.6,3l-4.17.6a1,1,0,0,0-.89.89v3a.79.79,0,0,0,.89.89l4.17.6a8.68,8.68,0,0,0,.6,2.68l-3.58,2.08a1.09,1.09,0,0,0-.6,1.49l1.19,2.68c0,.3.6.6,1.19.6L83,61a6.48,6.48,0,0,0,1.49,2.38L82.15,67a1.33,1.33,0,0,0,0,1.49l2.09,1.79c.3.3.89.6,1.19.3L89,67.85a5.35,5.35,0,0,0,2.09,1.49L90.2,73.5c-.3.3,0,.89.6,1.19l2.38,1.19c.6,0,1.19,0,1.49-.6l2.09-3.57a8.83,8.83,0,0,0,3,.6l.6,4.17a1,1,0,0,0,.89.89h3a1,1,0,0,0,.89-.89l.6-4.17a8.71,8.71,0,0,0,2.68-.6l2.09,3.57a1.09,1.09,0,0,0,1.49.6l2.68-1.19c.3,0,.6-.6.6-1.19L114,69.34a6.49,6.49,0,0,0,2.38-1.49L120,70.53c.3.3.89,0,1.19-.3l2.09-1.79a1.33,1.33,0,0,0,0-1.49l-2.38-3.57a12.6,12.6,0,0,0,1.49-2.08l4.17,1.19a1.6,1.6,0,0,0,1.19-.89l1.19-2.38c0-.6,0-1.19-.6-1.49l-3.58-2.08c.3-.89.3-1.79.6-3l4.17-.6a.79.79,0,0,0,.89-.89v-3a1,1,0,0,0-.89-.89Zm-9.84,6.85a1.37,1.37,0,0,1-2.09.89l-6.85-4.47c-.89-.3-.89-1.19,0-1.79l6.85-4.47a1.54,1.54,0,0,1,2.09.89,21.7,21.7,0,0,1,.6,4.47,18.24,18.24,0,0,1-.6,4.47Zm-1.79-13.4a1.37,1.37,0,0,1-.89,2.08l-8,1.79c-.89.3-1.49-.3-1.19-1.19l1.79-8c.3-1.19,1.19-1.49,2.09-.89a19.68,19.68,0,0,1,3.58,2.68,19.66,19.66,0,0,1,2.68,3.57ZM98.25,32.42a21.77,21.77,0,0,1,4.47-.6,21.77,21.77,0,0,1,4.47.6,1.37,1.37,0,0,1,.89,2.08l-4.47,7.14c-.6.89-1.49.89-1.79,0L97.35,34.5a1.37,1.37,0,0,1,.89-2.08Zm8.94,17.27a4.47,4.47,0,0,1-8.94,0,4.48,4.48,0,0,1,8.94,0ZM93.78,34.21a1.37,1.37,0,0,1,2.09.89l1.79,8c.3.89-.3,1.49-1.49,1.49l-7.75-2.08c-1.19-.3-1.49-1.19-.89-2.08a10.75,10.75,0,0,1,2.68-3.57,19.68,19.68,0,0,1,3.58-2.68ZM85.43,53.85a18.24,18.24,0,0,1-.6-4.47,21.7,21.7,0,0,1,.6-4.47,1.28,1.28,0,0,1,2.09-.6l7.15,4.17a1.14,1.14,0,0,1,0,2.08l-7.15,4.17c-.89.6-1.79.3-2.09-.89Zm1.79,4.76a1.32,1.32,0,0,1,.89-2.08l8-2.08c.89-.3,1.49.3,1.49,1.49l-2.09,8a1.54,1.54,0,0,1-2.09.89,19.68,19.68,0,0,1-3.58-2.68c-1.49-1.79-2.68-3.57-2.68-3.57Zm19.67,8a18.29,18.29,0,0,1-4.47.6,21.77,21.77,0,0,1-4.47-.6,1.54,1.54,0,0,1-.89-2.08l4.47-6.85c.6-.89,1.49-.89,1.79,0l4.47,6.85c.6.89.3,1.79-.89,2.08Zm4.47-1.79c-.89.6-1.79.3-2.09-.89l-1.79-8c-.3-.89.3-1.49,1.49-1.19l8,1.79a1.54,1.54,0,0,1,.89,2.08,19.66,19.66,0,0,1-2.68,3.57,30.89,30.89,0,0,1-3.87,2.68Z"/>
  </g>
</svg>
