<svg width="64" height="64" viewBox="0 0 64 64" fill="none" xmlns="http://www.w3.org/2000/svg">
<circle cx="47.9998" cy="38.0001" r="16.0001" fill="url(#paint0_linear)"/>
<path d="M11.3223 25.9747L35.9997 35.9996L38.7283 51.0321C35.882 58.6083 28.5704 63.9995 19.9996 63.9995C8.95387 63.9995 -0.000488281 55.0452 -0.000488281 43.9994C-0.000488281 36.0629 4.62236 29.206 11.3223 25.9747Z" fill="url(#paint1_linear)"/>
<path d="M36.1128 36.6239C36.1127 36.6239 36.1129 36.6239 36.1128 36.6239L35.9996 36.0004L11.3222 25.9755L11.321 25.976C10.4681 23.8164 9.99951 21.463 9.99951 19.0001C9.99951 8.50664 18.5061 0 28.9996 0C39.4931 0 47.9997 8.50664 47.9997 19.0001C47.9997 20.0216 47.9191 21.0243 47.7639 22.0021L35.9996 36.0004L36.1128 36.6239Z" fill="url(#paint2_linear)"/>
<defs>
<linearGradient id="paint0_linear" x1="58.252" y1="49.681" x2="41.1971" y2="20.4274" gradientUnits="userSpaceOnUse">
<stop stop-color="#47326B"/>
<stop offset="1" stop-color="#8661C5"/>
</linearGradient>
<linearGradient id="paint1_linear" x1="1.0962" y1="22.2415" x2="29.6827" y2="61.5355" gradientUnits="userSpaceOnUse">
<stop offset="0.1947" stop-color="#7252AA"/>
<stop offset="0.9988" stop-color="#372757"/>
</linearGradient>
<linearGradient id="paint2_linear" x1="10.7892" y1="-1.9083" x2="35.9464" y2="38.6777" gradientUnits="userSpaceOnUse">
<stop offset="0.176282" stop-color="#D1AAF4"/>
<stop offset="0.94425" stop-color="#8A5CC9"/>
</linearGradient>
</defs>
</svg>
