<svg xmlns="http://www.w3.org/2000/svg" viewBox="0 0 150 105">
  <defs>
    <style>
      .cls-1 {
        fill: #c6df33;
      }

      .cls-2 {
        fill: #d1e55c;
        fill-rule: evenodd;
      }

      .cls-3, .cls-8 {
        fill: none;
      }

      .cls-4, .cls-6, .cls-7, .cls-9 {
        fill: #fff;
      }

      .cls-4 {
        stroke: #556a8a;
      }

      .cls-4, .cls-7, .cls-8, .cls-9 {
        stroke-miterlimit: 10;
        stroke-width: 2px;
      }

      .cls-5 {
        fill: #556a8a;
      }

      .cls-7 {
        stroke: #ababab;
      }

      .cls-8 {
        stroke: #bad80a;
      }

      .cls-9 {
        stroke: #55d2f6;
      }

      .cls-10 {
        fill: #ffc52b;
      }

      .cls-11 {
        fill: #ffb900;
      }

      .cls-12 {
        fill: #2bc7f4;
      }
    </style>
  </defs>
  <title>ms365enterprise-admin-get-started-fasttrack-5</title>
  <g id="ICONS">
    <g>
      <g>
        <circle class="cls-1" cx="40.98" cy="52.56" r="30.48" transform="translate(-25.17 44.37) rotate(-45)"/>
        <path class="cls-2" d="M62.53,31a30.49,30.49,0,0,1,0,43.11L19.42,31A30.49,30.49,0,0,1,62.53,31Z"/>
      </g>
      <rect class="cls-3" x="20.37" y="28.85" width="45.16" height="45.16"/>
      <path class="cls-4" d="M37,31.11v6.77l-2.5,2.24L32,37.89V31.11A9.35,9.35,0,0,0,26.35,39c0,3.5,2.65,6.06,5.65,7.07V69.71c0,1.44,1.06,3.22,2.5,3.22S37,71.22,37,69.58V46.09c2-.82,5.65-3.57,5.65-7.07C42.65,36,39,32.14,37,31.11Z"/>
      <path class="cls-5" d="M56,55H51V39l2-2-2-7H48l-2,7,2,2V55H44v3h3c.17,1.51-1.25,3.13-2,3.19v8.89c0,2.36.67,3.92,2.2,3.92H52.8c1.54,0,2.2-1.56,2.2-3.92V61.19c-.75-.06-2-1.75-2-3.19h3Z"/>
      <rect class="cls-6" x="51" y="61" width="1" height="10"/>
      <rect class="cls-6" x="48" y="61" width="1" height="10"/>
    </g>
    <g>
      <polygon class="cls-7" points="97.55 19 106.45 34.5 97.55 50 79.77 50 70.88 34.5 79.77 19 97.55 19"/>
      <polygon class="cls-7" points="97.55 55 106.45 70.5 97.55 86 79.77 86 70.88 70.5 79.77 55 97.55 55"/>
      <line class="cls-8" x1="108" y1="58" x2="88.51" y2="68.3"/>
      <polyline class="cls-8" points="88.66 67.98 88.66 35.25 110 47"/>
      <polygon class="cls-9" points="129.5 36.06 139 52.56 129.5 69.06 110.5 69.06 101 52.56 110.5 36.06 129.5 36.06"/>
      <g>
        <path class="cls-10" d="M122.08,49.29,128.27,39h-7.45L111,53.25h7.13L111.53,65.5l6.09-5.43L120,58l10-8.7Z"/>
        <path class="cls-11" d="M122.08,49.29,128.27,39H124l-9.82,14.25h7.13l-3.67,6.82L120,58l10-8.7Z"/>
      </g>
      <circle class="cls-12" cx="88.66" cy="35.57" r="5.2"/>
      <circle class="cls-12" cx="88.66" cy="67.98" r="5.2"/>
    </g>
  </g>
</svg>
