<svg xmlns="http://www.w3.org/2000/svg" viewBox="0 0 150 105">
  <defs>
    <style>
      .cls-1, .cls-6 {
        fill: #fff;
      }

      .cls-2 {
        fill: #e5e5e5;
      }

      .cls-3 {
        fill: none;
      }

      .cls-3, .cls-5, .cls-6 {
        stroke: #556a8a;
        stroke-miterlimit: 10;
        stroke-width: 2px;
      }

      .cls-4 {
        fill: #556a8a;
      }

      .cls-5 {
        fill: #55d2f6;
      }

      .cls-7 {
        fill: #ffb900;
      }
    </style>
  </defs>
  <title>ms365enterprise-admin-security-configurations-1</title>
  <g id="ICONS">
    <g>
      <path class="cls-1" d="M110.5,25.73a8.74,8.74,0,0,1-.71,3.52A9,9,0,0,1,105,34a8.65,8.65,0,0,1-3.5.71l-4.95-.58V80.85c0,3.43-2.19,8-7,8H47.65V24.95a12.3,12.3,0,0,1,.06-1.32,5.1,5.1,0,0,1,.36-1.42,8.32,8.32,0,0,1,.74-1.39A8.48,8.48,0,0,1,50,19.35a2.62,2.62,0,0,1,.28-.24,8.61,8.61,0,0,1,2.6-1.69,9.17,9.17,0,0,1,3.5-.71h45.1a8.85,8.85,0,0,1,3.5.71,9,9,0,0,1,4.81,4.8A8.75,8.75,0,0,1,110.5,25.73Z"/>
      <path class="cls-2" d="M110.5,25.15a8.74,8.74,0,0,1-.71,3.52,9,9,0,0,1-4.81,4.8,8.65,8.65,0,0,1-3.5.71l-4.95-.58v1.16H47.65V24.37a12.3,12.3,0,0,1,.06-1.32,5.1,5.1,0,0,1,.36-1.42,8.32,8.32,0,0,1,.74-1.39A8.48,8.48,0,0,1,50,18.77a2.62,2.62,0,0,1,.28-.24,8.61,8.61,0,0,1,2.6-1.69,9.17,9.17,0,0,1,3.5-.71h45.1a8.85,8.85,0,0,1,3.5.71,9,9,0,0,1,4.81,4.8A8.75,8.75,0,0,1,110.5,25.15Z"/>
      <path class="cls-3" d="M110.5,25.15a8.71,8.71,0,0,1-.71,3.51,8.87,8.87,0,0,1-1.93,2.86A9.1,9.1,0,0,1,105,33.46a8.59,8.59,0,0,1-3.5.71l-4.95-.58V80.27c0,3.44-2.19,8-7,8H80.38L47.65,79V25.15a17.72,17.72,0,0,1,.06-2.1,5,5,0,0,1,.36-1.42A9,9,0,0,1,50,18.77a9.1,9.1,0,0,1,2.87-1.94,8.78,8.78,0,0,1,3.5-.71h45.1a8.78,8.78,0,0,1,3.5.71,9.1,9.1,0,0,1,2.87,1.94,9,9,0,0,1,1.93,2.86A8.72,8.72,0,0,1,110.5,25.15Z"/>
      <path class="cls-4" d="M101.33,30.24a4.37,4.37,0,0,0,1.76-.35,4.58,4.58,0,0,0,2.4-2.4,4.58,4.58,0,0,0,0-3.52,4.58,4.58,0,0,0-2.4-2.4,4.58,4.58,0,0,0-3.52,0,4.58,4.58,0,0,0-2.4,2.4,4.37,4.37,0,0,0-.35,1.76l-.44,4.95Z"/>
      <path class="cls-5" d="M86.06,88.29c-3.49-1.16-5.82-3.36-5.82-9.31,0-7,7-9.31,6.32-9.31H48.81a9.31,9.31,0,0,0,0,18.62H85.2"/>
    </g>
    <g>
      <g>
        <polygon class="cls-2" points="51.75 52.86 44.25 58.91 44.25 33.81 59.25 33.81 59.25 58.91 51.75 52.86"/>
        <path class="cls-4" d="M58.25,34.81v22L53,52.59l-1.26-1-1.26,1-5.24,4.23v-22h13m2-2h-17V61l8.5-6.86L60.25,61V32.81Z"/>
      </g>
      <circle class="cls-6" cx="51" cy="25" r="16"/>
      <polygon class="cls-7" points="51 30.28 58.53 36.33 55.39 26.93 63.19 21.27 53.71 21.27 51 11.95 48.29 21.27 38.81 21.27 46.61 26.93 43.47 36.33 51 30.28"/>
    </g>
  </g>
</svg>
