<svg xmlns="http://www.w3.org/2000/svg" xmlns:xlink="http://www.w3.org/1999/xlink" viewBox="0 0 150 105">
  <defs>
    <style>
      .cls-1 {
        isolation: isolate;
      }

      .cls-2 {
        fill: #556a8a;
      }

      .cls-3 {
        fill: #adbdca;
      }

      .cls-4, .cls-8 {
        fill: #fff;
      }

      .cls-5 {
        fill: #c8edfb;
      }

      .cls-6, .cls-7 {
        fill: none;
      }

      .cls-6 {
        stroke: #556a8a;
        stroke-miterlimit: 10;
        stroke-width: 2px;
      }

      .cls-10, .cls-12, .cls-8 {
        fill-rule: evenodd;
      }

      .cls-10, .cls-9 {
        fill: #0072c6;
      }

      .cls-11 {
        opacity: 0.05;
        mix-blend-mode: overlay;
      }

      .cls-12 {
        fill: url(#linear-gradient);
      }

      .cls-13 {
        fill: #bad80a;
      }
    </style>
    <linearGradient id="linear-gradient" x1="49" y1="44.52" x2="79.61" y2="44.52" gradientUnits="userSpaceOnUse">
      <stop offset="0" stop-color="#fff"/>
      <stop offset="1"/>
    </linearGradient>
  </defs>
  <title>ms365enterprise-admin-security-secure-sharepoint-2</title>
  <g class="cls-1">
    <g id="ICONS">
      <g>
        <g>
          <polygon class="cls-2" points="117.17 93.75 32.93 93.75 38.2 88.34 112.24 88.34 117.17 93.75"/>
          <polygon class="cls-3" points="109.25 92 40.85 92 43.25 90 106.92 90 109.25 92"/>
          <polygon class="cls-2" points="93.69 81 56.31 81 52 85 98 85 93.69 81"/>
          <polygon class="cls-2" points="77.21 82.94 72.17 82.94 73.18 72.86 76.2 72.86 77.21 82.94"/>
          <rect class="cls-4" x="20" y="16" width="109" height="59" rx="4" ry="4" transform="translate(149 91) rotate(180)"/>
          <path class="cls-5" d="M129,30V20a4,4,0,0,0-4-4H24a4,4,0,0,0-4,4V30Z"/>
          <rect class="cls-6" x="20" y="16" width="109" height="59" rx="4" ry="4" transform="translate(149 91) rotate(180)"/>
        </g>
        <rect class="cls-7" x="11.5" y="10" width="127" height="91"/>
      </g>
      <g>
        <g>
          <path class="cls-8" d="M82.45,64.07A6.58,6.58,0,0,1,75.89,58a15.14,15.14,0,0,1-7.06-7.17,6.31,6.31,0,0,1,0-12.6A15.14,15.14,0,0,1,75.9,31a6.57,6.57,0,0,1,13.1,0A14.93,14.93,0,0,1,95.88,38a6.57,6.57,0,0,1,0,13.11A14.94,14.94,0,0,1,89,57.95,6.58,6.58,0,0,1,82.45,64.07ZM73.39,49.16a10.15,10.15,0,0,0,4,4.16,6.53,6.53,0,0,1,10.07,0,10.23,10.23,0,0,0,3.76-3.76,6.53,6.53,0,0,1,0-10.06,10.24,10.24,0,0,0-3.75-3.77,6.52,6.52,0,0,1-10.09,0,10.17,10.17,0,0,0-4,4.17,6.29,6.29,0,0,1,0,9.31Z"/>
          <path class="cls-9" d="M82.45,26A5.57,5.57,0,0,1,88,31.53c0,.06,0,.11,0,.17A14,14,0,0,1,95.24,39l.2,0a5.57,5.57,0,0,1,0,11.13l-.21,0A14,14,0,0,1,88,57.31c0,.07,0,.13,0,.19a5.57,5.57,0,1,1-11.13,0c0-.06,0-.11,0-.17a14,14,0,0,1-7.41-7.56c-.11,0-.22,0-.33,0a5.31,5.31,0,0,1,0-10.61c.11,0,.22,0,.33,0a14,14,0,0,1,7.41-7.56s0-.09,0-.14A5.57,5.57,0,0,1,82.45,26M77.71,54.61a5.53,5.53,0,0,1,9.46,0,11.21,11.21,0,0,0,5.34-5.35,5.53,5.53,0,0,1,0-9.45,11.21,11.21,0,0,0-5.34-5.36,5.53,5.53,0,0,1-9.48,0,11.19,11.19,0,0,0-5.53,5.74,5.3,5.3,0,0,1,0,8.73,11.19,11.19,0,0,0,5.56,5.74M82.45,24A7.58,7.58,0,0,0,75,30.38a16.17,16.17,0,0,0-6.78,6.88,7.31,7.31,0,0,0,0,14.49A16.17,16.17,0,0,0,75,58.62a7.57,7.57,0,0,0,15,0A15.93,15.93,0,0,0,96.51,52a7.57,7.57,0,0,0,0-15,15.93,15.93,0,0,0-6.59-6.61A7.58,7.58,0,0,0,82.45,24ZM74.65,39.7A9.17,9.17,0,0,1,77.22,37a7.53,7.53,0,0,0,10.43,0,9.23,9.23,0,0,1,2.3,2.31,7.53,7.53,0,0,0,0,10.39A9.23,9.23,0,0,1,87.63,52a7.53,7.53,0,0,0-10.41,0,9.15,9.15,0,0,1-2.59-2.71,7.29,7.29,0,0,0,0-9.63Z"/>
        </g>
        <g>
          <path class="cls-10" d="M79.61,18.54,49,24V65.09l30.61,5.4Z"/>
          <g class="cls-11">
            <path class="cls-12" d="M79.61,18.54,49,24V65.09l30.61,5.4Z"/>
          </g>
        </g>
        <path class="cls-4" d="M63.83,35.27a8.17,8.17,0,0,0-1.23.16,6.38,6.38,0,0,0-1.09.33,5.42,5.42,0,0,0-.95.5,5.2,5.2,0,0,0-.81.67,5,5,0,0,0-.65.8,4.81,4.81,0,0,0-.46.9,5.27,5.27,0,0,0-.27,1,6.52,6.52,0,0,0-.09,1.11,5.34,5.34,0,0,0,.21,1.52,4.92,4.92,0,0,0,.63,1.35,6,6,0,0,0,1.07,1.2,8.9,8.9,0,0,0,1.52,1l.71.4.6.37.48.34a4.5,4.5,0,0,1,.36.3,3.05,3.05,0,0,1,.33.37,2.36,2.36,0,0,1,.24.39,2,2,0,0,1,.14.41,2,2,0,0,1,0,.78,1.62,1.62,0,0,1-.1.32,1.53,1.53,0,0,1-.16.29,1.65,1.65,0,0,1-.22.26,1.68,1.68,0,0,1-.34.25,2,2,0,0,1-.41.17,2.68,2.68,0,0,1-.48.09,4,4,0,0,1-.55,0,5.27,5.27,0,0,1-2.12-.53,6,6,0,0,1-1-.59,7.43,7.43,0,0,1-.91-.8v3.87a5.91,5.91,0,0,0,.81.47,6.79,6.79,0,0,0,.92.36,8.13,8.13,0,0,0,1,.24,10.4,10.4,0,0,0,1.14.13,9.84,9.84,0,0,0,1.51,0,6.86,6.86,0,0,0,1.32-.25A5.15,5.15,0,0,0,66.2,53a4.42,4.42,0,0,0,.93-.72,4.48,4.48,0,0,0,.59-.74,4.57,4.57,0,0,0,.42-.86,5.3,5.3,0,0,0,.26-1,6.75,6.75,0,0,0,.09-1.09,6,6,0,0,0-.07-.94,5.19,5.19,0,0,0-.22-.87,4.79,4.79,0,0,0-.36-.8,4.85,4.85,0,0,0-.5-.72,5.86,5.86,0,0,0-.55-.56,8.81,8.81,0,0,0-.7-.56q-.38-.28-.84-.57t-1-.57l-.65-.36-.53-.33-.42-.3a2.84,2.84,0,0,1-.3-.28,1.88,1.88,0,0,1-.39-.63,2.09,2.09,0,0,1-.1-.37,2.48,2.48,0,0,1,0-.41,2,2,0,0,1,0-.38A1.65,1.65,0,0,1,62,39.6a1.58,1.58,0,0,1,.18-.31,1.83,1.83,0,0,1,.26-.28,2,2,0,0,1,.32-.23,2.16,2.16,0,0,1,.37-.17,2.73,2.73,0,0,1,.43-.11,3.58,3.58,0,0,1,.48,0,6.17,6.17,0,0,1,1,0,5.6,5.6,0,0,1,1.86.57,6.09,6.09,0,0,1,.86.53V35.75a6.58,6.58,0,0,0-.85-.26,8.32,8.32,0,0,0-.94-.17q-.49-.06-1-.07t-1.11,0"/>
      </g>
      <g>
        <rect class="cls-6" x="120" y="42.24" width="17" height="23" rx="8.5" ry="8.5"/>
        <path class="cls-4" d="M142,77.78A1.23,1.23,0,0,1,140.76,79H115.24A1.23,1.23,0,0,1,114,77.78V58.22A1.23,1.23,0,0,1,115.24,57h25.51A1.23,1.23,0,0,1,142,58.22Z"/>
        <path class="cls-13" d="M142.38,58.38V78.46L121,57.08h20.09A1.3,1.3,0,0,1,142.38,58.38Z"/>
        <path class="cls-6" d="M142,77.78A1.23,1.23,0,0,1,140.76,79H115.24A1.23,1.23,0,0,1,114,77.78V58.22A1.23,1.23,0,0,1,115.24,57h25.51A1.23,1.23,0,0,1,142,58.22Z"/>
      </g>
    </g>
  </g>
</svg>
