<svg xmlns="http://www.w3.org/2000/svg" viewBox="0 0 150 105">
  <defs>
    <style>
      .cls-1 {
        fill: #e5e5e5;
      }

      .cls-2, .cls-3 {
        fill: #fff;
      }

      .cls-3, .cls-4 {
        stroke: #556a8a;
        stroke-miterlimit: 10;
        stroke-width: 2px;
      }

      .cls-4 {
        fill: none;
      }

      .cls-5 {
        fill: #2bc7f4;
      }

      .cls-6 {
        fill: #556a8a;
      }

      .cls-7 {
        fill: #55d2f6;
      }
    </style>
  </defs>
  <title>ms365enterprise-admin-get-started-architecture-4</title>
  <g id="Titles">
    <g>
      <rect class="cls-1" x="26" y="15.55" width="99" height="16"/>
      <rect class="cls-2" x="26.3" y="31" width="99" height="59"/>
      <line class="cls-3" x1="27.3" y1="31.95" x2="125.27" y2="31.95"/>
    </g>
    <rect class="cls-4" x="27" y="15" width="99" height="76"/>
    <rect class="cls-5" x="57" y="39" width="39" height="17"/>
    <rect class="cls-5" x="76" y="48" width="2" height="29"/>
    <rect class="cls-5" x="48.3" y="65" width="55" height="2"/>
    <rect class="cls-5" x="66" y="71" width="22" height="10" rx="5" ry="5"/>
    <rect class="cls-5" x="41" y="71" width="16" height="10"/>
    <rect class="cls-5" x="94" y="71" width="16" height="10"/>
    <rect class="cls-5" x="48" y="65" width="2" height="13"/>
    <rect class="cls-5" x="101" y="65" width="2" height="13"/>
    <circle class="cls-6" cx="115.3" cy="23" r="2"/>
    <circle class="cls-6" cx="108.3" cy="23" r="2"/>
    <circle class="cls-6" cx="101.3" cy="23" r="2"/>
    <polygon class="cls-7" points="96 39 96 53 82 39 96 39"/>
    <rect class="cls-7" x="41" y="71" width="16" height="4"/>
    <rect class="cls-7" x="94" y="71" width="16" height="4"/>
  </g>
</svg>
