<svg xmlns="http://www.w3.org/2000/svg" viewBox="0 0 150 105">
  <defs>
    <style>
      .cls-1 {
        fill: #556a8a;
      }

      .cls-2 {
        fill: #adbdca;
      }

      .cls-3 {
        fill: #fff;
      }

      .cls-4 {
        fill: #c8edfb;
      }

      .cls-5, .cls-6 {
        fill: none;
      }

      .cls-5 {
        stroke: #556a8a;
        stroke-miterlimit: 10;
        stroke-width: 2px;
      }

      .cls-7 {
        fill: #2bc7f4;
      }

      .cls-8 {
        fill: #e5e5e5;
      }

      .cls-9 {
        fill: #ffb900;
      }
    </style>
  </defs>
  <title>ms365enterprise-admin-get-started-service-3</title>
  <g id="Titles">
    <g>
      <g>
        <polygon class="cls-1" points="115.24 95 31 95 36.27 90 110.31 90 115.24 95"/>
        <polygon class="cls-2" points="107 93 38.6 93 41 91 104.67 91 107 93"/>
        <polygon class="cls-1" points="92.69 80 55.31 80 51 84 97 84 92.69 80"/>
        <polygon class="cls-1" points="75.71 81.94 70.67 81.94 71.68 71.86 74.7 71.86 75.71 81.94"/>
        <rect class="cls-3" x="19" y="15" width="109" height="59" rx="4" ry="4" transform="translate(147 89) rotate(180)"/>
        <path class="cls-4" d="M129,28V18a4,4,0,0,0-4-4H24a4,4,0,0,0-4,4V28Z"/>
        <rect class="cls-5" x="19" y="15" width="109" height="59" rx="4" ry="4" transform="translate(147 89) rotate(180)"/>
      </g>
      <rect class="cls-6" x="10.5" y="9" width="127" height="91"/>
    </g>
    <rect class="cls-1" x="9" y="20.07" width="2" height="25" rx="0.5" ry="0.5"/>
    <path class="cls-3" d="M35,34,15,25.33v15.4C15,46.3,24.16,51,35,51s20-4.7,20-10.26V25.28Z"/>
    <path class="cls-5" d="M35,34,15,25.33v15.4C15,46.3,24.16,51,35,51s20-4.7,20-10.26V25.28Z"/>
    <polygon class="cls-7" points="54 24.61 34.81 30.48 16 24.86 16 32 35 40.04 54 32 54 24.61"/>
    <polygon class="cls-8" points="6 21 35 10.07 63 21 35 33 6 21"/>
    <polygon class="cls-5" points="64 21 35 10.07 6 21 35 33.99 64 21"/>
    <path class="cls-1" d="M8,46V42c0-2.2.72-4,1.6-4h.8c.88,0,1.6,1.8,1.6,4v4Z"/>
    <path class="cls-9" d="M104.65,40.49a.8.8,0,0,0,.77.48l1.62-.17a.8.8,0,0,0,.6-.89l-.05-2c-.1-.53,0-1,1.53-1.91a1.4,1.4,0,0,1,1.38.08l1.91,1.07a.94.94,0,0,0,.85-.16l1.1-1.4a.83.83,0,0,0-.28-1l-1.51-1.45a1,1,0,0,1-.29-1.24s.43-2,1.28-2.16l1.86-.43a1,1,0,0,0,.6-.89l-.3-1.74a.61.61,0,0,0-.72-.49h0l-2,.06c-.54.08-1.67-1.32-1.91-1.56a2,2,0,0,1,0-1.5l1.08-1.65a.9.9,0,0,0-.16-1.12l-1.4-.84a.8.8,0,0,0-1,0l-1.31,1.65c-.33.4-1,.78-2.37.2,0,0-1-.61-1.17-1.11l-.41-2.1a.8.8,0,0,0-.77-.48l-1.74.3a.61.61,0,0,0-.45.74v0L101.26,21c0,.75-1.21,1.54-1.45,1.78a1.31,1.31,0,0,1-1.5,0l-1.78-1.18a1,1,0,0,0-1,.28l-1.1,1.4a1.1,1.1,0,0,0,.28,1l1.54,1.45c.9.68.37,1.66.19,2.37-.08.38-.23.77-1.1.91l-2,.56a.8.8,0,0,0-.48.77l.3,1.74a.8.8,0,0,0,.64.61l2.12-.18c.75,0,1,.21,1.14.59a11.17,11.17,0,0,1,.65,1.1,1.12,1.12,0,0,1,.16,1.34l-1.18,1.78a1,1,0,0,0,.28,1l1.28,1a.8.8,0,0,0,1,0l1.33-1.66a1.27,1.27,0,0,1,1.35-.4l1.14.34c.5,0,.77.23,1,1l.55,2m4.05-11.72a4.39,4.39,0,0,1-3.61,4.84,4.08,4.08,0,0,1-4.79-3.22q0-.19-.06-.39a4.19,4.19,0,0,1,3.49-4.71,4.25,4.25,0,0,1,5,3.37l0,.1"/>
    <path class="cls-3" d="M100,47.66c0-.31-.51-.94-1.44-1L95,46.45a1.69,1.69,0,0,1-1.72-1.27s-1.63-3.06-.7-4.17l1.91-2.57a1.64,1.64,0,0,0-.2-1.78l-2.27-1.92a1,1,0,0,0-1.45.16s0,0,0,.06l-2.5,2.25a2,2,0,0,1-2.4.46c-.6,0-1.17-.35-1.74-.39a3.35,3.35,0,0,1-1.63-1.93l-.41-3.29a1.51,1.51,0,0,0-1.42-1.25l-2.7.44a1.33,1.33,0,0,0-1.25,1.13l.11,3.53c0,.88-.13,2.37-2.83,2.84,0,0-2,.35-2.7-.14l-2.8-2.25a1.31,1.31,0,0,0-1.49.22l-.21.25-1.69,2a1,1,0,0,0,.22,1.45l0,0,2.22,2.79c1.28,1.26.12,3.27.07,3.86a2.19,2.19,0,0,1-1.88,1.68L62,49.06a1.63,1.63,0,0,0-1,1.44l.1,3a1.84,1.84,0,0,0,1.43,1l3.56.19c1.18.06,2,.37,2.81,2.84.31.59.53,1.24-.43,2.35l-1.93,2.87a1.37,1.37,0,0,0,.21,1.51L69,66.13a1.33,1.33,0,0,0,1.47.08L73,63.68c.92-.84,3.48,0,4.14.24a1.86,1.86,0,0,1,1.64,1.54L79.23,69a1.62,1.62,0,0,0,1.42,1l2.69-.14a1.33,1.33,0,0,0,1.25-1.13l-.09-3.57c0-.86,4.13-3.51,5.5-2.63l1.55.91,1.73,1c.51.25.67.16,1.08-.2l1.89-2a1.34,1.34,0,0,0-.2-1.8L93.81,58c-.69-.57-.33-2.67-.11-4.11a2,2,0,0,1,1.85-1.39l3.61-.69C100.58,51.3,100,47.66,100,47.66ZM76.33,56.13c-.17-.14-.34-.28-.5-.43a6.84,6.84,0,0,1-.69-9.6s0,0,.05-.07a7.2,7.2,0,0,1,10-1l.14.11,0,0a7.18,7.18,0,0,1,.62,10,6.77,6.77,0,0,1-1.18,1.13A6.93,6.93,0,0,1,76.33,56.13Z"/>
    <path class="cls-8" d="M99.17,51.77l-3.61.69a2,2,0,0,0-1.85,1.39c-.22,1.44-.59,3.54.11,4.11L96,60.46a1.34,1.34,0,0,1,.2,1.8l-1.89,2c-.41.36-.58.45-1.08.2l-1.73-1-6.77-7.22A6.77,6.77,0,0,0,86,55.09a7.18,7.18,0,0,0-.62-10l0,0L85.21,45a7.2,7.2,0,0,0-10,1s0,0-.05.07l-8.56-9.27.21-.25a1.31,1.31,0,0,1,1.49-.22l2.8,2.25c.69.5,2.7.14,2.7.14,2.7-.47,2.84-2,2.83-2.84l-.11-3.53a1.33,1.33,0,0,1,1.25-1.13l2.7-.44a1.51,1.51,0,0,1,1.42,1.25l.41,3.29a3.35,3.35,0,0,0,1.63,1.93c.57,0,1.13.35,1.74.39a2,2,0,0,0,2.4-.46L90.57,35s0,0,0-.06a1,1,0,0,1,1.45-.16l2.27,1.92a1.64,1.64,0,0,1,.2,1.78L92.63,41c-.93,1.11.7,4.17.7,4.17A1.69,1.69,0,0,0,95,46.45l3.5.23c.92,0,1.45.66,1.44,1C100,47.66,100.58,51.3,99.17,51.77Z"/>
    <path class="cls-5" d="M93.28,64.44c.5.24.67.16,1.08-.21l1.89-2a1.34,1.34,0,0,0-.2-1.8L93.82,58c-.7-.57-.33-2.68-.11-4.11a2,2,0,0,1,1.85-1.39l3.61-.69c1.41-.47.81-4.12.81-4.12,0-.3-.51-.94-1.43-1L95,46.46c-.8,0-3.35-4.33-2.42-5.44l1.92-2.57a1.66,1.66,0,0,0-.19-1.79l-2.27-1.91a1,1,0,0,0-1.45.16l0,.06-2.5,2.25c-.6.68-5.5-1-5.77-1.86l-.41-3.29a1.52,1.52,0,0,0-1.42-1.26l-2.7.45a1.34,1.34,0,0,0-1.25,1.12l.11,3.54c0,.87-.13,2.35-2.83,2.83,0,0-2,.35-2.71-.15l-2.8-2.25a1.34,1.34,0,0,0-1.5.22l-1.91,2.27a1,1,0,0,0,.23,1.44l0,0,2.22,2.79c1.28,1.26.12,3.28.07,3.86a2.2,2.2,0,0,1-1.88,1.68L62,49.06a1.64,1.64,0,0,0-1,1.43l.1,3a1.85,1.85,0,0,0,1.43,1l3.55.19c1.18.06,2,.37,2.81,2.84.31.58.53,1.24-.43,2.35l-1.94,2.87a1.34,1.34,0,0,0,.22,1.5L69,66.12a1.34,1.34,0,0,0,1.48.08L73,63.68c.93-.84,5.65,1,5.79,1.78L79.23,69a1.62,1.62,0,0,0,1.43,1l2.68-.15a1.34,1.34,0,0,0,1.25-1.12l-.09-3.57c0-.86,4.13-3.52,5.5-2.64Z"/>
    <circle class="cls-5" cx="80.59" cy="50.57" r="7.09"/>
  </g>
</svg>
