<svg xmlns="http://www.w3.org/2000/svg" viewBox="0 0 150 105">
  <defs>
    <style>
      .cls-1 {
        fill: #fff;
        stroke: #556a8a;
        stroke-miterlimit: 10;
        stroke-width: 2px;
      }

      .cls-2 {
        fill: #d83b01;
      }
    </style>
  </defs>
  <title>information-worker-product-help-office-help-3</title>
  <g id="Illustrations">
    <g>
      <path class="cls-1" d="M99.12,41.75v-.37a14.73,14.73,0,0,0-.48-3.66,13.24,13.24,0,0,0-21.77-9.41,15.33,15.33,0,0,0-12.83-6.07c-9.69,0-17,8.46-17.17,18,0,.66.16,1.15.16,1.81C42,44.5,39,48.78,39,54.2c0,7.75,6.1,14,14.17,14.41C53.92,74,58.74,79,67,79c7,0,11.13.56,16.21-5.16A17.13,17.13,0,0,0,91.32,76C101.08,76,109,67.38,109,57.62A17.68,17.68,0,0,0,99.12,41.75Z"/>
      <path class="cls-2" d="M69.51,60.89a10.91,10.91,0,0,1-.41-1.71,12.55,12.55,0,0,1-.18-2.09,6.52,6.52,0,0,1,.65-2.93,12.12,12.12,0,0,1,1.61-2.45,24.43,24.43,0,0,1,2.11-2.2q1.14-1.05,2.11-2.13A12.18,12.18,0,0,0,77,45.11a5.32,5.32,0,0,0,.65-2.6,4.77,4.77,0,0,0-.47-2.16,4.57,4.57,0,0,0-1.28-1.57,5.64,5.64,0,0,0-1.88-1,7.89,7.89,0,0,0-2.26-.32,9.85,9.85,0,0,0-7.44,3.38V36.42a14.94,14.94,0,0,1,8-2.44,12.64,12.64,0,0,1,3.63.51A9,9,0,0,1,79,36a7.12,7.12,0,0,1,2,2.5A7.8,7.8,0,0,1,81.74,42a8.11,8.11,0,0,1-.66,3.35A12.11,12.11,0,0,1,79.42,48a21.48,21.48,0,0,1-2.17,2.3q-1.17,1.07-2.17,2.12a11.63,11.63,0,0,0-1.66,2.2,4.93,4.93,0,0,0-.66,2.51A7.51,7.51,0,0,0,73,59.28a15,15,0,0,0,.56,1.61Zm2.29,10.56a2.81,2.81,0,0,1-2-.81,2.65,2.65,0,0,1-.84-2,2.6,2.6,0,0,1,.84-2,2.76,2.76,0,0,1,4,0,2.6,2.6,0,0,1,.84,2,2.65,2.65,0,0,1-.84,2A2.81,2.81,0,0,1,71.79,71.46Z"/>
    </g>
  </g>
</svg>
