<svg xmlns="http://www.w3.org/2000/svg" viewBox="0 0 150 105">
  <defs>
    <style>
      .cls-1 {
        fill: #fff;
        stroke: #556a8a;
      }

      .cls-1, .cls-8 {
        stroke-miterlimit: 10;
        stroke-width: 2px;
      }

      .cls-2 {
        fill: #ace8f9;
      }

      .cls-3 {
        fill: #55d2f6;
      }

      .cls-4 {
        fill: #e5e5e5;
      }

      .cls-5 {
        fill: #556a8a;
      }

      .cls-6 {
        fill: #ffb900;
      }

      .cls-7 {
        fill: #ffc52b;
      }

      .cls-8 {
        fill: none;
        stroke: #ababab;
      }
    </style>
  </defs>
  <title>ms365enterprise-admin-collaboration-setup-wizard-2</title>
  <g id="ICONS">
    <g>
      <g>
        <path class="cls-1" d="M122.58,24H40.33A1.33,1.33,0,0,0,39,25.28V90h84.91V25.28A1.33,1.33,0,0,0,122.58,24Z"/>
        <rect class="cls-2" x="50.66" y="38" width="72" height="6"/>
        <rect class="cls-3" x="40" y="42" width="15" height="47"/>
        <rect class="cls-4" x="43.66" y="25" width="79" height="11"/>
      </g>
      <g>
        <path class="cls-5" d="M66.44,48.94V61.7h-2V51.41a6.42,6.42,0,0,1-1.18.67,9.71,9.71,0,0,1-1.44.48V50.84l1-.35q.47-.18.93-.41t.92-.5q.47-.28,1-.64Z"/>
        <path class="cls-5" d="M70.41,61.89a1.25,1.25,0,0,1-.89-.34,1.09,1.09,0,0,1-.37-.82,1.11,1.11,0,0,1,.37-.84,1.24,1.24,0,0,1,.89-.35,1.27,1.27,0,0,1,.9.35,1.11,1.11,0,0,1,.37.84,1.08,1.08,0,0,1-.37.82A1.28,1.28,0,0,1,70.41,61.89Z"/>
      </g>
      <g>
        <path class="cls-5" d="M69.77,80.57H61.94v-1a3.62,3.62,0,0,1,.17-1.11,4.46,4.46,0,0,1,.44-1,5.4,5.4,0,0,1,.65-.86q.37-.41.8-.78t.87-.73l.87-.71q.4-.34.73-.67a4.48,4.48,0,0,0,.57-.67,3,3,0,0,0,.37-.74,2.6,2.6,0,0,0,.13-.84,2.26,2.26,0,0,0-.15-.87A1.68,1.68,0,0,0,67,70a1.82,1.82,0,0,0-.65-.37,2.54,2.54,0,0,0-.82-.13,3.77,3.77,0,0,0-1.56.36A5.33,5.33,0,0,0,62.41,71V69a6.32,6.32,0,0,1,.77-.5,5.32,5.32,0,0,1,.81-.36,5,5,0,0,1,.88-.21,6.59,6.59,0,0,1,1-.07,5,5,0,0,1,1.53.22,3.26,3.26,0,0,1,1.17.65,2.87,2.87,0,0,1,.75,1.07,3.86,3.86,0,0,1,.27,1.48,4.59,4.59,0,0,1-.19,1.36,4.4,4.4,0,0,1-.53,1.13,5.81,5.81,0,0,1-.83,1q-.49.47-1.09,1l-1,.8q-.5.39-.9.76a4.22,4.22,0,0,0-.65.74,1.33,1.33,0,0,0-.25.74v0h5.63Z"/>
        <path class="cls-5" d="M73.13,80.76a1.25,1.25,0,0,1-.89-.34,1.09,1.09,0,0,1-.37-.82,1.11,1.11,0,0,1,.37-.84,1.24,1.24,0,0,1,.89-.35,1.27,1.27,0,0,1,.9.35,1.11,1.11,0,0,1,.37.84,1.08,1.08,0,0,1-.37.82A1.28,1.28,0,0,1,73.13,80.76Z"/>
      </g>
      <line class="cls-1" x1="37.71" y1="37" x2="123.66" y2="37"/>
      <g>
        <path class="cls-6" d="M48,30.25,62.51,6.14H44.61L21,41.78H37.6L22.29,70l11-9.72,4-3.63L66.66,30.25Z"/>
        <path class="cls-7" d="M66.66,30.25H48L62.51,6.14H52.38L28.78,41.78h16.6L37.32,56.61Z"/>
      </g>
      <line class="cls-8" x1="78" y1="56" x2="116" y2="56"/>
      <line class="cls-8" x1="78" y1="73" x2="116" y2="73"/>
    </g>
  </g>
</svg>
