<svg xmlns="http://www.w3.org/2000/svg" viewBox="0 0 400 140">
  <defs>
    <style>
      .cls-1 {
        fill: #556a8a;
      }

      .cls-2 {
        fill: #adbdca;
      }

      .cls-3 {
        fill: #fff;
      }

      .cls-4 {
        fill: #e5e5e5;
      }

      .cls-5, .cls-6 {
        fill: none;
      }

      .cls-5 {
        stroke: #556a8a;
        stroke-miterlimit: 10;
        stroke-width: 2px;
      }

      .cls-7 {
        fill: #d83b01;
        fill-rule: evenodd;
      }

      .cls-8 {
        fill: #ababab;
      }

      .cls-9 {
        fill: #727272;
      }
    </style>
  </defs>
  <title>ms365enterprise-developer</title>
  <g id="ICONS">
    <g>
      <g>
        <polygon class="cls-1" points="257.5 125 140.5 125 147.82 117 250.65 117 257.5 125"/>
        <polygon class="cls-2" points="246.5 123 151.5 123 154.84 119 243.26 119 246.5 123"/>
        <polygon class="cls-1" points="224.75 106 172.75 106 166.75 113 230.75 113 224.75 106"/>
        <polygon class="cls-1" points="202.25 111.5 195.25 111.5 196.65 97.5 200.85 97.5 202.25 111.5"/>
        <rect class="cls-3" x="123.5" y="17" width="150" height="82" rx="4" ry="4" transform="translate(397 116) rotate(180)"/>
        <path class="cls-4" d="M273.5,20V32h-150V20a4,4,0,0,1,4-4H269.53A4,4,0,0,1,273.5,20Z"/>
        <rect class="cls-5" x="123" y="16" width="150" height="82" rx="4" ry="4" transform="translate(396 114) rotate(180)"/>
        <rect class="cls-6" x="108.5" y="9" width="183" height="127"/>
      </g>
      <path class="cls-7" d="M204.13,50.72,200,50.13c-.29-.88-.29-1.76-.59-2.64L203,45.43a1.07,1.07,0,0,0,.59-1.47l-1.18-2.35c0-.59-.59-.88-1.18-.88l-4.12,1.18a6.4,6.4,0,0,0-1.47-2.35L198,36a.89.89,0,0,0,0-1.18l-2.06-2.06a.9.9,0,0,0-1.18,0l-3.53,2.35c-.59-.59-1.47-.88-2.06-1.47l.88-4.11c.29-.29,0-.88-.59-1.18l-2.35-.88a1.29,1.29,0,0,0-1.47.29l-2.06,3.53c-.88-.29-1.76-.29-2.94-.59L180,26.62a.94.94,0,0,0-.88-.88h-2.94a.94.94,0,0,0-.88.88l-.59,4.11c-.88.29-1.76.29-2.65.59L170,27.8c-.29-.59-.88-.59-1.47-.59l-2.65,1.18c-.29,0-.59.59-.59,1.18l1.18,4.11a6.41,6.41,0,0,0-2.35,1.47l-3.53-2.35a.9.9,0,0,0-1.18,0l-2.06,2.06a.89.89,0,0,0,0,1.18l2.35,3.53c-.59.59-.88,1.47-1.47,2.06l-4.12-.88c-.29-.29-.88,0-1.18.59l-1.18,2.35c0,.59,0,1.18.59,1.47l3.53,2.06c-.29.88-.29,2.06-.59,2.94l-4.12.59a.94.94,0,0,0-.88.88v2.94a.78.78,0,0,0,.88.88l4.12.59a8.57,8.57,0,0,0,.59,2.64l-3.53,2.06a1.07,1.07,0,0,0-.59,1.47l1.18,2.64c0,.29.59.59,1.18.59l4.12-1.18a6.4,6.4,0,0,0,1.47,2.35l-2.35,3.53a1.31,1.31,0,0,0,0,1.47l2.06,1.76c.29.29.88.59,1.18.29L164.12,71a5.28,5.28,0,0,0,2.06,1.47l-.88,4.11c-.29.29,0,.88.59,1.18l2.35,1.18c.59,0,1.18,0,1.47-.59l2.06-3.53a8.71,8.71,0,0,0,2.94.59l.59,4.11a.94.94,0,0,0,.88.88h2.94a.94.94,0,0,0,.88-.88l.59-4.11a8.6,8.6,0,0,0,2.65-.59l2.06,3.53a1.07,1.07,0,0,0,1.47.59l2.65-1.18c.29,0,.59-.59.59-1.18l-1.18-4.11A6.41,6.41,0,0,0,191.19,71l3.53,2.64c.29.29.88,0,1.18-.29L198,71.58a1.31,1.31,0,0,0,0-1.47l-2.35-3.53a12.44,12.44,0,0,0,1.47-2.06l4.12,1.18a1.58,1.58,0,0,0,1.18-.88l1.18-2.35c0-.59,0-1.18-.59-1.47l-3.53-2.06c.29-.88.29-1.76.59-2.94l4.12-.59a.78.78,0,0,0,.88-.88V51.6a.94.94,0,0,0-.88-.88Zm-9.71,6.76a1.35,1.35,0,0,1-2.06.88l-6.77-4.41c-.88-.29-.88-1.18,0-1.76l6.77-4.41a1.52,1.52,0,0,1,2.06.88,21.42,21.42,0,0,1,.59,4.41,18,18,0,0,1-.59,4.41Zm-1.76-13.22a1.35,1.35,0,0,1-.88,2.06l-7.94,1.76c-.88.29-1.47-.29-1.18-1.18L184.42,39c.29-1.18,1.18-1.47,2.06-.88A19.43,19.43,0,0,1,190,40.73a19.41,19.41,0,0,1,2.65,3.53ZM173.24,36a16.86,16.86,0,0,1,8.82,0,1.35,1.35,0,0,1,.88,2.06l-4.41,7.05c-.59.88-1.47.88-1.76,0l-4.41-7.05a1.35,1.35,0,0,1,.88-2.06Zm8.82,17a4.41,4.41,0,0,1-8.82,0,4.42,4.42,0,0,1,8.82,0ZM168.83,37.79a1.35,1.35,0,0,1,2.06.88l1.76,7.93c.29.88-.29,1.47-1.47,1.47L163.54,46c-1.18-.29-1.47-1.18-.88-2.06a10.61,10.61,0,0,1,2.65-3.53,19.43,19.43,0,0,1,3.53-2.64Zm-8.24,19.39a18,18,0,0,1-.59-4.41,21.42,21.42,0,0,1,.59-4.41,1.26,1.26,0,0,1,2.06-.59l7.06,4.11a1.13,1.13,0,0,1,0,2.06l-7.06,4.11c-.88.59-1.76.29-2.06-.88Zm1.76,4.7a1.3,1.3,0,0,1,.88-2.06l7.94-2.06c.88-.29,1.47.29,1.47,1.47l-2.06,7.93a1.52,1.52,0,0,1-2.06.88A19.43,19.43,0,0,1,165,65.41c-1.47-1.76-2.65-3.53-2.65-3.53Zm19.41,7.93a18.05,18.05,0,0,1-4.41.59,21.49,21.49,0,0,1-4.41-.59,1.52,1.52,0,0,1-.88-2.06L176.48,61c.59-.88,1.47-.88,1.76,0l4.41,6.76c.59.88.29,1.76-.88,2.06Zm4.41-1.76c-.88.59-1.76.29-2.06-.88l-1.76-7.93c-.29-.88.29-1.47,1.47-1.18l7.94,1.76a1.52,1.52,0,0,1,.88,2.06A19.41,19.41,0,0,1,190,65.41a30.49,30.49,0,0,1-3.82,2.64Z"/>
      <path class="cls-8" d="M208.21,90.67a.76.76,0,0,0,.73.45l1.54-.16a.76.76,0,0,0,.57-.85l0-1.9c-.09-.5,0-1,1.45-1.82a1.33,1.33,0,0,1,1.31.08l1.81,1a.9.9,0,0,0,.81-.15L217.44,86a.79.79,0,0,0-.26-.95l-1.44-1.38a1,1,0,0,1-.28-1.18s.41-1.92,1.22-2.06l1.77-.41a.94.94,0,0,0,.57-.84l-.29-1.66a.59.59,0,0,0-.69-.46h0l-1.9.06c-.51.08-1.59-1.26-1.82-1.49a1.9,1.9,0,0,1,0-1.43l1-1.57a.86.86,0,0,0-.15-1.06l-1.33-.8a.76.76,0,0,0-1,0l-1.25,1.57c-.31.38-.91.74-2.26.19,0,0-1-.58-1.12-1.05l-.39-2a.76.76,0,0,0-.73-.45l-1.66.29a.59.59,0,0,0-.43.71v0l-.06,2c0,.71-1.15,1.46-1.38,1.69a1.25,1.25,0,0,1-1.43,0l-1.7-1.13a.93.93,0,0,0-.95.26l-1.05,1.33a1,1,0,0,0,.26.95l1.47,1.38c.86.65.35,1.58.18,2.26-.08.36-.22.73-1,.86l-1.89.53A.76.76,0,0,0,197,81l.29,1.66a.76.76,0,0,0,.61.58l2-.17c.71,0,1,.2,1.09.57a10.64,10.64,0,0,1,.62,1.05,1.06,1.06,0,0,1,.15,1.27l-1.13,1.7a.92.92,0,0,0,.26.94l1.21.92a.76.76,0,0,0,1,0l1.27-1.58a1.21,1.21,0,0,1,1.29-.38l1.08.32c.48,0,.73.22,1,.92l.53,1.89m3.86-11.16a4.18,4.18,0,0,1-3.44,4.61,3.88,3.88,0,0,1-4.56-3.06q0-.19-.05-.37a4,4,0,0,1,3.32-4.49,4,4,0,0,1,4.73,3.21l0,.1"/>
      <path class="cls-9" d="M241.13,49.08a.69.69,0,0,0,0-.91L240,46.84a.81.81,0,0,0-.91,0L237,48.16c-.44-.29-1-.68-1.41-1l.66-2.52a.62.62,0,0,0-.33-.74l-1.51-.7a.57.57,0,0,0-.83.23l-1.47,2.21a5.3,5.3,0,0,0-1.62-.44l-.25-2.56a.62.62,0,0,0-.61-.66H227.9c-.27-.1-.55.16-.66.43l-.58,2.61a5.35,5.35,0,0,0-1.65.29L223.76,43a.92.92,0,0,0-.8-.31l-1.67.65a.62.62,0,0,0-.4.71l.52,2.48c-.47.25-.94.68-1.41.94l-2-1.64a.59.59,0,0,0-.82.05L215.93,47a.59.59,0,0,0-.13.81L217.25,50a7.42,7.42,0,0,0-1.07,1.5l-2.51-.84a.79.79,0,0,0-.84.42l-.71,1.52a.78.78,0,0,0,.32.92l2.12,1.37c-.21.54-.23,1.08-.44,1.62l-2.56.25a.79.79,0,0,0-.58.7l-.08,1.63a.79.79,0,0,0,.51.75l2.62.39a10.72,10.72,0,0,0,.28,1.83L212,63.32a.57.57,0,0,0-.31.81l.57,1.57a.85.85,0,0,0,.8.49l2.58-.61.75,1.4-1.64,2a.85.85,0,0,0,.05.82L216,71.15a.69.69,0,0,0,.81.13L219,69.82c.44.29,1,.68,1.41,1l-.66,2.52a.62.62,0,0,0,.33.74l1.6.8a.78.78,0,0,0,.83-.24l1.37-2.12c.54,0,1.08.23,1.63.26l.15,2.65a.79.79,0,0,0,.7.58l1.72.17a1.1,1.1,0,0,0,.66-.61L229.2,73c.64-.06,1.19-.22,1.83-.28L232.21,75a.62.62,0,0,0,.8.31l1.57-.57a.74.74,0,0,0,.49-.8l-.52-2.48A6.53,6.53,0,0,0,236,70.5l2,1.64a.61.61,0,0,0,.91,0l1.23-1.13a.61.61,0,0,0,0-.91L238.71,68a4.54,4.54,0,0,0,1.07-1.5l2.51.84A.62.62,0,0,0,243,67l.8-1.6a.92.92,0,0,0-.23-.83L241.4,63.1a4.64,4.64,0,0,0,.34-1.53l2.65-.34c.28-.08.56-.34.57-.52L245,58.9a.62.62,0,0,0-.61-.66l-2.53-.48a9.9,9.9,0,0,0-.19-1.74l2.15-1.27a.66.66,0,0,0,.41-.89l-.56-1.57a.57.57,0,0,0-.8-.31l-2.57.43-.75-1.4,1.55-1.93m-8.54,5.66a6.26,6.26,0,0,1-.42,9.06,6.2,6.2,0,0,1-8.84-.62,6.27,6.27,0,1,1,9.25-8.44"/>
    </g>
    <g>
      <path class="cls-1" d="M116,87q-4.3-.17-6.49-2.44t-2.19-7.42V67.08q0-8-5.29-8.81V56.1q5.29-.74,5.29-8.23V37.23q0-5.15,2.19-7.42T116,27.37v2.85a5.13,5.13,0,0,0-4.2,1.93q-1.22,1.76-1.22,6.06v9.93q0,7.52-4.91,9v.14q4.91,1.56,4.91,9.52v9.35q0,4.3,1.22,6.06a5.13,5.13,0,0,0,4.2,1.93Z"/>
      <path class="cls-1" d="M280,83.79a5.13,5.13,0,0,0,4.2-1.93q1.22-1.76,1.22-6.06V66.44q0-8,4.91-9.52v-.14q-4.91-1.49-4.91-9V37.84q0-4.3-1.22-6.06a5.13,5.13,0,0,0-4.2-1.93V27q4.3.17,6.49,2.44t2.19,7.42V47.5q0,7.49,5.29,8.23V57.9q-5.29.78-5.29,8.81V76.77q0,5.15-2.19,7.42T280,86.63Z"/>
    </g>
  </g>
</svg>
