<svg xmlns="http://www.w3.org/2000/svg" viewBox="0 0 400 140">
  <defs>
    <style>
      .cls-1, .cls-2, .cls-5 {
        fill: none;
        stroke-miterlimit: 10;
        stroke-width: 2px;
      }

      .cls-1 {
        stroke: #c2c2c2;
      }

      .cls-2 {
        stroke: #868787;
      }

      .cls-3 {
        fill: #55d2f6;
      }

      .cls-4 {
        fill: #2bc7f4;
      }

      .cls-5 {
        stroke: #fff;
      }

      .cls-6 {
        fill: #fff;
      }

      .cls-7 {
        fill: #ababab;
      }

      .cls-8 {
        fill: #868787;
      }
    </style>
  </defs>
  <title>ms365enterprise-developer-graph</title>
  <g id="ICONS">
    <g>
      <line class="cls-1" x1="130.75" y1="69.5" x2="177.25" y2="26.5"/>
      <line class="cls-1" x1="328.25" y1="70.5" x2="374.75" y2="27.5"/>
      <line class="cls-1" x1="106.25" y1="111" x2="63.75" y2="68.5"/>
      <line class="cls-1" x1="242.25" y1="112" x2="199.75" y2="69.5"/>
      <polyline class="cls-2" points="23.25 96.5 96.25 20.5 194.25 121.5 299.25 20.5 383.75 101"/>
      <g>
        <g>
          <path class="cls-3" d="M222.75,66a23.5,23.5,0,0,1-47,0c0-.17,0-.33,0-.5a23.5,23.5,0,0,1,47,0C222.75,65.67,222.75,65.83,222.75,66Z"/>
          <path class="cls-4" d="M222.75,66a23.5,23.5,0,0,1-47,0v-.5h47C222.75,65.67,222.75,65.83,222.75,66Z"/>
        </g>
        <polyline class="cls-5" points="183.75 70.5 192.25 62 198.75 68.5 214.75 52.5"/>
        <line class="cls-5" x1="180.75" y1="74.5" x2="215.75" y2="74.5"/>
      </g>
      <g>
        <g>
          <path class="cls-3" d="M359.25,67a23.5,23.5,0,0,1-47,0c0-.17,0-.33,0-.5a23.5,23.5,0,0,1,47,0C359.25,66.67,359.25,66.83,359.25,67Z"/>
          <path class="cls-4" d="M359.25,67a23.5,23.5,0,0,1-47,0v-.5h47C359.25,66.67,359.25,66.83,359.25,67Z"/>
        </g>
        <rect class="cls-5" x="324.25" y="53.5" width="8" height="29"/>
        <rect class="cls-5" x="340.25" y="56.5" width="8" height="26"/>
        <rect class="cls-5" x="332.25" y="66.5" width="8" height="16"/>
      </g>
      <g>
        <g>
          <path class="cls-3" d="M86.25,67a23.5,23.5,0,0,1-47,0c0-.17,0-.33,0-.5a23.5,23.5,0,0,1,47,0C86.25,66.67,86.25,66.83,86.25,67Z"/>
          <path class="cls-4" d="M86.25,67a23.5,23.5,0,0,1-47,0v-.5h47C86.25,66.67,86.25,66.83,86.25,67Z"/>
        </g>
        <g>
          <g>
            <path class="cls-5" d="M73.54,60a9.7,9.7,0,0,1-1.87,5.74,10.3,10.3,0,0,1-1.17,1.37,22.93,22.93,0,0,0-4.74,8.35h-7s-.37-.92-1.19-2.64a22.17,22.17,0,0,0-3.75-5.68v0l-.06-.06-.19-.19,0,0h0a10.21,10.21,0,0,1-.9-1.08l-.27-.39A9.76,9.76,0,0,1,50.75,60a9.49,9.49,0,0,1,.46-3,10.15,10.15,0,0,1,3.21-4.72c.27-.23,2.06-1.37,2.22-1.45.32-.16.65-.31,1-.44a12.47,12.47,0,0,1,4.49-.82l1.29.07L65,50c.09,0,1.64.49,2,.62l.87.4a11.9,11.9,0,0,1,1.08.63A10.09,10.09,0,0,1,73.54,60Z"/>
            <polygon class="cls-6" points="64.75 85.5 59.75 85.5 57.81 83.5 66.75 83.5 64.75 85.5"/>
          </g>
          <rect class="cls-6" x="57.75" y="77.5" width="9" height="1"/>
          <rect class="cls-6" x="57.75" y="79.5" width="9" height="1"/>
          <rect class="cls-6" x="57.75" y="81.5" width="9" height="1"/>
        </g>
      </g>
      <g>
        <g>
          <path class="cls-7" d="M291.25,67a23.5,23.5,0,0,1-47,0c0-.17,0-.33,0-.5a23.5,23.5,0,0,1,47,0C291.25,66.67,291.25,66.83,291.25,67Z"/>
          <path class="cls-8" d="M291.25,67a23.5,23.5,0,0,1-47,0v-.5h47C291.25,66.67,291.25,66.83,291.25,67Z"/>
        </g>
        <path class="cls-5" d="M280.38,53.5H255.12a1.88,1.88,0,0,0-1.87,1.87V73.63a1.88,1.88,0,0,0,1.87,1.87h3.13v7l7-7h15.13a1.88,1.88,0,0,0,1.87-1.87V55.37A1.88,1.88,0,0,0,280.38,53.5Z"/>
      </g>
      <g>
        <path class="cls-7" d="M154.25,67a23.5,23.5,0,0,1-47,0c0-.17,0-.33,0-.5a23.5,23.5,0,0,1,47,0C154.25,66.67,154.25,66.83,154.25,67Z"/>
        <path class="cls-8" d="M154.25,67a23.5,23.5,0,0,1-47,0v-.5h47C154.25,66.67,154.25,66.83,154.25,67Z"/>
        <g>
          <circle class="cls-5" cx="130.75" cy="59.5" r="7.71"/>
          <path class="cls-5" d="M118.75,79.5a12,12,0,0,1,24,0"/>
        </g>
      </g>
      <circle class="cls-4" cx="299.25" cy="21.5" r="7"/>
      <circle class="cls-4" cx="97.25" cy="21.5" r="7"/>
      <circle class="cls-8" cx="194.25" cy="118.5" r="7"/>
      <circle class="cls-8" cx="381.25" cy="100.5" r="7"/>
      <circle class="cls-8" cx="20.75" cy="100.5" r="7"/>
    </g>
  </g>
</svg>
